<svg xmlns="http://www.w3.org/2000/svg" width="337.766" height="400.614" viewBox="0 0 337.766 400.614"><g transform="translate(-336.839 -3002.446)"><rect width="315.637" height="394.547" transform="translate(356.968 3006.514)" fill="#3f7040" stroke="#172413" stroke-miterlimit="10" stroke-width="4"/><path d="M409.846,3024.872l-25.294-.282-18.068,35.19v207.134l13.125,12.147,8.556,9.438v90.977h268.78V3116.824l-48.629-1.479V3014.982H409.846" fill="#3f7040" stroke="#58b65a" stroke-miterlimit="10" stroke-width="4"/><path d="M420.813,3025.89v42.844H374.666v185.522l19.773,20.515V3371l254.628-1.044V3128.882H597.633V3023.491H414.473" fill="#3f7040" stroke="#58b65a" stroke-miterlimit="10" stroke-width="4"/><path d="M432.582,3071.437h37.276v53.807h57.5v50.1H429.52V3072.319" fill="none" stroke="#58b65a" stroke-miterlimit="10" stroke-width="4"/><path d="M441.222,3081.282H456.91v55.443h53.029v31.49H449.578l-14.747-14.747V3082.23Z" fill="none" stroke="#58b65a" stroke-miterlimit="10" stroke-width="4"/><path d="M503.219,3146.6v13.67h-46.4l-13.831-13.831v-54.432l9.631,54.593h50.6" fill="#3f7040" stroke="#58b65a" stroke-miterlimit="10" stroke-width="4"/><path d="M429.773,3058.875h52.761v50.175h42.394v83.373H409.446v-128.24H434.7" fill="none" stroke="#58b65a" stroke-miterlimit="10" stroke-width="4"/><path d="M411.852,3287.463v44.5h94.177l-3.852-22.021-19.641-21.962Z" fill="none" stroke="#58b65a" stroke-miterlimit="10" stroke-width="4"/><rect width="36.01" height="24.901" transform="translate(420.813 3298.323)" fill="none" stroke="#58b65a" stroke-miterlimit="10" stroke-width="4"/><path d="M550.749,3174.592l-30.321,30.321H391.881V3071.437" fill="none" stroke="#58b65a" stroke-miterlimit="10" stroke-width="4"/><path d="M582.954,3117.821v-81.45H560.03v73.58" fill="none" stroke="#58b65a" stroke-miterlimit="10" stroke-width="4"/><path d="M546.846,3114.282V3032h44.444v107.031h17.027v57.034H581.689l-34.457,35.218H384.552V3072.319" fill="none" stroke="#58b65a" stroke-miterlimit="10" stroke-width="4"/><path d="M429.773,3047.185h66.244v49.371H527.7v-49.371h10.921v-11.66H433.7v9.184" fill="none" stroke="#58b65a" stroke-miterlimit="10" stroke-width="4"/><path d="M380.9,3242.583H553.542l29.111-29.111H601.9v144.813H403.5v-102.7" fill="none" stroke="#58b65a" stroke-miterlimit="10" stroke-width="4"/><path d="M529.805,3225.106l41.656-41.656h25.813v-44.417" fill="#3f7040" stroke="#58b65a" stroke-miterlimit="10" stroke-width="4"/><path d="M456.823,3298.323H478.44l20.879,24.9h-42.5" fill="none" stroke="#58b65a" stroke-miterlimit="10" stroke-width="4"/><path d="M477.742,3314.978l4.792,7.526Z" fill="none" stroke="#58b65a" stroke-miterlimit="10" stroke-width="4"/><path d="M441.222,3283.851" fill="none" stroke="#58b65a" stroke-miterlimit="10" stroke-width="4"/><rect width="12.225" height="40.661" transform="translate(505.206 3046.997)" fill="none" stroke="#58b65a" stroke-miterlimit="10" stroke-width="4"/><path d="M495.917,3285.56l20.608,20.608h21.369v-22.317Z" fill="none" stroke="#58b65a" stroke-miterlimit="10" stroke-width="4"/><path d="M590.294,3339.145v11.021H429.52" fill="#3f7040" stroke="#58b65a" stroke-miterlimit="10" stroke-width="4"/><path d="M590.913,3259.8v-33.525c-7.864,0-36.278,36.278-36.278,36.278" fill="#3f7040" stroke="#58b65a" stroke-miterlimit="10" stroke-width="4"/><line x2="94.68" transform="translate(420.114 3184.167)" fill="#3f7040" stroke="#58b65a" stroke-miterlimit="10" stroke-width="4"/><line x2="17.278" y2="17.278" transform="translate(384.552 3247.1)" fill="#3f7040" stroke="#58b65a" stroke-miterlimit="10" stroke-width="4"/><path d="M391.881,3031.646l-1.3,2.322L376.856,3058.4h32.59v-28.371Z" fill="#3f7040" stroke="#58b65a" stroke-miterlimit="10" stroke-width="4"/><path d="M519.245,3102.687l-3.743.043.066,9.643,3.742-.044Z" fill="#f0efec"/><path d="M528.6,3102.577l-3.742.043.066,9.643,3.742-.044Z" fill="#f0efec"/><path d="M537.965,3102.467l-3.742.044.066,9.643,3.742-.044Z" fill="#f0efec"/><path d="M547.326,3102.358l-3.742.044.066,9.642,3.742-.043Z" fill="#f0efec"/><path d="M556.685,3102.248l-3.742.044.066,9.643,3.742-.044Z" fill="#f0efec"/><path d="M566.046,3102.139l-3.742.043.066,9.643,3.742-.044Z" fill="#f0efec"/><path d="M575.406,3102.029l-3.742.044.066,9.643,3.742-.044Z" fill="#f0efec"/><path d="M584.767,3101.92l-3.742.043.066,9.643,3.743-.044Z" fill="#f0efec"/><path d="M519.294,3109.951l-3.742.044.016,2.378,3.742-.044Z" fill="#bab8af"/><path d="M528.655,3109.842l-3.742.043.016,2.378,3.742-.044Z" fill="#bab8af"/><path d="M538.015,3109.732l-3.742.043.016,2.378,3.742-.044Z" fill="#bab8af"/><path d="M547.375,3109.623l-3.742.044.016,2.377,3.742-.043Z" fill="#bab8af"/><path d="M556.735,3109.513l-3.742.044.016,2.378,3.742-.044Z" fill="#bab8af"/><path d="M566.1,3109.4l-3.743.044.017,2.378,3.742-.044Z" fill="#bab8af"/><path d="M575.456,3109.294l-3.742.044.016,2.378,3.742-.044Z" fill="#bab8af"/><path d="M584.817,3109.185l-3.742.043.016,2.378,3.743-.044Z" fill="#bab8af"/><path d="M519.9,3183.086l-3.742.043-.056-8.858,3.742-.043Z" fill="#f0efec"/><path d="M529.259,3182.979l-3.742.043-.056-8.858,3.742-.043Z" fill="#f0efec"/><path d="M538.619,3182.872l-3.742.043-.056-8.858,3.742-.043Z" fill="#f0efec"/><path d="M547.98,3182.765l-3.742.043-.056-8.858,3.742-.043Z" fill="#f0efec"/><path d="M557.34,3182.658l-3.742.043-.056-8.858,3.742-.043Z" fill="#f0efec"/><path d="M566.7,3182.551l-3.742.042-.056-8.858,3.743-.043Z" fill="#f0efec"/><path d="M576.06,3182.444l-3.742.043-.056-8.858,3.742-.043Z" fill="#f0efec"/><path d="M585.421,3182.336l-3.742.043-.056-8.858,3.742-.043Z" fill="#f0efec"/><path d="M519.856,3176.412l-3.742.043-.014-2.184,3.742-.043Z" fill="#bab8af"/><path d="M529.216,3176.305l-3.742.043-.014-2.184,3.742-.043Z" fill="#bab8af"/><path d="M538.577,3176.2l-3.742.043-.014-2.184,3.742-.043Z" fill="#bab8af"/><path d="M547.937,3176.091l-3.742.042-.014-2.184,3.742-.043Z" fill="#bab8af"/><path d="M557.3,3175.984l-3.742.043-.014-2.184,3.742-.043Z" fill="#bab8af"/><path d="M566.658,3175.877l-3.742.043-.014-2.184,3.743-.043Z" fill="#bab8af"/><path d="M576.018,3175.77l-3.742.043-.013-2.184,3.742-.043Z" fill="#bab8af"/><path d="M585.379,3175.663l-3.743.043-.014-2.184,3.742-.043Z" fill="#bab8af"/><path d="M590.294,3115.972l-.05-4.59-5.548.1.049,4.591Z" fill="#f0efec"/><path d="M590.418,3127.455l-.05-4.591-5.548.1.05,4.59Z" fill="#f0efec"/><path d="M590.542,3138.937l-.05-4.59-5.548.1.05,4.591Z" fill="#f0efec"/><path d="M590.665,3150.419l-.049-4.591-5.548.1.049,4.59Z" fill="#f0efec"/><path d="M590.789,3161.9l-.049-4.59-5.548.1.05,4.59Z" fill="#f0efec"/><path d="M590.913,3173.383l-.05-4.59-5.548.1.049,4.591Z" fill="#f0efec"/><path d="M586.114,3116.044l-.05-4.59-1.368.023.049,4.591Z" fill="#bab8af"/><path d="M586.238,3127.527l-.05-4.591-1.368.024.05,4.59Z" fill="#bab8af"/><path d="M586.362,3139.008l-.05-4.59-1.368.023.05,4.591Z" fill="#bab8af"/><path d="M586.486,3150.491l-.05-4.591-1.368.024.049,4.59Z" fill="#bab8af"/><path d="M586.609,3161.972l-.049-4.59-1.368.023.05,4.59Z" fill="#bab8af"/><path d="M586.733,3173.455l-.049-4.59-1.368.024.049,4.591Z" fill="#bab8af"/><rect width="69.136" height="68.73" rx="11.497" transform="translate(516.181 3108.761)" fill="#0c0909" stroke="#e1f1de" stroke-miterlimit="10" stroke-width="3"/><path d="M516.206,3115.972l-.05-4.59-5.548.1.049,4.591Z" fill="#f0efec"/><path d="M516.33,3127.455l-.05-4.591-5.548.1.05,4.59Z" fill="#f0efec"/><path d="M516.454,3138.937l-.05-4.59-5.548.1.05,4.591Z" fill="#f0efec"/><path d="M516.577,3150.419l-.049-4.591-5.548.1.049,4.59Z" fill="#f0efec"/><path d="M516.7,3161.9l-.049-4.59-5.548.1.05,4.59Z" fill="#f0efec"/><path d="M516.825,3173.383l-.049-4.59-5.548.1.049,4.591Z" fill="#f0efec"/><path d="M512.026,3116.044l-.05-4.59-1.368.023.049,4.591Z" fill="#bab8af"/><path d="M512.15,3127.527l-.05-4.591-1.368.024.05,4.59Z" fill="#bab8af"/><path d="M512.274,3139.008l-.05-4.59-1.368.023.05,4.591Z" fill="#bab8af"/><path d="M512.4,3150.491l-.05-4.591-1.368.024.049,4.59Z" fill="#bab8af"/><path d="M512.521,3161.972l-.049-4.59-1.368.023.05,4.59Z" fill="#bab8af"/><path d="M512.645,3173.455l-.049-4.59-1.368.024.049,4.591Z" fill="#bab8af"/><rect width="29.957" height="29.957" transform="translate(343.302 3005.568)" fill="#dfded8"/><rect width="37.598" height="26.372" rx="5.091" transform="translate(343.302 3084.743)" fill="#dfded8"/><rect width="37.598" height="26.372" rx="5.091" transform="translate(343.302 3116.073)" fill="#dfded8"/><rect width="29.957" height="9.156" rx="3.956" transform="translate(346.899 3124.831)" fill="#9f917a"/><rect width="37.598" height="22.248" rx="5.091" transform="translate(343.302 3147.66)" fill="#dfded8"/><rect width="31.323" height="11.089" rx="4.79" transform="translate(339.481 3186.589)" fill="#a3884e"/><rect width="31.323" height="11.089" rx="4.79" transform="translate(339.481 3203.647)" fill="#59bfc0"/><rect width="34.117" height="36.225" rx="5.091" transform="translate(343.302 3182.392)" fill="#dfded8"/><rect width="9.156" height="20.121" rx="3.956" transform="translate(339.481 3046.781)" fill="#dfded8"/><rect width="9.156" height="13.426" rx="2.408" transform="translate(350.264 3069.724) rotate(90)" fill="#dfded8"/><rect width="9.156" height="13.426" rx="2.408" transform="translate(350.264 3036.685) rotate(90)" fill="#dfded8"/><path d="M346.9,3036.685v44.909h5.106V3071.15h21.254v-21.932H352.005v-12.533" fill="#59bfc0"/><rect width="41.601" height="2.75" transform="translate(615.345 3014.987)" fill="#f4ba2a"/><rect width="41.601" height="2.75" transform="translate(615.346 3022.116)" fill="#f4ba2a"/><rect width="41.601" height="2.749" transform="translate(615.348 3029.246)" fill="#f4ba2a"/><rect width="41.6" height="2.749" transform="translate(615.35 3036.376)" fill="#f4ba2a"/><rect width="41.601" height="2.75" transform="translate(615.351 3043.506)" fill="#f4ba2a"/><rect width="41.601" height="2.75" transform="translate(615.353 3050.636)" fill="#f4ba2a"/><rect width="41.6" height="2.75" transform="translate(615.355 3057.766)" fill="#f4ba2a"/><rect width="41.6" height="2.749" transform="translate(615.356 3064.896)" fill="#f4ba2a"/><rect width="41.601" height="2.75" transform="translate(615.357 3072.025)" fill="#f4ba2a"/><rect width="41.601" height="2.75" transform="translate(615.359 3079.155)" fill="#f4ba2a"/><rect width="41.6" height="2.749" transform="translate(615.361 3086.285)" fill="#f4ba2a"/><rect width="41.6" height="2.75" transform="translate(615.362 3093.415)" fill="#f4ba2a"/><rect width="41.601" height="2.75" transform="translate(615.363 3100.545)" fill="#f4ba2a"/><rect width="41.601" height="2.75" transform="translate(615.366 3107.675)" fill="#f4ba2a"/><rect width="115.927" height="16.536" transform="translate(398.859 3368.771)" fill="#d9cbc4"/><rect width="86.123" height="3.133" transform="translate(402.341 3374.834)" fill="#451e06"/><rect width="18.445" height="3.133" transform="translate(492.164 3374.834)" fill="#451e06"/><rect width="0.653" height="3.22" transform="translate(402.341 3369.99)" fill="#451e06"/><rect width="0.653" height="3.22" transform="translate(405.195 3369.99)" fill="#451e06"/><rect width="0.653" height="3.22" transform="translate(408.05 3369.99)" fill="#451e06"/><rect width="0.653" height="3.22" transform="translate(410.905 3369.99)" fill="#451e06"/><rect width="0.653" height="3.22" transform="translate(413.76 3369.99)" fill="#451e06"/><rect width="0.653" height="3.22" transform="translate(416.615 3369.99)" fill="#451e06"/><rect width="0.653" height="3.22" transform="translate(419.47 3369.99)" fill="#451e06"/><rect width="0.653" height="3.22" transform="translate(422.325 3369.99)" fill="#451e06"/><rect width="0.653" height="3.22" transform="translate(425.18 3369.99)" fill="#451e06"/><rect width="0.653" height="3.22" transform="translate(428.034 3369.99)" fill="#451e06"/><rect width="0.653" height="3.22" transform="translate(430.889 3369.99)" fill="#451e06"/><rect width="0.653" height="3.22" transform="translate(433.744 3369.99)" fill="#451e06"/><rect width="0.653" height="3.22" transform="translate(436.599 3369.99)" fill="#451e06"/><rect width="0.653" height="3.22" transform="translate(439.454 3369.99)" fill="#451e06"/><rect width="0.653" height="3.22" transform="translate(442.309 3369.99)" fill="#451e06"/><rect width="0.653" height="3.22" transform="translate(445.164 3369.99)" fill="#451e06"/><rect width="0.653" height="3.22" transform="translate(448.018 3369.99)" fill="#451e06"/><rect width="0.653" height="3.22" transform="translate(450.873 3369.99)" fill="#451e06"/><rect width="0.653" height="3.22" transform="translate(453.728 3369.99)" fill="#451e06"/><rect width="0.653" height="3.22" transform="translate(456.583 3369.99)" fill="#451e06"/><rect width="0.653" height="3.22" transform="translate(459.438 3369.99)" fill="#451e06"/><rect width="0.653" height="3.22" transform="translate(462.293 3369.99)" fill="#451e06"/><rect width="0.653" height="3.22" transform="translate(465.148 3369.99)" fill="#451e06"/><rect width="0.653" height="3.22" transform="translate(468.003 3369.99)" fill="#451e06"/><rect width="0.653" height="3.22" transform="translate(470.857 3369.99)" fill="#451e06"/><rect width="0.653" height="3.22" transform="translate(473.712 3369.99)" fill="#451e06"/><rect width="0.653" height="3.22" transform="translate(476.567 3369.99)" fill="#451e06"/><rect width="0.653" height="3.22" transform="translate(479.422 3369.99)" fill="#451e06"/><rect width="0.653" height="3.22" transform="translate(482.277 3369.99)" fill="#451e06"/><rect width="0.653" height="3.22" transform="translate(485.132 3369.99)" fill="#451e06"/><rect width="0.653" height="3.22" transform="translate(487.987 3369.99)" fill="#451e06"/><rect width="0.653" height="3.22" transform="translate(490.842 3369.99)" fill="#451e06"/><rect width="0.653" height="3.22" transform="translate(493.696 3369.99)" fill="#451e06"/><rect width="0.653" height="3.22" transform="translate(496.551 3369.99)" fill="#451e06"/><rect width="0.653" height="3.22" transform="translate(499.406 3369.99)" fill="#451e06"/><rect width="0.653" height="3.22" transform="translate(502.261 3369.99)" fill="#451e06"/><rect width="0.653" height="3.22" transform="translate(505.116 3369.99)" fill="#451e06"/><rect width="0.653" height="3.22" transform="translate(507.971 3369.99)" fill="#451e06"/><rect width="0.653" height="3.22" transform="translate(510.826 3369.99)" fill="#451e06"/><rect width="0.653" height="3.22" transform="translate(402.341 3379.476)" fill="#451e06"/><rect width="0.653" height="3.22" transform="translate(405.195 3379.476)" fill="#451e06"/><rect width="0.653" height="3.22" transform="translate(408.05 3379.476)" fill="#451e06"/><rect width="0.653" height="3.22" transform="translate(410.905 3379.476)" fill="#451e06"/><rect width="0.653" height="3.22" transform="translate(413.76 3379.476)" fill="#451e06"/><rect width="0.653" height="3.22" transform="translate(416.615 3379.476)" fill="#451e06"/><rect width="0.653" height="3.22" transform="translate(419.47 3379.476)" fill="#451e06"/><rect width="0.653" height="3.22" transform="translate(422.325 3379.476)" fill="#451e06"/><rect width="0.653" height="3.22" transform="translate(425.18 3379.476)" fill="#451e06"/><rect width="0.653" height="3.22" transform="translate(428.034 3379.476)" fill="#451e06"/><rect width="0.653" height="3.22" transform="translate(430.889 3379.476)" fill="#451e06"/><rect width="0.653" height="3.22" transform="translate(433.744 3379.476)" fill="#451e06"/><rect width="0.653" height="3.22" transform="translate(436.599 3379.476)" fill="#451e06"/><rect width="0.653" height="3.22" transform="translate(439.454 3379.476)" fill="#451e06"/><rect width="0.653" height="3.22" transform="translate(442.309 3379.476)" fill="#451e06"/><rect width="0.653" height="3.22" transform="translate(445.164 3379.476)" fill="#451e06"/><rect width="0.653" height="3.22" transform="translate(448.018 3379.476)" fill="#451e06"/><rect width="0.653" height="3.22" transform="translate(450.873 3379.476)" fill="#451e06"/><rect width="0.653" height="3.22" transform="translate(453.728 3379.476)" fill="#451e06"/><rect width="0.653" height="3.22" transform="translate(456.583 3379.476)" fill="#451e06"/><rect width="0.653" height="3.22" transform="translate(459.438 3379.476)" fill="#451e06"/><rect width="0.653" height="3.22" transform="translate(462.293 3379.476)" fill="#451e06"/><rect width="0.653" height="3.22" transform="translate(465.148 3379.476)" fill="#451e06"/><rect width="0.653" height="3.22" transform="translate(468.003 3379.476)" fill="#451e06"/><rect width="0.653" height="3.22" transform="translate(470.857 3379.476)" fill="#451e06"/><rect width="0.653" height="3.22" transform="translate(473.712 3379.476)" fill="#451e06"/><rect width="0.653" height="3.22" transform="translate(476.567 3379.476)" fill="#451e06"/><rect width="0.653" height="3.22" transform="translate(479.422 3379.476)" fill="#451e06"/><rect width="0.653" height="3.22" transform="translate(482.277 3379.476)" fill="#451e06"/><rect width="0.653" height="3.22" transform="translate(485.132 3379.476)" fill="#451e06"/><rect width="0.653" height="3.22" transform="translate(487.987 3379.476)" fill="#451e06"/><rect width="0.653" height="3.22" transform="translate(490.842 3379.476)" fill="#451e06"/><rect width="0.653" height="3.22" transform="translate(493.696 3379.476)" fill="#451e06"/><rect width="0.653" height="3.22" transform="translate(496.551 3379.476)" fill="#451e06"/><rect width="0.653" height="3.22" transform="translate(499.406 3379.476)" fill="#451e06"/><rect width="0.653" height="3.22" transform="translate(502.261 3379.476)" fill="#451e06"/><rect width="0.653" height="3.22" transform="translate(505.116 3379.476)" fill="#451e06"/><rect width="0.653" height="3.22" transform="translate(507.971 3379.476)" fill="#451e06"/><rect width="0.653" height="3.22" transform="translate(510.826 3379.476)" fill="#451e06"/><rect width="136.58" height="20.971" transform="translate(404.968 3215.785)" fill="#040404" stroke="#ccd1c4" stroke-miterlimit="10" stroke-width="3"/><rect width="126.877" height="11.128" transform="translate(409.446 3220.921)" fill="#040404" stroke="#383033" stroke-miterlimit="10" stroke-width="3"/><line y2="11.128" transform="translate(432.582 3220.921)" fill="#040404" stroke="#383033" stroke-miterlimit="10" stroke-width="3"/><rect width="17.921" height="11.604" transform="translate(434.701 3047.185)" fill="#9c938a"/><rect width="17.921" height="11.604" transform="translate(434.701 3064.572)" fill="#9c938a"/><rect width="17.921" height="11.604" transform="translate(434.701 3081.959)" fill="#9c938a"/><rect width="17.921" height="11.604" transform="translate(434.701 3099.347)" fill="#9c938a"/><rect width="17.921" height="11.604" transform="translate(434.701 3116.734)" fill="#9c938a"/><rect width="17.921" height="11.604" transform="translate(434.701 3134.121)" fill="#9c938a"/><rect width="17.921" height="11.604" transform="translate(434.701 3151.509)" fill="#9c938a"/><rect width="13.889" height="133.053" transform="translate(420.813 3042.523)" fill="#b7a481"/><rect width="17.921" height="2.288" transform="translate(411.852 3044.708)" fill="#fff"/><rect width="17.921" height="2.288" transform="translate(411.852 3052.401)" fill="#fff"/><rect width="17.921" height="2.288" transform="translate(411.852 3060.093)" fill="#fff"/><rect width="17.921" height="2.288" transform="translate(411.852 3067.785)" fill="#fff"/><rect width="17.921" height="2.288" transform="translate(411.852 3075.477)" fill="#fff"/><rect width="17.921" height="2.288" transform="translate(411.852 3083.169)" fill="#fff"/><rect width="17.921" height="2.288" transform="translate(411.852 3090.862)" fill="#fff"/><rect width="17.921" height="2.288" transform="translate(411.852 3099.301)" fill="#fff"/><rect width="17.921" height="2.288" transform="translate(411.852 3106.993)" fill="#fff"/><rect width="17.921" height="2.288" transform="translate(411.852 3114.686)" fill="#fff"/><rect width="17.921" height="2.288" transform="translate(411.852 3122.378)" fill="#fff"/><rect width="17.921" height="2.288" transform="translate(411.852 3130.07)" fill="#fff"/><rect width="17.921" height="2.288" transform="translate(411.852 3137.762)" fill="#fff"/><rect width="17.921" height="2.288" transform="translate(411.852 3145.455)" fill="#fff"/><rect width="136.58" height="20.971" transform="translate(404.968 3253.385)" fill="#040404" stroke="#ccd1c4" stroke-miterlimit="10" stroke-width="3"/><rect width="126.877" height="11.128" transform="translate(409.446 3258.521)" fill="#040404" stroke="#383033" stroke-miterlimit="10" stroke-width="3"/><line y2="11.128" transform="translate(432.582 3258.521)" fill="#040404" stroke="#383033" stroke-miterlimit="10" stroke-width="3"/><path d="M542.781,3052.893l-.009-3.014,6.21-.011.009,3.014Z" fill="#387c36"/><path d="M542.795,3057.4l-.009-3.014,6.21-.011.009,3.014Z" fill="#387c36"/><path d="M542.809,3061.9l-.009-3.014,6.21-.011.009,3.014Z" fill="#387c36"/><path d="M542.824,3066.4l-.009-3.014,6.21-.011.009,3.014Z" fill="#387c36"/><path d="M542.838,3070.907l-.01-3.014,6.21-.011.009,3.014Z" fill="#387c36"/><path d="M542.852,3075.411l-.01-3.014,6.21-.011.009,3.014Z" fill="#387c36"/><path d="M577.893,3083.8l3.958-.007.015,4.656-3.958.008Z" fill="#387c36"/><path d="M571.978,3083.811l3.958-.008.014,4.657-3.958.007Z" fill="#387c36"/><path d="M566.064,3083.822l3.958-.008.015,4.656-3.958.007Z" fill="#387c36"/><path d="M560.15,3083.833l3.958-.007.015,4.656-3.958.007Z" fill="#387c36"/><path d="M554.236,3083.844l3.958-.008.015,4.656-3.958.007Z" fill="#387c36"/><path d="M548.322,3083.854l3.958-.007.015,4.656-3.958.007Z" fill="#387c36"/><path d="M577.772,3045.755l3.958-.007.015,4.656-3.958.007Z" fill="#387c36"/><path d="M571.857,3045.765l3.958-.007.015,4.656-3.958.007Z" fill="#387c36"/><path d="M565.944,3045.776l3.958-.007.014,4.656-3.958.007Z" fill="#387c36"/><path d="M560.03,3045.787l3.958-.007.015,4.656-3.958.007Z" fill="#387c36"/><path d="M554.116,3045.8l3.958-.007.015,4.656-3.958.008Z" fill="#387c36"/><path d="M548.2,3045.809l3.958-.007.015,4.656-3.958.007Z" fill="#387c36"/><path d="M542.867,3079.914l-.009-3.014,6.21-.011.009,3.014Z" fill="#387c36"/><path d="M581.077,3081.7l-.093-29.244,1.471,0,.093,29.244Z" fill="#387c36"/><path d="M547.58,3081.762l-.093-29.244,1.471,0,.092,29.244Z" fill="#387c36"/><path d="M551.882,3049.339l26.408-.049,0,1.12-26.408.048Z" fill="#387c36"/><path d="M551.991,3083.841l26.408-.049,0,1.12-26.408.049Z" fill="#387c36"/><path d="M542.881,3084.418l-.009-3.014,6.21-.011.009,3.014Z" fill="#387c36"/><path d="M581.084,3083.794l-.106-33.388-32,.059.106,33.388Z" fill="#0c0909" stroke="#e1f1de" stroke-miterlimit="10" stroke-width="3"/><path d="M542.068,3052.281l-.005-1.8,6.92-.013.006,1.8Z" fill="#f0efec"/><path d="M542.082,3056.793l-.006-1.8,6.921-.013.005,1.8Z" fill="#f0efec"/><path d="M542.1,3061.305l-.006-1.8,6.921-.013.006,1.8Z" fill="#f0efec"/><path d="M542.111,3065.817l-.005-1.8,6.921-.013.006,1.8Z" fill="#f0efec"/><path d="M542.125,3070.329l-.006-1.8,6.921-.012.006,1.8Z" fill="#f0efec"/><path d="M542.139,3074.841l-.005-1.8,6.921-.013.005,1.8Z" fill="#f0efec"/><path d="M542.154,3079.353l-.006-1.8,6.921-.013.006,1.8Z" fill="#f0efec"/><path d="M542.168,3083.865l-.006-1.8,6.921-.013.005,1.8Z" fill="#f0efec"/><path d="M547.282,3052.271l-.006-1.8,1.706,0,.006,1.8Z" fill="#bab8af"/><rect width="1.707" height="1.804" transform="matrix(1, -0.003, 0.003, 1, 547.291, 3054.98)" fill="#bab8af"/><path d="M547.311,3061.3l-.005-1.8,1.706,0,.006,1.8Z" fill="#bab8af"/><path d="M547.325,3065.808l-.005-1.8,1.706,0,.006,1.8Z" fill="#bab8af"/><path d="M547.34,3070.32l-.006-1.8,1.706,0,.006,1.8Z" fill="#bab8af"/><path d="M547.353,3074.832l-.005-1.8,1.707,0,.005,1.8Z" fill="#bab8af"/><path d="M547.368,3079.344l-.006-1.8,1.706,0,.006,1.8Z" fill="#bab8af"/><path d="M547.382,3083.856l-.006-1.8,1.707,0,.005,1.8Z" fill="#bab8af"/><path d="M580.986,3052.823l-.009-3.014,6.116-.011.009,3.014Z" fill="#387c36"/><path d="M581,3057.326l-.01-3.014,6.116-.011.01,3.014Z" fill="#387c36"/><path d="M581.015,3061.83l-.01-3.014,6.116-.012.009,3.014Z" fill="#387c36"/><path d="M581.029,3066.333l-.01-3.014,6.116-.011.009,3.014Z" fill="#387c36"/><path d="M581.043,3070.837l-.01-3.014,6.116-.011.01,3.014Z" fill="#387c36"/><path d="M581.057,3075.341l-.01-3.014,6.116-.011.01,3.014Z" fill="#387c36"/><path d="M581.071,3079.844l-.01-3.014,6.116-.011.009,3.014Z" fill="#387c36"/><path d="M581.086,3084.347l-.01-3.014,6.116-.012.009,3.014Z" fill="#387c36"/><path d="M587.9,3052.2l-.005-1.8-6.921.013.006,1.8Z" fill="#f0efec"/><path d="M587.919,3056.708l-.006-1.8-6.921.013.005,1.8Z" fill="#f0efec"/><path d="M587.933,3061.221l-.005-1.8-6.921.013.006,1.8Z" fill="#f0efec"/><path d="M587.948,3065.733l-.005-1.8-6.921.013.005,1.8Z" fill="#f0efec"/><path d="M587.962,3070.245l-.006-1.8-6.921.013.005,1.8Z" fill="#f0efec"/><path d="M587.976,3074.757l-.006-1.8-6.92.013.005,1.8Z" fill="#f0efec"/><path d="M587.99,3079.269l-.005-1.8-6.921.013.006,1.8Z" fill="#f0efec"/><path d="M588,3083.781l-.006-1.8-6.92.013.005,1.8Z" fill="#f0efec"/><path d="M582.69,3052.206l-.005-1.8-1.707,0,.006,1.8Z" fill="#bab8af"/><rect width="1.707" height="1.804" transform="translate(580.993 3054.918) rotate(-0.183)" fill="#bab8af"/><path d="M582.719,3061.23l-.005-1.8-1.707,0,.006,1.8Z" fill="#bab8af"/><rect width="1.707" height="1.804" transform="matrix(1, -0.003, 0.003, 1, 581.021, 3063.943)" fill="#bab8af"/><path d="M582.748,3070.255l-.006-1.8-1.706,0,.005,1.8Z" fill="#bab8af"/><path d="M582.762,3074.766l-.006-1.8-1.706,0,.005,1.8Z" fill="#bab8af"/><rect width="1.707" height="1.804" transform="matrix(1, -0.003, 0.003, 1, 581.064, 3077.479)" fill="#bab8af"/><path d="M582.791,3083.791l-.006-1.8-1.706,0,.005,1.8Z" fill="#bab8af"/><path d="M551.335,3045.189l-2.369,0,.017,5.27,2.369,0Z" fill="#f0efec"/><path d="M557.26,3045.179l-2.369,0,.017,5.27,2.369,0Z" fill="#f0efec"/><path d="M563.186,3045.168l-2.369,0,.017,5.27,2.369,0Z" fill="#f0efec"/><path d="M569.111,3045.157l-2.369,0,.017,5.27,2.369,0Z" fill="#f0efec"/><path d="M575.036,3045.146l-2.369,0,.017,5.27,2.369,0Z" fill="#f0efec"/><path d="M580.961,3045.135l-2.369,0,.017,5.27,2.369,0Z" fill="#f0efec"/><rect width="2.369" height="1.3" transform="translate(548.979 3049.165) rotate(-0.114)" fill="#bab8af"/><path d="M557.273,3049.149l-2.369,0,0,1.3,2.369,0Z" fill="#bab8af"/><path d="M563.2,3049.138l-2.369,0,0,1.3,2.369,0Z" fill="#bab8af"/><path d="M569.123,3049.128l-2.369,0,0,1.3,2.369,0Z" fill="#bab8af"/><rect width="2.369" height="1.3" transform="matrix(1, -0.002, 0.002, 1, 572.681, 3049.121)" fill="#bab8af"/><path d="M580.974,3049.106l-2.369,0,0,1.3,2.369,0Z" fill="#bab8af"/><path d="M551.474,3089.118l-2.369,0-.017-5.27,2.369,0Z" fill="#f0efec"/><path d="M557.4,3089.108l-2.369,0-.017-5.27,2.369,0Z" fill="#f0efec"/><path d="M563.324,3089.1l-2.369,0-.017-5.27,2.369,0Z" fill="#f0efec"/><path d="M569.25,3089.086l-2.369,0-.017-5.27,2.368,0Z" fill="#f0efec"/><path d="M575.175,3089.075l-2.369,0-.017-5.27,2.369,0Z" fill="#f0efec"/><path d="M581.1,3089.064l-2.369,0-.017-5.27,2.369,0Z" fill="#f0efec"/><path d="M551.461,3085.148l-2.369,0,0-1.3,2.369,0Z" fill="#bab8af"/><path d="M557.387,3085.137l-2.369,0,0-1.3,2.369,0Z" fill="#bab8af"/><path d="M563.312,3085.126l-2.369,0,0-1.3,2.369,0Z" fill="#bab8af"/><path d="M569.237,3085.115l-2.369,0,0-1.3,2.368,0Z" fill="#bab8af"/><path d="M575.163,3085.1l-2.369,0,0-1.3,2.369,0Z" fill="#bab8af"/><path d="M581.088,3085.094l-2.369,0,0-1.3,2.369,0Z" fill="#bab8af"/><rect width="49.629" height="26.902" transform="translate(402.994 3002.446)" fill="#9c938a"/><rect width="8.356" height="9.111" transform="translate(406.117 3015.76)" fill="#f4ba2a"/><rect width="8.356" height="9.111" transform="translate(406.117 3006.031)" fill="#f4ba2a"/><rect width="8.356" height="9.111" transform="translate(417.819 3015.76)" fill="#f4ba2a"/><rect width="8.356" height="9.111" transform="translate(417.819 3006.031)" fill="#f4ba2a"/><rect width="8.356" height="9.111" transform="translate(429.52 3015.76)" fill="#f4ba2a"/><rect width="8.356" height="9.111" transform="translate(429.52 3006.031)" fill="#f4ba2a"/><rect width="8.356" height="9.111" transform="translate(441.222 3015.76)" fill="#f4ba2a"/><rect width="8.356" height="9.111" transform="translate(441.222 3006.031)" fill="#f4ba2a"/><rect width="256.614" height="5.564" transform="translate(608.317 3380.063) rotate(-90)" fill="#040404" stroke="#383033" stroke-miterlimit="10" stroke-width="3"/><line x2="5.564" transform="translate(608.317 3333.268)" fill="#040404" stroke="#383033" stroke-miterlimit="10" stroke-width="3"/><rect width="256.614" height="5.564" transform="translate(621.727 3380.063) rotate(-90)" fill="#040404" stroke="#383033" stroke-miterlimit="10" stroke-width="3"/><line x2="5.564" transform="translate(621.727 3333.268)" fill="#040404" stroke="#383033" stroke-miterlimit="10" stroke-width="3"/><rect width="256.614" height="5.564" transform="translate(635.657 3380.063) rotate(-90)" fill="#040404" stroke="#383033" stroke-miterlimit="10" stroke-width="3"/><line x2="5.564" transform="translate(635.657 3333.268)" fill="#040404" stroke="#383033" stroke-miterlimit="10" stroke-width="3"/><rect width="256.614" height="5.564" transform="translate(649.067 3380.062) rotate(-90)" fill="#040404" stroke="#383033" stroke-miterlimit="10" stroke-width="3"/><line x2="5.564" transform="translate(649.067 3333.268)" fill="#040404" stroke="#383033" stroke-miterlimit="10" stroke-width="3"/><circle cx="9.887" cy="9.887" r="9.887" transform="translate(374.666 3291.883)" fill="#2d5b7b"/><path d="M384.552,3311.657a9.887,9.887,0,0,1,0-19.774" fill="#ccdcd4"/><circle cx="9.887" cy="9.887" r="9.887" transform="translate(374.666 3320.46)" fill="#2d5b7b"/><path d="M384.552,3340.233a9.886,9.886,0,0,1,0-19.773" fill="#ccdcd4"/><circle cx="9.887" cy="9.887" r="9.887" transform="translate(374.666 3351.275)" fill="#2d5b7b"/><path d="M384.552,3371.048a9.887,9.887,0,0,1,0-19.773" fill="#ccdcd4"/><rect width="13.44" height="13.44" transform="translate(404.968 3294.184) rotate(-90)" fill="#ccdcd4"/><rect width="13.44" height="13.44" transform="translate(421.088 3294.184) rotate(-90)" fill="#ccdcd4"/><rect width="13.44" height="13.44" transform="translate(404.968 3326.206) rotate(-90)" fill="#ccdcd4"/><rect width="13.44" height="13.44" transform="translate(404.968 3326.206) rotate(-90)" fill="#ccdcd4"/><rect width="82.18" height="8.977" transform="translate(403.498 3334.026)" fill="#040404" stroke="#ccd1c4" stroke-miterlimit="10" stroke-width="3"/><rect width="76.342" height="4.763" transform="translate(406.192 3336.224)" fill="#040404" stroke="#383033" stroke-miterlimit="10" stroke-width="3"/><line y2="4.763" transform="translate(420.114 3336.224)" fill="#040404" stroke="#383033" stroke-miterlimit="10" stroke-width="3"/><rect width="13.44" height="13.44" transform="translate(404.968 3363.617) rotate(-90)" fill="#ccdcd4"/><rect width="13.44" height="13.44" transform="translate(421.088 3363.617) rotate(-90)" fill="#ccdcd4"/><rect width="13.44" height="13.44" transform="translate(404.968 3207.224) rotate(-90)" fill="#ccdcd4"/><rect width="13.44" height="13.44" transform="translate(421.088 3207.224) rotate(-90)" fill="#ccdcd4"/><rect width="13.44" height="13.44" transform="translate(503.219 3088.95) rotate(-90)" fill="#ccdcd4"/><rect width="13.44" height="13.44" transform="translate(519.339 3088.95) rotate(-90)" fill="#ccdcd4"/><rect width="13.44" height="13.44" transform="translate(584.193 3190.838)" fill="#ccdcd4"/><rect width="13.44" height="13.44" transform="translate(584.193 3206.958)" fill="#ccdcd4"/><rect width="22.259" height="32.418" transform="translate(551.882 3222.715)" fill="#f4ba2a"/><rect width="52.983" height="74.689" transform="translate(548.921 3261.577)" fill="#d1c3bc"/><rect width="41.874" height="64.801" transform="translate(555.4 3269.149)" fill="#998b74"/><circle cx="6.14" cy="6.14" r="6.14" transform="translate(385.742 3107.311)" fill="#f4ba2a"/><circle cx="6.14" cy="6.14" r="6.14" transform="translate(437.522 3280.013)" fill="#f4ba2a"/><circle cx="6.14" cy="6.14" r="6.14" transform="translate(438.68 3282.328)" fill="#f4ba2a"/><circle cx="6.14" cy="6.14" r="6.14" transform="translate(511.267 3189.927)" fill="#f4ba2a"/><circle cx="9.887" cy="9.887" r="9.887" transform="translate(493.904 3013.604)" fill="#2d5b7b"/><path d="M503.791,3033.378a9.887,9.887,0,1,1,0-19.774" fill="#ccdcd4"/><circle cx="9.887" cy="9.887" r="9.887" transform="translate(464.915 3013.604)" fill="#2d5b7b"/><path d="M474.8,3033.378a9.887,9.887,0,0,1,0-19.774" fill="#ccdcd4"/><circle cx="9.887" cy="9.887" r="9.887" transform="translate(522.893 3013.604)" fill="#2d5b7b"/><path d="M532.78,3033.378a9.887,9.887,0,1,1,0-19.774" fill="#ccdcd4"/><path d="M496.635,3320.357l-.009-2.216,6.21-.009.009,2.217Z" fill="#387c36"/><path d="M496.649,3323.668l-.009-2.216,6.21-.009.009,2.216Z" fill="#387c36"/><path d="M496.664,3326.98l-.009-2.216,6.21-.009.009,2.216Z" fill="#387c36"/><path d="M496.678,3330.291l-.009-2.216,6.21-.008.009,2.216Z" fill="#387c36"/><path d="M496.692,3333.6l-.009-2.216,6.21-.009.009,2.216Z" fill="#387c36"/><path d="M496.707,3336.914l-.009-2.216,6.21-.009.009,2.216Z" fill="#387c36"/><path d="M531.747,3343.082l3.958-.005.015,3.424-3.958.006Z" fill="#387c36"/><path d="M525.833,3343.09l3.958-.006.014,3.424-3.958.005Z" fill="#387c36"/><path d="M519.919,3343.1l3.958-.006.015,3.424-3.958.005Z" fill="#387c36"/><path d="M514,3343.106l3.958-.006.015,3.424-3.958.005Z" fill="#387c36"/><path d="M508.09,3343.114l3.958-.006.015,3.424-3.958.005Z" fill="#387c36"/><path d="M502.177,3343.122l3.958-.005.015,3.424-3.959.005Z" fill="#387c36"/><path d="M531.626,3315.108l3.958-.005.015,3.424-3.958.005Z" fill="#387c36"/><path d="M525.712,3315.116l3.958-.005.015,3.424-3.958.005Z" fill="#387c36"/><path d="M519.8,3315.124l3.958-.005.014,3.424-3.958.005Z" fill="#387c36"/><path d="M513.884,3315.132l3.958-.005.015,3.424-3.958.005Z" fill="#387c36"/><path d="M507.97,3315.14l3.958-.005.015,3.424-3.958.006Z" fill="#387c36"/><path d="M502.056,3315.148l3.958-.005.015,3.424-3.958.006Z" fill="#387c36"/><path d="M496.721,3340.225l-.009-2.216,6.21-.009.009,2.216Z" fill="#387c36"/><path d="M534.932,3341.538l-.093-21.5,1.471,0,.093,21.5Z" fill="#387c36"/><path d="M501.435,3341.584l-.093-21.5,1.471,0,.092,21.5Z" fill="#387c36"/><path d="M505.736,3317.744l26.408-.036,0,.824-26.408.035Z" fill="#387c36"/><path d="M505.845,3343.112l26.408-.036,0,.824-26.408.036Z" fill="#387c36"/><path d="M496.735,3343.537l-.009-2.217,6.21-.008.009,2.216Z" fill="#387c36"/><path d="M534.938,3343.078l-.106-24.55-32,.043.106,24.55Z" fill="#0c0909" stroke="#e1f1de" stroke-miterlimit="10" stroke-width="3"/><path d="M495.922,3319.907l-.005-1.326,6.92-.009.006,1.326Z" fill="#f0efec"/><path d="M495.937,3323.224l-.006-1.326,6.921-.01.005,1.326Z" fill="#f0efec"/><path d="M495.951,3326.542l-.006-1.327,6.921-.01.006,1.326Z" fill="#f0efec"/><path d="M495.965,3329.86l-.005-1.326,6.921-.01.006,1.326Z" fill="#f0efec"/><path d="M495.98,3333.177l-.006-1.326,6.921-.009.006,1.326Z" fill="#f0efec"/><path d="M495.994,3336.5l-.005-1.326,6.921-.01.005,1.326Z" fill="#f0efec"/><path d="M496.008,3339.813l-.006-1.326,6.921-.01.006,1.326Z" fill="#f0efec"/><path d="M496.022,3343.13l-.006-1.326,6.921-.009.005,1.326Z" fill="#f0efec"/><path d="M501.137,3319.9l-.006-1.327,1.706,0,.006,1.326Z" fill="#bab8af"/><path d="M501.151,3323.218l-.006-1.326,1.707,0,.005,1.326Z" fill="#bab8af"/><path d="M501.165,3326.535l-.005-1.326,1.706,0,.006,1.326Z" fill="#bab8af"/><path d="M501.179,3329.853l-.005-1.326,1.706,0,.006,1.326Z" fill="#bab8af"/><path d="M501.194,3333.17l-.006-1.326,1.706,0,.006,1.326Z" fill="#bab8af"/><path d="M501.208,3336.488l-.005-1.326,1.707,0,.005,1.326Z" fill="#bab8af"/><path d="M501.222,3339.806l-.006-1.326,1.706,0,.006,1.326Z" fill="#bab8af"/><path d="M501.237,3343.123l-.006-1.326,1.707,0,.005,1.326Z" fill="#bab8af"/><path d="M534.84,3320.305l-.009-2.216,6.116-.008.009,2.217Z" fill="#387c36"/><path d="M534.855,3323.617l-.01-2.216,6.116-.008.01,2.216Z" fill="#387c36"/><path d="M534.869,3326.928l-.01-2.216,6.116-.009.009,2.216Z" fill="#387c36"/><path d="M534.883,3330.24l-.01-2.216,6.116-.008.009,2.216Z" fill="#387c36"/><path d="M534.9,3333.551l-.01-2.216,6.116-.009.01,2.216Z" fill="#387c36"/><path d="M534.912,3336.862l-.01-2.216,6.116-.008.01,2.216Z" fill="#387c36"/><path d="M534.926,3340.174l-.01-2.216,6.116-.008.009,2.216Z" fill="#387c36"/><path d="M534.94,3343.485l-.01-2.216,6.116-.009.009,2.216Z" fill="#387c36"/><path d="M541.759,3319.845l-.005-1.326-6.921.009.006,1.327Z" fill="#f0efec"/><path d="M541.773,3323.162l-.006-1.326-6.921.01.005,1.326Z" fill="#f0efec"/><path d="M541.787,3326.48l-.005-1.326-6.921.01.006,1.326Z" fill="#f0efec"/><path d="M541.8,3329.8l-.005-1.326-6.921.01.005,1.326Z" fill="#f0efec"/><path d="M541.816,3333.115l-.006-1.326-6.921.01.005,1.326Z" fill="#f0efec"/><path d="M541.83,3336.433l-.006-1.326-6.92.009.005,1.326Z" fill="#f0efec"/><path d="M541.845,3339.751l-.005-1.327-6.921.01.006,1.327Z" fill="#f0efec"/><path d="M541.859,3343.068l-.006-1.326-6.92.009.005,1.326Z" fill="#f0efec"/><path d="M536.545,3319.852l-.005-1.326-1.707,0,.006,1.327Z" fill="#bab8af"/><path d="M536.559,3323.17l-.006-1.327-1.706,0,.005,1.326Z" fill="#bab8af"/><path d="M536.573,3326.487l-.005-1.326-1.707,0,.006,1.326Z" fill="#bab8af"/><path d="M536.588,3329.8l-.006-1.326-1.706,0,.005,1.326Z" fill="#bab8af"/><path d="M536.6,3333.123l-.006-1.327-1.706,0,.005,1.326Z" fill="#bab8af"/><path d="M536.616,3336.44l-.006-1.326-1.706,0,.005,1.326Z" fill="#bab8af"/><path d="M536.63,3339.758l-.005-1.326-1.707,0,.006,1.327Z" fill="#bab8af"/><path d="M536.645,3343.075l-.006-1.326-1.706,0,.005,1.326Z" fill="#bab8af"/><path d="M505.19,3314.693l-2.369,0,.017,3.875,2.369,0Z" fill="#f0efec"/><path d="M511.115,3314.685l-2.369,0,.017,3.875,2.369,0Z" fill="#f0efec"/><path d="M517.04,3314.677l-2.369,0,.017,3.875,2.369,0Z" fill="#f0efec"/><path d="M522.965,3314.669l-2.369,0,.017,3.875,2.369,0Z" fill="#f0efec"/><path d="M528.891,3314.661l-2.369,0,.017,3.875,2.369,0Z" fill="#f0efec"/><path d="M534.816,3314.653l-2.369,0,.017,3.875,2.369,0Z" fill="#f0efec"/><path d="M505.2,3317.612l-2.369,0,0,.956,2.369,0Z" fill="#bab8af"/><path d="M511.127,3317.6l-2.369,0,0,.956,2.369,0Z" fill="#bab8af"/><path d="M517.053,3317.6l-2.369,0,0,.956,2.369,0Z" fill="#bab8af"/><path d="M522.978,3317.588l-2.369,0,0,.955,2.369,0Z" fill="#bab8af"/><path d="M528.9,3317.58l-2.369,0,0,.956,2.369,0Z" fill="#bab8af"/><path d="M534.828,3317.572l-2.369,0,0,.955,2.369,0Z" fill="#bab8af"/><path d="M505.329,3346.993l-2.369,0-.017-3.875,2.369,0Z" fill="#f0efec"/><path d="M511.254,3346.985l-2.369,0-.017-3.875,2.369,0Z" fill="#f0efec"/><path d="M517.179,3346.977l-2.369,0-.017-3.875,2.369,0Z" fill="#f0efec"/><path d="M523.1,3346.969l-2.369,0-.017-3.875,2.368,0Z" fill="#f0efec"/><path d="M529.03,3346.961l-2.369,0-.017-3.875,2.369,0Z" fill="#f0efec"/><path d="M534.955,3346.953l-2.369,0-.017-3.875,2.369,0Z" fill="#f0efec"/><path d="M505.316,3344.073l-2.369,0,0-.956,2.369,0Z" fill="#bab8af"/><path d="M511.241,3344.065l-2.369,0,0-.956,2.369,0Z" fill="#bab8af"/><path d="M517.167,3344.057l-2.369,0,0-.956,2.369,0Z" fill="#bab8af"/><path d="M523.092,3344.05l-2.369,0,0-.956,2.368,0Z" fill="#bab8af"/><path d="M529.017,3344.041l-2.369,0,0-.956,2.369,0Z" fill="#bab8af"/><path d="M534.942,3344.033l-2.369,0,0-.955,2.369,0Z" fill="#bab8af"/><path d="M531.626,3133.987l12.492-12.492h14.091" fill="none" stroke="#e9cd44" stroke-miterlimit="10" stroke-width="3"/><path d="M534.626,3137.987l12.492-12.492h14.091" fill="none" stroke="#e9cd44" stroke-miterlimit="10" stroke-width="3"/><path d="M537.626,3141.987l12.492-12.492h14.091" fill="none" stroke="#e9cd44" stroke-miterlimit="10" stroke-width="3"/></g></svg>