<svg xmlns="http://www.w3.org/2000/svg" width="983.555" height="490.999" viewBox="0 0 983.555 490.999"><g transform="translate(-126.968 -1264.513)"><path d="M126.968,1394.357l306.667-55.544,676.888,38.945-140.5,91.157Z" fill="#808181"/><path d="M971.29,1577.222l-837.677-103.6-6.645-79.266,844.323,70.136" fill="#3f3c3f"/><path d="M563.737,1519.276v-86.738l-147.221-12.554v86.735l-282.9-33.1L144.9,1631.116l809.146,124.4,12.681-192.871Z" fill="#e1b10c"/><path d="M389.126,1380.3v41.656l208.849,14.551L815.383,1362.9v-29.1l-216.552,65.051Z" fill="#141414"/><path d="M599.226,1400.448l216.157-66.318V1272.5l-215.125,51.974" fill="#002947"/><path d="M601.517,1324.476l-2.292,75.972-210.1-16.1v-75.323l212.391,15.454" fill="#004c94"/><path d="M966.725,1470.2" fill="#f2c843"/><path d="M971.29,1464.493l-4.565,98.148,138.316-114.873,5.481-70.01L971.29,1464.493" fill="#151415"/><path d="M965.457,1562.641l139.584-114.873-11.764,150.251L954.045,1755.512" fill="#a27910"/><path d="M389.126,1309.022l213.128,15.86,213.128-52.38-162.628-7.989Z" fill="#2e7eb1"/></g></svg>