<svg xmlns="http://www.w3.org/2000/svg" width="154.98" height="102.949" viewBox="0 0 154.98 102.949"><g transform="translate(-740.196 -3028.44)"><path d="M740.267,3077.479l-.031,5.687a4.436,4.436,0,0,0,2.517,3.9l74.71,38.081a5.131,5.131,0,0,0,4.889-.141l66.2-38.883a4.447,4.447,0,0,0,2.26-3.871l-.316-3.63" fill="#100b0d"/><path d="M817.484,3119.8l-74.709-38.081a4.372,4.372,0,0,1-.121-7.86l72.093-39.294a5.133,5.133,0,0,1,4.919.026l68.819,38.491a4.363,4.363,0,0,1,.089,7.694l-66.2,38.883A5.131,5.131,0,0,1,817.484,3119.8Z" fill="#392d34"/><path d="M746.29,3066.846v9.607a4.1,4.1,0,0,0,2.328,3.605l69.087,35.214a4.741,4.741,0,0,0,4.521-.13l61.219-35.957a4.112,4.112,0,0,0,2.09-3.579v-7.025" fill="#100b0d"/><path d="M817.724,3107.829l-69.087-35.215a4.043,4.043,0,0,1-.111-7.269l66.667-36.336a4.743,4.743,0,0,1,4.549.024l63.639,35.594a4.035,4.035,0,0,1,.084,7.115l-61.22,35.957A4.742,4.742,0,0,1,817.724,3107.829Z" fill="#392d34"/><path d="M888.128,3079.008l-.12.065-8.278-4.249v-4.22l12.1,6.41-1.894,1.022c-.43.231-.9.438-1.309.706-.63.416-.446.621-.327,1.375q.807,5.11,1.165,10.272a24.248,24.248,0,0,1,3.584,2.25l2.1-.938-3.334-3.325a1.368,1.368,0,0,1-.311-.4,1.248,1.248,0,0,1-.064-.526c.075-3.469.282-6.933.49-10.4" fill="#9e9a93"/><line x2="3.225" y2="2.997" transform="translate(891.353 3087.767)" fill="#f2dd55"/><path d="M891.94,3078.352a3.347,3.347,0,0,0-1.2-3.076l-6.16-6.084a1.473,1.473,0,0,0-.842-.511,1.523,1.523,0,0,0-.855.274l-3.02,1.7a4.07,4.07,0,0,0,1.61,1.665,49.176,49.176,0,0,1,5.168,4.231,6.786,6.786,0,0,1,1.843,2.127,12.75,12.75,0,0,1,.68,2.851,44.786,44.786,0,0,1,.731,6.6,3.059,3.059,0,0,0,1.675,3.131l1.59,1.218a4.129,4.129,0,0,1,2.02-.815,11.1,11.1,0,0,1-3.187-2.8,2.924,2.924,0,0,1-.558-1.01,3.243,3.243,0,0,1-.042-1.027Z" fill="#f0efec"/><path d="M878.382,3085.212l-.12.065-8.278-4.249v-4.221l12.1,6.411-1.893,1.021c-.431.232-.905.439-1.31.706-.629.417-.446.621-.327,1.376q.809,5.11,1.165,10.272a24.231,24.231,0,0,1,3.584,2.25l2.1-.939-3.334-3.325a1.341,1.341,0,0,1-.311-.4,1.246,1.246,0,0,1-.064-.526c.075-3.468.282-6.932.49-10.4" fill="#9e9a93"/><line x2="3.225" y2="2.997" transform="translate(881.608 3093.97)" fill="#f2dd55"/><path d="M882.194,3084.556a3.348,3.348,0,0,0-1.2-3.076l-6.161-6.084a1.464,1.464,0,0,0-.841-.511,1.523,1.523,0,0,0-.856.274l-3.02,1.7a4.063,4.063,0,0,0,1.611,1.666,49.111,49.111,0,0,1,5.167,4.231,6.8,6.8,0,0,1,1.844,2.127,12.862,12.862,0,0,1,.68,2.85,45.088,45.088,0,0,1,.731,6.6,3.055,3.055,0,0,0,1.674,3.131l1.591,1.218a4.119,4.119,0,0,1,2.019-.815,11.1,11.1,0,0,1-3.187-2.8,2.908,2.908,0,0,1-.557-1.009,3.243,3.243,0,0,1-.043-1.027Z" fill="#f0efec"/><path d="M868.636,3091.416l-.12.065-8.278-4.249v-4.221l12.1,6.411-1.894,1.021c-.43.232-.9.438-1.31.706-.629.416-.446.621-.327,1.376q.809,5.11,1.166,10.272a24.2,24.2,0,0,1,3.583,2.25l2.1-.939-3.334-3.325a1.336,1.336,0,0,1-.311-.4,1.262,1.262,0,0,1-.064-.526c.075-3.468.283-6.932.49-10.4" fill="#9e9a93"/><line x2="3.225" y2="2.997" transform="translate(871.862 3100.174)" fill="#f2dd55"/><path d="M872.448,3090.76a3.347,3.347,0,0,0-1.2-3.076l-6.161-6.085a1.466,1.466,0,0,0-.841-.51,1.518,1.518,0,0,0-.855.274l-3.02,1.7a4.054,4.054,0,0,0,1.61,1.666,49.178,49.178,0,0,1,5.167,4.231,6.782,6.782,0,0,1,1.844,2.126,12.872,12.872,0,0,1,.68,2.851,44.948,44.948,0,0,1,.731,6.6,3.06,3.06,0,0,0,1.674,3.131l1.591,1.217a4.127,4.127,0,0,1,2.019-.814,11.1,11.1,0,0,1-3.187-2.8,2.909,2.909,0,0,1-.557-1.009,3.247,3.247,0,0,1-.043-1.027Z" fill="#f0efec"/><path d="M858.891,3097.62l-.121.065-8.278-4.25v-4.22l12.1,6.411-1.894,1.021c-.43.232-.9.438-1.309.706-.63.416-.447.621-.327,1.376q.807,5.11,1.165,10.272a24.221,24.221,0,0,1,3.583,2.25l2.1-.939-3.334-3.325a1.337,1.337,0,0,1-.311-.4,1.246,1.246,0,0,1-.065-.526c.075-3.468.283-6.932.49-10.4" fill="#9e9a93"/><line x2="3.225" y2="2.997" transform="translate(862.116 3106.378)" fill="#f2dd55"/><path d="M862.7,3096.964a3.347,3.347,0,0,0-1.2-3.077l-6.16-6.084a1.467,1.467,0,0,0-.842-.51,1.515,1.515,0,0,0-.855.274l-3.02,1.7a4.06,4.06,0,0,0,1.61,1.666,49.005,49.005,0,0,1,5.167,4.231,6.77,6.77,0,0,1,1.844,2.126,12.813,12.813,0,0,1,.68,2.851,44.8,44.8,0,0,1,.731,6.6,3.06,3.06,0,0,0,1.674,3.131l1.591,1.217a4.127,4.127,0,0,1,2.019-.814,11.108,11.108,0,0,1-3.186-2.8,2.912,2.912,0,0,1-.558-1.01,3.238,3.238,0,0,1-.043-1.026Z" fill="#f0efec"/><path d="M849.145,3103.824l-.12.065-8.278-4.25v-4.22l12.1,6.411-1.894,1.021c-.43.232-.9.438-1.309.706-.63.416-.446.621-.327,1.376q.807,5.11,1.165,10.271a24.393,24.393,0,0,1,3.584,2.25l2.1-.938-3.334-3.325a1.349,1.349,0,0,1-.311-.4,1.262,1.262,0,0,1-.065-.526c.075-3.468.283-6.932.491-10.4" fill="#9e9a93"/><line x2="3.225" y2="2.997" transform="translate(852.37 3112.582)" fill="#f2dd55"/><path d="M852.957,3103.167a3.346,3.346,0,0,0-1.2-3.076l-6.16-6.084a1.466,1.466,0,0,0-.842-.51,1.515,1.515,0,0,0-.855.274l-3.02,1.7a4.065,4.065,0,0,0,1.61,1.665,49.3,49.3,0,0,1,5.168,4.231,6.78,6.78,0,0,1,1.843,2.127,12.748,12.748,0,0,1,.68,2.851,44.816,44.816,0,0,1,.731,6.6,3.059,3.059,0,0,0,1.675,3.131l1.59,1.218a4.128,4.128,0,0,1,2.02-.814,11.1,11.1,0,0,1-3.187-2.8,2.915,2.915,0,0,1-.558-1.01,3.242,3.242,0,0,1-.042-1.027Z" fill="#f0efec"/><path d="M839.4,3110.028l-.12.065-8.278-4.25v-4.22l12.1,6.411-1.894,1.021c-.43.232-.9.438-1.309.706-.63.416-.446.621-.327,1.376q.809,5.11,1.165,10.271a24.309,24.309,0,0,1,3.584,2.25l2.1-.938-3.334-3.325a1.367,1.367,0,0,1-.311-.4,1.247,1.247,0,0,1-.064-.526c.075-3.468.282-6.933.49-10.4" fill="#9e9a93"/><line x2="3.225" y2="2.997" transform="translate(842.625 3118.786)" fill="#f2dd55"/><path d="M843.211,3109.371a3.347,3.347,0,0,0-1.2-3.076l-6.16-6.084a1.467,1.467,0,0,0-.841-.51,1.515,1.515,0,0,0-.856.273l-3.02,1.7a4.066,4.066,0,0,0,1.611,1.665,49.394,49.394,0,0,1,5.167,4.231,6.8,6.8,0,0,1,1.844,2.127,12.864,12.864,0,0,1,.68,2.851,45.083,45.083,0,0,1,.731,6.6,3.055,3.055,0,0,0,1.674,3.131l1.591,1.218a4.128,4.128,0,0,1,2.019-.815,11.1,11.1,0,0,1-3.187-2.8,2.936,2.936,0,0,1-.558-1.01,3.271,3.271,0,0,1-.042-1.027Z" fill="#f0efec"/><path d="M829.653,3116.232l-.12.064-8.278-4.249v-4.22l12.1,6.41-1.894,1.022c-.43.231-.9.438-1.31.706-.629.416-.446.621-.327,1.375q.809,5.11,1.166,10.272a24.353,24.353,0,0,1,3.583,2.25l2.1-.938-3.334-3.325a1.366,1.366,0,0,1-.311-.4,1.263,1.263,0,0,1-.064-.526c.075-3.468.283-6.933.49-10.4" fill="#9e9a93"/><line x2="3.225" y2="2.997" transform="translate(832.879 3124.99)" fill="#f2dd55"/><path d="M833.465,3115.575a3.348,3.348,0,0,0-1.2-3.076l-6.161-6.084a1.474,1.474,0,0,0-.841-.511,1.523,1.523,0,0,0-.856.274l-3.019,1.7a4.061,4.061,0,0,0,1.61,1.665,49.357,49.357,0,0,1,5.167,4.231,6.773,6.773,0,0,1,1.844,2.127,12.854,12.854,0,0,1,.68,2.851,44.919,44.919,0,0,1,.731,6.6,3.06,3.06,0,0,0,1.674,3.131l1.591,1.218a4.117,4.117,0,0,1,2.019-.815,11.1,11.1,0,0,1-3.187-2.8,2.921,2.921,0,0,1-.557-1.01,3.245,3.245,0,0,1-.043-1.027Z" fill="#f0efec"/><path d="M746.1,3084.831l.126.055,7.875-4.872-.373-4.206-11.489,7.32,1.977.872c.449.2.94.367,1.368.6.664.366.5.584.447,1.346q-.354,5.154-.255,10.326a23.894,23.894,0,0,0-3.373,2.518l-2.172-.774,3.03-3.57a1.321,1.321,0,0,0,.274-.422,1.239,1.239,0,0,0,.018-.529c-.381-3.45-.893-6.887-1.406-10.322" fill="#9e9a93"/><line x1="2.95" y2="3.235" transform="translate(740.711 3093.807)" fill="#f2dd55"/><path d="M742.246,3084.47a3.316,3.316,0,0,1,.927-3.159l5.6-6.537a1.45,1.45,0,0,1,.793-.574,1.542,1.542,0,0,1,.877.207l3.16,1.466a3.991,3.991,0,0,1-1.458,1.783,48.369,48.369,0,0,0-4.776,4.615,6.673,6.673,0,0,0-1.65,2.261,12.76,12.76,0,0,0-.426,2.894,44.838,44.838,0,0,0-.146,6.636,4.186,4.186,0,0,1-.05,1.511,4.127,4.127,0,0,1-1.342,1.738l-1.478,1.336a4.166,4.166,0,0,0-2.084-.656,10.923,10.923,0,0,0,2.929-3.035,2.872,2.872,0,0,0,.467-1.049,3.249,3.249,0,0,0-.049-1.026Z" fill="#f0efec"/><path d="M756.363,3090.263l.125.055,7.875-4.872-.373-4.206-11.489,7.32,1.977.872c.45.2.94.367,1.368.6.664.366.5.585.447,1.346q-.354,5.156-.255,10.327a23.86,23.86,0,0,0-3.373,2.518l-2.171-.774,3.029-3.57a1.335,1.335,0,0,0,.274-.422,1.239,1.239,0,0,0,.018-.529c-.381-3.451-.893-6.887-1.406-10.323" fill="#9e9a93"/><line x1="2.95" y2="3.235" transform="translate(750.971 3099.24)" fill="#f2dd55"/><path d="M752.506,3089.9a3.315,3.315,0,0,1,.928-3.158l5.6-6.538a1.445,1.445,0,0,1,.794-.573,1.521,1.521,0,0,1,.876.207l3.16,1.465a4,4,0,0,1-1.458,1.784,48.433,48.433,0,0,0-4.776,4.614,6.68,6.68,0,0,0-1.65,2.262,12.809,12.809,0,0,0-.426,2.893,44.853,44.853,0,0,0-.146,6.636,4.185,4.185,0,0,1-.05,1.511,4.129,4.129,0,0,1-1.342,1.739l-1.478,1.336a4.165,4.165,0,0,0-2.084-.657,10.933,10.933,0,0,0,2.929-3.034,2.878,2.878,0,0,0,.467-1.049,3.257,3.257,0,0,0-.048-1.027Z" fill="#f0efec"/><path d="M766.623,3095.7l.125.055,7.875-4.872-.373-4.206-11.489,7.32,1.978.872c.449.2.939.367,1.367.6.664.366.5.584.447,1.346q-.354,5.156-.255,10.326a23.979,23.979,0,0,0-3.372,2.518l-2.172-.774,3.029-3.57a1.347,1.347,0,0,0,.275-.421,1.262,1.262,0,0,0,.017-.53c-.38-3.45-.893-6.887-1.406-10.322" fill="#9e9a93"/><line x1="2.95" y2="3.235" transform="translate(761.231 3104.672)" fill="#f2dd55"/><path d="M762.766,3095.335a3.314,3.314,0,0,1,.928-3.158l5.6-6.538a1.448,1.448,0,0,1,.794-.574,1.532,1.532,0,0,1,.876.208l3.16,1.465a3.991,3.991,0,0,1-1.458,1.784,48.463,48.463,0,0,0-4.776,4.614,6.672,6.672,0,0,0-1.649,2.261,12.761,12.761,0,0,0-.427,2.894,44.713,44.713,0,0,0-.145,6.636,4.187,4.187,0,0,1-.051,1.511,4.127,4.127,0,0,1-1.342,1.738l-1.477,1.336a4.17,4.17,0,0,0-2.085-.656,10.923,10.923,0,0,0,2.929-3.035,2.873,2.873,0,0,0,.467-1.049,3.249,3.249,0,0,0-.048-1.026Z" fill="#f0efec"/><path d="M776.883,3101.128l.125.056,7.875-4.873-.372-4.205-11.49,7.32,1.978.871c.449.2.939.368,1.367.6.664.367.5.585.447,1.346q-.354,5.156-.254,10.327a23.779,23.779,0,0,0-3.373,2.518l-2.172-.774,3.029-3.57a1.338,1.338,0,0,0,.275-.422,1.24,1.24,0,0,0,.017-.529c-.38-3.451-.893-6.887-1.406-10.323" fill="#9e9a93"/><line x1="2.95" y2="3.235" transform="translate(771.491 3110.105)" fill="#f2dd55"/><path d="M773.026,3100.768a3.317,3.317,0,0,1,.928-3.159l5.6-6.538a1.446,1.446,0,0,1,.794-.573,1.532,1.532,0,0,1,.877.207l3.159,1.465a3.99,3.99,0,0,1-1.457,1.784,48.429,48.429,0,0,0-4.777,4.614,6.674,6.674,0,0,0-1.649,2.262,12.7,12.7,0,0,0-.426,2.893,44.844,44.844,0,0,0-.146,6.636,3.028,3.028,0,0,1-1.392,3.25l-1.478,1.336a4.167,4.167,0,0,0-2.085-.657,10.893,10.893,0,0,0,2.929-3.034,2.878,2.878,0,0,0,.467-1.049,3.258,3.258,0,0,0-.048-1.027Z" fill="#f0efec"/><path d="M787.143,3106.561l.126.055,7.874-4.872-.372-4.206-11.49,7.32,1.978.872c.449.2.94.367,1.367.6.664.366.5.584.447,1.346q-.354,5.156-.254,10.326a23.988,23.988,0,0,0-3.373,2.518l-2.172-.773,3.029-3.571a1.319,1.319,0,0,0,.275-.421,1.262,1.262,0,0,0,.018-.53c-.381-3.45-.894-6.887-1.406-10.322" fill="#9e9a93"/><line x1="2.95" y2="3.235" transform="translate(781.752 3115.537)" fill="#f2dd55"/><path d="M783.286,3106.2a3.317,3.317,0,0,1,.928-3.158l5.6-6.538a1.447,1.447,0,0,1,.794-.573,1.527,1.527,0,0,1,.877.207l3.16,1.465a4,4,0,0,1-1.458,1.784,48.241,48.241,0,0,0-4.776,4.614,6.672,6.672,0,0,0-1.65,2.261,12.706,12.706,0,0,0-.426,2.894,44.854,44.854,0,0,0-.146,6.636,3.027,3.027,0,0,1-1.392,3.249l-1.478,1.336a4.166,4.166,0,0,0-2.084-.656,10.932,10.932,0,0,0,2.929-3.034,2.891,2.891,0,0,0,.466-1.05,3.25,3.25,0,0,0-.048-1.026Z" fill="#f0efec"/><path d="M797.4,3111.993l.126.056,7.874-4.873-.372-4.205-11.49,7.32,1.978.872c.449.2.94.367,1.367.6.664.367.5.585.448,1.346q-.355,5.156-.255,10.327a23.894,23.894,0,0,0-3.373,2.518l-2.172-.774,3.029-3.57a1.338,1.338,0,0,0,.275-.422,1.257,1.257,0,0,0,.018-.529c-.381-3.451-.894-6.887-1.406-10.323" fill="#9e9a93"/><line x1="2.95" y2="3.235" transform="translate(792.012 3120.97)" fill="#f2dd55"/><path d="M793.546,3111.633a3.319,3.319,0,0,1,.928-3.159l5.6-6.537a1.445,1.445,0,0,1,.793-.574,1.542,1.542,0,0,1,.877.207l3.16,1.465a4,4,0,0,1-1.458,1.784,48.415,48.415,0,0,0-4.776,4.614,6.663,6.663,0,0,0-1.65,2.262,12.7,12.7,0,0,0-.426,2.893,44.874,44.874,0,0,0-.146,6.637,4.188,4.188,0,0,1-.05,1.511,4.145,4.145,0,0,1-1.342,1.738l-1.478,1.336a4.166,4.166,0,0,0-2.084-.656,10.924,10.924,0,0,0,2.929-3.035,2.893,2.893,0,0,0,.466-1.049,3.231,3.231,0,0,0-.048-1.027Z" fill="#f0efec"/><path d="M807.663,3117.426l.126.055,7.874-4.872-.372-4.206-11.489,7.32,1.977.872c.449.2.94.367,1.367.6.665.366.5.585.448,1.346q-.354,5.156-.255,10.326a23.955,23.955,0,0,0-3.373,2.519l-2.172-.774,3.03-3.571a1.316,1.316,0,0,0,.274-.421,1.258,1.258,0,0,0,.018-.529c-.381-3.451-.894-6.887-1.406-10.323" fill="#9e9a93"/><line x1="2.95" y2="3.235" transform="translate(802.272 3126.403)" fill="#f2dd55"/><path d="M803.806,3117.065a3.317,3.317,0,0,1,.928-3.158l5.6-6.538a1.449,1.449,0,0,1,.793-.573,1.527,1.527,0,0,1,.877.207l3.16,1.465a4,4,0,0,1-1.458,1.784,48.248,48.248,0,0,0-4.776,4.614,6.687,6.687,0,0,0-1.65,2.261,12.706,12.706,0,0,0-.426,2.894,44.846,44.846,0,0,0-.146,6.636,4.187,4.187,0,0,1-.05,1.511,4.135,4.135,0,0,1-1.342,1.738l-1.478,1.336a4.176,4.176,0,0,0-2.084-.656,10.931,10.931,0,0,0,2.929-3.034,2.873,2.873,0,0,0,.466-1.05,3.222,3.222,0,0,0-.048-1.026Z" fill="#f0efec"/></g></svg>