<svg xmlns="http://www.w3.org/2000/svg" width="286.883" height="306.273" viewBox="0 0 286.883 306.273"><g transform="translate(-590.643 -10444.65)"><path d="M611.325,10610.759c-5.55,2.438-11.359,5.187-14.723,10.229-3.088,4.629-3.615,10.459-3.9,16.018a303.4,303.4,0,0,0,11.667,99.878c1.056,3.627,2.4,7.531,5.575,9.573,2.7,1.733,6.125,1.722,9.328,1.569,20.584-.985,41.191-5.433,61.635-2.838,11.368,1.442,22.463,5.049,33.917,5.386,13.479.4,26.62-3.743,39.915-6,20.917-3.542,42.221-2.394,63.29-1.213,10.586.593,21.177,1.227,31.783,1.294,5.78.036,20.927,2.592,24.381-2.814,1.356-2.121,1.708-4.709,2.027-7.205.828-6.464.464-11.909.276-18.438-.389-13.469-.931-26.92-2.737-40.187-1.79-13.151-.427-26.361-3.82-39.418-3.371-12.966-11.015-25.562-23.12-31.3a76.4,76.4,0,0,0-12.892-4.214c-19.458-5.275-38.271-12.658-57.038-20.025-6.514-2.557-16.94-4.512-22.388-8.834-2.024-1.606-.274-4.207-4.4-3.561-2.576.4-3.861,3.622-5.318,5.39-2.985,3.619-7.97,4.76-12.6,5.532a215.409,215.409,0,0,1-34.272,2.931c-9.508.052-15.443,1.377-24.369,4.361C652.459,10593.924,631.683,10601.817,611.325,10610.759Z" fill="#0f173a"/><path d="M690.671,10464.735c-.245.13-.488.266-.729.405a36.167,36.167,0,0,0-8.6,7.648,131.066,131.066,0,0,0-22.278,35.39,15.46,15.46,0,0,1-2.81,4.937c-.815.836-1.819,1.464-2.677,2.255-1.765,1.627-4.23,5.307-4.626,7.722-.465,2.844,2.353,6.093,3.736,8.385a52.09,52.09,0,0,1,6.7,17.938c.63,3.625,1.318,7.96,4.669,9.479a26.182,26.182,0,0,0,4.054.975c3.24.88,5.639,3.58,7.567,6.328,4.691,6.684,8.295,14.5,11.547,21.97,3.191,7.335,8.541,12.612,14.383,18.039,1.963,1.824,4.012,3.7,6.56,4.532,4.98,1.629,10.4-1.207,14.046-4.977s6.205-8.483,9.933-12.167c4.571-4.517,10.522-7.055,14.416-12.26,5.7-7.619,9.168-14.806,8.855-24.433-.15-4.644-.974-9.421.036-14.021.893-4.069,3.286-7.507,4.49-11.444a38.181,38.181,0,0,0,1.187-14.672c-.383-4.186-.711-10.038-2.7-13.825a4.279,4.279,0,0,0-3.431-2.446,4.165,4.165,0,0,1-1.668-.135,2.462,2.462,0,0,1-1.009-1.252c-3.766-7.8-6.019-16.453-11.267-23.349a37.534,37.534,0,0,0-3.044-3.5,75.231,75.231,0,0,0-7.667-6.627,33,33,0,0,0-9.145-5.534c-6.536-2.271-13.707-.56-20.408,1.163-5.264,1.354-11.275,2.946-16.046,5.582-5.155,2.849-9.114,7.475-12.788,11.974-3.011,3.686-6.025,7.5-7.627,11.984a43.482,43.482,0,0,0-1.7,7.368l-1.483,8.7" fill="#dc8b63"/><path d="M654.639,10491.266l.036-6.947c.073-13.919,9.232-25.276,21.217-31.806a49.324,49.324,0,0,1,25.41-5.772,51.486,51.486,0,0,1,13.224,2.253,21.6,21.6,0,0,1,5.164,1.88c2.517,1.636,2.778,3.914,6.017,3.714a15.011,15.011,0,0,1,9.179,2.885c3.047,2.072,5.551,4.015,7.337,7.212,1.982,3.552,5.2,6.26,7.056,9.882a34.013,34.013,0,0,1,2.142,6.53,84.078,84.078,0,0,0,3.7,10.077c.965,2.29,2.635,6.617,1.508,8.747-3.894,7.361-10.391-6.328-11.632-9.414-1.2-2.979-1.823-6.2-3.354-9.017-1.1-2.021-2.623-3.775-3.807-5.744-.909-1.511-1.611-3.142-2.575-4.616-3.355-5.134-9.454-7.789-15.437-9.139-5.535-1.249-11.894-1.437-16.288,2.152a7.784,7.784,0,0,1-1.661,1.2,6.377,6.377,0,0,1-2.654.329,32.912,32.912,0,0,0-32.887,29.586c-.409,4.025-.553,7.611-1.951,11.434-.845,2.312-1.625,8.4-4.56,9.091-5.2,1.225-5.255-10.1-5.241-12.917Z" fill="#bcb8b2"/><path d="M726.4,10553.036a14.33,14.33,0,0,1,7.76-1.072c1.338.246,5.125,2.669,6.378,1.555l-5.406,4.806a17.654,17.654,0,0,1-3.47,2.606,15.63,15.63,0,0,1-4.03,1.287,68.391,68.391,0,0,1-14.391,1.476c-4.4-.018-7.152-1.4-11.1-3.307a89.937,89.937,0,0,1,16.352-4.965A37.985,37.985,0,0,0,726.4,10553.036Z" fill="#863842" opacity="0.46"/><path d="M683.128,10582.338c3.272,10.164,14.8,28.341,26.94,28.378,6.815.021,10.639-6.858,15.388-11.108a158.513,158.513,0,0,1,19.45-14.873c1.095,4.042-1.76,7.957-4.084,11.44-11.773,17.649-12.844,40.237-11.636,61.418.931,16.332,3,32.731,1.606,49.1-.506,5.933-.468,12.022-1.093,17.88-.587,5.5-3.933,21.245-8.755,24.581-5.25,3.632-21.491-1.5-27.391-2.764-.366-6.148-3.367-11.453-4.367-17.344-1.3-7.66-2.271-15.409-3.153-23.128a393.044,393.044,0,0,1-2.689-45.946,295.077,295.077,0,0,1,2.553-38.467c.812-6.018,2.175-11.428,1.357-17.352-.879-6.355-2.163-12.658-3.036-19.021-.156-1.135-1.218-.938-.555-1.874,1.33-.149,2.083,1.445,2.475,2.726a49.958,49.958,0,0,0,10.941,19.106" fill="#c2c2c8"/><path d="M697.065,10634.326a108.775,108.775,0,0,1,8.122-13.842c1.928-2.792,4.72-5.81,8.063-5.23,1.941.336,3.448,1.835,4.739,3.322a57.534,57.534,0,0,1,6.632,9.4,8.35,8.35,0,0,1,1.378,4.069,9.889,9.889,0,0,1-1.685,4.5c-7.535,13.578-3.094,27.32-1.1,41.955a123.535,123.535,0,0,0,3.379,18.032c2.1,7.191,5.56,14.32,4.837,21.778a39.982,39.982,0,0,1-2.769,9.984c-2.012,5.391-2.458,16.735-7.289,20.3a13.508,13.508,0,0,1-6.849,2.133,44.479,44.479,0,0,1-11.067-.336,4.353,4.353,0,0,1-2.226-.809,4.576,4.576,0,0,1-1.186-2.373c-2.346-8.6-1.039-14.178-.734-22.894.595-17.075,3.365-33.972,5.043-50.951,1.043-10.542,1.614-21.5-2.066-31.431-1.12-3.021-2.645-6.022-2.593-9.244.108-6.737,6.8-11.424,9.1-17.76" fill="#172453"/><path d="M625.6,10615.846a48.45,48.45,0,0,0-19.017,11.016c13.2,3.236,28.176-3.17,34.95-14.956l-12.092,2.874" fill="#2f333e"/><path d="M859.63,10650.049c1.154-2.386.274-5.317-1.309-7.443s-3.779-3.7-5.676-5.551c-4.491-4.383-9.785-12.589-9-18.662C850.54,10618.474,863.084,10642.91,859.63,10650.049Z" fill="#2f333e"/><path d="M869.569,10643.944c-.6.34-.5-.232-.6-.485-1.027-2.554-1.447-5.284-2.3-7.893-1.486-4.568-2.589-9.262-4.419-13.716a6.367,6.367,0,0,0-1.507-2.153c-2.544-2.376-4.42-5.393-7.1-7.6-2.384-1.959-5.129-3.479-7.5-5.447-2.482-2.058-5.381-2.763-8.392-3.22-5.506-.835-10.6-2.887-15.658-5.073-3.612-1.562-7.4-2.617-11.117-3.87-6.9-2.326-13.565-5.24-20.321-7.931-3.595-1.431-7.365-2.406-11.065-3.562-3.968-1.239-7.784-2.965-11.664-4.487q-6.648-2.609-13.288-5.234a1.325,1.325,0,0,0-1.59.407c-1.4,1.5-1.939,3.5-2.911,5.241-.216.387.135,1.263.464,1.753,2.349,3.5,4.509,7.178,7.505,10.164a58.292,58.292,0,0,0,8.5,6.51c2.393,1.638,4.832,3.208,7.2,4.877,1.552,1.094,1.814,2.327.976,4.07a40.728,40.728,0,0,1-4.986,7.8c-.737.921-1.383,1.913-2.092,2.856-.647.86-.536,1.491.283,2.262a56.277,56.277,0,0,0,12.575,9.13c2.828,1.471,3.363,2.819,2.532,6.067a60.764,60.764,0,0,1-4.587,11.767c-2.471,5.012-5.012,9.979-7.2,15.131a158.51,158.51,0,0,0-7.436,22.015c-.732,2.8-1.707,5.547-2.277,8.377-.922,4.569-1.979,9.115-3.074,13.632-.86,3.542-1.52,7.2-3.09,10.572-.513,1.1-.664,2.36-1.069,3.517-.682,1.944-1.415,3.87-2.165,5.789-.677,1.734-1.027,3.563-1.59,5.326-.967,3.024-1.854,6.113-4.07,8.553-.3.334-.669.7-1.137.382-.415-.283-.2-.714-.006-1.062,2.645-4.731,3.615-10.057,5.366-15.1,1.333-3.841,2.8-7.646,3.9-11.554,1.554-5.516,3.03-11.071,4.158-16.686,1.258-6.263,2.9-12.423,4.744-18.51a149.7,149.7,0,0,1,10.876-27.012,104.3,104.3,0,0,0,5.266-11.513c.6-1.551,1.02-3.171,1.472-4.773a2.3,2.3,0,0,0-1.391-3.105c-5.745-2.48-10.307-6.562-14.691-10.886a41.716,41.716,0,0,1-5.026-5.354c-.461-.651-1.387-1.489-.731-2.132.456-.445,1.379.41,1.925.985,1.413,1.488,2.817,2.985,4.378,4.643,2.022-4.331,5.071-7.612,6.936-11.618.459-.988.567-1.555-.62-2.367-5.308-3.625-10.828-6.974-15.529-11.437-1.846-1.752-3.005-3.986-4.487-5.989a24.262,24.262,0,0,1-2.842-4.381,54.657,54.657,0,0,0-2.427,8.312,20.357,20.357,0,0,1-4.011,7.284,45.982,45.982,0,0,0-8.333,17.647c-1.1,4.576-1.818,9.252-3.658,13.639-.629,1.5-.2,3.183-.461,4.766-.1.605.191,1.432-.625,1.643-.784.2-1.254-.509-1.6-1.057-.706-1.117-1.289-2.311-2.13-3.853a30.5,30.5,0,0,1-.883,5.792c-.581,2.64-1.356,5.222-2.171,7.788a40.467,40.467,0,0,1-2.42,6.773c-.934,1.777-.238,3.8.25,5.619.964,3.6,2.058,7.183,2.7,10.85.7,4,.943,8.082,1.562,12.1.922,5.983,1,12.125,3.2,17.876,1.085,2.836,1.66,5.847,3.168,8.7,0-2.9.007-5.709,0-8.514q-.03-9.037-.075-18.073c-.037-6.708-.488-13.4-.86-20.09-.265-4.765-.021-9.557-.007-14.336.009-3.093-.118-6.187.191-9.273a13.215,13.215,0,0,1,.152-1.744c.12-.5.292-1.237.952-1.108.711.138.447.833.379,1.357a91.114,91.114,0,0,0-.264,10.985c-.022,3.15-.044,6.3-.018,9.453a81.3,81.3,0,0,0,.544,8.9,95.721,95.721,0,0,1,.63,12.07q-.067,7.573,0,15.147c.037,3.921.061,7.843.1,11.762a118.253,118.253,0,0,1-.163,12.03,89.813,89.813,0,0,1-1.753,9.942c-.646,3.113-1.122,6.26-2.049,9.31a87.061,87.061,0,0,1-6.2,14.776.622.622,0,0,1-.633.439,2.368,2.368,0,0,1,.056-1.9,91.129,91.129,0,0,1,3.678-9.781c1.86-4.546,2.57-9.342,3.49-14.1a76.775,76.775,0,0,0,1.842-12.637c.047-1.835-1.23-2.9-1.7-4.407-.855-2.751-1.952-5.434-3.059-8.1-2.319-5.577-2.507-11.55-3.31-17.4-.578-4.22-.834-8.494-1.59-12.679-.74-4.095-1.943-8.1-2.918-12.156a9.875,9.875,0,0,1-.318-4.642c.116-.493.378-1.329-.8-.884-4.177,1.577-8.227,1-12.547-.971.1,6.194-.113,12.25.158,18.329a39.4,39.4,0,0,1-.8,7.6c-.83,5.43-1.8,10.838-2.353,16.309-.41,4.047-.963,8.08-1.343,12.13-.243,2.59-.195,5.207-.442,7.8-.609,6.414-.136,12.855-.692,19.284-.366,4.215-.336,8.54,1.236,12.644.313.819.46,1.7.691,2.551.126.461.461,1.088-.01,1.336-.6.314-.982-.382-1.228-.8a17.7,17.7,0,0,1-2.246-6.019,49.611,49.611,0,0,1-.137-13.4,59.286,59.286,0,0,0,.12-7.5,161.467,161.467,0,0,1,.727-17.075c.465-6.437,1.423-12.852,2.472-19.24.715-4.353,1.423-8.716,1.98-13.088.356-2.8-.188-5.7-.045-8.534.158-3.151-.289-6.308.2-9.449a6.192,6.192,0,0,0-.528-4.251c-2.067-3.762-2.88-8.018-4.323-12.112a16.018,16.018,0,0,0-2.261,5.258l-.356-.1q-.07-1.046-.139-2.091c.752-2.53,2.131-4.852,2.422-7.544.06-.558.014-1.45.813-1.6.911-.169,1.182-.895,1.483-1.508a55.481,55.481,0,0,1,4.275-7.982c.935-1.31,1.625-2.818,2.916-3.863.343-.277.734-.674,1.161-.4.483.314.177.893-.031,1.189-.537.766-.93,1.611-1.436,2.394a36.724,36.724,0,0,0-3.332,5.21,26.225,26.225,0,0,1-2.923,5.6,4.668,4.668,0,0,0-.753,4.572c1.185,3.587,2.413,7.162,3.34,10.831a2.483,2.483,0,0,0,1.208,1.393c3.6,2.272,7.667,2.2,11.675,2.279,1.865.037,2.823-.838,3.378-2.591.519-1.639.995-3.288,1.481-4.937,1.242-4.213,2.855-8.355,2.438-12.884-.043-.463.438-.928,0-1.4-1.852-2-2.828-4.578-4.384-6.769a22.682,22.682,0,0,0-5.818-6.129c-.349-.229-.52-.469-.38-.836a.751.751,0,0,1,.96-.483,5.078,5.078,0,0,1,1.222.493,16.456,16.456,0,0,1,5.77,6c2.18,3.807,5.2,7,7.441,11.076a6.564,6.564,0,0,1,.1-2.122c.352-2.05,1.518-3.807,1.922-5.85a94.929,94.929,0,0,1,4.469-16.752c1.692-4.264,4.648-7.79,7.246-11.489a22.976,22.976,0,0,0,3.477-9.122c-2.048,1.222-3.44,3-5.223,4.28a48.061,48.061,0,0,0-8.6,7.556,40.344,40.344,0,0,1-5.7,5.561,26.517,26.517,0,0,0-3.573,3.3,22.772,22.772,0,0,1-12.4,7.684c-2.063.442-4,.507-5.959-1.007a121.868,121.868,0,0,1-12.594-11.563,15.518,15.518,0,0,1-2.416-3.5c-1.06-1.955-2.263-3.833-3.626-6.112a88.679,88.679,0,0,0,2.395,11.165c.756,2.761.674,5.639,1.354,8.394,1.119,4.531,1.722,9.152,2.521,13.74.554,3.182,1.007,6.414,2.388,9.393a14.681,14.681,0,0,1,1.244,4.309c-1.114.346-1.556-.377-2.039-1.187-1.985-3.333-2.6-7.076-3.311-10.793-1.094-5.729-2.274-11.454-3.127-17.211-1.159-7.818-3.4-15.421-4.292-23.275-.139-1.222-.773-.641-1.165-.346a39.141,39.141,0,0,1-8.346,4.331,128.643,128.643,0,0,1-16.563,5.633c-3.874,1.077-7.617,2.587-11.57,3.4-4.2.865-8.136,2.525-12.169,3.926-7.757,2.692-14.813,6.727-21.939,10.674a30.469,30.469,0,0,1-5.961,2.541,12.912,12.912,0,0,0-7.017,5.5c-2.7,3.882-3.75,8.22-4.429,12.793a70.158,70.158,0,0,0-.875,9.665c-.041,4.282-.222,8.555-.005,12.854.272,5.4.887,10.774,1.026,16.184.149,5.737.537,11.464,1.122,17.178a93.837,93.837,0,0,0,1.545,10.623c.362,1.644,1.176,3.181,1.262,4.9.014.273.265.628-.124.763-.522.183-.339-.5-.611-.611.828,4.669.8,9.438,1.405,14.136a64.643,64.643,0,0,0,2.253,9.75,63.5,63.5,0,0,0,6.322,13.721c.327.572.994,1.364.365,1.757-.556.348-1.1-.548-1.489-1.1a49.843,49.843,0,0,1-7.29-16.11,83.283,83.283,0,0,1-2.193-16.691,24.64,24.64,0,0,1-.219-4.226c.43-3.269-1.238-5.984-1.82-8.968-.829-4.249-1.192-8.544-1.641-12.834-.542-5.176-.413-10.4-.959-15.563a223.114,223.114,0,0,1-1.106-26.781,60.8,60.8,0,0,1,1.2-10.376c.462-2.452.585-5,1.727-7.276,1.867-3.731,3.738-7.461,7.367-9.9a6.027,6.027,0,0,1,1.707-.835c5.262-1.475,9.769-4.491,14.5-7.054a94.632,94.632,0,0,1,12.753-6.045,148.637,148.637,0,0,1,14.782-4.888c6.853-1.7,13.587-3.84,20.312-6.01a97.331,97.331,0,0,0,13.066-5.251,10.345,10.345,0,0,0,4.645-3.588c.463-.759,1.372-.306,1.792-.68-1.537-1.611-3.166-3.163-4.614-4.869-2.271-2.677-3.738-5.866-5.372-8.939-1.705-3.206-3.8-6.174-5.612-9.313a30.423,30.423,0,0,1-2.274-4.778c-.856-2.363-2.125-4.528-3.052-6.852-.164-.41-.328-.822-.463-1.242-.175-.545-.262-1.159.37-1.412s.831.38,1.038.8c1.487,2.993,2.873,6.033,4.269,9.069a88.559,88.559,0,0,0,4.9,9.049q2.4,3.951,4.512,8.079c1.592,3.116,4.011,5.521,6.389,7.991a54.629,54.629,0,0,0,9.149,7.515,24.823,24.823,0,0,0,7.067,3.528,24.459,24.459,0,0,1,2.377.8c.308.121.911.09.709.707-.149.457-.577.523-.985.426-1.384-.329-2.748-.759-4.145-1.016-2.895-.531-4.785-2.8-7.251-4.074a17.358,17.358,0,0,1-4.929-3.705c-.3-.334-.534-1.284-1.149-.774s-1.447,1.15-.975,2.229a22.779,22.779,0,0,0,1.269,2.823c2.407,3.928,4.492,8.062,7.372,11.691a68.316,68.316,0,0,0,9.226,9.026c1.157,1,2.352,1.937,3.565,2.86a4.178,4.178,0,0,0,3.874.68c4.722-1.186,8.213-4.156,11.648-7.384,4.141-3.89,8.072-7.98,12.094-11.984.307-.3.6-.629,1.06-1.119a30.615,30.615,0,0,0-6.863,1.431c-4.6,1.4-9.311,1.175-13.909.462-4.108-.637-8.3-1.4-11.944-3.735-.735-.472-1.794-1.289-1.4-1.819.461-.616,1.4.255,2.019.775a9.652,9.652,0,0,0,3.924,1.612c5.808,1.521,11.715,2.55,17.731,1.549,2.934-.488,5.8-1.374,8.7-2.084.188-.047.366-.2.549-.2,3.953.013,6.348-2.714,8.934-5.085.943-.865,1.823-1.79,2.851-2.57,2.49-1.891,3.7-4.723,5.357-7.252,3.591-5.473,4.387-11.531,4.425-17.842.035-5.739.2-11.478.215-17.216.013-4.789.311-9.582-.019-14.366-.131-1.9-.537-3.785-.765-5.683-.083-.692-.487-1.753.258-1.98.61-.185.852.912,1.068,1.541a32.676,32.676,0,0,1,1.4,9.883c.114,4.221.139,8.451-.045,12.667-.1,2.159-.2,4.317-.217,6.479-.019,3.222-.007,6.445-.051,9.667a42.626,42.626,0,0,1-2.605,14.237,4.233,4.233,0,0,0-.118.616c3.678-.242,6.716,1.74,10,2.8,3.818,1.232,7.541,2.778,11.262,4.295,5.422,2.211,11.206,3.309,16.641,5.452,5.9,2.323,11.762,4.718,17.7,6.935,3.954,1.476,8.077,2.415,11.968,4.094,4.718,2.035,9.45,4.084,14.539,5.087,1.486.292,2.953.688,4.446.93a13.776,13.776,0,0,1,6.05,2.521c3.041,2.229,6.167,4.35,9.118,6.69a18.548,18.548,0,0,1,3.3,3.746c1.08,1.49,2.592,2.538,3.735,3.943a18.309,18.309,0,0,1,3.187,7.217c.936,3.606,2.288,7.1,2.986,10.771a31.384,31.384,0,0,1,.808,7.159Z" fill="#264295"/><path d="M661.758,10506.828a13.382,13.382,0,0,1,1.969-2.736,1,1,0,0,1,1.444-.291c.562.456.457,1.026.051,1.57a34.11,34.11,0,0,0-4.111,8.1c-.383.975-.226,1.336.862,1.371,3.395.11,6.8-.285,10.186.275.736.121,1.17-.375,1.65-.812a2.807,2.807,0,0,1,3.76-.389c.946-4.044,3.919-5.871,7.574-6.99,2.056-.629,4.069-1.4,6.123-2.034,3.219-1,6.464-2.051,9.894-1.5,2.885.466,6.006.536,7.805,3.488.126.208.391.389.407.6.107,1.381.772.7,1.353.4a15.682,15.682,0,0,1,4.673-1.574,4.039,4.039,0,0,1,3.324.846c.443.351.849.5.866-.265.06-2.687,2.07-3.953,3.974-5.053,5.319-3.071,11.183-3.4,17.015-2.287a18.289,18.289,0,0,1,9.255,5.221l.517.539a5.449,5.449,0,0,1,.73,7.64c-4.7,5.189-10.668,6.2-17.193,5.276a19.821,19.821,0,0,1-11.232-5.044c-1.563-1.5-3.721-2.176-4.971-4.017a1.937,1.937,0,0,0-1.585-.649,8.733,8.733,0,0,0-4.245,1.086,1.72,1.72,0,0,0-.966,2.427c2.1,5.4-.214,8.849-4.866,10.858a60.178,60.178,0,0,1-15.794,4.42c-4.15.558-8.528-.038-12.1-2.925a4.56,4.56,0,0,1-1.707-5.292,25.1,25.1,0,0,0,.413-2.588c-.628-.2-.942.254-1.336.5a1.1,1.1,0,0,1-1.249.1c-1.446-1.059-3.12-.689-4.657-.623-3.3.144-6.6-.233-9.891.19a4.035,4.035,0,0,1-1.792-.541c-.582-.237-1.35-.479-1.271-1.241.084-.8.874-.6,1.439-.639.341-.021.685.049.771-.458.3-1.757,1.225-3.292,1.788-4.957Q661.2,10507.83,661.758,10506.828Zm25.607,18.729a14.2,14.2,0,0,0,2.5-.021,72.175,72.175,0,0,0,16.243-4.619c2.447-1.075,4.386-2.935,4.292-5.987-.083-2.7-1.684-4.984-2.224-7.57-.052-.249-.35-.481-.585-.651a12.565,12.565,0,0,0-9.889-2.166c-4.452.751-8.587,2.472-12.776,4.012-2.09.77-4.119,1.7-5.224,3.969-1.281,2.634-1.459,5.473-1.951,8.259a2.2,2.2,0,0,0,1.006,2.018A11.876,11.876,0,0,0,687.365,10525.557Zm48.065-24.756a24.984,24.984,0,0,0-11.23,2.551c-1.7.782-3.409,3.149-3.166,4.478a5.929,5.929,0,0,0,2.214,3.713,25.1,25.1,0,0,0,5.406,3.191,19.674,19.674,0,0,0,9.285,1.843c4.4-.284,8.61-1.146,11.695-4.82a3.676,3.676,0,0,0,.576-3.7,4.767,4.767,0,0,0-1.97-2.307C744.637,10502.777,740.729,10500.594,735.43,10500.8Z" fill="#264295"/><path d="M646.452,10670.506a1.924,1.924,0,0,1,.774-1.89c2.5-1.7,4.187-4.285,6.623-6.035,2.036-1.463,3.079-3.634,4.387-5.645a89.259,89.259,0,0,1,5.82-7.771c3.844-4.7,7.682-9.431,10.024-15.12.669-1.625,1.68-3.121,1.962-4.9.054-.346.078-.722.556-.727a.884.884,0,0,1,.89.834,3.755,3.755,0,0,1-.314,1.857,54.42,54.42,0,0,1-8.985,15.955c-2.717,3.474-5.709,6.734-8.106,10.456a30.492,30.492,0,0,0-1.825,2.834c-1,2.021-2.785,3.266-4.407,4.676-1.711,1.485-3.156,3.258-4.989,4.614-.6.447-.513.974-.276,1.685a98.237,98.237,0,0,0,6.951,14.937,60.608,60.608,0,0,1,3.579,8.993c1.134,3.328,2.994,6.276,4.6,9.352a76.108,76.108,0,0,0,7.552,12.427c3.782,4.741,7.533,9.567,12.947,12.686.674.389,2.012.843,1.482,1.778-.437.772-1.5-.113-2.212-.426a22.878,22.878,0,0,1-7.591-5.717,67.433,67.433,0,0,1-6.752-7.934,123.925,123.925,0,0,1-7.746-13.182c-1.309-2.624-2.781-5.152-3.834-7.911-1.275-3.342-2.279-6.807-4.016-9.951-1.329-2.406-2.531-4.873-3.806-7.3-1.4-2.673-2.017-5.644-3.255-8.373C646.429,10670.575,646.438,10670.415,646.452,10670.506Z" fill="#264295"/><path d="M680.377,10672.292c0-4.281.07-8.563-.017-12.842-.117-5.73,1.052-11.267,2.078-16.858a127.826,127.826,0,0,0,1.932-14.413c.272-4.009.719-8.01,1.221-12,.1-.826.085-2.406,1.344-2.177,1.238.227.224,1.5.176,2.229-.268,4.11-.62,8.221-1.112,12.312-.689,5.737-1.174,11.507-2.537,17.148a59.081,59.081,0,0,0-1.392,14.453q.082,9.716.093,19.436c.007,4.623.765,9.181,1.131,13.772.277,3.475.727,6.923,1.215,10.371.646,4.565,1.324,9.133,1.737,13.721a57.392,57.392,0,0,0,3.028,13.288,47.514,47.514,0,0,0,2.887,6.113c.178.353.562.773.165,1.03-.3.2-.745-.023-1.124-.389-2.327-2.242-3.253-5.186-4.262-8.109-1.819-5.27-2.2-10.783-2.978-16.246-.68-4.751-.978-9.545-1.824-14.277a55.923,55.923,0,0,1-.6-6.58c-.24-4.167-1.244-8.262-1.059-12.468.11-2.5.02-5.011.02-7.518Z" fill="#264295"/><path d="M869.825,10643.7c.72-.027.9.482,1.005,1.038,1.26,6.4,1.8,12.895,2.51,19.363.685,6.218.581,12.473.678,18.72a94.574,94.574,0,0,0,1.078,13.187,15.66,15.66,0,0,1,.058,2.07,2.383,2.383,0,0,0,.664,2.1c.79.7.384,1.922.362,2.811a130.08,130.08,0,0,0,.8,13.188c.348,4.56.6,9.112.533,13.681a37.937,37.937,0,0,1-.637,6.988,2.424,2.424,0,0,1-.366.588,2.4,2.4,0,0,1-.652-1.753c-.094-5.151-.113-10.308-.35-15.454-.2-4.4-.739-8.782-.969-13.182a21.318,21.318,0,0,1,.059-4.342,3.249,3.249,0,0,0-.549-2.411c-.816-1.208-.627-2.757-.805-4.143a106.917,106.917,0,0,1-1.1-15.815c.16-7.755-.691-15.444-1.4-23.14a64.381,64.381,0,0,0-1.355-9.889,6.008,6.008,0,0,1,.178-3.361Z" fill="#264295"/><path d="M726.419,10454.713c-.119.732-.533.811-.909.664a14.7,14.7,0,0,1-2.822-1.264,52.483,52.483,0,0,0-14.451-6.8,13.055,13.055,0,0,0-3.5-.407c-5.661-.03-11.346-.3-16.958.614a16.1,16.1,0,0,0-6.636,2.617c-2.575,1.783-5.375,3.216-8.037,4.875-4.041,2.518-8.056,4.992-11.017,8.837a18.119,18.119,0,0,1-1.7,1.592.827.827,0,0,1-1.193-.036c-.337-.264-.066-.712.172-.886,2.507-1.816,3.9-4.678,6.261-6.628,2.65-2.187,5.658-3.844,8.471-5.787,1.889-1.3,3.92-2.372,5.86-3.591a22.581,22.581,0,0,1,10.784-3.518c4.411-.255,8.818-.444,13.254-.277,5.012.19,9.458,1.889,13.826,4.087a35.693,35.693,0,0,1,7.782,5.244C725.888,10454.3,726.2,10454.535,726.419,10454.713Z" fill="#264295"/><path d="M626.53,10680.515c.039-.526-.1-1.2.6-1.347.668-.138.68.544.9.959a15.9,15.9,0,0,1,1.211,4.837c1.114,6.229,2.285,12.441,3.606,18.631.755,3.539,1.107,7.193,2.223,10.627,2.35,7.23,3.684,14.767,6.651,21.81.956,2.27,2.311,4.326,3.279,6.58.135.315.59.71.1,1.031-.476.313-.847-.075-1.123-.423a35.226,35.226,0,0,1-4.777-8.066c-2.412-5.582-3.433-11.561-5.25-17.308-2.121-6.711-2.962-13.693-4.528-20.52-1.231-5.365-1.8-10.832-2.85-16.22A4.3,4.3,0,0,1,626.53,10680.515Z" fill="#264295"/><path d="M832.144,10678.151a104.387,104.387,0,0,1-.52,12.478c-.187,1.984-.052,4-.046,6,.02,6.4-.877,12.771-.617,19.184a88.937,88.937,0,0,0,1.659,11.2c.574,3.39.987,6.792,1.294,10.211.042.466.193,1.164-.436,1.249-.7.095-.541-.622-.631-1.07-.99-4.947-1.892-9.914-3.01-14.832a50.159,50.159,0,0,1-.76-14.41c.428-6.716.377-13.447.87-20.149.325-4.422.551-8.833.558-13.263,0-1.074.2-2.148.284-3.224.034-.418.113-.884.564-.924.585-.052.44.515.522.868C832.455,10673.957,832.01,10676.484,832.144,10678.151Z" fill="#264295"/><path d="M648.453,10521.26a11.681,11.681,0,0,1,.348-3.663c.631-2.089,1.751-2.779,3.919-2.5,2.022.264,3.82.869,4.952,2.73a1.5,1.5,0,0,1,.2,1.392c-.152.407-.211.978-.73.961-.478-.014-.433-.6-.507-.946-.423-1.992-3.2-3.459-4.955-2.568-1.335.679-1.135,2.019-1.261,3.177-.393,3.605.925,6.951,1.635,10.392.811,3.927,2.6,7.46,4.138,11.121,2.114,5.039,4.975,9.8,5.913,15.319.362,2.128,2.384,3.2,4.655,2.787.514-.093,1.025-.271,1.289.3.273.587-.284.9-.633,1.194-1.25,1.066-4.445.383-5.7-1.209a8.244,8.244,0,0,1-1.778-3.663,31.64,31.64,0,0,0-2.6-7.18c-2.189-4.878-4.856-9.6-6.275-14.742C649.905,10529.957,648.366,10525.747,648.453,10521.26Z" fill="#264295"/><path d="M652.579,10506.14c-.318-2.278.547-4.469.529-6.721-.011-1.3-.175-2.6-.115-3.9.215-4.694.325-9.391,1-14.064a39.879,39.879,0,0,1,3.142-11.13,10.6,10.6,0,0,1,2.416-3.487c.316-.288.714-.812,1.266-.306.459.419.091.831-.079,1.207-.824,1.825-2.035,3.421-2.663,5.393a60.618,60.618,0,0,0-2.32,11.208c-.855,7.109-.527,14.24-.542,21.364a13.7,13.7,0,0,0,.414,2.612c.121.613.314,1.183-.685,1.152-.5-.015-.281.38-.216.633.259,1,.514,1.994.8,2.982.15.522.47,1.1-.18,1.44s-1.073-.278-1.273-.7a11.339,11.339,0,0,1-1.495-5.466C652.61,10507.622,652.579,10506.88,652.579,10506.14Z" fill="#264295"/><path d="M680.925,10587.253c.647.207.615.646.4,1.166-.7,1.72-1.4,3.435-2.071,5.165-2.342,6.057-6.646,10.778-10.649,15.709-2.748,3.385-5.378,6.872-8.228,10.169a34.435,34.435,0,0,0-4.63,6.237c-.908,1.707-.606,2.05.8,3.251,3.489,2.975,7.547,5.131,11.107,7.988a4.042,4.042,0,0,1,.661.588c.416.518,1.145,1.135.509,1.753-.557.54-.995-.3-1.448-.618-2.932-2.058-5.882-4.088-8.79-6.177-1.43-1.027-2.782-2.161-4.173-3.242a1.708,1.708,0,0,1-.642-2.047,19.2,19.2,0,0,1,3.984-7.385c3.34-3.979,6.621-8.007,9.891-12.044,1.94-2.395,3.99-4.693,5.861-7.154,1.634-2.148,2.579-4.607,3.81-6.937.983-1.86,1.52-3.939,2.757-5.681C680.3,10587.677,680.428,10587.271,680.925,10587.253Z" fill="#264295"/><path d="M750.349,10505.3l-.517-.539c.292-.94,1.681-.844,1.817-1.956.208-1.691,1.324-3.469-.6-4.922a.786.786,0,0,1-.087-1.192.627.627,0,0,1,1.015.174c.762,1.251,2.368,2.1,2.1,4.109a3.643,3.643,0,0,1,.457-.676c2.4-2.247,4.622-1.769,5.535,1.35a43.979,43.979,0,0,1,1.345,15.561,114.2,114.2,0,0,0-.656,12.951,25.874,25.874,0,0,1-1.409,8.938c-.22.692-.669,1.248-1.375.959-.679-.276-.35-.974-.216-1.549.587-2.526,1.407-5.021,1.281-7.665-.275-5.769.558-11.5.638-17.251a31.214,31.214,0,0,0-1.769-12c-.463-1.182-1.194-1.093-1.908-.5a10.99,10.99,0,0,0-2.984,3.146C752.454,10505.3,751.4,10505.363,750.349,10505.3Z" fill="#264295"/><path d="M704.753,10558.575c3.406-1.773,7.094-2.767,10.681-4.017a6.351,6.351,0,0,1,2.129-.554,11.527,11.527,0,0,0,6.458-1.49c2.1-1.224,4.407-.831,6.774-.368a82.565,82.565,0,0,0,8.9.847c.541.046,1.32-1.025,1.562.029.217.939-.821,1.232-1.618,1.554a64.961,64.961,0,0,1-6.735,2.341c-.93.261-1.846.149-2.766.322-4.426.835-8.745,2.109-13.13,3.105-3.746.853-7.565.637-11.369.406-1.119-.067-2.24-.084-3.36-.111-.344-.008-.706.063-.992-.185-.249-.215-.718-.347-.649-.719.091-.493.622-.535.972-.417,2.2.745,4.456.146,6.68.286a36.045,36.045,0,0,0,12.624-1.719,85.711,85.711,0,0,1,12.85-2.771,4.386,4.386,0,0,0,3.087-1.32,42.02,42.02,0,0,1-8.255-.628,8.229,8.229,0,0,0-5.8,1.429,2.85,2.85,0,0,1-1.774.622c-4.061-.26-7.655,1.431-11.363,2.65a19.519,19.519,0,0,1-3.662,1.032C705.575,10558.953,705.117,10559.2,704.753,10558.575Z" fill="#264295"/><path d="M747.215,10472.844c-1.1-2.5-3.6-3.425-5.211-5.247-.516-.584-1.968-.91-.559-2.066.236-.193-.18-.515-.377-.687-3.4-2.983-6.417-6.39-9.95-9.226a8.938,8.938,0,0,0-3.867-1.358c-.669-.144-1.476-.372-1.4-1.028.091-.75.924-.6,1.578-.52a12.754,12.754,0,0,1,7.534,3.618c1.716,1.674,3.307,3.478,5.184,5a21.17,21.17,0,0,1,3.633,4.623,14.2,14.2,0,0,0,2.254,2.69c2.383,2.076,4.4,4.533,4.953,7.65.6,3.343,2.751,6.127,3.046,9.522.025.289.048.578.079.867s.069.616-.244.789c-.442.244-.607-.229-.824-.42a2.1,2.1,0,0,1-.5-.883c-1.6-4.539-3.274-9.039-6.8-12.539a.558.558,0,0,1-.13-.788C746.106,10472.187,746.6,10472.841,747.215,10472.844Z" fill="#264295"/><path d="M678.364,10503.759a14.088,14.088,0,0,1-2.824,2.365c-.615.325-1.36.669-1.824-.122-.527-.9.461-.877.888-1.133,1.874-1.12,2.994-2.965,4.4-4.533a33.8,33.8,0,0,1,2.945-2.883c.892-.781,1.957-.29,2.883-.753.435-.217.472.418.158.772-.545.617-1.1,1.225-1.669,1.852.339.464.9-.329,1.106.208a1.278,1.278,0,0,1-.471,1.323c-1.736,1.811-2.882,4.218-5.367,5.286-.344.148-.622.564-1.019.3-.465-.311-.34-.765-.1-1.181C677.767,10504.759,678.066,10504.259,678.364,10503.759Z" fill="#264295"/><path d="M734.675,10492a5.775,5.775,0,0,1,2.522-.08c.4.035,1.31.045.69.954-.266.391.126.373.284.474.666.425,1.827.475,1.237,1.81-.072.163.456.077.7.143a.762.762,0,0,1,.618.858c0,.489-.372.62-.661.656a19.62,19.62,0,0,1-2.349.1.741.741,0,0,1-.475-.265,4.493,4.493,0,0,0-3.366-1.782c-1.1-.065-1.489-1.142-2.475-1.5a2.715,2.715,0,0,0-1.962-.046,9.433,9.433,0,0,1-3.5.349.979.979,0,0,1-1.02-.7c-.129-.631.483-.664.872-.743,1.786-.367,3.389-1.476,5.414-.96.836.212,1.876-.421,2.833-.625.371-.08.85-.129,1.066.251C735.38,10491.384,734.941,10491.669,734.675,10492Z" fill="#264295"/><path d="M759.941,10659.515a11.779,11.779,0,0,1-.554-5.585,63.909,63.909,0,0,1,1.341-8.395,38.392,38.392,0,0,1,3.821-9.2c.263-.494.545-1.034,1.219-.783.776.288.586.99.38,1.509-.672,1.686-1.455,3.326-2.14,5.007a47.467,47.467,0,0,0-2.993,12.225C760.816,10655.907,761.013,10657.606,759.941,10659.515Z" fill="#264295"/><path d="M714.741,10564.449c-2.39.345-4.921-.67-7.543-.851a.626.626,0,0,1-.645-.668c0-.424.4-.322.658-.39a3.22,3.22,0,0,1,1.6,0c4.6,1.11,9.141.544,13.719-.344,2.97-.575,5.829-1.8,8.938-1.64,1.721.089,2.909-1.368,4.521-1.628.4-.064.917-.59,1.164-.13.353.657-.419.85-.809,1.182-1.988,1.7-4.428,1.968-6.875,2.106-2.186.124-4.168,1.059-6.307,1.4C720.456,10563.921,717.8,10564.615,714.741,10564.449Z" fill="#264295"/><path d="M693,10549.735c.127-3.124,1.553-5.758,3.012-8.369.645-1.153,1.371-2.261,2.085-3.374.222-.345.4-.974.936-.72s.309.854.206,1.32a16.175,16.175,0,0,1-2.231,4.915,15.027,15.027,0,0,0-2.155,8.83c.023.48.211,1.124-.414,1.251s-.745-.571-.86-.994C693.328,10551.659,693.19,10550.691,693,10549.735Z" fill="#264295"/><path d="M709.877,10451.7c3.865.857,7.907,1.362,10.436,5.119a11.011,11.011,0,0,1,1.16,3.451,1.017,1.017,0,0,1-.539,1.236c-.544.172-.749-.421-.884-.8-.8-2.266-1.839-4.373-4.147-5.456a21.255,21.255,0,0,0-6.253-2.02c-.53-.068-1.405.038-1.313-.756C708.409,10451.852,709.28,10451.936,709.877,10451.7Z" fill="#264295"/><path d="M694.572,10559.983c.453.115.558.465.642.877a20.473,20.473,0,0,0,4.182,8.784,16.9,16.9,0,0,1,1.1,1.915c.208.349.5.729.1,1.041-.373.289-.742-.064-1.039-.3a16.279,16.279,0,0,1-4.868-6.885c-.64-1.532-1.36-3.032-.761-4.768C694.048,10560.293,694.139,10560.007,694.572,10559.983Z" fill="#264295"/><path d="M703.722,10539.633c-2.736,0-4.537-2.026-4.236-4.958a7.193,7.193,0,0,1,2.431-5.2c.541-.433,1.211-1.036,1.78-.318.547.687-.266,1.042-.747,1.425a5.08,5.08,0,0,0-1.248,6.375c.991,1.653,2.452,1.333,3.912,1.171.459-.051,1.081-.439,1.222.238.09.433-.467.766-.936.983A5.27,5.27,0,0,1,703.722,10539.633Z" fill="#264295"/><path d="M687.282,10459.711a2.288,2.288,0,0,1,2.046-.659,18.608,18.608,0,0,1,10.621,5.3,5.051,5.051,0,0,1,1.194,2.173c.084.3.4.671-.008.934s-.755-.009-1.032-.3a38.971,38.971,0,0,0-2.714-2.9,21.259,21.259,0,0,0-5.9-3.221A41.823,41.823,0,0,0,687.282,10459.711Z" fill="#264295"/><path d="M741.781,10545.11c-.1.486.109,1.015-.389,1.141s-.808-.323-.989-.716c-.777-1.687-1.525-3.384-2.416-5.021-1.233-2.265-2.154-4.721-4.16-6.486-.139-.122-.378-.175-.287-.427a.514.514,0,0,1,.591-.34,2.719,2.719,0,0,1,1.915.979,43.638,43.638,0,0,1,5.481,9.848A7.935,7.935,0,0,1,741.781,10545.11Z" fill="#264295"/><path d="M793.194,10707.93c-.065.262-.082.448-.321.519a.809.809,0,0,1-1-.4c-.944-1.432-1.937-2.831-2.866-4.271a13.282,13.282,0,0,0-4.873-4.9c-.479-.249-.947-.475-.674-1.071.323-.7.781-.222,1.22-.049,3.244,1.276,5.209,3.854,6.843,6.744C792.15,10705.606,792.642,10706.785,793.194,10707.93Z" fill="#264295"/><path d="M698.8,10494.724c-1.453,1.043-1.712,2.678-2.922,3.686-.586.489-1,1.327-1.8,1.569-1.256.382-2.613.446-3.611,1.493a.568.568,0,0,1-.98-.151c-.424-.863-.409-.829-1.153-.155-.518.469-.926,1.755-1.74,1-.573-.53.581-1.154,1.009-1.581,1.614-1.608,3.775-2.094,5.933-2.506.168-.032.5.109.516.077.471-1.252,2.16-1.236,2.6-2.4C697.04,10494.743,697.662,10494.57,698.8,10494.724Z" fill="#264295"/><path d="M732.86,10531.56c0,3.927-1.875,6.2-5.5,6.83-.571.1-1.195-.032-1.373-.6-.24-.765.582-.536.915-.788,1.129-.856,2.807-.605,3.693-1.969,1.289-1.981,1.029-4.022.379-6.088-.132-.42-.526-.8.01-1.146s.738.2,1.062.476C733.175,10529.242,732.727,10530.551,732.86,10531.56Z" fill="#264295"/><path d="M715.488,10730.126c-.013-.569.069-.918.539-1.08.437-.148.645.084.823.4a37.363,37.363,0,0,1,3.964,8.814c.065.254.122.5-.133.652a.584.584,0,0,1-.69-.07,1.759,1.759,0,0,1-.374-.446,65.481,65.481,0,0,1-4.047-7.844A1.574,1.574,0,0,1,715.488,10730.126Z" fill="#264295"/><path d="M675.018,10473.648c.884,0,1.768-.013,2.652.006.433.009.988-.01.995.595.008.62-.481.76-1.032.778-2.769.091-5.537.2-8.306.3-.833.031-1.674.013-2.5.124-.508.067-1.115.274-1.24-.335-.158-.768.678-.752,1.111-.815A74.934,74.934,0,0,1,675.018,10473.648Z" fill="#264295"/><path d="M838.849,10717.908a10.317,10.317,0,0,1,1.423-6.15c.386-.748,1.019-1.074,1.636-.694.6.368.183.9-.148,1.473a10.8,10.8,0,0,0-1.285,4.456c-.12,1.265-.215,2.532-.317,3.8-.033.407-.1.871-.574.894-.608.03-.5-.521-.45-.868C839.27,10719.859,838.582,10719.02,838.849,10717.908Z" fill="#264295"/><path d="M661.758,10506.828q-.562,1-1.126,2c-1.054-.333-1.1-1.021-.733-1.922a51.714,51.714,0,0,1,3.434-7.105,1.732,1.732,0,0,1,1.393-.912.888.888,0,0,1,.952.543c.133.38-.325.387-.527.563a4.822,4.822,0,0,0-1.311,1.882A37.48,37.48,0,0,0,661.758,10506.828Z" fill="#264295"/><path d="M714.742,10538.49a6.089,6.089,0,0,0,5.573-.815c.229-.172.6-.224.739-.438,1.2-1.879,3.319-2,5.13-2.692a1.045,1.045,0,0,1,1.49.52c.245.721-.48.842-.973,1.009a4.4,4.4,0,0,1-2.419.4c-.762-.164-1.279.346-1.723.9-1.244,1.558-4.821,3.355-7.237,1.949A1.048,1.048,0,0,1,714.742,10538.49Z" fill="#264295"/><path d="M673.725,10469.795a25.617,25.617,0,0,1,6.707,1.407,1.873,1.873,0,0,1,1.093.7c.32.519.4.82-.448.86a11.348,11.348,0,0,1-3.814-.919,16.729,16.729,0,0,0-5.066-.714c-.549.008-1.241.119-1.208-.656.029-.683.734-.647,1.259-.675C672.739,10469.775,673.233,10469.795,673.725,10469.795Z" fill="#264295"/><path d="M744.231,10557.033c.031-.628-.023-.86.063-1.015.229-.406.109-1.185.7-1.169.537.016.521.688.63,1.161a57.687,57.687,0,0,0,2.275,6.511c.155.429.688,1.085-.042,1.432-.635.3-.969-.331-1.219-.781A35.218,35.218,0,0,1,744.231,10557.033Z" fill="#264295"/><path d="M674.1,10477.523a1.352,1.352,0,0,1-.811,1.012,49.258,49.258,0,0,1-7.005,2.607.75.75,0,0,1-1.012-.354c-.246-.546.273-.709.588-.832,2.508-.978,5.03-1.915,7.548-2.865C673.837,10476.928,674.054,10477.092,674.1,10477.523Z" fill="#264295"/><path d="M719.82,10725.059c-1.942-1.669-2.853-3.834-4.313-5.581-.388-.465-.814-1.2-.174-1.713.709-.571,1.211.158,1.546.641a25.767,25.767,0,0,1,2.646,4.232A3.165,3.165,0,0,1,719.82,10725.059Z" fill="#264295"/><path d="M615.521,10641.023a1.162,1.162,0,0,1-.952-1,30.919,30.919,0,0,1-1.368-8.065c0-.853.019-2.233.817-2.205,1.069.037.544,1.364.51,2.086a25.307,25.307,0,0,0,1.124,8.229A.847.847,0,0,1,615.521,10641.023Z" fill="#264295"/><path d="M663.485,10489.5c-.46-.081-1.917.445-1.938-.745-.017-.933,1.388-.83,2.325-.822a15.838,15.838,0,0,0,3.852-.893c.451-.11.977-.359,1.229.329.243.661-.254.872-.691,1.093A8.623,8.623,0,0,1,663.485,10489.5Z" fill="#264295"/><path d="M676.549,10610.3c-.17,1.613-1.064,3-1.675,4.483a21.81,21.81,0,0,1-1.25,2.292c-.162.289-.288.7-.736.525a.612.612,0,0,1-.313-.87c.862-2.17,1.726-4.34,2.634-6.49.157-.373.436-.818,1-.642A.461.461,0,0,1,676.549,10610.3Z" fill="#264295"/><path d="M725.628,10462.336c-.464.463.266,1.812-.7,1.844-1.2.042-.778-1.239-.821-1.975a7.642,7.642,0,0,0-1.446-4.486c-.331-.42-.591-.963-.153-1.3.523-.406.849.256,1.17.563C725.168,10458.4,725.417,10460.3,725.628,10462.336Z" fill="#264295"/><path d="M661.3,10524.887a9.466,9.466,0,0,1,1.1-4.939c.214-.358.46-.664.926-.567a.571.571,0,0,1,.4.818c-.583,1.638-.37,3.408-.873,5.049-.131.43-.142,1.229-.682,1.122A1.251,1.251,0,0,1,661.3,10524.887Z" fill="#264295"/><path d="M663.7,10486.65a.5.5,0,0,1-.6-.355c-.122-.336-.171-.767.138-.956a45.391,45.391,0,0,0,5.372-3.536c.362-.3.76-.006.73.529a1.121,1.121,0,0,1-.2.543C667.795,10484.832,665.625,10485.6,663.7,10486.65Z" fill="#264295"/><path d="M702.356,10460.539c.112.407-.1.478-.255.581-.393.254-.651-.013-.887-.257-.777-.8-1.565-1.6-2.3-2.439a3.591,3.591,0,0,0-1.772-1.235c-.661-.163-.857-.662-.689-1.051a.942.942,0,0,1,1.279-.3,7.741,7.741,0,0,1,3.312,2.605C701.545,10459.152,702.284,10459.738,702.356,10460.539Z" fill="#264295"/><path d="M750.764,10491.6c-.141.531-.464.686-.946.344a9.124,9.124,0,0,1-1.37-1.089,5.31,5.31,0,0,0-2.361-1.661.859.859,0,0,1-.546-1.3.91.91,0,0,1,1.248-.427,7.757,7.757,0,0,1,3.869,3.811A1.872,1.872,0,0,1,750.764,10491.6Z" fill="#264295"/><path d="M738.529,10471.6c.571.26,1.935-.219,1.82,1.5-.025.386.687.414,1.054.618a.873.873,0,0,1,.479,1.1c-.158.434-.53.272-.875.245-1.049-.086-2.083-.168-2.558-1.336a.714.714,0,0,0-.643-.5c-.522-.062-1.242-.15-1.1-.845C736.844,10471.677,737.557,10471.521,738.529,10471.6Z" fill="#264295"/><path d="M676.112,10467.129a24.293,24.293,0,0,1,5.629,1.641c.275.14.637.39.476.811s-.541.394-.885.309c-1.987-.49-3.974-.984-5.953-1.51a.538.538,0,0,1-.388-.7C675.17,10467.116,675.721,10467.3,676.112,10467.129Z" fill="#264295"/><path d="M796.719,10695.9a.912.912,0,0,1-.353.883c-.269.171-.431-.043-.591-.243-1.167-1.468-2.784-2.443-4.1-3.741-.37-.364-1.14-.767-.5-1.408.516-.515.915.007,1.321.406,1.065,1.051,2.639,1.483,3.486,2.811C796.268,10695.06,796.511,10695.537,796.719,10695.9Z" fill="#264295"/><path d="M682.665,10504.873c-.6-.326-.783-.606-.354-1a30.255,30.255,0,0,0,4.132-5.444.519.519,0,0,1,.21-.2c.93-.337,1.868-1.818,2.521-1.182.525.512-1.113,1.177-1.636,1.912-.973,1.368-2.018,2.688-2.941,4.087C684.058,10503.868,682.957,10503.916,682.665,10504.873Z" fill="#264295"/><path d="M655.283,10641.345c-.666.359-1.122-.016-1.508-.35-.925-.8-1.824-1.634-2.677-2.509a2.2,2.2,0,0,1-.522-1.485.8.8,0,0,1,.5-.823.665.665,0,0,1,.769.3A23.015,23.015,0,0,1,655.283,10641.345Z" fill="#264295"/><path d="M736.661,10470.531c-.918.062-1.461.076-2,.141-.43.051-.82,0-.944-.453a.746.746,0,0,1,.44-.978,8.993,8.993,0,0,1,4.789-.141.728.728,0,0,1-.3,1.415C737.866,10470.568,737.074,10470.531,736.661,10470.531Z" fill="#264295"/><path d="M700.946,10512.775c-1.253-.442-2.217-.788-3.184-1.122-.636-.219-1.116-.243-.87.689a2.688,2.688,0,0,1-1.31,3.283c-1.281.706-2.606.185-3.754-.468-.755-.431-1.717-.85-1.549-2.1.062-.459-.56-.574-1.347-.182-.505.252-1.157.8-1.478.176-.356-.685.546-1,1.021-1.186,3.367-1.288,6.805-2.133,10.434-1.194,1.277.33,2.39,1.12,3.726,1.31a.659.659,0,0,1,.495.8c-.1.669-2.613,2.126-3.283,1.886-.451-.162-.688-.458-.251-.865C699.946,10513.484,700.354,10513.223,700.946,10512.775Z" fill="#264295"/><path d="M685.848,10515.464h4.4a4.31,4.31,0,0,1,1.025.03c.3.075.736.17.652.622-.062.342-.421.351-.717.387-1.162.139-2.316-.214-3.507.146-1.659.5-3.043,1.565-4.679,2.082a13.044,13.044,0,0,1-1.408.407.817.817,0,0,1-.98-.479.686.686,0,0,1,.4-.863c1.822-.771,2.618-2.616,4.045-3.789.431-.355.777-1.3,1.521-.621.695.638-.039,1.118-.427,1.593C686.058,10515.123,685.966,10515.287,685.848,10515.464Z" fill="#264295"/><path d="M744.007,10508.893a3.863,3.863,0,0,1-4.056-.429,4.177,4.177,0,0,0-1.153-.617c-.52-.144-.574.168-.679.512-.181.592.289.354.509.393.482.084.974.117,1.457.2a1,1,0,0,1,.909.85c.034.545-.523.628-.94.748-.939.27-1.823-.317-2.77-.166a45.872,45.872,0,0,1-8.2.524,21.631,21.631,0,0,1-3.368-.352c-.981-.173-1-1.069-.413-1.342,1.93-.892,3.242-2.867,5.53-3.106.393-.041.8-.261,1.083.125.321.433-.263.537-.378.818-.146.357-.431.766-.2,1.1s.7.264,1.1.179c.433-.092.693-.243.659-.781-.077-1.2.783-1.19,1.664-1.329C738.134,10505.693,740.713,10507.715,744.007,10508.893Z" fill="#264295"/><path d="M703.45,10475.683a58.008,58.008,0,0,1,17.822,3.585c4.316,1.607,8.507,3.746,13.071,4.357-.879-.118-3.891-4.472-4.918-5.257a14.753,14.753,0,0,0-6.838-3.092C716.725,10474.332,709.386,10475.213,703.45,10475.683Z" fill="#c9a99b"/><path d="M690.877,10530.324a57.223,57.223,0,0,1-12.455,1.132c1.286,5.14,6.35,9.06,6.411,14.358a41.949,41.949,0,0,1,12.149-15.753l-8.815.276" fill="#c9a99b"/><path d="M748.084,10521.415a8.366,8.366,0,0,1-5.5,3.376,24.818,24.818,0,0,1-6.614.1,31.628,31.628,0,0,1,11.889,11,28.967,28.967,0,0,1,2.169-13.746" fill="#c9a99b"/></g></svg>