<svg xmlns="http://www.w3.org/2000/svg" width="306.049" height="323.949" viewBox="0 0 306.049 323.949"><g transform="translate(-267.484 -10430.08)"><path d="M327.069,10585.238c-19.218,4.142-39.833,13.29-46.763,31.688-7.748,20.568-4.842,47.062-5.131,68.626-.234,17.485-5.193,35.045-7.691,52.342.406-.541,1.456.162,1.111.744.3-1.687,2.6-1.941,4.3-1.763a256.06,256.06,0,0,1,40.734,7.637c3.734,1.02,7.5,2.132,11.368,2.213,7.439.157,11.551-3.978,19.359-3.518a142.076,142.076,0,0,0,27.682-.771c15.417-2.106,30.382-7.23,45.91-8.254,17.955-1.184,35.763,3.161,53.233,7.474l26.329,6.5c13.386,3.3,27.032,6.633,40.79,5.725,10.842-.716,23.337-4.5,30.924-12.736,6.614-7.185,1.474-25.748,2.05-36.228a214.95,214.95,0,0,0-13.735-87.9c-2.927-7.687-5.079-17.1-13.215-20.545-15.825-6.708-31.684-13.428-48.117-18.465-15.159-4.646-31.756-8.431-42.3-20.271-1.186-1.333-2.388-2.826-4.106-3.311-2.006-.563-4.086.415-5.96,1.329a145.153,145.153,0,0,1-30.256,10.771c-10,2.356-20.036,2.239-30.041,3.931-8.717,1.473-16.932,6.592-25.659,8.722C347.71,10581.662,337.3,10583.032,327.069,10585.238Z" fill="#0f173a"/><path d="M366.44,10464.945l-3.508,20.839-.807,4.8a157.478,157.478,0,0,0-2.4,18.926c1.3-1.8-1.2-4.4-3.357-3.872s-3.392,2.83-3.837,5.006a14.2,14.2,0,0,0,.706,8.021c1.152,2.91,3.242,5.367,4.472,8.245,1.983,4.642,1.627,10.121,4.121,14.51a25,25,0,0,0,2.88,3.829l12.863,15c2.872,3.347,5.775,6.743,7.706,10.708,1.8,3.687,2.725,7.814,5.045,11.2,2.078,3.028,5.118,5.233,7.838,7.7a48.828,48.828,0,0,1,10.487,13.616,3.4,3.4,0,0,0,1.384,1.677,3.136,3.136,0,0,0,2.189-.084,34.817,34.817,0,0,0,20.466-16.631c1.536-2.846,2.657-5.891,4.145-8.76a43.616,43.616,0,0,0,3.677-8.185,36.633,36.633,0,0,0,.7-4.121c.491-3.235,1.008-7.265,3.365-9.569,2.33-2.278,2.888-6.272,4.4-9.105a16.664,16.664,0,0,0,1.906-9.179c-.1-1.144-.2-2.544.755-3.178a5.942,5.942,0,0,0,1.025-.583c1.276-1.272,1.34-4.492,1.9-6.128.816-2.371,2.021-4.607,2.56-7.07.4-1.8.417-3.671.733-5.491a17.228,17.228,0,0,1,2.035-5.616,18.808,18.808,0,0,0,2.112-4.841,19.745,19.745,0,0,0,.961-5.1c.029-2.953-1.448-5.175-2.937-7.556-3.435.806-5.889-3.181-7.146-6.478l-5.115-13.415c-1.816-4.765-3.659-9.581-6.544-13.786-8.192-11.94-24.005-17.105-38.367-15.251s-27.337,9.755-38.121,19.419a9.635,9.635,0,0,0-2.888,3.641,3.48,3.48,0,0,0,1.155,4.165" fill="#dc8b63"/><path d="M394.228,10462.479c5.558-.175,10.8-2.668,16.332-3.235,6.76-.7,13.443,1.51,19.88,3.685-1.1-1.315-1.747-2.942-2.708-4.361C419.911,10447.023,403.284,10458.663,394.228,10462.479Z" fill="#c9a99b"/><path d="M395.042,10507.349c-.207,1.277-1.569,2-2.808,2.37-2.963.895-5.6.087-8.5.436-3.538.424-1.47,3.235-.654,5.163.342-.744,5.508-1.555,6.777-2.312A13.2,13.2,0,0,0,395.042,10507.349Z" fill="#c9a99b"/><path d="M421.723,10503.6l-.051-.037a1.884,1.884,0,0,0-1.153-.491,33.315,33.315,0,0,0,7.213,5.257c1.65.89,3.719,1.629,5.322.657a4,4,0,0,0,1.706-3.259,11.83,11.83,0,0,0-.635-3.757c.16.564-1.667,2.245-2.094,2.494a2.789,2.789,0,0,1-2.335.269C427.049,10504.341,424.395,10503.921,421.723,10503.6Z" fill="#c9a99b"/><path d="M449.7,10486.344c.655.6,1.312,1.188,1.946,1.8,2.69,2.6,3.479,7.542,3.362,11.128a5.882,5.882,0,0,1,4.054-5.418c-1.8-5.878-2.109-12.1-3.226-18.141s-3.236-12.225-7.8-16.337c-4.085-3.677-9.862-5.459-13.02-9.957-1.218-1.735-1.952-3.761-3.067-5.563-2.252-3.646-5.915-6.17-9.616-8.329a29.45,29.45,0,0,0-10.489-4.176c-3.833-.544-7.719.2-11.514.967-10.649,2.148-21.464,4.568-30.824,10.083s-17.185,14.688-18.39,25.484c-.364,3.259-.124,6.571-.635,9.81-.49,3.11-1.66,6.075-2.312,9.155a16.677,16.677,0,0,0-.445,6.351c.271,1.4.958,2.646,1.174,4.075.724,4.793,1.027,9.51,2.239,14.239a11.246,11.246,0,0,1,4.142-4.384c1.816-.923,4.323-.775,5.572.832l.135-4.506a39.33,39.33,0,0,1,.639-7.077c.436-2.035,1.656-3.74,2.39-5.658.834-2.179,1.357-4.532,2.022-6.77a11.767,11.767,0,0,1-2.651-7.7c.021-.843.134-1.683.12-2.526-.019-1.2-.3-2.389-.3-3.591-.007-4.14,4.026-8.8,7.53-10.661a62.021,62.021,0,0,1,13.192-5.159q4.83-1.277,9.7-2.377c2.926-.661,5.866-1.275,8.835-1.713,3.4-.5,6.991-.093,10.258-.924s7.147-1.152,10.177.638c4.353,2.57,8.843,6.748,12.705,10.069a18.112,18.112,0,0,1,4.59,5.28,15.439,15.439,0,0,1,1.244,8c-.176,2.877.99,5.6,2.012,8.285.307.8,3.878,2.5,4.694,3.3a22.073,22.073,0,0,1,5.513,9.743c.516,2.069.57,4.319,1.691,6.133a12.615,12.615,0,0,1,1.676-4.406,4.714,4.714,0,0,1,1.495-1.637,2.128,2.128,0,0,1,2.128-.119,7.619,7.619,0,0,1-.871-6.08" fill="#f3f0e6"/><path d="M379.671,10598.426c.433,4.6,1.33,9.214.8,13.8-.471,4.055-2.041,7.9-2.753,11.922-.964,5.438-.335,11.015-.392,16.537-.07,6.846-1.2,13.631-1.786,20.449a131.422,131.422,0,0,0,17.108,76.647c1.172,2.021,19.04-2.742,21.449-4.207,6.868-4.177,14.6-10.07,17.85-17.663,4.633-10.811,6.359-25.673,7.367-37.333.5-5.8.557-11.62.839-17.431a223.746,223.746,0,0,1,11.729-61.366c2.187-6.4,4.687-12.806,5.21-19.548.656-8.449-1.887-16.939-6.114-24.284a5.455,5.455,0,0,0-2.071-2.332c-1.565-.781-3.547.075-4.611,1.462a11.815,11.815,0,0,0-1.8,4.88c-1.91,9.08-4.325,18.143-8.563,26.4s-10.439,15.713-18.566,20.19a22.925,22.925,0,0,0-10.605-12.288,61.625,61.625,0,0,1-6.132-3.187c-3.606-2.5-5.534-6.483-7.3-10.357-1.283-2.821-3.471-10.617-6.683-11.848-2.3-.88-1.142-.218-2.1,1.918-1.146,2.554-1.55,6.023-2.053,8.777A69.064,69.064,0,0,0,379.671,10598.426Z" fill="#c2c2c8"/><path d="M409.917,10627.748a12.692,12.692,0,0,1,1.637,2.949,12.065,12.065,0,0,1,.4,4.355,120.7,120.7,0,0,1-1.7,16.5c-.835,4.73-3.68,9.322-5.227,13.955a131.125,131.125,0,0,0-4.5,17.337c-1.107,5.905-1.131,12.057-2.37,17.87-1.519,7.129-9.708,28.767-5.983,35.322,3.66,6.441,27.3,6.074,34.916,7.148a3.686,3.686,0,0,0,3.027-.713c-.817-3.329.092-6.234-.127-9.369-.277-3.984-2.048-7.489-2.444-11.439-.524-5.233.625-10.467.534-15.7-.146-8.31-3.425-16.271-4.116-24.555-.663-7.945,1.064-15.835.849-23.777-.093-3.441-1.169-6.654-1.216-10.022a88.668,88.668,0,0,1,.62-11.725c.924-7.732,3.118-15.474,2.045-23.187l-11.327-5.854a4.317,4.317,0,0,0-2.641-.7,4.2,4.2,0,0,0-1.883,1.087c-2.237,1.9-8.394,6.081-8.216,9.1C402.376,10619.324,408.206,10625.224,409.917,10627.748Z" fill="#264295"/><path d="M539.595,10608.238c-1.81-1.23-1.011-4.229.7-5.594s3.981-1.852,5.738-3.155c-1.893,1.4-16.6-4.944-19.188-5.774-6.132-1.968-12.385-4.826-18.631-6.162,1,4.581,8.583,8.148,12.271,10.49A142.855,142.855,0,0,0,539.595,10608.238Z" fill="#2f333e"/><path d="M295.255,10612.653c2.005-4.852,7.2-7.435,11.979-9.6,16.946-7.691,34.171-15.467,52.581-18.186-7.374-5.838-26.026,1.321-33.367,5.232a149.441,149.441,0,0,0-14.531,9.445C307.878,10602.351,297.138,10608.029,295.255,10612.653Z" fill="#2f333e"/><path d="M401.847,10543.188a11.835,11.835,0,0,1,7.5-1.836,9.6,9.6,0,0,0,2.51.234,20.817,20.817,0,0,0,2.423-.776,8.934,8.934,0,0,1,4.378.35l9.37,2.354a30.1,30.1,0,0,1-11.907,4.188c-1.25.158-2.509.238-3.769.292-3.986.171-7.978.084-11.964-.063-1.521-.056-3.748.154-2.606-1.644C398.56,10545.06,400.622,10543.918,401.847,10543.188Z" fill="#863842" opacity="0.46"/><path d="M427.524,10613.327c-.373,7.813-1.874,15.232-3.452,23a6.276,6.276,0,0,1-.549-5.187c.919-4.05,1.33-8.18,2.136-12.246.353-1.78.384-3.625.578-5.438a1.211,1.211,0,0,0-.89-1.416c-3.174-1.289-6.217-2.87-9.4-4.14-3.279-1.308-5.3-4.1-7.2-6.864a28.841,28.841,0,0,0-7.913-8.147c-2.236-1.437-4.334-2.966-6.408-4.605a16.9,16.9,0,0,1-3.6-4.484,47.22,47.22,0,0,1-5.7-12.595c-.092-.323-.248-.627-.363-.943-.153-.421-.319-.767-.88-.783-.69-.02-.615.525-.709.892a63.325,63.325,0,0,0-1.672,8.661c-.327,2.876-.837,5.734-1.065,8.616a64.1,64.1,0,0,0,.715,14.831c.716,4.679,2.2,9.234,2.413,13.974.217,4.825,1.589,9.412,2.473,14.1a7.88,7.88,0,0,0,2.159,4.188c.62.627,1,.615,1.326-.245a67.539,67.539,0,0,1,3.867-8.236,44.05,44.05,0,0,1,13.108-15.41c1.295-.922,2.528-1.931,3.835-2.835.39-.27,1.009-.812,1.4-.239.46.668-.209,1.1-.712,1.494-2.054,1.6-4.143,3.164-6.136,4.839-1.931,1.624-1.9,1.7-.175,3.4,3.064,3.011,4.849,6.819,6.625,10.622a15.15,15.15,0,0,1,1.459,3.462c.13.674.579.7,1.093.551,4.233-1.246,8.084,2.457,9.758,5.024a1.392,1.392,0,0,1,.269.814c-.423,3.9.743,7.646,1.175,11.447a159.994,159.994,0,0,1,.926,23.266,178.169,178.169,0,0,0,.614,19.508c.335,4.318.95,8.6,1.326,12.917.4,4.636.177,9.252.4,13.867.15,3.08.592,6.146.864,9.221.106,1.2.112,2.4.151,3.608.009.283.034.656-.279.754-.453.142-.536-.309-.656-.594-.69-1.635-.622-3.413-.831-5.122a92.191,92.191,0,0,1-.8-15,55.964,55.964,0,0,0-.415-6.928c-.644-7.628-1.679-15.221-1.941-22.882-.124-3.622.148-7.235.185-10.853.059-5.693.334-11.425-.378-17.069-.693-5.49-.915-11.059-2.206-16.461-.435-1.82-2.228-2.567-3.587-3.6-1.25-.946-2.759-.784-4.2-.659-.817.071-1.177.6-1.191,1.5a81.3,81.3,0,0,1-2.711,19.6c-1.584,6-3.68,11.871-5.315,17.861-1.434,5.256-3.547,10.366-4.264,15.767-.8,6.032-2.308,11.919-3.176,17.931-.356,2.461-1.4,4.815-1.92,7.262-1.019,4.8-2.554,9.516-2.593,14.493-.015,1.879.654,3.7.441,5.676-.787-.1-.806-.746-.958-1.237a17.852,17.852,0,0,1-.653-8.7,110.988,110.988,0,0,1,3.009-13.376c1.077-3.386,1.412-6.876,2.078-10.322.548-2.833,1.285-5.631,1.684-8.5,1.341-9.658,4.932-18.72,7.476-28.061,1.429-5.246,3.307-10.382,4.158-15.775.691-4.378,1.4-8.76,1.729-13.183a5.961,5.961,0,0,0-.637-3.055q-2.127-4.279-4.3-8.537c-.955-1.886-2.528-3.277-3.885-4.845-.884-1.019-1.547-.771-2.332.144a49.115,49.115,0,0,0-7.307,11.4c-1.158,2.493-2.286,5-3.435,7.5-.531,1.156-1.018,1.218-1.926.274a17.928,17.928,0,0,1-4.276-8.487c-1.4-5.52-1.576-11.169-2.58-16.707-.765-4.217-1.748-8.394-2.279-12.656a56.8,56.8,0,0,1,.066-14c.423-3.441.969-6.867,1.407-10.307a38.128,38.128,0,0,1,1.489-5.584c.107-.374.363-.729-.131-1-.429-.231-.586.169-.817.382-2.271,2.094-4.5,4.253-7.366,5.539a29.854,29.854,0,0,1-7.465,2.595,4.419,4.419,0,0,0-3.693,2.785c-.973,2.3-2.226,4.49-3.223,6.786-1.876,4.323-4.755,8.041-7.125,12.065a71.063,71.063,0,0,1-7.478,9.733,8.46,8.46,0,0,1-2.4,2.061c-.634.342-1.012.691-.154,1.328a56.01,56.01,0,0,1,7.1,6.375c.578.606.936.276,1.342-.02,2.575-1.869,5.149-3.742,7.7-5.651a72.058,72.058,0,0,0,9.931-8.414,6.476,6.476,0,0,1,1.182-.747c-.634,2.359-2.175,3.738-3.667,5.069a171.992,171.992,0,0,1-17.009,12.982c-5.165,3.562-10.272,7.209-15.35,10.895-2.484,1.8-2.336,1.833-1.02,4.513a85.166,85.166,0,0,1,7.06,20.284c1.5,7.219,2.368,14.569,4.5,21.671,1.315,4.383,2.089,8.927,3.385,13.316a82.988,82.988,0,0,0,6.153,15.742c2.342,4.386,4.762,8.727,7.382,12.94a31.744,31.744,0,0,0,12.057,11.2,29.8,29.8,0,0,0,4.275,1.5,9.484,9.484,0,0,1-6.129-.884c-4.443-2.126-7.736-5.585-10.559-9.493a117.985,117.985,0,0,1-9.6-16.64,84.883,84.883,0,0,1-5.608-15.479c-1.574-5.729-2.9-11.511-4.292-17.278-1.059-4.4-1.715-8.895-2.557-13.346a82.149,82.149,0,0,0-6.719-21.177c-.7-1.428-1.371-2.864-2.023-4.314a1.5,1.5,0,0,1,.527-2.088c2.333-1.954,4.768-3.765,7.282-5.478,3.781-2.576,7.605-5.1,11.262-7.958a16.447,16.447,0,0,1-3.761-3.17,41.1,41.1,0,0,0-5.006-3.923c-.852-.579-1.194-1.206-.153-1.885,4.39-2.863,7.429-6.97,10.215-11.26,2.389-3.681,4.951-7.26,7.015-11.141,1.578-2.966,3.02-6,4.554-9.072a6.648,6.648,0,0,0-3.125.275c-4.321,1.336-8.844,1.771-13.149,3.32-2.879,1.037-6.066,1.469-9.082,2.227-4.935,1.239-9.908,2.368-14.773,3.922-5.232,1.67-10.3,3.813-15.628,5.2a65.236,65.236,0,0,0-12.168,4.5c-1.855.9-2.89,2.666-4.106,4.2-1.523,1.926-3.187,3.731-4.585,5.77a24.084,24.084,0,0,0-4.122,11.9c-.43,5.241-.63,10.5-1.124,15.737-.313,3.314-.757,6.616-.972,9.943-.167,2.6-.189,5.205-.381,7.777-.266,3.566-.288,7.135-.537,10.693-.3,4.332-.2,8.69-.9,13a84.149,84.149,0,0,1-2.006,10.848,4.443,4.443,0,0,1-.719-4.032c1.463-8.735,1.732-17.548,2.117-26.372.254-5.819.232-11.685,1.061-17.462a177.721,177.721,0,0,0,1.588-18.015,28.867,28.867,0,0,1,8.024-19.186c1.18-1.263,2.079-2.784,3.228-4.081a14.253,14.253,0,0,1,6.366-3.868c3.558-1.187,6.983-2.753,10.747-3.37a34.633,34.633,0,0,0,5.72-1.988q9.483-3.36,19.233-5.791c3.028-.76,6.086-1.46,9.118-2.17,4.581-1.072,8.96-2.881,13.668-3.5a27.347,27.347,0,0,0,6.341-1.347c3.984-1.569,8.342-1.966,12.134-4.067a41.735,41.735,0,0,0,6.766-5.161c.7-.6.124-1.034-.214-1.451a74.211,74.211,0,0,0-6.551-7.135,19.585,19.585,0,0,1-5.663-10.211c-.528-2.341-1.75-4.5-2.166-6.878q-1.665-9.551-3.219-19.121c-.518-3.185-1.562-6.263-1.9-9.482-.069-.669-.1-1.344-.11-2.017-.01-.725.391-1.6-.906-1.694-.394-.027-.379-.63-.535-.971-.909-1.989-2.3-2.3-3.909-.74a8.544,8.544,0,0,0-2.48,8.787c.847,3.588,2.723,6.552,4.619,9.574a18.508,18.508,0,0,1,2,5.367,25.609,25.609,0,0,0,1.1,2.979,25.8,25.8,0,0,1,1.16,6.236c.424,3.211,1.558,4.568,4.62,5.33.248.061.556.118.523.379a.8.8,0,0,1-.807.708,4.268,4.268,0,0,1-3.424-1.186,10.137,10.137,0,0,1-2.344-5.952,44.1,44.1,0,0,0-3.819-12.966c-1.126-2.571-3.244-4.663-4.15-7.422a10.964,10.964,0,0,1-.681-2.658c-.164-2.607-1.809-4.733-2.229-7.271-.573-3.459-1.058-6.911-1.384-10.411a62.338,62.338,0,0,1,.961-16.553,44.329,44.329,0,0,1,4.011-12.032,2.307,2.307,0,0,1,1.583-1.39c-1.427,4.841-3.942,9.139-4.622,14.031-.676,4.867-1.546,9.686-1.063,14.664.471,4.856.578,9.749,2.115,14.462a13.39,13.39,0,0,1,2.788-4.977,5.571,5.571,0,0,1,1.945-1.478c2.215-.962,3.464-.316,4.75,2.524a4.333,4.333,0,0,0,.125-2.028c.04-1.378-.252-2.8.519-4.087a.716.716,0,0,0,.033-.546c-1.368-3.555,0-6.693,1.524-9.785.787-1.595,1.7-3.129,2.547-4.691.166-.3.333-.651.758-.486.516.2.38.608.2.968a50.615,50.615,0,0,1-2.354,4.626,11.952,11.952,0,0,0-1.963,6.127c-.128,5.613-.749,11.306.534,16.816,1.294,5.554,1.906,11.208,3.063,16.776.832,4,.955,8.152,2.388,12.021,1.186,3.2,1.691,6.642,3.45,9.644a25.323,25.323,0,0,0,4.429,5.312,84.646,84.646,0,0,1,6.367,7.1,4.644,4.644,0,0,0,3.839,1.817c5.731.14,11.477-.013,17.181.921a17.84,17.84,0,0,0,5.582-.213,48.4,48.4,0,0,1,6.506-.148,22.2,22.2,0,0,0,7.965-1.75c4.147-1.677,7.831-4.267,11.945-5.993a61.158,61.158,0,0,0,6.927-3.274,10.487,10.487,0,0,0,4.832-5.117c1.166-2.787,2.775-5.367,3.238-8.448a56.659,56.659,0,0,0,.661-8.061,77.1,77.1,0,0,1,1.648-14.6,18.293,18.293,0,0,0,.2-5.047c-.039-.491-.3-1.379.5-1.406.588-.02.293.8.374,1.228a21.343,21.343,0,0,1-.541,8.6,47.814,47.814,0,0,0-.917,11.6c.713-.275.741-.815.74-1.384a21.977,21.977,0,0,1,2.243-8.741c.937-2.179,1.089-4.577,1.641-6.865a34.334,34.334,0,0,1,3.133-8.493,17.553,17.553,0,0,0,1.272-14.812c-.552-1.535-2.132-1.707-3.275-.345a7.284,7.284,0,0,0-1.513,4.731c-.007.395.232,1.049-.387,1.044-.5,0-.489-.683-.477-1.076.071-2.29.207-4.605,2.329-6.079,1.945-1.352,3.659-.783,4.429,1.412,2.042,5.827,1.193,11.307-1.889,16.587a17.573,17.573,0,0,0-2.189,5.933,61.445,61.445,0,0,1-3.391,12.368,10.285,10.285,0,0,0-.7,3.968,3.1,3.1,0,0,1-1.55,3.18,1.239,1.239,0,0,0-.617,1.209,56.4,56.4,0,0,1-1.2,8.127c-.372,1.709-1.484,3.017-2.13,4.567-.228.548-.411.9.241,1.295a8.847,8.847,0,0,1,3.074,3.416,44.137,44.137,0,0,1,5.361,15.33,8.5,8.5,0,0,1-.083,2.733c-1.338,6.872-1.783,13.877-3.027,20.748-.835,4.608-.965,9.312-2.143,13.861-.8,3.088-1.9,6.073-2.9,9.092a38.113,38.113,0,0,0-2.112,8.236,60.068,60.068,0,0,0-.449,7c.1,4.439-.565,8.845-.489,13.29.124,7.215.415,14.447-.443,21.64a64.469,64.469,0,0,1-2.05,9.6c-1.641,5.9-3.014,11.862-4.331,17.846-1.487,6.757-2.8,13.566-5.655,19.99a29.483,29.483,0,0,0-2.4,11.857c0,.347.376,1-.324,1.043-.455.025-.677-.533-.778-.945a14.311,14.311,0,0,1,.226-6.73,93.459,93.459,0,0,1,3.841-11.186c1.256-3.407,1.524-7.066,2.612-10.51,1.56-4.942,1.906-10.138,3.366-15.106,1.221-4.152,2.471-8.311,3.28-12.573a86.624,86.624,0,0,0,1.2-16.137c0-5.928-.234-11.86.4-17.793.262-2.465.131-4.994.439-7.48a1.3,1.3,0,0,0-.239-.938c-4.027-6.128-8.84-11.433-15.429-14.911C428.95,10614.286,428.332,10613.837,427.524,10613.327Zm19.937-59.187c-2.24,3.448-3.143,7.293-4.18,11.059-1,3.628-1.735,7.362-3.7,10.6-1.76,2.9-3.042,6.027-4.623,9.009a25.865,25.865,0,0,1-5.947,8.09c-1.842,1.55-3.309,3.642-5.324,4.87-3.641,2.219-5.354,5.967-8.1,8.85,12.017,4.473,23.12,9.931,30,21.366.131-.161.232-.228.236-.3a45.478,45.478,0,0,1,2.7-11.782,64.341,64.341,0,0,0,2.548-9.474,45.187,45.187,0,0,0,.494-4.9c.191-2.753,1.053-5.388,1.337-8.131.4-3.923,1.084-7.818,1.5-11.741.3-2.877,1.341-5.654,1.273-8.557-.109-4.636-2.013-8.8-3.79-12.957A13.236,13.236,0,0,0,447.461,10554.14Zm-62.073,15.426c.411.859.794,1.523,1.055,2.233a68.181,68.181,0,0,0,5.048,10.7,21.265,21.265,0,0,0,8.285,8.243,28.906,28.906,0,0,1,8.962,8.024c1.521,1.934,3.013,3.888,4.645,5.728,1.039,1.17,1.54,1.223,2.281-.1,2.6-4.641,7.1-7.4,10.689-11.054,1.952-1.986,4.261-3.64,5.614-6.167.953-1.782,1.948-3.545,2.821-5.365,1.292-2.693,2.687-5.331,4.078-7.974,1.677-3.186,2.414-6.694,3.2-10.17.42-1.871,1.354-3.562,1.91-5.476-1.692.7-3.082,1.739-4.611,2.308-5.231,1.944-9.993,4.845-15.024,7.189a20.627,20.627,0,0,1-8.421,2.11,57.967,57.967,0,0,0-7.933.442,23.788,23.788,0,0,1-6.749.039A128.815,128.815,0,0,0,385.388,10569.565Z" fill="#264295"/><path d="M467,10570.224c4.208,4.746,7.6,9.7,11.887,13.9,1.895,1.854,3.929,3.575,5.73,5.515,2.753,2.966,5.362,6.066,8.024,9.117.556.638,1.4,1.074,1.435,2.088a2.9,2.9,0,0,1-1.5,2.8c-3.3,1.764-5.3,4.887-7.946,7.326a21.277,21.277,0,0,1-3.293,2.353c-.539.333-.632.567-.079,1.056,3.69,3.257,7.221,6.715,11.215,9.592,1.812,1.3,3.982,2.107,5.76,3.553.977.8,1.171,1.373.2,2.3-1.279,1.225-1.581,3-2.049,4.577-1.91,6.414-5.072,12.307-7.461,18.515-1.877,4.876-4.579,9.354-6.7,14.1a148.658,148.658,0,0,0-6.193,17.753c-1.679,5.541-2.844,11.235-4.862,16.674-1.543,4.157-3.232,8.261-4.865,12.386-.5,1.256-1.123,2.471-1.516,3.758-.885,2.9-3.273,4.857-4.582,7.491-1.288,2.592-3.619,4.22-5.832,5.934-.24.187-.587.494-.887.166s.026-.6.218-.882c1.29-1.882,3.14-3.261,4.481-5.114a62.928,62.928,0,0,0,8.389-16.86c1.161-3.414,2.81-6.659,3.876-10.128,1.09-3.546,2.082-7.111,3.024-10.7,1.013-3.863,2.414-7.623,3.58-11.448,2.022-6.63,5.129-12.767,8.23-18.936,2.331-4.638,4.043-9.58,6.221-14.3,1.806-3.911,2.8-8.1,4.5-12.043.038-.087.032-.191.063-.282.761-2.235.836-2.388-1.3-3.445-5.6-2.779-9.688-7.413-14.274-11.435-.683-.6-1.233-1.129-2.255-.9-.409.091-1.73.323-.621-.914.4-.445-.132-.694-.433-.867a29.293,29.293,0,0,1-8.873-8.6,11.846,11.846,0,0,0-1.651-1.6c-.245-.225-.629-.394-.337-.8.275-.381.6-.144.9.016a9.371,9.371,0,0,1,3.161,2.907c2.273,3.252,5.52,5.34,8.633,7.612.492.359.667-.021.976-.18,2.944-1.524,5-4.055,7.193-6.413a34.044,34.044,0,0,1,4.4-3.517c.936-.725,1.005-1.312.159-2.236-2.8-3.064-5.462-6.26-8.284-9.3-2.457-2.65-5.435-4.788-7.733-7.6-2.341-2.871-4.762-5.678-7.1-8.556-3.3-4.065-7.1-7.729-10.735-11.52a27.466,27.466,0,0,1-3.121-3.794c-.363-.546-.634-1.24-1.343-1.453-.31-.093-.791.035-.53-.512a.736.736,0,0,1,.947-.454,2.974,2.974,0,0,1,1.434,1.178,37.09,37.09,0,0,0,4.823,5.18c1.655,1.618,3.223,3.33,4.769,5.055a2.943,2.943,0,0,0,1.836.919c3.833.76,7.808.6,11.567,1.785,3.308,1.041,6.592,2.156,9.906,3.177a115.988,115.988,0,0,0,15.662,3.985,47,47,0,0,1,9.653,2.985c1.171.461,2.363.826,3.544,1.238,6.54,2.286,13.13,4.434,19.557,7.036,3.3,1.338,6.52,2.884,9.825,4.231,2.17.886,3.607,2.8,4.8,4.834,3.192,5.471,4.728,11.561,6.752,17.483,1.4,4.109,2.426,8.322,3.846,12.426,1.225,3.54,1.763,7.313,2.7,10.957,1.05,4.063,2.352,8.064,3.291,12.15a95.829,95.829,0,0,1,2.3,15.581c.286,4.628,1.651,9.124,2.077,13.731a110.694,110.694,0,0,1,.061,24.27,47.8,47.8,0,0,1-1.645,6.739,21.509,21.509,0,0,0-.3,9.049c.444,3.015.667,6.044.884,9.074a22.909,22.909,0,0,0,1.474,6.312,12.4,12.4,0,0,1,.864,4.1c-.712,0-.78-.573-.969-.956a28.7,28.7,0,0,1-3.086-11.5c-.109-2.349-.528-4.684-.808-7.025a27.315,27.315,0,0,1,.693-10.866,58.128,58.128,0,0,0,1.7-18.767c-.231-5.115-.263-10.239-1.326-15.258-1.352-6.384-1.55-12.91-2.63-19.334-.782-4.65-2.352-9.041-3.414-13.586-1.077-4.6-1.956-9.27-3.375-13.766-1.1-3.49-2.065-7.025-3.247-10.492-1.6-4.7-2.731-9.556-4.695-14.119a29.38,29.38,0,0,0-5.093-8.483c-.963-1.05-2.275-1.219-3.441-1.729-6.845-3-13.783-5.73-20.865-8.159-4.5-1.543-9.054-3-13.479-4.788-4.861-1.967-10.187-2.146-15.141-3.738-4.912-1.58-9.92-2.852-14.74-4.74a21.37,21.37,0,0,0-6.6-1.557A17.807,17.807,0,0,1,467,10570.224Z" fill="#264295"/><path d="M390.4,10494.406a12.388,12.388,0,0,1,7.414,1.278,7.282,7.282,0,0,1,3.4,3.359c.138.3.141.878.688.713.43-.13.256-.508.157-.844-.18-.616.255-.91.734-1.046a3.616,3.616,0,0,1,1.425-.167c3.083.417,5.317-.965,7.15-3.262a7.42,7.42,0,0,1,4.992-2.662c3.864-.519,7.642-1.468,11.482-2.095a25.7,25.7,0,0,1,8.893.4c1.521.284,2.969.689,4.527.126a5.054,5.054,0,0,1,2.862.105,1.057,1.057,0,0,1,.884.849c.116.57-.229.87-.635,1.183-.54.416-1.222.44-1.8.817-1.986,1.29-.938,3.176-.973,4.774a55.441,55.441,0,0,1-.566,8.654c-.651,3.613-3.553,4.933-6.546,6.048a15.461,15.461,0,0,0-2.967,1.119c-2.743,1.721-5.714,1.034-8.612.742-2.2-.222-4.379-.692-6.56-1.089a3.37,3.37,0,0,1-2.26-1.654,37.829,37.829,0,0,1-3.92-8.836c-.4-1.238-1.325-2.349-2.351-2.415-1.443-.093-3.262-.258-4.206,1.487-.023.042-.04.1-.077.121-2.735,1.5-1.8,4.452-2.663,6.692a2.622,2.622,0,0,0-.136.711c-.408,4.97-3.965,7.057-8.375,8.022a65.649,65.649,0,0,1-6.543,1.184,36.262,36.262,0,0,1-8.364-.473c-2.5-.285-5-2.245-5.931-6.307a47.945,47.945,0,0,0-2.716-9.138c-.367-.812-.745-1.269-1.682-1.214a1.378,1.378,0,0,1-1.622-1.282c-.143-1,.472-1.424,1.276-1.622,2.044-.508,4.145-.826,6.143-1.471,3.686-1.188,7.567-1.4,11.281-2.437A19.65,19.65,0,0,1,390.4,10494.406Zm49.473,3.854c0-1.352.085-2.711-.025-4.054-.1-1.246-.323-2.493-2.132-2.354a7.638,7.638,0,0,1-1.8-.48c-2.357-.46-4.727-1.121-7.136-.719-4.038.673-8.019,1.648-12.065,2.309a6.958,6.958,0,0,0-5.625,9.076,43.629,43.629,0,0,0,3.483,8.4,3.805,3.805,0,0,0,2.715,1.9,70.518,70.518,0,0,0,7.6.813c1.813.191,3.67.467,5.389-.465a31.684,31.684,0,0,1,3.752-1.51c3.979-1.538,5.315-2.746,5.692-6.125A25.234,25.234,0,0,0,439.875,10498.26Zm-49.973-2.206a17.865,17.865,0,0,0-6.836.711c-2.259.658-4.668.688-6.966,1.295-4.136,1.094-5.722,3.687-4.637,7.793.6,2.282,1.2,4.568,1.879,6.827a5.31,5.31,0,0,0,3.168,3.7,15.318,15.318,0,0,0,4.558.686,26.7,26.7,0,0,0,15.236-2.789,3.778,3.778,0,0,0,2.178-2.215,40.355,40.355,0,0,0,1.767-10.075,5.053,5.053,0,0,0-2.907-4.77A12.248,12.248,0,0,0,389.9,10496.054Z" fill="#264295"/><path d="M395.343,10738.153a13.044,13.044,0,0,1-5.256-3.463,29.053,29.053,0,0,1-5.3-8.891,142.238,142.238,0,0,1-6.421-17.514,70.468,70.468,0,0,1-3.02-16.151c-.25-5.975-1.539-11.866-2.045-17.821-.436-5.136-1.193-10.271-.858-15.449.475-7.367.875-14.753,1.9-22.06s1.68-14.668,2.483-22c.234-2.143.752-4.257,1.2-6.372.088-.42.217-1.129.828-.986.53.123.261.755.192,1.13-1.1,6.086-1.285,12.273-1.937,18.407-.468,4.408-1.068,8.806-1.477,13.225-.333,3.6-.7,7.2-1.035,10.808a106.77,106.77,0,0,0,.114,21.24c.606,5.762,1.563,11.479,2.186,17.236.336,3.1.124,6.264.878,9.335,1.434,5.841,2.619,11.739,5.009,17.318,1.384,3.23,2.446,6.6,3.811,9.847a26.776,26.776,0,0,0,7.845,10.907A1.9,1.9,0,0,1,395.343,10738.153Z" fill="#264295"/><path d="M516.612,10736.953a51.492,51.492,0,0,1-1.6-5.972c-.686-4.624.121-9.226.546-13.828.534-5.784.192-11.584.228-17.376.021-3.292.355-6.538.691-9.807.753-7.3,2.563-14.417,3.559-21.664,1.119-8.149,3.48-15.985,5.577-23.894.769-2.9.89-5.894,1.459-8.826,1.083-5.591,2.74-11.031,4.052-16.56a14.721,14.721,0,0,1,2.28-5.743c-.536,2.98-.975,5.983-1.625,8.939-1.594,7.254-3.281,14.481-4.414,21.834a69.946,69.946,0,0,1-2.512,9.807,111.9,111.9,0,0,0-2.43,11.015c-.9,4.484-1.6,9.011-2.368,13.522a141.286,141.286,0,0,0-2.514,25.72c.079,6.193.116,12.424-1.06,18.606a28.936,28.936,0,0,0,.514,12.206,3.65,3.65,0,0,1,.01,1.935Z" fill="#264295"/><path d="M407.045,10430.151c4.562-.418,8.981,1.051,13.317,2.9a3,3,0,0,1,1.115.661c2.054,2.4,4.964,3.614,7.443,5.421a23.306,23.306,0,0,1,2.756,2.345,6.431,6.431,0,0,1,1.866,4.991c-.031.79.215,1.306,1.08,1.376,2.583.212,4.586,1.669,6.578,3.117a43.871,43.871,0,0,1,12.983,14.758,31.249,31.249,0,0,1,3.631,9.556c.428,2.5,1.542,4.872,1.763,7.432.223,2.588.82,5.146.665,7.767-.033.547-.019,1.186-.74,1.184-.808,0-.469-.757-.471-1.129a46.56,46.56,0,0,0-.838-8.618c-1.4-7.23-3.682-14.1-8.1-20.216-3.123-4.325-7.208-7.468-11.3-10.675a11.32,11.32,0,0,0-5-2.111,1.466,1.466,0,0,1-1.336-1.611c.086-4.295-2.869-6.415-6.07-8.236a25.062,25.062,0,0,1-4.406-3.213,18.063,18.063,0,0,0-7.508-3.575c-6.733-1.859-13.143-.344-19.555,1.689-4.084,1.3-8.24,2.364-12.212,4-1.381.569-2.8,1.075-4.114,1.772-2.99,1.584-6.361,1.861-9.523,2.846a11.682,11.682,0,0,0-4.187,2.705c-3.311,2.852-6.9,5.413-9.608,8.909a14.868,14.868,0,0,0-2.511,4.354c-.1.3-.24.871-.75.662-.438-.179-.327-.662-.188-1.026a18.724,18.724,0,0,1,3.237-5.61,41.209,41.209,0,0,1,5.555-5.267,33.1,33.1,0,0,0,3.552-3.144,12.1,12.1,0,0,1,6.19-3.229,65.766,65.766,0,0,0,11.309-3.905,94.012,94.012,0,0,1,11.477-3.891,92.135,92.135,0,0,1,10.337-2.6A19.46,19.46,0,0,1,407.045,10430.151Z" fill="#264295"/><path d="M296.291,10625.252a16.4,16.4,0,0,1,1.294,4.94c.813,5.29,1.87,10.534,2.9,15.788.927,4.737.635,9.623.989,14.438.531,7.224,1.219,14.423,2.151,21.607.579,4.463.075,8.984.379,13.465.278,4.083.774,8.152,1.221,12.223.333,3.031.245,6.081.471,9.11a34.988,34.988,0,0,0,2.511,11.525c.892,2.036,2.191,3.894,4.6,4.489.28.069.672.085.652.438-.025.459-.473.385-.792.4a4.308,4.308,0,0,1-3.487-1.753c-2.14-2.409-3.127-5.342-3.9-8.421-1.13-4.5-.949-9.1-1.391-13.652-.391-4.027-.931-8.042-1.349-12.067a29.572,29.572,0,0,1-.175-4.34c.132-3-.04-5.983-.175-8.974-.224-4.924-1.3-9.755-1.592-14.674-.232-3.9-.74-7.786-.811-11.685-.143-7.9-1.521-15.616-2.928-23.344A50.816,50.816,0,0,1,296.291,10625.252Z" fill="#264295"/><path d="M366.072,10485.4a1.5,1.5,0,0,1-1.12-1.145c-.479-2.4-1.935-4.395-2.662-6.676-.7-2.192.1-4.274.806-6.319a8.42,8.42,0,0,0,.465-2.665c.042-2.712,1.713-4.7,3.621-6.183,4.251-3.3,8.607-6.541,13.92-8.048a62.259,62.259,0,0,1,6.567-1.048c4.744-.816,9.464-1.812,14.209-2.56,4.041-.637,8.031-1.614,12.12-1.966,5.523-.475,10.763.295,15.07,4.046a79.436,79.436,0,0,1,10.7,11.329,15.26,15.26,0,0,1,2.879,9.65,23.521,23.521,0,0,1-.462,5.749c-.091.367-.321.685.312.861,4.134,1.156,6.294,4.571,8.672,7.7,2.535,3.341,3.344,7.306,3.914,11.339.066.47.264,1.161-.317,1.252-.694.109-.631-.683-.762-1.151-.7-2.49-.97-5.076-2.045-7.487a22.911,22.911,0,0,0-3.191-5.122c-1.894-2.335-3.883-4.567-6.787-5.677-.726-.278-.767-.825-.757-1.385.013-.816.123-1.633.215-2.446a18.585,18.585,0,0,0-5.223-15.885,115.755,115.755,0,0,0-8.8-8.551,14.991,14.991,0,0,0-9.987-3.179c-7.205.1-14.2,1.748-21.219,3.187-4.288.879-8.641,1.485-12.991,2-3.64.435-6.637,2.217-9.6,4.1-2.061,1.309-4.288,2.4-6.007,4.212-1.673,1.763-3.284,3.514-3.121,6.233a4.767,4.767,0,0,1-.613,2.209c-1.526,3.132-.868,6.041.718,8.922A25.064,25.064,0,0,1,366.072,10485.4Z" fill="#264295"/><path d="M269.434,10738.354c-1.638-2.649-1.872-5.5-1.757-8.426.324-8.2,1.535-16.3,2.624-24.422.55-4.1,2.41-7.8,3.739-11.663a15.1,15.1,0,0,0,.679-2.511c.708-4.446,3.546-7.976,5.166-12.035a51.441,51.441,0,0,1,4.977-9.627c.161-.239.269-.595.491-.694.536-.237,1.208-.87,1.672-.355.4.445-.425.814-.678,1.236a40.912,40.912,0,0,0-2.392,4.1c-2.183,4.831-4.455,9.617-6.728,14.405-.977,2.058-1.27,4.436-1.92,6.656-.8,2.728-2.221,5.227-2.84,8.033-1.165,5.287-1.673,10.657-2.318,16.018-.485,4.034-.719,8.074-.938,12.124a37.055,37.055,0,0,0,.448,5.891A1.316,1.316,0,0,1,269.434,10738.354Z" fill="#264295"/><path d="M406.252,10540.521c.273.072.55.149.828.22,1.6.4,3.1.709,4.612-.527a4.806,4.806,0,0,1,4.576-.514,66.82,66.82,0,0,1,11.232,4.044,22.989,22.989,0,0,1,2.008,1.381c.252.161.715.281.4.741a.621.621,0,0,1-1.008.1c-2.082-1.846-4.723-2.559-7.233-3.488-2.154-.8-4.391-1.389-6.616-1.975a3.5,3.5,0,0,0-2.991.823,4.53,4.53,0,0,1-4.33.718,4.681,4.681,0,0,0-3.73.622,65.3,65.3,0,0,1-6.98,3.7,27.769,27.769,0,0,0-5.58,3.149c-.308.211-.651.383-.91.1-.385-.427.122-.674.335-.945a9.6,9.6,0,0,1,3.277-2.339c3.655-1.935,7.4-3.7,11.117-5.516A6.074,6.074,0,0,1,406.252,10540.521Z" fill="#264295"/><path d="M293.685,10731.083c-1.423-2.341-1.706-4.939-2.254-7.458-1.336-6.138-.618-12.272.111-18.4.234-1.962.486-3.922.733-5.882.061-.49-.132-1.276.624-1.2.565.057.375.8.339,1.24-.31,3.741-.581,7.488-1.009,11.217a48.214,48.214,0,0,0,.377,13.822C292.991,10726.636,293.327,10728.861,293.685,10731.083Z" fill="#264295"/><path d="M409.134,10462.355c-9.723,1.125-19.11,2.893-27.605,8.076-.122-.832.437-1.024.8-1.346,1.946-1.745,4.392-2.519,6.726-3.534a52.676,52.676,0,0,1,8.566-2.508,30.531,30.531,0,0,1,9.545-1.214A2.563,2.563,0,0,1,409.134,10462.355Z" fill="#264295"/><path d="M417.022,10731.31a9.569,9.569,0,0,1-3.7-3.908c-2.321-3.724-4.628-7.453-7.765-10.573a13.217,13.217,0,0,1-1.148-1.079c-.327-.416-1.369-.61-.675-1.429.6-.7,1.087-.062,1.6.286a20.628,20.628,0,0,1,3.72,3.82C412.39,10722.285,414.4,10726.974,417.022,10731.31Z" fill="#264295"/><path d="M501.866,10712.512c-.575-1.245-1.159-2.484-1.722-3.733-2.2-4.877-4.259-9.829-7.965-13.844a4.972,4.972,0,0,0-1.425-1.194c-.5-.247-.983-.6-.6-1.2.417-.655.989-.216,1.382.072a13.626,13.626,0,0,1,2.362,2.324C498.171,10700.044,500.355,10706.118,501.866,10712.512Z" fill="#264295"/><path d="M400.2,10545.939a1.363,1.363,0,0,1,1.474-.634,13.312,13.312,0,0,0,5.43-.471c2.843-.645,5.727-.445,8.6-.543a3.723,3.723,0,0,0,2.334-.52c.255-.194.7-.332.932-.028.259.34-.142.6-.338.846-.87,1.106-2.2,1.032-3.328.981a52.833,52.833,0,0,0-11.042.752C402.924,10546.543,401.7,10545.9,400.2,10545.939Z" fill="#264295"/><path d="M347.542,10481.126c-1.361-1.489-1.179-3.249-.872-4.968a5.739,5.739,0,0,0,0-1.877,11.106,11.106,0,0,1,2.3-8.279c.243-.326.685-.581,1.011-.351.574.4-.053.793-.241,1.059-1.582,2.24-2,4.8-2.313,7.67.627-.577.869-1.223,1.464-1.462a.9.9,0,0,1,.672-.031c.269.151.135.453-.023.62C347.484,10475.672,347.413,10478.341,347.542,10481.126Z" fill="#264295"/><path d="M401.078,10549.792c6.064-.378,12.011-.022,17.972-1.164a2.857,2.857,0,0,1-2.5,1.662,111.28,111.28,0,0,1-14.425.285C401.723,10550.564,401.379,10550.491,401.078,10549.792Z" fill="#264295"/><path d="M375.455,10534.879a11.339,11.339,0,0,1,2.449-5.076,17.335,17.335,0,0,1,6.471-4.888,8.558,8.558,0,0,1,1.537-.385c.394-.072.8-.034.937.442.147.52-.257.752-.626.782-2.238.184-3.626,1.851-5.314,2.987-1.965,1.324-3.2,3.293-4.5,5.2C376.2,10534.251,376.1,10534.656,375.455,10534.879Z" fill="#264295"/><path d="M376.259,10484.809c2.248-.81,4.767-1.533,6.856-.947,1.809.508,3.626.188,5.311.8a22.784,22.784,0,0,0,3.861,1.158,13.617,13.617,0,0,1-4.5.319c-.24-.011-.553-.059-.43-.382.059-.157.377-.215.781-.422C384.043,10485.211,380.133,10485.534,376.259,10484.809Z" fill="#264295"/><path d="M399.4,10531.014a3.254,3.254,0,0,1-4.3-2.508,8.886,8.886,0,0,1,1.952-6.761c.29-.373.749-.854,1.2-.57.565.354.047.889-.151,1.269a16.106,16.106,0,0,0-1.483,3.737,3.287,3.287,0,0,0,1.637,3.938A12.228,12.228,0,0,1,399.4,10531.014Z" fill="#264295"/><path d="M442.372,10529.293c-.527-.248-.692-.274-.769-.37-2.054-2.562-4.913-4.117-7.488-6.03a7.585,7.585,0,0,0-2.846-1.289c-.351-.082-.835-.248-.688-.742.165-.553.579-.227.945-.161a9.069,9.069,0,0,1,4.424,1.962c1.528,1.3,3.522,1.969,4.814,3.611A9.617,9.617,0,0,1,442.372,10529.293Z" fill="#264295"/><path d="M482.737,10641.7c-1.811-1.059-2.967-2.795-4.325-4.316a42.056,42.056,0,0,0-4.035-3.9c-.265-.228-.788-.344-.436-.867.3-.454.683-.409,1.132-.178a10.666,10.666,0,0,1,2.432,2.034A21.3,21.3,0,0,1,482.737,10641.7Z" fill="#264295"/><path d="M387.682,10547.879a13.506,13.506,0,0,1,1.664-5.373c1.48-2.658,2.688-5.43,3.95-8.184a6.017,6.017,0,0,1,.381-.779c.154-.238.363-.523.687-.411.591.2.121.574.042.819a50.941,50.941,0,0,1-3.352,7.512,41.464,41.464,0,0,0-2.121,4.573A3.267,3.267,0,0,1,387.682,10547.879Z" fill="#264295"/><path d="M428.867,10536.543a26.8,26.8,0,0,1-3.308-4.99c-.721-1.191-1.4-2.41-2.061-3.636-.171-.318-.369-.777.084-1.022.4-.219.6.234.777.469A24.447,24.447,0,0,1,428.867,10536.543Z" fill="#264295"/><path d="M393.776,10446.491c-3.521.078-6.728-1-10.046-1.09a2.685,2.685,0,0,0-1.132.016c-.345.13-.89.266-.972-.234-.08-.481.4-.687.867-.7a16.97,16.97,0,0,1,4.027.161c2.064.446,4.2.544,6.225,1.194A1.72,1.72,0,0,1,393.776,10446.491Z" fill="#264295"/><path d="M357.153,10495.392c-1.021-2.926,2.978-9.6,5.762-9.7-1.221,1.555-2.459,2.935-3.466,4.467A15.875,15.875,0,0,0,357.153,10495.392Z" fill="#264295"/><path d="M413.749,10529.08c-.443-.146-1.385.521-1.513-.565-.138-1.164,1.087-1.632,1.626-2.442.3-.447,1.452-.071,2.01.56,1.02,1.152.667,2.16-.855,2.438A7.8,7.8,0,0,1,413.749,10529.08Z" fill="#264295"/><path d="M420.228,10623.774a3.816,3.816,0,0,1-1.152-2.931,35.622,35.622,0,0,1,.66-4.723c.113-.674.449-1.072,1.157-1,.252.023.608.107.365.543-1.067,1.913-.827,4.05-1.022,6.108C420.182,10622.34,420.228,10622.919,420.228,10623.774Z" fill="#264295"/><path d="M493.712,10683.72a27.863,27.863,0,0,0,8.292-.619c.3-.057.746-.2.813.29.056.412-.364.309-.617.4a12.657,12.657,0,0,1-6.735.862C494.852,10684.535,494.159,10684.6,493.712,10683.72Z" fill="#264295"/><path d="M390.924,10554.794a28.744,28.744,0,0,0-2.277,8.557C387.235,10560.968,388.741,10555.574,390.924,10554.794Z" fill="#264295"/><path d="M402.346,10527.41c2.038-.01,3.219.684,3.33,1.751.068.643-.247.688-.649.5a6.248,6.248,0,0,0-2.549-.248c-.726-.023-1.508-.154-1.523-.949C400.938,10527.571,401.782,10527.438,402.346,10527.41Z" fill="#264295"/><path d="M418.418,10528.6c1.628-1.235,2.306-2.562,1.082-4.294-.29-.41-.108-.7.35-.592a2.194,2.194,0,0,1,1.505,1.631,2.94,2.94,0,0,1-.843,3.168A1.426,1.426,0,0,1,418.418,10528.6Z" fill="#264295"/><path d="M394.9,10489.922c-1.378-.3-2.82-.482-3.511-1.925,1.382-.743,2.168-.512,5.228,1.7a2.127,2.127,0,0,1-1.763.208Z" fill="#264295"/><path d="M394.995,10480.175c3.549-.34,5.923,1.287,6.807,4.736-.845-.314-1.217-1.166-1.74-1.826a5.092,5.092,0,0,0-2.224-1.973C396.951,10480.8,395.893,10481.055,394.995,10480.175Z" fill="#264295"/><path d="M407.606,10482.719c-1.059-2.315-.682-4.179.859-5.61.225-.209.4-.635.807-.3a.611.611,0,0,1,.047.9A9.882,9.882,0,0,0,407.606,10482.719Z" fill="#264295"/><path d="M433.281,10555.837c-1.354-1.35-1.682-2.973-2.3-4.432a.446.446,0,0,1,.232-.608.681.681,0,0,1,.782.25A6.406,6.406,0,0,1,433.281,10555.837Z" fill="#264295"/><path d="M402.258,10478.315c.022-.521-.1-1.129.425-1.2.594-.081.687.521.8,1,.224.934.5,1.855.715,2.791a.843.843,0,0,1-.085.669c-.251.241-.557.033-.756-.161A4.588,4.588,0,0,1,402.258,10478.315Z" fill="#264295"/><path d="M416.693,10489.295c-1.619.9-3.3.57-4.972.326-.134-.021-.272-.24-.338-.4-.03-.069.115-.31.179-.309C413.277,10488.936,415.018,10488.658,416.693,10489.295Z" fill="#264295"/><path d="M413.35,10710.311c.709,1.354,1.343,2.572,1.986,3.786.163.308.366.656.015.9-.4.275-.594-.143-.76-.409a22.423,22.423,0,0,1-1.518-2.582A1.336,1.336,0,0,1,413.35,10710.311Z" fill="#264295"/><path d="M416.016,10491.023a8.462,8.462,0,0,1-4.243,1.352c-.273.034-.641-.017-.667-.382-.023-.336.294-.491.579-.538A11.444,11.444,0,0,1,416.016,10491.023Z" fill="#264295"/><path d="M355.9,10489.047a4.882,4.882,0,0,1,3.375-4.571Z" fill="#264295"/><path d="M379.275,10483.23c-1.433.373-2.575.684-3.724.962-.257.062-.625.133-.722-.232a.622.622,0,0,1,.43-.684C376.462,10482.856,377.68,10482.376,379.275,10483.23Z" fill="#264295"/><path d="M397.39,10469.652c1.595-.347,3.2-.88,4.723.4h-4.7Z" fill="#264295"/><path d="M388.325,10486.732a8.89,8.89,0,0,1,5.619.447A14.942,14.942,0,0,1,388.325,10486.732Z" fill="#264295"/><path d="M449.457,10469.78c.1,1.919-.55,2.886-1.993,3.354-.416.134-.828.155-.995-.248-.192-.468.3-.512.6-.6C448.229,10471.946,448.559,10470.776,449.457,10469.78Z" fill="#264295"/><path d="M418.45,10487.682a5.569,5.569,0,0,1-4.4.406A7.4,7.4,0,0,1,418.45,10487.682Z" fill="#264295"/><path d="M450.48,10473.7a3.572,3.572,0,0,1-2.976,1.171c-.176-.017-.4-.019-.453-.268a.358.358,0,0,1,.261-.442C448.282,10473.908,449.163,10473.1,450.48,10473.7Z" fill="#264295"/><path d="M357.8,10481.523a17.924,17.924,0,0,0-1.947,4.271A3.539,3.539,0,0,1,357.8,10481.523Z" fill="#264295"/><path d="M397.742,10445.109c1.358.137,2.731.255,3.848,1.722C399.99,10446.481,398.65,10446.326,397.742,10445.109Z" fill="#264295"/><path d="M420.953,10484.539c-1.3.628-2.511.151-3.737-.213C418.518,10483.473,419.726,10484.045,420.953,10484.539Z" fill="#264295"/><path d="M421.949,10482.25c-1.442,1.19-2.59.463-3.7.344-.065-.007-.174-.234-.148-.329a.493.493,0,0,1,.566-.342C419.643,10482.011,420.618,10482.115,421.949,10482.25Z" fill="#264295"/><path d="M419.818,10486.345c-1.461.527-2.728.16-4.221.044A3.783,3.783,0,0,1,419.818,10486.345Z" fill="#264295"/><path d="M426.62,10478.13c-.317-.378-.065-.507.264-.517a5.938,5.938,0,0,1,2.591.758c.223.1.474.217.357.507-.135.336-.448.32-.731.212-.847-.326-1.688-.67-2.531-1.006Z" fill="#264295"/><path d="M394.858,10489.905c1,.465,2.222.3,3.395,1.109a7.542,7.542,0,0,1-3.589-.354c-.874-.26-.045-.537.244-.736Z" fill="#264295"/><path d="M408.4,10531.44c-.391-.039-.971-.038-.794-.528.2-.564.964-.359,1.455-.567.295-.125.629.022.548.387C409.465,10531.363,408.891,10531.384,408.4,10531.44Z" fill="#264295"/><path d="M421.913,10479.378c1.145-.641,1.993-.134,2.853.248A3.4,3.4,0,0,1,421.913,10479.378Z" fill="#264295"/><path d="M426.62,10478.13l-.05-.046c.061.463.1.941-.6.773-.539-.129-1.259-.029-1.5-.654-.145-.375.325-.387.6-.353C425.585,10477.919,426.1,10478.034,426.62,10478.13Z" fill="#264295"/><path d="M424.428,10582.511a7.82,7.82,0,0,1-.7,3.616,32.479,32.479,0,0,0-1.548,5.081,3.284,3.284,0,0,0,.092,1.978c.113.344.431.759-.106.986-.6.254-.8-.353-.9-.677a5.4,5.4,0,0,1-.14-2.7A33.933,33.933,0,0,1,424.428,10582.511Z" fill="#264295"/><path d="M425.537,10501.263c-2.071-.437-4.017-.123-5.929-.485a3.978,3.978,0,0,0-3.236.908c-.336.265-.776.617-1.141.18-.456-.549.094-.815.472-1.116,1.077-.856,2.109-1.776,3.649-1a2.7,2.7,0,0,0,1,.064c.354.018.548-.146.529-.5-.023-.444-.35-.362-.629-.328-.191.023-.376.092-.567.112-.3.033-.671.008-.752-.28-.123-.44.312-.514.617-.62a14.782,14.782,0,0,1,10.685.351c.517.2,1.3.418,1.283,1.01-.015.705-.8.146-1.175.363C428.8,10500.82,427.033,10500.8,425.537,10501.263Z" fill="#264295"/><path d="M378.3,10505.644c3.444-.189,6.014-2.5,9.076-3.548a7.321,7.321,0,0,1,4.972.107c.717.27,1.419.57,2.152.808.4.133,1.147.255,1,.826-.125.49-.668,1.1-1.26.985-3.309-.625-6.476.977-9.769.549a6.281,6.281,0,0,0-3.1.415A3.188,3.188,0,0,1,378.3,10505.644Z" fill="#264295"/></g></svg>