<svg xmlns="http://www.w3.org/2000/svg" width="283.311" height="312.964" viewBox="0 0 283.311 312.964"><g transform="translate(-890.897 -10445.471)"><path d="M904.258,10620.971c-2.547,2.177-5.113,4.473-6.635,7.456-3.658,7.169-2.079,18.619-3.185,26.6-.875,6.308-1.752,12.65-1.586,19.018.232,8.865,2.484,17.731,1.279,26.517-.795,5.795-3.084,11.432-2.8,17.274.436,8.938,7.851,11.849,14.937,14.934a263.1,263.1,0,0,0,30.4,10.772,304.57,304.57,0,0,0,62.242,11.563,409.3,409.3,0,0,0,48.84.616c40.76-1.639,81.558-7.326,120.356-19.928a10.193,10.193,0,0,0,4.459-2.346c2.177-2.324,1.752-5.979,1.186-9.113l-18.648-103.276c-1.673-9.264-3.867-19.413-11.371-25.1-3.986-3.02-8.967-4.339-13.809-5.592l-46.8-12.113c-4.959-1.284-9.984-2.594-14.432-5.135-2.81-1.605-5.351-3.683-8.289-5.036-5.768-2.658-12.426-2.273-18.748-1.668-11.234,1.076-22.259,3.207-33.429,4.667-6.663.871-13.485.3-20.1,1.489-18.992,3.407-38.472,16.093-54.419,26.429A278.62,278.62,0,0,0,904.258,10620.971Z" fill="#0f173a"/><path d="M1032.46,10469.724c-9.395,2.167-16.738-4.313-24.73,5.211-4.275,5.1-4.961,10.922-6.606,17.072-1.711,6.4-3.28,12.938-4.991,19.395a21.088,21.088,0,0,1-2.468,6.33c-3.02,4.57-8.534,3.213-8.867,9.927a23.762,23.762,0,0,0,1.549,8.194c.912,2.9,1.989,5.871,2.7,8.811.721,2.983-.508,6.333.682,9.2.751,1.811,2.6,2.225,3.594,3.714,1.287,1.92,1.5,5.215,2.189,7.416a29.82,29.82,0,0,1,1.786,9.9c-.225,8.914,10.325,13.632,16.19,18.881,4.19,3.75,7.986,7.914,12.27,11.566,1.545,1.317,3.523,2.328,4.853,3.849,1.892,2.163,2.81,4.613,5.222,6.435a2.878,2.878,0,0,0,1.746.74,3.143,3.143,0,0,0,1.584-.686c3.081-2.088,6.035-2.967,9.207-4.609,3.414-1.77,6.461-4.992,8.941-7.868a52.051,52.051,0,0,0,10.818-20.4c1.015-3.806,1.633-7.855,3.9-11.082,2.469-3.521,6.511-5.516,10.107-7.877a42.708,42.708,0,0,0,6.531-5.229,38.7,38.7,0,0,0,8.323-12.171c1.06-2.443,3.848-8.1,3.193-10.862-1.2-5.062-8.168-2.409-11.46-4.761-2.729-1.948-3.61-9.51-4.346-12.568a100.747,100.747,0,0,1-2.583-30.181c.188-2.827.537-5.769,2.083-8.143.308-.473.674-1.059.4-1.555a1.469,1.469,0,0,0-.817-.562c-19.346-7.538-39.067-12.458-60-9.822" fill="#dc8b63"/><path d="M1057.166,10447.383a54.594,54.594,0,0,0-18.948-1.745,68.929,68.929,0,0,0-26.229,7.288c-6.661,3.388-12.892,8.007-16.909,14.309a51.3,51.3,0,0,0-5.621,13.734c-3.658,12.894-5.728,26.548-3.191,39.707,2.817-.408,5.011-2.665,6.542-5.063,4.082-6.392,4.936-14.232,6.405-21.672s4.03-15.3,10.2-19.714c6.1-4.367,14.579-5.2,21.578-2.9l.168-2.292a12,12,0,0,1,5.545,1.513l.234-2.054a11.94,11.94,0,0,1,5.659,2.088c-.522-1.015.736-2.187,1.873-2.092a6.025,6.025,0,0,1,2.956,1.618,3.571,3.571,0,0,0,3.137.966,6.783,6.783,0,0,1,1.341-.531c.794-.089,1.446.564,2.137.966,2.2,1.28,4.964,0,7.513.047,1.508.026,20.931,6.186,21.15,5.188a216.879,216.879,0,0,0-4.55,32.182c-.184,2.823-.286,5.791.964,8.328.951,1.927,2.592,3.413,3.84,5.162,2.62,3.675,3.385,8.315,4.079,12.774a19.277,19.277,0,0,1,10.651-1.4c-1.875-4.9,1.606-10.014,3.31-14.975,1.873-5.452,1.578-11.433.452-17.086-2.488-12.484-9.212-21.545-16.365-31.652C1077.708,10459.656,1069.92,10451.046,1057.166,10447.383Z" fill="#0a0d1d"/><path d="M1015.864,10634.244c13.39,36.79,8.492,77.5,14.6,116.166a3.662,3.662,0,0,0,4.288,3.895,214.627,214.627,0,0,0,30.786-.953c-2.183-18.823-4.37-37.792-2.853-56.682.93-11.59,3.84-22.767,3.87-34.333.031-12.322.1-24.645.1-36.968.018-6.97.259-13.963-.35-20.895-.518-5.885-2.3-14.277.421-19.886a91.1,91.1,0,0,1-28.194,33.715,113.76,113.76,0,0,0-22.432-20.831c-1.979-1.392-10.89-9.885-12.86-9.416-4.708,1.121-1.63,9.816-.823,12.466C1005.946,10612.123,1011.724,10622.87,1015.864,10634.244Z" fill="#c2c2c8"/><path d="M1038.269,10658.709c-.274,2.364-.56,4.765-.62,7.23-.317,12.937.9,25.569.619,38.448-.312,14.2.222,28.533,3.668,42.375.906,3.64,2.39,7.672,5.855,9.106a11.407,11.407,0,0,0,5.632.422,49.818,49.818,0,0,0,13.126-3.334,216.67,216.67,0,0,1-1.957-50.6c.4-5.017.965-10.061.457-15.066-.834-8.225-4.508-15.841-7.422-23.578s-5.116-16.24-2.9-24.205c.831-2.988,2.277-6.1,1.343-9.055a12.009,12.009,0,0,0-3.095-4.424c-2.471-2.588-8.457-11.4-11.821-9.562-2.26,1.231-5.869,11.94-6.494,14.655-1.122,4.879.984,7.79,2.733,12.212C1039.422,10648.472,1038.873,10653.5,1038.269,10658.709Z" fill="#172453"/><path d="M1027.915,10560.734c6.865,1.6,14.753,6.762,7.458,10.866-4.8,2.7-19.111-6.692-17.726-8.037a12.236,12.236,0,0,1,4.07-2.979C1023.171,10560.047,1025.479,10560.166,1027.915,10560.734Z" fill="#863842" opacity="0.46"/><path d="M1016.677,10529.969a95.5,95.5,0,0,1-12.441-.344,15.592,15.592,0,0,1,4.681,5.234c1.037,1.889,1.894,4.2,3.921,4.936a69.673,69.673,0,0,1,8.066-10.276" fill="#c9a99b"/><path d="M1062.317,10533.889l-12.379.052a1.882,1.882,0,0,0-1.248.3,1.607,1.607,0,0,0-.39,1.382c.232,2.7,2.455,4.761,4.672,6.315s4.693,3,5.945,5.4a10.437,10.437,0,0,0,1.131,2.071,1.807,1.807,0,0,0,2.1.614,2.471,2.471,0,0,0,.723-.687l4.079-5.088a10.069,10.069,0,0,0,1.885-3.03,5.224,5.224,0,0,0-3.692-6.458" fill="#c9a99b"/><path d="M1035.411,10498.382l-10.594.788a26.427,26.427,0,0,0,15.561,4.156,52.524,52.524,0,0,0,6.77-.941,15.2,15.2,0,0,1,4.71-3.521c-.483-1.12-2.113-1.154-3.205-.61s-2.011,1.47-3.2,1.738a6.287,6.287,0,0,1-2.24-.044l-6.838-.962" fill="#c9a99b"/><path d="M938.462,10614.7c12-6.836,20.982-25.115,37.26-22.685C974.42,10603.911,947.545,10609.527,938.462,10614.7Z" fill="#2f333e"/><path d="M1137.138,10602.061a136.4,136.4,0,0,0-20.568-7.352,67.315,67.315,0,0,1,25.481,26.983q.279-9.056-.2-18.113" fill="#2f333e"/><path d="M996.737,10519.27c-2.015-.716-2.55.307-2.86,1.9a37.363,37.363,0,0,0-.626,3.945c-.241,2.792-.607,5.563,0,8.352.114.524-.04,1.194-.572,1.273-.571.085-.581-.655-.687-1.06-.627-2.395-.19-4.815-.1-7.227a23.074,23.074,0,0,0,.151-2.717,3.969,3.969,0,0,0-3.112-2.961,3.31,3.31,0,0,0-3.309,2.653,15.546,15.546,0,0,0,1.03,11.528c1.2,2.415,2.669,4.792,2.876,7.573.181,2.444.161,4.9.242,7.355a7.41,7.41,0,0,0,.843,3.725,4.6,4.6,0,0,0,.2-2.988c-.377-3.77.113-7.513.11-11.268,0-.459-.085-1.085.492-1.156.636-.08.588.566.659,1.009a48.172,48.172,0,0,1,.131,8.065,50.237,50.237,0,0,0,.292,8.2,74,74,0,0,0,1.74,8.675c1.641,5.846,4.129,11.246,9.474,14.756.384.252.669.56.474.989-.235.518-.662.3-1.062.139a9.95,9.95,0,0,1-2.974-2.171,16.679,16.679,0,0,1-4.4-6.251c-.413-1.119-.975-1.245-1.987-.713-6.518,3.43-13.5,5.763-20.3,8.52a51.933,51.933,0,0,0-6.723,3.073c-2.657,1.543-5.568,2.607-8.341,3.94a77.169,77.169,0,0,0-8.91,4.858c-3.005,1.964-6.2,3.592-9.328,5.352-4.508,2.539-8.826,5.412-13.3,8.021-5.725,3.339-11.459,6.688-16.842,10.533-3.9,2.783-7.708,5.851-9.995,10.313a14.546,14.546,0,0,0-1.632,5.425c-.355,4.258-1.214,8.438-1.763,12.665-.933,7.184-1.977,14.333-2.425,21.587-.4,6.422-.78,12.834-.835,19.267-.046,5.372.03,10.747-.116,16.114-.066,2.428-.094,4.862-.116,7.283a51.3,51.3,0,0,0,1.3,9.914c.286,1.515.657,3.011.986,4.518.12.552.367,1.311-.208,1.547-.724.3-.833-.6-1.01-1.034a38.7,38.7,0,0,1-2.866-11.944c-.734-10.773-.359-21.57-.272-32.354.047-5.785.738-11.571,1.069-17.354.4-7.054,1.787-13.954,2.61-20.937.473-4.021.989-8.057,1.851-12.006.888-4.067,3.271-7.262,6.378-10.128a75.064,75.064,0,0,1,9.667-7.315c4.066-2.691,8.267-5.185,12.484-7.638,4.13-2.4,8.037-5.16,12.222-7.479,3-1.661,6.158-3.021,9.015-4.947a64.171,64.171,0,0,1,7.607-4.683c8.817-4.3,17.735-8.364,26.908-11.859,3.832-1.461,7.68-2.885,11.4-4.63,2.068-.97,1.986-1.063,1.307-3.264-.857-2.779-1.391-5.66-2.035-8.5a2.5,2.5,0,0,0-.97-1.681c-2.127-1.465-2.58-3.665-2.732-6.058-.121-1.9-.171-3.826-.154-5.711.028-3.068-1.386-5.557-2.609-8.118-1.084-2.267-2.109-4.657-2.061-7.046.064-3.2-.263-6.8,2.9-9.134.246-.182.525-.555.731-.518,2.377.431,3.1-1.807,4.594-2.795a1.992,1.992,0,0,1,1.109-.479.91.91,0,0,0,.909-.712c1.664-5.454,4.2-10.636,4.526-16.5.384-6.882,2.45-13.43,4.978-19.78,1.3-3.276,4.019-5.543,7.136-7.206a37.459,37.459,0,0,1,8.73-3.761,12.486,12.486,0,0,1,8.3.523c.531.237,1.136.515.92,1.2-.222.705-.84.386-1.322.263-4-1.021-7.8-.168-11.41,1.476-4.757,2.168-9.331,4.67-11.1,10.14-1.754,5.42-3.564,10.819-3.954,16.579a7.8,7.8,0,0,1-1.39,4.66,2.524,2.524,0,0,0-.522,1.908c.368,2.975-1.28,5.434-2.016,8.124a4.749,4.749,0,0,1-.495,1.294c-.968,1.518-.1,2.014,1.208,2.4.541.158.873.129,1.129-.391.181-.367.421-.872.893-.612.489.267.288.811.117,1.247a20.254,20.254,0,0,0-1.31,5.808,13.448,13.448,0,0,0,.44,5.168c.82,2.581,3.14,3.577,5.291,4.6,3.453,1.636,7.188,1.544,10.935,1.745,2.745.147,5.016-.916,7.463-1.5,2.762-.657,3.96-2.954,4.4-5.58a22.219,22.219,0,0,0,.372-5.386,5.2,5.2,0,0,0-2.963-4.689,5.756,5.756,0,0,1-1.311-.81,11.26,11.26,0,0,0-6.556-2.423c-2.5-.268-5.044-.2-7.55-.46-2.71-.282-4.861,1.061-7.128,2.12-.443.206-.932.762-1.308.121-.325-.555.077-1.039.607-1.385a12.49,12.49,0,0,1,7.857-2.388,75.039,75.039,0,0,1,10.064.937,14.746,14.746,0,0,1,9.62,6.52,1.008,1.008,0,0,0,1.242.533,26.475,26.475,0,0,1,5.837-.339,1.95,1.95,0,0,1,1.3.356c.364.3.782.53.66,1.107-.137.646-.673.583-1.11.563-1.637-.072-3.271-.256-4.908-.275-2.391-.029-2.482.2-2.615,2.488-.192,3.287-.67,6.493-3,9.134-1.046,1.186-2.463,1.463-3.777,1.89a27.015,27.015,0,0,1-18.788-.588c-3.54-1.41-6.659-3.581-6.793-7.929A19.93,19.93,0,0,1,996.737,10519.27Z" fill="#264295"/><path d="M1067.977,10579.918c-1.359,1.031-2.929,1.8-3.946,2.98-1.712,1.993-3.935,3.1-6.06,4.427a2.337,2.337,0,0,1-.7.325c-.547.117-1.269.344-1.574-.183-.363-.625.417-.846.8-1.091,4.221-2.664,7.769-6.183,11.7-9.22a19.729,19.729,0,0,0,2.266-2.5c.648-.712,1.156-1.157,2.059-.078.7.843,2.04.854,3.111,1.143a150.522,150.522,0,0,0,17.127,3.91,28.09,28.09,0,0,0,3.859.147,32.7,32.7,0,0,1,10.984,2.033c7.636,2.775,15.234,5.659,22.618,9.017,5.327,2.422,11.01,4.079,15.957,7.36a15.581,15.581,0,0,1,5.593,5.98,53.086,53.086,0,0,1,4.792,14.584c.763,4.189,2.017,8.288,2.8,12.475,1.246,6.659,2.432,13.328,3.393,20.044,1.135,7.929,1.5,15.942,2.918,23.843a48.082,48.082,0,0,0,1.531,7.636c2.579,7.334,2.9,15.077,3.827,22.691.66,5.433,1.217,10.9,1.332,16.389.009.388.264.918-.4.926-.42.006-.667-.317-.806-.791a34.585,34.585,0,0,1-1.2-6.656c-.55-6.183-.891-12.381-2.033-18.5-.526-2.821-.579-5.729-1.093-8.554a38.34,38.34,0,0,0-2.339-8.88,25.167,25.167,0,0,1-1.609-7.192c-.564-4.534-1.2-9.065-1.569-13.618-.4-4.923-1.133-9.793-1.986-14.64-1.051-5.962-2-11.945-3.4-17.848-1.114-4.694-1.918-9.463-3.319-14.09a61.924,61.924,0,0,0-2.643-6.55c-1.308-3.027-3.833-4.714-6.522-6.287-4.953-2.9-10.47-4.523-15.626-6.971-7.189-3.411-14.794-5.829-22.1-8.981a17.432,17.432,0,0,0-6.609-1.351,60.621,60.621,0,0,1-17.9-2.871c-2.732-.891-5.537-1.561-8.239-2.577-1.408-.53-3.03,1.163-2.87,2.692.225,2.141-.948,3.945-1.647,5.858-1.8,4.932-4.972,9.11-7.6,13.578-1.262,2.144-3.191,3.889-4.762,5.857a40.07,40.07,0,0,1-8.176,7.622,71.2,71.2,0,0,0-5.518,4.905c-.728.645-.595,1.607-.986,2.38a62.855,62.855,0,0,1-6.181,10.448,50.465,50.465,0,0,0-4.868,8.541c-1.7,3.393-4.213,6.338-5.593,9.92-.349.906-.732,1.8-1.094,2.7-.194.482-.378,1.074-1.042.859-.726-.234-.752-.918-.634-1.545a13.945,13.945,0,0,1,1.714-4.924c3.674-5.817,6.348-12.233,10.443-17.774,1.945-2.633,3.21-5.633,5.121-8.255.62-.85.569-1.221-.671-1.57-2.611-.737-4.676-2.575-6.776-4.194-6.957-5.367-13.1-11.713-20.224-16.89-2.608-1.9-4.166-4.837-6.688-6.822a41.578,41.578,0,0,1-5.592-5.92,15.383,15.383,0,0,1-2.039-3.965,1.025,1.025,0,0,1,.615-1.4c.581-.213.941.3,1.131.8,1.365,3.569,4.022,6.1,6.755,8.607a58.231,58.231,0,0,1,4.846,5c2.016,2.351,4.607,4.086,7.066,5.962,4.208,3.211,7.942,6.988,12.007,10.371a73.563,73.563,0,0,0,8.826,6.437,1.445,1.445,0,0,0,1.927-.078,129.672,129.672,0,0,0,11.432-9.627c5.131-5.016,8.975-11.019,12.509-17.227A43.42,43.42,0,0,0,1067.977,10579.918Z" fill="#264295"/><path d="M1064.637,10644.333c1.257-12.128.489-24.261.737-36.377.082-4,.213-8,.3-12,.016-.664.078-1.376.861-1.4.8-.023.826.741.9,1.354.443,3.721-.014,7.443,0,11.166q.05,18.684,0,37.37c0,1.108.181,2.151-.866,3.189-.59.586-.4,2.146-.272,3.231.39,3.3-.314,6.593.04,9.889.743,6.913-.469,13.708-1.3,20.525-.266,2.2-.073,4.409-.234,6.618-.1,1.333-.832,2.385-.87,3.771-.161,5.9-.832,11.778-.91,17.672-.064,4.79-.214,9.606.1,14.38.235,3.608.01,7.218.329,10.8.374,4.205-.111,8.442.5,12.616.42,2.89,1.182,5.729,1.8,8.587a3.673,3.673,0,0,1-.251,2.635,9.5,9.5,0,0,1-2.08-5,64.334,64.334,0,0,1-1.54-12.5c-.014-8.349-.572-16.692-.547-25.046a154.854,154.854,0,0,1,.635-15.892c.8-7.587,1.293-15.21,1.723-22.833.157-2.783,1.183-5.506,1.017-8.32-.092-1.577-.308-3.134-.349-4.736-.126-4.989.277-9.97.074-14.953-.025-.628.156-1.2-.863-1.479s-1.048-1.66-1.184-2.506c-.576-3.6-2.718-6.5-3.922-9.848-.162.141-.3.209-.289.258.465,3.33-.843,6.211-2.548,8.858-1.277,1.984-.79,3.733-.094,5.624a115.642,115.642,0,0,1,4.588,17.371,85.574,85.574,0,0,1,2.005,14.177,5.407,5.407,0,0,1-.135,1.547c-1.161-1.688-1.4-3.653-1.847-5.559-1.585-6.691-2.556-13.522-4.43-20.142-.812-2.864-1.758-5.692-2.442-8.595-.187-.794-.3-1.082-1.307-.611a7.785,7.785,0,0,1-5.424.049,28.575,28.575,0,0,0-5.765-.6c-.891-.063-.815.756-.871,1.2-.291,2.291-.6,4.592-.676,6.9-.431,12.9-.489,25.8-.281,38.7.133,8.208.811,16.407,1.14,24.614a30.045,30.045,0,0,0,1.347,9.111c.549,1.525,1.686,2.816,1.9,4.633a3.559,3.559,0,0,1-2.587-2.022,13.112,13.112,0,0,1-2.06-5.892c-.653-5.836-.687-11.7-.991-17.554-.3-5.752-.493-11.507-.639-17.261-.121-4.709.049-9.424.07-14.137.018-4.055-.215-8.126.066-12.161.368-5.277.044-10.6,1.069-15.839.494-2.52-.682-4.638-2.022-6.646-.94-1.411-1.953-2.773-2.88-4.193-.435-.667-.753-1.581.1-2.039.8-.432,1.067.453,1.524,1.021a66.641,66.641,0,0,1,5.784,8.909,1.078,1.078,0,0,0,1.463.511c1.5-.966,3.027-.354,4.506-.176a46.913,46.913,0,0,0,5.293,0,.825.825,0,0,0,.894-.68,9.2,9.2,0,0,1,1.252-2.47,13.162,13.162,0,0,0,1.9-7.169,1.227,1.227,0,0,1,.133-.746c1.344-1.479.052-2.31-.765-3.262-2.894-3.377-5.515-7-8.958-9.882-.379-.316-.175-.479.116-.68.758-.523,1.36-.106,1.978.291,2.86,1.836,4.722,4.657,7.046,7.023,3.826,3.895,5.881,8.747,8.069,13.558A24.26,24.26,0,0,1,1064.637,10644.333Z" fill="#264295"/><path d="M1108.537,10615.951c-.126,1.893-1.445,2.894-2.32,4.124a113.126,113.126,0,0,0-8.794,14.824c-.49.974.472,1.888,1.1,2.415q8.281,6.91,16.716,13.636c1.546,1.233,3.4,2.04,4.974,3.286.8.637,1.067,1.594,1.721,2.313a1.263,1.263,0,0,1-.266,1.579c-2.62,2.541-3.559,5.98-4.882,9.188-2.984,7.226-5.29,14.687-7.578,22.16-1.337,4.368-3.237,8.562-4.777,12.871-.812,2.271-1.433,4.613-2.072,6.941-1.35,4.911-3.3,9.619-4.823,14.472-1.81,5.788-3.413,11.645-5.331,17.4a58.737,58.737,0,0,1-6.812,14.777,3.486,3.486,0,0,1-.321.528c-.354.354-.751.889-1.266.666-.726-.315-.23-.9-.029-1.319a98.71,98.71,0,0,0,5.79-13.923q2.572-8.389,5.008-16.82c1.2-4.179,2.854-8.225,4.251-12.349a65.84,65.84,0,0,0,2.007-6.62c1.011-4.5,3.032-8.625,4.49-12.955,1.822-5.409,3.554-10.85,5.324-16.277a168.847,168.847,0,0,1,6.685-16.91,6.884,6.884,0,0,1,1.5-2.131,1.122,1.122,0,0,0,.041-1.831,6.852,6.852,0,0,0-1.37-1.234,91.427,91.427,0,0,1-12.242-9.3c-3.139-2.8-6.361-5.52-9.636-8.163a2.027,2.027,0,0,1-.537-2.839,141.243,141.243,0,0,1,7.656-13.177,34.626,34.626,0,0,1,3.2-4.51c.495-.521.235-.827-.136-1.144-3.556-3.042-7.09-6.11-10.69-9.1-2.645-2.2-4.859-4.858-7.682-6.862-2.136-1.518-4.2-3.144-6.231-4.8a59.349,59.349,0,0,1-5.643-4.978,1.694,1.694,0,0,1-.5-.742c-.088-.483-.26-1.09.262-1.419.495-.312.854.13,1.2.44,1.521,1.375,3.069,2.719,4.617,4.063,3.384,2.939,7.292,5.188,10.584,8.236,2.437,2.257,4.835,4.553,7.441,6.627,2.532,2.016,4.961,4.162,7.428,6.259C1107.49,10614.108,1108.51,10614.793,1108.537,10615.951Z" fill="#264295"/><path d="M1017.324,10758.006c-.144.421-.37.455-.741.417-.853-.088-1.368-.727-1.965-1.174a71.47,71.47,0,0,1-17.083-18.283,97.838,97.838,0,0,1-7.92-15.646,121.015,121.015,0,0,0-5.853-12.342c-1.507-2.681-2.628-5.577-3.94-8.369-1.5-3.2-2.955-6.438-5.6-8.929a1.971,1.971,0,0,1-.362-2.732,112.569,112.569,0,0,0,5.477-12.853c1.981-5.011,4.046-9.988,6.085-14.976,1.86-4.551,3.875-9.041,5.311-13.755.045-.148.112-.289.16-.436,1.083-3.346.832-4.254-2.363-5.726-3.143-1.448-6.03-3.348-9.154-4.822a10.7,10.7,0,0,0-5.319-1.338c-1.594.095-1.934-.644-1.384-2.166a107.858,107.858,0,0,0,5.237-18.832c.652-3.9,1.43-7.778,1.981-11.689.393-2.795.428-5.646,1.4-8.335,2.494-6.9,3.884-14.205,7.713-20.609.39-.652.833-1.226,1.506-1.03.937.272.447,1.079.318,1.706-.367,1.786-1.5,3.234-2.194,4.885-1.413,3.379-2.307,6.911-3.521,10.344-.582,1.643-1.1,3.311-1.743,4.931-1,2.541-.865,5.251-1.264,7.88-1.279,8.428-2.531,16.857-5.246,24.985-.52,1.558-.9,3.163-1.378,4.734-.178.582-.222,1,.527,1.139,2.822.512,5.247,1.948,7.716,3.3,2.125,1.161,4.236,2.366,6.436,3.369,3.256,1.483,4.236,4.414,3.13,7.752-1.406,4.243-3.335,8.3-4.361,12.675-.074.312-.293.77-.544.461-.889-1.094-.839-.011-.984.4-2.033,5.721-4.555,11.242-6.8,16.874-.875,2.192-1.473,4.49-2.486,6.64-.764,1.621-1.369,3.315-2.141,4.932-.315.662-.317,1.126.236,1.59,2.2,1.847,3.315,4.456,4.568,6.9,2.087,4.065,3.755,8.339,5.961,12.358,3.272,5.964,5.319,12.493,8.482,18.513,2.515,4.785,5.1,9.5,8.756,13.572,3.155,3.513,6.641,6.7,9.737,10.266a33.366,33.366,0,0,0,2.949,2.636A6.979,6.979,0,0,1,1017.324,10758.006Z" fill="#264295"/><path d="M1085.865,10525.451a3.679,3.679,0,0,0,1.938,3.331,1.656,1.656,0,0,1,.331.323c.979.984,1.42,2.887,2.448,3.154s2.488-.594,3.849-.522c3.155.163,6.846,2.979,5.4,7.188-1.016,2.962-1.586,6.048-2.854,8.948-.956,2.186-2.53,4.057-3.248,6.289-1.01,3.137-3.691,4.88-5.53,7.313-.82,1.085-1.313,2.327-2.03,3.459-2.145,3.384-5.6,3.645-8.251.46a8.155,8.155,0,0,0-2.015,3.015,9.393,9.393,0,0,1-1.4,2.2c-.294.351-.567.895-1.1.52a1.007,1.007,0,0,1-.156-1.293,23.469,23.469,0,0,1,2.3-4.007c.785-.967,1.22-2.279,2.544-2.953a3.392,3.392,0,0,0,3.072,2.626c2.206.3,2.968-.148,3.909-2.566a10.735,10.735,0,0,1,3.1-4.5c2.34-1.849,3.111-4.544,4.656-6.8,2.51-3.673,3.431-7.953,4.758-12.08a11.255,11.255,0,0,0,.388-1.8,3.583,3.583,0,0,0-3.223-3.984c-2.769-.459-4.485,1.337-6.487,2.581-.3.188-.571.419-.431.883a.768.768,0,0,1-.426,1.038c-.637.224-.807-.415-.994-.751-.828-1.489-1.645-3.078-1.408-4.8.34-2.458-.946-3.656-2.879-4.65a14.832,14.832,0,0,0-10.111-1.746c-.814.171-1.191.362-1.173,1.226.027,1.235-.117,2.478-.042,3.709.207,3.449-2.6,6.507-5.836,7.346a29.282,29.282,0,0,1-10.214,1.061c-3.343-.325-6.9-.382-9.453-3.048-2.015-2.1-4.522-3.9-5.558-6.734-.917-2.516-2.2-5.051-1.553-7.872.876-3.8,4.339-6.165,8.571-6.395,3.372-.183,6.627.633,9.932,1.1,3.51.5,6.518,2.348,9.89,3.144a4.809,4.809,0,0,1,2.573,1.793,2.962,2.962,0,0,0,2.336,1.087,11.689,11.689,0,0,1,4.693,1.214c.61.358,1-.2,1.587-.115a14.4,14.4,0,0,1,5.387,2.1C1084.171,10526.534,1085.093,10527.245,1085.865,10525.451Zm-16.464,3.147c.033-3.458-.836-6.02-2.553-7.077a15.828,15.828,0,0,0-5.648-2.243c-4.846-.782-9.608-2.084-14.6-2.063-2.665.011-6.132,2.355-6.854,5.114-.549,2.1.482,3.839,1.078,5.63a15.061,15.061,0,0,0,8.594,9.1c2.93,1.3,6.25.9,9.408,1.064,2.284.121,4.419-.786,6.556-1.442a5.036,5.036,0,0,0,3.081-2.542C1069.482,10532.245,1069.02,10530.232,1069.4,10528.6Z" fill="#264295"/><path d="M1001.711,10593.435c1.525,4.39,3.026,8.786,4.582,13.164,2.4,6.753,4.478,13.609,7.134,20.288a107.4,107.4,0,0,1,5.658,18.87c.743,3.767,1.283,7.563,1.97,11.327,1.264,6.925,2.006,13.89,2.7,20.88.406,4.078,1.146,8.129,1.874,12.175.871,4.845,1.655,9.705,2.149,14.615.437,4.336.685,8.7,1.436,13a51.46,51.46,0,0,1,.375,5.693c.345,5.641.9,11.263,1.505,16.881.26,2.4.423,4.8.615,7.207.031.391.172.9-.366,1.051-.689.193-.722-.458-.863-.845a41.2,41.2,0,0,1-1.952-9.937c-.484-4.691-.978-9.389-1.247-14.1-.276-4.829-.98-9.611-1.326-14.431a133.492,133.492,0,0,0-1.978-15.11q-1.494-7.947-2.387-15.984c-.818-7.44-1.645-14.875-2.921-22.27a158.543,158.543,0,0,0-3.687-17.457c-1.809-6.2-3.935-12.31-6.273-18.345-.994-2.565-1.468-5.328-2.277-7.972-1.6-5.233-3.309-10.437-4.881-15.681-.255-.851-.947-1.821-.1-2.769Z" fill="#264295"/><path d="M1065.933,10452.226c-2.069-.65-3.785-1.076-5.412-1.727a30.023,30.023,0,0,0-12.137-2.326c-3.2.093-6.416.142-9.615-.008-6-.281-11.61,1.368-17.188,3.245a58.156,58.156,0,0,0-13.079,6.228,42.147,42.147,0,0,0-10.6,9.72c-4.386,5.688-6.778,12.262-9.12,18.908a49.363,49.363,0,0,0-2.636,17.588c.067,3.358.045,6.72-.007,10.078-.017,1.047.274,2.039.312,3.065.017.478-.038.977-.592,1.13-.479.133-.756-.27-1.02-.57a3.17,3.17,0,0,1-.743-2.143c-.011-5.736-.239-11.486.064-17.207a49.833,49.833,0,0,1,3.909-16.237c1.689-4.119,3.12-8.339,5.559-12.136a45.744,45.744,0,0,1,14.2-14.36,60.572,60.572,0,0,1,14.579-6.539c1.966-.6,3.9-1.321,5.873-1.88a27.272,27.272,0,0,1,7.48-.939c3.878.007,7.762.145,11.632-.033a30.428,30.428,0,0,1,14.752,3.269A7.667,7.667,0,0,1,1065.933,10452.226Z" fill="#264295"/><path d="M1132.391,10721.408c-.2-8.423.673-16.795,1.246-25.181.34-4.977,1.333-9.869,2.021-14.8.307-2.2.127-4.41.378-6.622.36-3.171.98-6.3,1.479-9.436.612-3.852.992-7.733,1.665-11.577.795-4.544.811-9.279,2.062-13.675,2-7.036,1.689-14.129,1.692-21.248,0-1.561.288-3.075.412-4.613.054-.678.357-1.588,1.29-1.422s.575.977.541,1.647c-.259,5.089-.1,10.182-.1,15.273a37.414,37.414,0,0,1-1.633,10c-.928,3.344-.926,6.813-1.518,10.2-.5,2.883-1.031,5.769-1.343,8.675a97.3,97.3,0,0,1-1.508,10.509c-1.2,5.45-.947,11.041-1.893,16.521a121.393,121.393,0,0,0-1.894,17.452c-.109,4.091-.7,8.173-.717,12.261-.028,5.668-.252,11.363.789,16.991.081.438.478,1.115-.272,1.322-.658.183-.834-.5-1.04-.937a17.6,17.6,0,0,1-1.649-6.851C1132.341,10724.4,1132.391,10722.9,1132.391,10721.408Z" fill="#264295"/><path d="M949.555,10699.531c-.117,5.466.787,10.444,1.069,15.468a23.152,23.152,0,0,1-.139,4.536c-.073.519-.08,1.158-.772,1.117-.633-.037-.948-.574-.98-1.2-.076-1.481-.118-2.959-.268-4.441-.489-4.851-1.009-9.707-1.222-14.574-.162-3.688-.172-7.367-.654-11.05a117.51,117.51,0,0,0-2.2-12.267c-1.551-6.443-2.829-12.928-3.773-19.486-.752-5.223-1.2-10.517-3.374-15.437-1.55-3.515-3.063-7.044-4.593-10.567a2.462,2.462,0,0,1-.238-.57c-.073-.48-.335-1.135.215-1.359.46-.188.761.4,1.022.78a68.561,68.561,0,0,1,5.868,11.516,43.453,43.453,0,0,1,2.906,12.069,169.517,169.517,0,0,0,3.469,19.389,110.782,110.782,0,0,1,3.057,17.117C949.216,10693.693,949.539,10696.808,949.555,10699.531Z" fill="#264295"/><path d="M1102.489,10512.144a16.182,16.182,0,0,1-2.273,10.2,8.463,8.463,0,0,0-1.119,3.5,2.689,2.689,0,0,1-.663,1.531c-.325.366-.714.623-1.223.35a.914.914,0,0,1-.451-1.064c.427-2.051.615-4.16,1.771-6.015a11.334,11.334,0,0,0,1.638-6.474c-.088-3.55-.014-7.1-.368-10.643-.236-2.366-1.175-4.571-1.665-6.883a82.037,82.037,0,0,0-4.857-14.058,6.605,6.605,0,0,0-2.449-3.1c-.564-.379-1.215-.815-.727-1.606.432-.7,1.005-.157,1.5.023a6.617,6.617,0,0,1,3.731,4.093,127.6,127.6,0,0,1,5.5,16.293C1102.059,10502.9,1102.177,10507.508,1102.489,10512.144Z" fill="#264295"/><path d="M1049.579,10506.121c3.568-.239,7.126-.4,10.582.761.728.245,1.438.352,1.909,1.108.331.532,1.075.594,1.666.714.705.143,1.621.077,1.989.658a18.448,18.448,0,0,1,2.245,4.469.514.514,0,0,1-.757.617c-1.042-.513-2.307-.329-3.253-1.233a4.277,4.277,0,0,0-1.995-.754c-.778-.17-1.656.036-1.949-1.1-.1-.4-.747-.153-1.14-.223-.63-.109-1.375.024-1.177-1.105.118-.672-.621-.762-1.114-.727a13.626,13.626,0,0,1-5.181-.831c-.964-.306-1.612-1.254-2.745-1.214-.235.01-.238-.545-.126-.815C1048.72,10505.989,1049.17,10505.988,1049.579,10506.121Z" fill="#264295"/><path d="M1012.507,10503.2c-.252-.219-.844-.187-.719-.777a.91.91,0,0,1,.917-.7c2.12.056,4.315-.662,6.328.639a6.762,6.762,0,0,0,1.98.835c.919.232,2.148.121.9,1.591-.256.3-.111.843.533.778.3-.031.6-.155.9-.157.544,0,1.093.157,1.147.779.057.667-.587.815-1.044.873-1.168.146-2.354.146-3.527.26-1.407.135-2.866-.169-4.205.6a.863.863,0,0,1-1.314-.39c-.238-.708.523-.669.873-.792,1.687-.595,3.4-1.113,5.076-1.75-3.685.047-6.594,2.676-10.534,3.306,1.518-2.47,4.222-2.483,6.139-3.911-2.061-.319-3.228,1.14-4.642,1.933a18.41,18.41,0,0,1-5.037,2.209c-.576.125-1.079.117-1.283-.48s.2-.887.727-1.155C1007.985,10505.732,1010.483,10505.017,1012.507,10503.2Z" fill="#264295"/><path d="M982.075,10585.815a1.247,1.247,0,0,1-.686,1.137c-4.909,3.069-9.4,6.788-14.682,9.28a48.785,48.785,0,0,1-9.719,3.37c-.689.161-1.3.218-1.511-.535-.2-.719.468-.884.995-1.113,3.01-1.319,6.128-2.367,9.083-3.83a75.521,75.521,0,0,0,10.508-6.405c1.292-.927,2.642-1.776,4-2.605C981.05,10584.51,982.048,10584.894,982.075,10585.815Z" fill="#264295"/><path d="M1082.319,10494.318c-.081,3.2.294,6.158-.4,9a28.361,28.361,0,0,0-.839,6.857,9.331,9.331,0,0,0,1.826,6.226c.363.442.541.984.072,1.376-.443.369-.81-.145-1.214-.349-2.184-1.1-2.537-3.235-2.67-5.241a24.642,24.642,0,0,1,.672-8.712,14.263,14.263,0,0,0,.505-4.115c-.029-3.976-.01-7.951-.009-11.928,0-.36,0-.723.012-1.084.011-.477.095-1.07.569-1.145.553-.087.669.568.809.979C1082.592,10488.931,1082.268,10491.782,1082.319,10494.318Z" fill="#264295"/><path d="M941.282,10729.411a101.753,101.753,0,0,0-1.314-14.383,24.141,24.141,0,0,0-1.018-3.232c-.189-.561-.158-1.051.429-1.3a1,1,0,0,1,1.306.477,12.3,12.3,0,0,1,1.975,5.612,102.464,102.464,0,0,1,.953,17.637,23.852,23.852,0,0,1-.528,3.484c-.066.356.026.957-.576.919-.49-.031-.578-.5-.634-.932A73.282,73.282,0,0,1,941.282,10729.411Z" fill="#264295"/><path d="M1013.412,10564.649a9.2,9.2,0,0,1,5.473-1.906,26.882,26.882,0,0,1,7.747.976,30.854,30.854,0,0,0,8.266.58,42.534,42.534,0,0,1,10.421.908c.39.072.9-.006.919.586.019.527-.455.651-.822.8a7.273,7.273,0,0,1-3.8.027c-3.557-.479-7.117-.084-10.666-.274a31.893,31.893,0,0,1-7.694-1.369c-2.438-.751-4.91-.405-7.373-.433C1015.2,10564.536,1014.509,10564.6,1013.412,10564.649Z" fill="#264295"/><path d="M1002.651,10574.963c2.154,2.777,4.245,5.547,7.058,7.563,2.654,1.9,4.98,4.351,8.04,5.59,3.411,1.381,6.587,3.442,10.362,3.844a53.248,53.248,0,0,0,7.223.261c.488-.014,1.276-.212,1.348.389.093.775-.692.346-1.1.48-3.368,1.115-6.7.425-10.059-.031-1.219-.165-2.123-.977-3.241-1.318-4.444-1.358-8.154-3.935-11.786-6.757a43.742,43.742,0,0,1-6.678-6.283,12.412,12.412,0,0,1-1.5-2.684C1002.114,10575.6,1002.394,10575.348,1002.651,10574.963Z" fill="#264295"/><path d="M1068.411,10452.442a3.3,3.3,0,0,1,1.652.834c2.147,2.212,4.185,4.563,6.451,6.618,2.946,2.673,5.3,5.832,8.048,8.658a8.908,8.908,0,0,1,2.6,4.944c.044.3.231.663-.17.781-.277.082-.542-.1-.749-.395-1.382-1.972-3.024-3.735-4.527-5.609-2.8-3.492-6.109-6.488-9.171-9.724-1.405-1.485-2.885-2.9-4.352-4.328a1.11,1.11,0,0,1-.315-1.375C1067.994,10452.584,1068.135,10452.411,1068.411,10452.442Z" fill="#264295"/><path d="M1018.182,10518.155c-.93-.284-1.526-.2-1.361,1.092.114.885-1.068,1.566-.549,2.586a3.3,3.3,0,0,1-1.627.238c-1.984-.3-3.816-1.317-5.929-1.13-.561.05-1.267-.6-1.766-1.08-.405-.389-.065-.732.414-.866,3.03-.852,5.869-2.116,9.175-2.3,3.7-.211,6.015,1.833,8.661,3.582a.717.717,0,0,1,.359.781c-.1.4-.489.318-.772.315a2.389,2.389,0,0,1-2.246-1.028A5.1,5.1,0,0,0,1018.182,10518.155Z" fill="#264295"/><path d="M1078.858,10482.075c.027-2.437,1.986-3.579,3.368-5.268a20.347,20.347,0,0,1-7.243-1.906c-.6-.254-1.12-.637-.953-1.2s.822-.647,1.444-.448a33.577,33.577,0,0,0,10.739,1.729,1.092,1.092,0,0,1,1.165,1.017.874.874,0,0,1-.792.977c-2.453.481-3.906,2.352-5.594,3.908A3.445,3.445,0,0,1,1078.858,10482.075Z" fill="#264295"/><path d="M1105.043,10681.193a63.08,63.08,0,0,1,3.112-11.932c.666-1.772,1.088-3.647,2.277-5.2.374-.486.82-.924,1.41-.618.687.355.537.988.239,1.6-2.1,4.318-3.266,8.96-4.666,13.521-.3.981-.674,1.944-1.068,2.894-.17.409,0,1.232-.811,1.041C1104.843,10682.341,1105.239,10681.623,1105.043,10681.193Z" fill="#264295"/><path d="M1030.011,10572.873c-3.636.049-6.685-.668-8.747-3.672-.057-.084-.148-.145-.212-.225-.484-.6-1.89-1.034-.992-1.932.521-.521,1.6.33,2.183.979,3.8,4.271,10.088,3.57,13.584,1.207a10.566,10.566,0,0,1,2.921-1.371c.355-.106.735-.22.942.205a.726.726,0,0,1-.325.938,18.925,18.925,0,0,1-3.983,2.615C1033.586,10572.327,1031.8,10573.227,1030.011,10572.873Z" fill="#264295"/><path d="M1050.069,10686.512c.1,6.252.19,12.5-.006,18.757-.015.485.143,1.258-.529,1.247-.521-.008-.594-.741-.6-1.275-.087-5.352-.347-10.694-.19-16.058a40.191,40.191,0,0,0-.355-8.431,3.936,3.936,0,0,1-.04-.921c.02-.368-.2-.851.488-.915.584-.054.767.366.826.727a33.844,33.844,0,0,1,.394,3.489C1050.12,10684.255,1050.069,10685.385,1050.069,10686.512Z" fill="#264295"/><path d="M1042.049,10453.7c1.726-.632,3.145.276,4.476.98a25.661,25.661,0,0,1,10.113,9.427,1,1,0,0,1,.16.261c.175.762.928,1.772.237,2.243-.887.6-1.383-.5-1.828-1.161a29.033,29.033,0,0,0-6.727-7.371,21.449,21.449,0,0,0-4.938-3.062A2.269,2.269,0,0,1,1042.049,10453.7Z" fill="#264295"/><path d="M1018.975,10460.958a25.45,25.45,0,0,1,7.971,1.895c1.513.714,3.28.839,4.578,2.062.519.49,1.086,1,.685,1.674-.445.75-1.155.124-1.608-.1a42.72,42.72,0,0,0-11.348-3.727,1.785,1.785,0,0,1-.454-.079c-.7-.344-1.994-.279-1.886-1.209C1017,10460.741,1018.213,10461.157,1018.975,10460.958Z" fill="#264295"/><path d="M1029.139,10561.984a4.907,4.907,0,0,1-2.372-1.059,1.521,1.521,0,0,0-1.666-.183c-1.636.535-3.172,1.485-5.016,1.228-.424-.059-.861.021-.943-.535-.107-.722.488-.528.829-.548,2.274-.127,4.278-1.3,6.494-1.646.247-.038.611-.174.728-.063,1.357,1.29,2.844.666,4.4.519,2.253-.214,4.015,1.3,5.912,2.267a.565.565,0,0,1,.289.782.654.654,0,0,1-.9.344,11.592,11.592,0,0,1-2.3-.854,5.1,5.1,0,0,0-4.709-.486C1029.633,10561.834,1029.387,10561.905,1029.139,10561.984Z" fill="#264295"/><path d="M1055.762,10456.571c-.156-.516-.311-1.029-.553-1.832,5.01,2.677,8.661,6,9.376,11.646.064.5.223,1.288-.519,1.419-.571.1-1-.341-1.2-.977-.306-.974-.737-1.907-1.056-2.877a11.561,11.561,0,0,0-5.026-6.342,5.54,5.54,0,0,1-.775-.726Z" fill="#264295"/><path d="M1029.5,10459.454a8.425,8.425,0,0,1,4.206,1.721c1.646,1.144,3.681,1.7,5.02,3.284.307.365.943.655.571,1.276-.431.719-1.1.267-1.517.055-2.067-1.044-3.915-2.476-6.036-3.435a21.877,21.877,0,0,1-2.461-1.267c-.31-.189-.974-.288-.624-1C1028.908,10459.582,1029.272,10459.432,1029.5,10459.454Z" fill="#264295"/><path d="M1047.356,10546.754c.225.165.476.339.718.525a18.237,18.237,0,0,1,5.722,7.459c.2.475.535,1.026-.06,1.37-.619.357-.731-.364-.98-.683-1.894-2.41-3.517-5.049-5.99-6.966-.3-.235-.676-.545-.463-1.04C1046.488,10546.992,1046.913,10546.9,1047.356,10546.754Z" fill="#264295"/><path d="M1141.733,10720.14a31.236,31.236,0,0,1,.567-6.415c.077-.354.12-.765.6-.751s.5.43.556.786c.516,3.229-.086,6.43-.245,9.641-.023.441-.179,1.01-.769,1-.746-.014-.67-.7-.7-1.169C1141.694,10722.2,1141.733,10721.171,1141.733,10720.14Z" fill="#264295"/><path d="M1090.85,10512.824c.19-2.6-.617-5.2.034-7.8.1-.4,0-.871.559-.916.71-.059.462.539.5.879a75.958,75.958,0,0,1,.31,11.175c-.012.478.139,1.2-.579,1.208-.589.008-.777-.67-.806-1.157C1090.8,10515.087,1090.85,10513.954,1090.85,10512.824Z" fill="#264295"/><path d="M1020.641,10546.5a3.579,3.579,0,0,1-3.572-2.837c-.153-1.415.426-3.71,2.053-4.295.446-.161.937-.4,1.242.094a.778.778,0,0,1-.3,1.08,2.365,2.365,0,0,0-.843,1.268c-.584,1.523-.273,2.232,1.221,2.866.189.08.435.078.578.2.324.28.894.377.841.972C1021.819,10546.324,1021.495,10546.487,1020.641,10546.5Z" fill="#264295"/><path d="M1060.947,10469.572c2.015.328,4.031.651,6.045.986.442.073.945.066.919.76-.022.612-.5.778-.908.9a6.427,6.427,0,0,1-2.862-.163c-1.466-.209-2.923-.494-4.371-.81-.492-.107-1.266-.064-1.13-.932.13-.829.848-.558,1.364-.62a7.684,7.684,0,0,1,.925-.007Z" fill="#264295"/><path d="M994.846,10492.916a27.853,27.853,0,0,1-1.706,7.232c-.09.286-.227.769-.735.61-.523-.162-.474-.65-.416-1.035.266-1.77.575-3.532.867-5.3a10.443,10.443,0,0,0,.211-1.36c.027-.8.057-1.781,1.02-1.777C995.117,10491.291,994.723,10492.355,994.846,10492.916Z" fill="#264295"/><path d="M1001.448,10593.694c-1.747.367-2.542-.355-2.669-2.124a36.293,36.293,0,0,1-.072-4.323.938.938,0,0,1,.944-1.008c.364,0,.786.235.716.66-.388,2.358.942,4.35,1.343,6.535Z" fill="#264295"/><path d="M1089.825,10495.1a12.868,12.868,0,0,1-.9,4.981c-.106.27-.124.665-.536.648-.44-.018-.592-.358-.638-.741-.263-2.227.314-4.409.371-6.622a.977.977,0,0,1,1.209-.919c.643.151.578.718.506,1.261A10.748,10.748,0,0,0,1089.825,10495.1Z" fill="#264295"/><path d="M1060.051,10564.153a13.142,13.142,0,0,1,.67-3.767c.187-.623.462-1.242,1.268-1.4.724-.142,1.227-.02.92.8a39.453,39.453,0,0,0-1.266,5.978c-.072.351.044.967-.505.988-.519.021-.749-.552-.885-.937A7.286,7.286,0,0,1,1060.051,10564.153Z" fill="#264295"/><path d="M1056.007,10456.883c.237.45.505.889.7,1.356.161.389.706.89.177,1.209-.488.294-.912-.193-1.23-.635-.66-.92-1.368-1.8-2.026-2.725a11.078,11.078,0,0,0-4.308-3.117c-.39-.2-1.041-.341-.81-.925.212-.539.751-.274,1.206-.154a10.827,10.827,0,0,1,6.046,4.68Z" fill="#264295"/><path d="M1023.662,10543.862a8.117,8.117,0,0,1,4.95,2.943c.312.334.488.783.089,1.08-.336.25-.874.537-1.273.12a11.293,11.293,0,0,0-4.118-2.308c-.376-.158-1.134-.393-.853-1.064A1.313,1.313,0,0,1,1023.662,10543.862Z" fill="#264295"/><path d="M1043.946,10592.7c-1.289,0-2.578,0-3.867,0-.385,0-.8-.131-.812-.543s.412-.549.8-.556c.928-.017,1.859-.072,2.783-.013a21.243,21.243,0,0,0,6.546-.7c.419-.1.9-.5,1.1.228.17.626-.369.756-.785.934A14.013,14.013,0,0,1,1043.946,10592.7Z" fill="#264295"/><path d="M1043.749,10464.053a.629.629,0,0,1-.3.66.614.614,0,0,1-.832-.121q-2.421-2.128-4.837-4.264a.691.691,0,0,1-.19-.841c.122-.273.4-.293.657-.3C1039.32,10459.153,1043.678,10463.012,1043.749,10464.053Z" fill="#264295"/><path d="M1054.936,10698.683c0,1.179-.014,2.357.006,3.535.008.456-.133.911-.52,1.026-.529.156-.7-.411-.766-.768a21.742,21.742,0,0,1-.214-6.232c.041-.419.3-.957.884-.916s.682.549.691,1.034c.014.772,0,1.547,0,2.32Z" fill="#264295"/><path d="M1037.991,10545.838a2.419,2.419,0,0,1,1.948.265,1,1,0,0,1,.538,1.283.92.92,0,0,1-1.14.515,7.133,7.133,0,0,0-3.489.07c-.432.125-.914.161-1.185-.4-.289-.6.158-.812.5-1.11A3.841,3.841,0,0,1,1037.991,10545.838Z" fill="#264295"/><path d="M1012.094,10550.437c.06-2.314,1.613-3.4,2.769-4.719a.707.707,0,0,1,1.1-.019c.323.354.157.657-.073.962a14.559,14.559,0,0,0-2.623,4.633c-.068.235-.351.493-.6.326A1.457,1.457,0,0,1,1012.094,10550.437Z" fill="#264295"/><path d="M1052.091,10468.789c.016.458.013.831-.425.968-.4.127-.533-.221-.692-.463-.84-1.285-1.682-2.569-2.489-3.874a.808.808,0,0,1,.113-1.12.893.893,0,0,1,1.138.081A6.927,6.927,0,0,1,1052.091,10468.789Z" fill="#264295"/><path d="M1039.427,10535.092c.338-.058.48.236.54.431.437,1.392,1.5,2.417,2.137,3.7.3.594.425,1.125-.054,1.477s-1.025-.086-1.315-.471a10.2,10.2,0,0,1-2-3.587A1.225,1.225,0,0,1,1039.427,10535.092Z" fill="#264295"/><path d="M1057.614,10524.275c-1.2-.748-2-1.307-3.171.111-1.227,1.484-4.375.352-4.875-1.53-.075-.283.069-.675-.29-.812-.406-.155-1.056-.06-.832-.784.157-.508.742-.5,1.157-.643,2.5-.828,4.757-.023,6.853,1.231,1.646.985,3.533,1.382,5.172,2.347.414.244.869.482.741,1.04a.769.769,0,0,1-1.141.444c-1.209-.629-2.345-.166-3.527-.006-.594.08-1.589.407-1.735-.4C1055.816,10524.442,1056.8,10524.344,1057.614,10524.275Z" fill="#264295"/></g></svg>