<svg xmlns="http://www.w3.org/2000/svg" width="308.345" height="326.796" viewBox="0 0 308.345 326.796"><g transform="translate(-196.096 -99.308)"><path d="M406.242,232.821c1.051-9.16,4.751-17.406,9.14-25.52,3.648-6.744,8.558-11.068,5.616-19.21a12.115,12.115,0,0,0-6.264-7.1,13.985,13.985,0,0,0-9.141-.235,86.473,86.473,0,0,0-8.7,3.319c-1.568.611-4.861,1.853-6.354.472-1.018-.943-1.1-5.092-1.388-6.473a72.6,72.6,0,0,0-4.124-13.98c-2.359-5.455-5.59-10.7-6.944-16.539-1.306-5.636,2.109-12.747.115-17.836-2.8-7.145-21.521-8.983-28.035-9.221-13.256-.486-26.282,5.527-35.78,14.787-12.218,11.913-25.747,35.391-18.032,52.78a20.438,20.438,0,0,1,1.539,3.769c.611,2.769-.605,5.569-1.1,8.361-.9,5.065,1.327,9.988,1.93,14.944.778,6.392.577,12.855,1.658,19.224.792,4.666,2.266,10.667,5.858,13.856,6.111,5.424,14.439,7.153,18.744,14.611,3.975,6.887,8.506,16.843,15.761,20.874,6.8,3.776,10.4-4.248,15.768-5.43,2.2-.486,4.53-.35,6.689-1.013a18.77,18.77,0,0,0,5.725-3.4c6.13-4.715,13.179-9.085,18.761-14.428,4.046-3.874,6.578-9.052,10.548-13.021C402.032,242.677,405.612,238.309,406.242,232.821Z" fill="#d89066"/><path d="M304.667,123.944a.8.8,0,0,1,.142.089c.9.718.087.944-.547,1.927-.888,1.376-1.193,2.95-2.073,4.261-1.007,1.5-2.842,2.22-3.716,3.863-1.343,2.522-1.445,6.3-2.262,9.086-1.053,3.587-2.463,7.058-3.488,10.654a55.7,55.7,0,0,0-1.863,9.772c-.232,2.333.876,8.082-.079,9.945,7.148-13.968,10.725-30.48,22.367-41,8.256-7.46,19.593-10.777,30.706-11.311a52.251,52.251,0,0,1,12.846,1c5.244,1.118,10.261,3.834,15.613,3.509a8.577,8.577,0,0,1,2.9.053c3.37.975,2.059,6.013,2.166,8.582.171,4.116.515,8.265.515,12.384a16.749,16.749,0,0,0,1.251,6.827c1.478,2.972,4.325,4.872,5.878,7.829a47.179,47.179,0,0,1,4.708,11.381,112.869,112.869,0,0,1,2.995,22.781c1.794-2.2,3.628-4.371,5.615-6.4a26.672,26.672,0,0,1,7.193-5.52c7.331-3.566,13.653-.02,15.01,7.92,1.217,7.117-3.849,14.036-7.2,19.866a107.385,107.385,0,0,0-7.576,16.182,8.455,8.455,0,0,0,7.879-4.792l3.216,1.848c.769-7.554,1.232-14.862,3.437-22.1a226.089,226.089,0,0,1,7.935-21.922c1.669-3.961,2.718-7.837,4.506-11.726a16.689,16.689,0,0,0,.89-9.994,48.933,48.933,0,0,0-3.234-9.649c-2.02-4.862-4.1-9.779-7.324-13.937a24.469,24.469,0,0,0-5.193-5.023c-2.064-1.452-4.3-1.866-6.465-2.959-4.055-2.044-7.838-6.884-11.206-9.993-9.542-8.708-20.335-17.934-33.252-18.071-2.56-.027-4.315.721-6.634,1.261-2.8.652-5.715-1.026-8.55-.821-3.326.241-6.069,2.666-9.257,3.645-2.244.689-4.642.641-6.959,1.017a36.607,36.607,0,0,0-8.611,2.89c-2.315,1.008-4.8,1.9-7.009,3.129-2.241,1.247-3.978,3.221-6.028,4.757-3.567,2.672-7.906,4.22-11.308,7.1q1.734.591,3.518,1.01a.7.7,0,0,1-.177.518c-3.206,3.531-4.969,7.741-7.562,11.743a1.507,1.507,0,0,0-.337.908,2.094,2.094,0,0,0,.349.782c.87,1.586-.073,3.511-.919,5.11a52.332,52.332,0,0,0-5.852,28.785,8.31,8.31,0,0,1,6.931-3.286,27.364,27.364,0,0,1,1.347-9.367,33.08,33.08,0,0,1,2.79-5.394c4.3-7.2,8.666-14.478,14.557-20.45a25.343,25.343,0,0,1,5.588-4.471,33.447,33.447,0,0,1,4.183-1.853c6-2.335,12.133-4.7,18.563-4.959" fill="#051e2a"/><path d="M287.1,409.278c20.078,2.6,39.93,6.888,60.084,8.816,17.972,1.719,36.084,1.555,54.054,3.293,14.164,1.37,28.221,3.921,42.438,4.548,9.012.4,18.038.019,27.051-.359,7.438-.312,15.392-.8,21.318-5.309,8.577-6.524,9.736-18.787,9.892-29.563.157-10.863.271-21.825-.366-32.676-.476-8.12-2.028-14.04-.585-22.243,1.068-6.076,2.269-12.654,1.553-18.749-.7-5.981.857-10.851,1.575-16.829.633-5.272-.373-10.587-1.376-15.8-.886-4.614-1.982-9.6-5.566-12.638-3.365-2.854-8.183-3.319-11.843-5.782-3.4-2.286-4.971-3.441-8.782-4.113-4.16-.734-8.009-2.336-11.96-3.851a273.067,273.067,0,0,1-32.015-14.709c-7.02-3.792-13.262-8.584-19.676-12.807-5.546-3.65-8.087,1.532-9.422,6.539-1.408,5.284-3.162,6.26-7.516,9.758-3.751,3.014-3.184,6.91-5.548,10.287-2.276,3.25-6.36,5.934-9.263,8.641a36.974,36.974,0,0,1-7.751,6.037,46.8,46.8,0,0,1-8.023,2.891,87.406,87.406,0,0,0-12.129,4.793c-2.645,1.281-7.028,5.135-9.981,5.055-6.021-.162-10.97-12.581-13.471-16.948-2.841-4.962-6.472-10.143-11.57-13-2.286-1.281-4.95-1.385-7.146-2.658-2-1.162-3.195-4.014-5.837-3.957a5.881,5.881,0,0,0-2.628.941L292.1,254.691c-5.441,3-10.923,7.037-17.078,8.175a174.138,174.138,0,0,0-18.676,4.783c-11.989,3.612-27.385,9.4-33.837,20.91-3.211,5.729-4.736,12.223-6.265,18.61-5.193,21.709-11.772,43.194-16.628,64.92-1.828,8.233-4.481,20.377-.722,28.465,3.218,6.924,10.215,4.65,16.8,4.711C239.536,405.491,263.431,406.208,287.1,409.278Z" fill="#032d46"/><path d="M311.091,286.936a130.955,130.955,0,0,0-.669,13.144c.1,6.205,1.08,12.358,1.653,18.537,1.156,12.489.661,25.045.272,37.558-.363,11.681-1.451,23.028,2.288,34.174a70.63,70.63,0,0,1,3.078,14.906c.67,6.193-.379,7.852,6.123,8.655,10.709,1.322,21.427,2.575,32.14,3.862,2.044.245,4.5.328,5.729-1.319a5.736,5.736,0,0,0,.868-2.848c.662-5.752,1.27-11.365.322-17.135-2.452-14.925-2.425-30.05-1.352-45.309,1.056-15.015,5.388-29.58,9.693-44,3.766-12.614,9.8-23.986,17.291-34.936,1.894-2.767,4.176-5.259,5.966-8.095,2.033-3.221,1.969-5.981,2.813-9.46.932-3.837,2.733-6.793,2.514-10.948-3.914,5.023-8.2,9.717-11.884,14.778-5.082,6.975-12.846,10.212-19.742,14.943A141.478,141.478,0,0,1,341.7,287.751c-4.191-11.848-12.851-22.2-21.906-30.717-6.867-6.459-6.418,2.86-6.882,8.346Z" fill="#bfc4d0"/><path d="M332.9,330.569c-1.1,2.477-2.975,4.51-4.509,6.744-3.788,5.518-5.439,12.2-6.64,18.787a175.292,175.292,0,0,0-.772,58.179l26.846,3.121c5-8.6,4.219-19.206,4.267-29.154.045-9.368,2.193-18.8,1.179-28.009-.732-6.637-1.016-13.143-1.248-19.769-.211-6.044-1.47-12.785.624-18.637,1.432-4,6.448-5.342,7.244-10.039.455-2.687-.964-5.3-2.334-7.656l-7.78-13.394c-5.947-10.238-15.694,2.335-16.08,9.979C333.214,310.289,336.986,321.356,332.9,330.569Z" fill="#00385c"/><path d="M338.43,225.122a1.966,1.966,0,0,1,.58.546c.657,1.075-.881,2.142-2.108,2.426-5.165,1.193-10.514,1.272-15.815,1.344-8.957.123-14.416-6.13-3.254-8.677A26.694,26.694,0,0,1,338.43,225.122Z" fill="#864648" opacity="0.46"/><path d="M318.233,197.434a3.6,3.6,0,0,0-3.531,3.656,3.5,3.5,0,0,0,3.98,3.1,3.406,3.406,0,0,0,2.424-4.382l-2.361-.031" fill="#c7ada1"/><path d="M302.535,201.661c1,1.371,8.108-5.644,7.242-8.323-.659.02-8.477.421-8.47.166A22.109,22.109,0,0,0,302.535,201.661Z" fill="#c7ada1"/><path d="M361.741,198.457l-1.724,2.306c-5.36,7.173-10.465,1.974-11.669-4.72,3.831-1.2,8.524-.4,12.221,1.109,1.436.586,2.048-1.5,3.6-1.491a1.3,1.3,0,0,1,.941.254c.48.481-.029,1.274-.525,1.739C363.256,198.9,362.831,197,361.741,198.457Z" fill="#c7ada1"/><path d="M364.162,140.786,347.927,141a1.379,1.379,0,0,0-.912.23c-.445.389-.218,1.117.08,1.628a11.351,11.351,0,0,0,8.416,5.462l-3.465,2.9a55.136,55.136,0,0,0,10.72,1.235c2.446.04,5.237-.252,6.7-2.214,1.048-1.4,1.109-3.287,1.128-5.039.018-1.678-.3-3.819-1.924-4.232-1.2-.3-2.783.483-3.533-.5" fill="#c7ada1"/><path d="M495.542,419.547c-.917-1.724.116-3.4.533-4.868,1.128-3.978.594-8,.97-11.982.239-2.521,0-5.1.6-7.565.6-2.429.277-4.858.229-7.264-.06-3,.382-5.938.523-8.907.056-1.189.136-2.412.193-3.609a34.628,34.628,0,0,1,.689-6.176c.863-3.764.775-7.638,1.169-11.451.342-3.306-.762-6.19-1.541-9.193a20.808,20.808,0,0,1-.565-6.886c.281-3.645.6-7.289.987-10.924.324-3.025.81-6.029,1.144-9.058A138.017,138.017,0,0,0,501.633,305c-.043-3.771-.127-7.564-.069-11.318a54.1,54.1,0,0,0-1.934-13.715c-1.092-4.494-4.27-7.334-8.3-9.351a103.806,103.806,0,0,1-10.583-5.547,41.775,41.775,0,0,0-9.627-4.312,178,178,0,0,1-20.037-8.2c-6-2.864-12.3-5.07-18.153-8.264-3.539-1.933-6.942-4.134-10.56-5.9a61.306,61.306,0,0,1-13.566-8.457c-.358-.309-.62-.429-1-.052-.616.6-1.754.633-1.976.174-.428-.886.727-1.1,1.291-1.426,1.213-.709,2.319-1.59,3.9-1.646.608-.021.819-1.261,1.057-2.057.262-.878.023-2.12,1.5-2.339a1.935,1.935,0,0,1,1.269.167c.329.166.444.839.919.551.564-.342.128-.88.123-1.357a28.376,28.376,0,0,1,1.931-10.833c2.341-5.985,4.688-12,5.548-18.447a20.067,20.067,0,0,1,1.024-3.373,1.088,1.088,0,0,1,1.5-.728c.777.247.459.811.314,1.388-1.01,4.016-.989,8.254-2.534,12.152-1.5,3.8-2.463,7.79-4.207,11.505-1.455,3.1-.713,6.508-1.154,9.756-.072.53-.1,1.119-.144,1.675-.042.487.41,1.265-.456,1.408a1.855,1.855,0,0,1-1.9-.409,12.242,12.242,0,0,0-1.524-1.232,5.545,5.545,0,0,0-.51,1.426c-.075,1.608-.747,2.36-2.43,1.989-.431-.095-1.026-.131-1.182.4-.143.486.445.545.754.758,3.418,2.355,6.721,4.9,10.614,6.472,5.173,2.082,9.718,5.348,14.719,7.752,5.74,2.758,11.58,5.277,17.513,7.6,3.012,1.179,5.78,2.91,8.81,4.118,3.378,1.348,6.863,2.379,10.227,3.754a77.225,77.225,0,0,1,13.555,6.6c2.376,1.566,5.188,2.423,7.692,3.775a16.5,16.5,0,0,1,9.044,12.855c.295,2.183.893,4.324,1.353,6.485v21.22c-.654.392-.311,1.026-.332,1.541a24.078,24.078,0,0,1-.074,4.09c-.995,4.516-.9,9.145-1.608,13.693-.576,3.72-.938,7.478-1.189,11.254a21.021,21.021,0,0,0,.729,8.628c1.736,4.924,1.473,9.926.406,14.915-.491,2.3-1.084,4.562-1.392,6.906-.51,3.877-.306,7.779-.563,11.666-.386,5.867-.024,11.768-.716,17.649-.387,3.289.077,6.666-.417,9.967-.462,3.087-1.118,6.145-1.689,9.215Z" fill="#004c94"/><path d="M365.277,315.53c1.563-3.22,2.32-6.572,3.656-9.7a100.186,100.186,0,0,1,8.226-14.449c4.435-6.914,8.381-14.092,12.181-21.371a152.841,152.841,0,0,0,6.945-15.133c1.234-3.162,2.271-6.4,3.237-9.7-1.742,2.611-3.686,5.114-5.172,7.865a33.789,33.789,0,0,1-5.539,7.426c-2.5,2.587-4.587,5.738-7.888,7.339-5.173,2.508-9.841,6-15.44,7.688a29.582,29.582,0,0,0-10.627,5.934,5.012,5.012,0,0,1-4.582,1.153c1.569-2.264,8.207-6.676,10.722-7.5a45.348,45.348,0,0,0,11.852-5.438,12.343,12.343,0,0,1,2.248-1.113,20.929,20.929,0,0,0,8.386-6.041c1.808-2.24,4.016-4.117,5.822-6.41,2.064-2.622,3.625-5.543,5.518-8.257,2.341-3.355,4.569-6.782,7.054-10.045,1.06-1.393,1.53-3.231,2.293-4.855.4-.855.5-2.42,1.736-2.031,1.29.407.547,1.83.25,2.692-.926,2.688-1.868,5.37-3.791,7.6-.929,1.08-1.914,1.893-.868,4.052a72.4,72.4,0,0,0,3.393,6.884c3.68,5.887,6.147,12.384,9.56,18.382,1.862,3.271,3.676,6.579,5.663,9.781.515.829.5,1.5-.366,1.952-3.378,1.76-5.082,5.078-7.351,7.861a22.847,22.847,0,0,1-4.188,4.217c-1.055.762-1.262,1.507-.657,2.563,2.348,4.1,2.986,8.782,4.4,13.2.741,2.321-.719,4.22-2.05,6-2.121,2.84-4.49,5.528-6.321,8.543-2.41,3.969-4.415,8.185-6.567,12.309a77.09,77.09,0,0,0-4.872,9.984,128.106,128.106,0,0,1-4.584,12.234c-2.906,6.178-4.641,12.727-6.7,19.176a26.717,26.717,0,0,0-1.368,9.128c.11,2.963.022,5.932.023,8.9,0,.669-.068,1.393-.963,1.2-.541-.12-1.438.08-1.428-1.035.053-6.213-.474-12.454,1.547-18.523,2.211-6.636,4.105-13.383,6.476-19.959.93-2.576,2.5-4.948,3.281-7.626a59.359,59.359,0,0,1,4.917-11.569c2.671-4.936,5.308-9.891,7.992-14.821a43.47,43.47,0,0,1,5.883-7.812c2.907-3.287,2.38-6.484,1.207-10.142a86.719,86.719,0,0,0-3.4-9.458,2.229,2.229,0,0,1,1.1-3.113c2.662-1.548,4.29-4.168,6.072-6.565,1.55-2.085,2.977-4.2,5.44-5.365.97-.457.217-1.206-.051-1.69-1.467-2.655-2.888-5.349-4.555-7.879a60.172,60.172,0,0,1-4.373-8.9c-2.17-4.873-5.054-9.357-7.684-14.276-1.355,3.3-1.99,6.558-3.279,9.609-2.609,6.18-5.729,12.093-8.807,18.04-3.448,6.665-7.434,13-11.445,19.315-2.258,3.556-2.929,7.628-3.654,11.612-.808,4.441-2.237,8.669-3.452,12.982-1.678,5.957-3.026,12.008-4.5,18.021a106.013,106.013,0,0,0-3.09,16.649c-.43,5.249-.728,10.5-.692,15.772q.055,8.3.005,16.6c-.015,2.666.72,5.23.942,7.863a18.2,18.2,0,0,1,.022,3.091c-2.362-.25-1.988-2.233-2.212-3.62-.99-6.127-.867-12.326-.713-18.5a96.665,96.665,0,0,0-.16-11.348c-.7-7.583.708-14.937,2.263-22.223,1.071-5.025,2.65-9.968,3.707-15.007,1.11-5.293,3.167-10.282,4.484-15.494a19.331,19.331,0,0,0,.94-5.079c-1.265,3.412-2.316,6.371-3.473,9.288-.34.859-.35,2.086-1.747,2.185a2.966,2.966,0,0,1-3.1-1.57c-.79-1.354-1.8-2.582-2.809-4.008-1.815,3.411-4.366,6.156-5.947,9.519a3.013,3.013,0,0,0,.065,2.587,10.634,10.634,0,0,1,.162,4.9,70.759,70.759,0,0,0-.559,7.977c-.115,5.473.02,10.952-.093,16.425-.144,7.034-.783,14.044-1.213,21.064-.083,1.364-.151,2.769-.145,4.158.022,5.493.009,10.986.008,16.478a6.067,6.067,0,0,1-.043,1.364c-.159.679-.412,1.257-1.369,1.141-.865-.106-.977-.571-.974-1.273.015-2.681.006-5.362.006-8.043a84.688,84.688,0,0,1,.07-9.656c.61-5.273.263-10.611,1.287-15.847.956-4.892-.6-9.741-.36-14.64.256-5.235.209-10.484.4-15.722.078-2.143.427-4.276.659-6.413.083-.758-.023-1.068-1-1.182a117.255,117.255,0,0,1-13.538-2.5c-.853-.2-.994.227-1.247.795-1,2.244-1.491,4.663-2.573,6.893-1.439,2.967-2.559,6.087-3.929,9.09a96.072,96.072,0,0,0-7.235,21.927c-.647,3.4-.884,6.8-1.337,10.2-1.158,8.7-.964,17.441-.982,26.178,0,.516.293,1.319-.421,1.482-.845.192-.893-.717-1.1-1.246-.939-2.407-.593-4.963-.667-7.444-.105-3.529.121-7.069.245-10.6.15-4.271.748-8.5,1.2-12.745.722-6.746,2.862-13.161,4.555-19.675,1.073-4.13,3.137-7.9,4.884-11.79,1.858-4.131,3.58-8.323,5.316-12.508.166-.4.638-.813-.329-1.385-.891-.528-.513-2.214-.528-3.315-.069-5.293.106-10.589.189-15.884.015-.955,0-1.912,0-3.155l-3.494,3.726c-1.5,1.6-3.027,1.351-4.092-.5-1.735-3.007-3.648-5.911-5.374-8.923-2.5-4.365-5.4-8.622-6.04-13.744-.49-3.9-1.791-7.693-1.567-11.7a16.771,16.771,0,0,0-.482-3.83c-.451,3.37.141,6.716.144,10.072.011,14.542.263,29.09-.1,43.623-.157,6.4-.591,12.813-.554,19.231.01,1.8-.216,3.592.521,5.37.48,1.161-.179,2.533-.09,3.7.454,5.968,1.35,11.911,1.236,17.909-.072,3.806.015,7.624.175,11.4.186,4.394-.559,8.968,1.269,13.185,1.019,2.351,1.215,4.869,1.886,7.284.231.833.639,2.315-.266,2.587-1.313.4-1.58-1.165-1.955-2.1a19.806,19.806,0,0,1-1.027-3.549c-.5-2.533-1.815-4.8-2.233-7.376a31.128,31.128,0,0,1-.174-4.737c-.066-5.818.1-11.64-.061-17.454a126.649,126.649,0,0,0-1.556-19.289,27.3,27.3,0,0,1-.115-4.783c-.01-4.963-.07-9.927.02-14.888.052-2.844.5-5.685.488-8.526,0-1.338.189-2.648.186-3.978q-.036-22.587,0-45.173a36.021,36.021,0,0,1,.455-7.67c.277-1.245.554-2.552.868-3.819.1-.412.118-.842.606-.88.629-.048.751.56.728.934-.145,2.36.722,4.548,1.08,6.82,1.074,6.81,1.48,13.725,3.391,20.4.863,3.017,2.64,5.538,3.969,8.3,1.919,3.984,4.9,7.288,6.777,11.579,2.674-3.121,5.579-5.7,8.342-8.416,1.444-1.42,3.058-2.669,4.6-3.985.414-.352.962-.911,1.425-.422.549.581-.116,1.159-.512,1.546-1.5,1.466-3.032,2.908-4.616,4.284a5.279,5.279,0,0,0-1.8,4.368c.1,3.513.155,7.049.1,10.537-.044,2.925.445,5.883-.084,8.8-.183,1.009.194,1.381,1.26,1.714,4.459,1.394,9.1,1.785,13.631,2.783.543.119.779-.015.9-.413,1.152-3.807,3.882-6.68,5.844-10.007a22.261,22.261,0,0,0,1.124-3.174c.209-.528-.2-.705-.382-1.024q-5.131-9.094-10.255-18.193a5.056,5.056,0,0,1-.4-.934c-.14-.434-.3-.96.17-1.234a1.019,1.019,0,0,1,1.246.247,15.921,15.921,0,0,1,2.894,3.528c2.83,4.915,5.518,9.911,8.335,14.833A62.287,62.287,0,0,0,365.277,315.53Z" fill="#004c94"/><path d="M307.076,123.4c1.157-.659,2.22-1.54,3.633-1.6.317-.014.734-.128.911.253.19.411-.2.626-.452.81-1.857,1.363-3.717,2.723-5.607,4.04-.682.476-1.259.909-1.012,1.878.209.824-.289,1.359-.832,1.911-1.5,1.521-3.2,2.876-4.317,4.828.654.533,1.9.368,2,1.3a3.9,3.9,0,0,1-1.183,2.507c-3.98,5.286-7.285,10.845-6.957,17.821a2.71,2.71,0,0,1-.172,1.162c-.266.617-.376,1.5-.107,1.814,2.151,2.481.049,4.779-.263,7.1-.185,1.379.037,1.717,1.306,1.293s2.6.024,3.924-.292c-1.105-2.177-.253-4.336.073-6.464.848-5.531,4.238-9.869,7.024-14.481,1.77-2.932,3.6-5.816,5.63-8.591,5.85-7.981,13.355-13.39,23.09-15.508,3.173-.69,6.268-1.781,9.582-1.783a68.8,68.8,0,0,1,9.018.308c2.782.363,5.654.211,8.334,1.149a50.156,50.156,0,0,0,16.521,2.9c1.222,0,2.372.169,3.6.275-.343.744-.931.54-1.4.522-3.744-.143-7.5.3-11.239-.3-2.944-.478-5.741-1.47-8.618-2.173a49.8,49.8,0,0,0-17.245-1.327,51.927,51.927,0,0,0-15.518,4.114,30.2,30.2,0,0,0-10.785,8.184c-2,2.317-4.142,4.538-5.907,7.019-1.664,2.338-3.542,4.563-4.589,7.346-.984,2.616-2.7,4.9-3.8,7.492a24.251,24.251,0,0,0-1.951,8.291,7.8,7.8,0,0,1-.031.853c-.383,2.288-.387,2.288,1.853,2.288,3.536,0,7.073-.042,10.608.012a17.561,17.561,0,0,1,9.056,2.714c.281.173.642.349.769.616.621,1.318,1.753,1.463,3,1.454,2.427-.016,4.891-.233,7.067,1.232a.735.735,0,0,0,1.055-.222c3.7-4.736,8.941-4.227,14.034-4.07,3.514.109,7.021.443,10.532.66,4.843.3,9.517,1.494,14.248,2.466,3.578.735,6.987,2.1,10.608,2.573,1.775.231,3.608-.027,5.487.731-.254-2.245-1.48-4.048-1.877-6.106-.466-2.42-1.357-4.762-1.183-7.287a3.952,3.952,0,0,1,.288-1.48,1.125,1.125,0,0,1,1.132-.818c.732,0,.607.531.651.95a57.363,57.363,0,0,0,3.044,12.172c1.155,3.448,1.247,3.467,4.8,3.665,1.4.078,2.906.045,3.578,1.826.269.714,1.3.546,1.977.733,2.464.679,5.246.761,7.365,2,2.591,1.513,5.448.955,8.054,2.058,3.183,1.348,5.141,5.054,5.394,7.967.448,5.16-1.2,9.669-3.709,14.108-3.2,5.659-5.952,11.565-8.976,17.323-2.53,4.817-9.433,5.764-12.623,3.591-.326-.222-.8-.345-.608-.845.183-.469.63-.315,1.036-.287,1.352.1,2.52.9,3.949.826a6.588,6.588,0,0,0,5.687-3.53c3.929-7.253,7.861-14.519,11.387-21.973,2.065-4.365,2.531-9.081-.078-13.6-1.236-2.141-4.374-3.305-6.871-3.172-2.636.139-4.972,1.163-7.8,1.972,1.392-1.506,2.93-1.991,4.715-2.8-5.353-.845-10.053-2.788-15.065-3.761.505,5.009.005,10.036.242,14.942,1.336-1.241,2.729-2.481,4.056-3.788a8.112,8.112,0,0,1,2.7-2.262c.267-.1.739-.549,1.017,0,.181.357-.127.627-.387.862-1.976,1.781-3.65,3.883-5.909,5.374a3.6,3.6,0,0,0-1.685,1.727c-.376.982-1.316.591-1.882-.112a2.758,2.758,0,0,1-.347-1.807c-.032-3.924-.065-7.848-.128-11.771a13.2,13.2,0,0,0-.257-2.511c-.092-.434-.189-.994-.876-1.07-4.1-.452-7.9-2.068-11.866-3.056-2.657-.662-5.479-.379-8.1-1.372a28.35,28.35,0,0,0-3.559-.942c-.626-.148-1.068-.081-.63.752.789,1.5.527,3.155.359,4.691-.264,2.4-.019,4.858-.944,7.22-1.242,3.174-3.623,5.226-6.262,7.107-.136.1-.3.241-.44.232-5.639-.342-11.3,2.014-16.935-.217-2.147-.849-4.6-1.566-5.933-3.3-2.389-3.108-4.393-6.651-3.49-10.889.2-.931-.194-1.955.88-2.918-2.7.19-4.473-1.794-6.831-1.454-.294.042-.335-.245-.263-.481s.669-.056.442-.414c-.1-.157-.651-.108-.966-.028-.344.087-.324.49-.225.714a5.6,5.6,0,0,1,.309,2.172c.163,5.222-1.175,9.795-5,13.655a16.358,16.358,0,0,1-4.265,3.284l.052-.047c-4.7.707-9.323-.161-13.961-.69a6.641,6.641,0,0,1-1.117-.312c-2.572-.775-2.752-.748-2.336,1.96a39.97,39.97,0,0,1,.226,6.1c.009,3.689,1.034,7.225,1.538,10.839a37.944,37.944,0,0,1,.571,4.51c.1,4.934-.118,9.929.466,14.785.722,6,2.164,12.039,7.05,16.364,2.926,2.59,6.488,4.129,10.031,5.685,4.269,1.875,8.828,2.229,13.352,2.314,4.429.083,8.851.346,13.275.48a21.557,21.557,0,0,0,9.8-2.068,8.465,8.465,0,0,1,3.023-.584c-2.981,1.616-5.717,3.752-9.386,3.619-2.789-.1-5.6.158-8.374-.057-5.739-.444-11.526-.137-17.226-1.131l.031.011a36.981,36.981,0,0,1-13.7-5.673,2.806,2.806,0,0,0-2.8-.254,85.757,85.757,0,0,1-10.256,3.679,5.542,5.542,0,0,0-1.754.969c-2.3,1.664-4.966,2.517-7.526,3.632-5.842,2.543-11.794,4.813-17.8,6.909-5.053,1.764-10.3,2.982-15.4,4.621-1.845.592-3.453,1.907-5.29,2.54-5.3,1.825-9.9,5.015-14.879,7.453-3.371,1.65-6.245,3.872-7.634,7.847a118,118,0,0,1-5.761,12.564c-1.9,3.882-2.488,8.1-3.467,12.233-.618,2.608-1.352,5.191-2.106,7.765-1.82,6.208-3.531,12.437-4.772,18.8-.609,3.118-1.145,6.4-2.568,9.177-3.174,6.183-4.013,12.863-5.34,19.5-1.047,5.239-1.337,10.557-2.226,15.806a26.382,26.382,0,0,0,.142,6.087c.294,4.257.117,8.548.092,12.825,0,.745-.487,1.007-1.267.945-.717-.056-1.031-.14-1.132-1.021a83.45,83.45,0,0,1-.186-11.778c.033-1.256-.515-2.373-.439-3.635.243-4.041.795-8.045,1.367-12.042.651-4.546,1.354-9.092,2.271-13.589a93.381,93.381,0,0,1,4.372-14.807c2.5-6.517,3.591-13.4,5.349-20.106.81-3.087,1.742-6.146,2.722-9.184,1.345-4.165,2-8.489,3.059-12.72a37.515,37.515,0,0,1,2.456-6.066c2.076-4.666,4.3-9.266,6.485-13.883a8.847,8.847,0,0,1,3.362-3.242c3.788-2.613,8.028-4.435,12-6.731,2.411-1.394,4.961-2.5,7.327-4.025,4.475-2.885,9.779-3.678,14.782-5.227,3.5-1.084,6.955-2.342,10.406-3.59,3.825-1.384,7.693-2.683,11.406-4.328,2.5-1.106,5.24-1.544,7.588-3.04s5.227-1.583,7.687-2.851a36.438,36.438,0,0,1,7.3-2.717c-5.172-4.94-6.842-11.41-7.625-18.254-.49-4.273-.2-8.568-.368-12.849a54.628,54.628,0,0,0-1.447-9.816,37.669,37.669,0,0,1-.78-11.435c.127-1.534-.322-3.27,1.039-4.477-3.114-2.562-4.147-6.208-4.895-9.9a55.3,55.3,0,0,1-1.467-8.969,1.153,1.153,0,0,0-1.436-1.232c-1.118.112-2.319.094-2.262-1.52.054-1.524,1.232-1.564,2.338-1.512.807.037,1.169-.218,1.07-1.054a3.648,3.648,0,0,1,.357-2.306c1.455-2.419-.01-4.8-.093-7.173-.262-7.594,2.786-13.869,7.189-19.7.569-.753,1.027-1.415-.324-1.847-.992-.317-1.169-.883-.516-1.79a16.333,16.333,0,0,1,3.812-4.243c.912-.629,1.93-1.383,1.279-2.923-.345-.818.6-1.263,1.165-1.688,1.331-1,2.928-1.643,4.043-2.947Zm36.752,48.377c-2.6-.738-4.846.442-6.938,1.544-1.914,1.008-2.505,3.126-3.133,5.185-1.289,4.227.4,7.753,2.737,10.81,2.061,2.691,5.471,3.617,8.807,3.974,3.538.378,7.015-.839,10.566-.683a1.183,1.183,0,0,0,.754-.334c1.845-1.727,3.968-3.208,4.8-5.795,1.024-3.168.922-6.437.966-9.693a2.525,2.525,0,0,0-1.04-1.866,10.321,10.321,0,0,0-6.33-2.782C351.283,172,347.537,172.087,343.828,171.774Zm-51.167-.383a12.638,12.638,0,0,0,1.561-.533,1.042,1.042,0,0,1,1.237.288c.473.434-.112.664-.315.946a7.055,7.055,0,0,0-1.212,4.117,28.427,28.427,0,0,0,1.807,9.723c1.217,3.659,3.686,5.981,7.612,6.329,3,.265,6.025.212,9.034.392a4.94,4.94,0,0,0,4.35-2.154c.419-.531.843-1.054,1.283-1.57a15.482,15.482,0,0,0,3.577-12.1c-.364-3.4-3.375-5.775-7.463-6.447-4.048-.665-8.13-.257-12.2-.318-1.262-.019-2.587.393-3.778.13A7.13,7.13,0,0,0,292.661,171.391Z" fill="#004c94"/><path d="M307.627,250.932c-3.539,6.148-6.044,12.759-9.93,18.609-3.327,5.011-6.88,9.888-11.845,13.48a37.639,37.639,0,0,1-3.951,2.553,1.1,1.1,0,0,0-.4,1.85c3.855,4.777,7.478,9.789,12.865,13.067.852.518,1.379,1.353.6,2.262-2.382,2.789-3.776,6.289-6.5,8.838-2.241,2.1-2.191,2.146-.695,4.924,2.642,4.909,4.3,10.209,6.15,15.437a19.123,19.123,0,0,0,.812,2.017c.186.38.372.907.142,1.107-1.113.968-.543,2.028-.264,3.055a94.412,94.412,0,0,1,2.8,17.609c.584,7.565.31,15.129.231,22.687-.057,5.443,1.516,10.408,3.276,15.395.111.315.26.617.392.925.117.274.205.61-.076.77a.66.66,0,0,1-.88-.283c-2.821-3.816-4.855-7.967-5-12.8-.159-5.21-.349-10.432-.156-15.635.11-2.964.087-5.938.024-8.877a84.355,84.355,0,0,0-1.129-11.761c-.49-3-1.031-5.97-1.783-8.916-.284-1.109-.874-2.046-1.2-3.121a7.812,7.812,0,0,1-.357-3.962c.263-1.326-.682-2.53-1.123-3.764a67.411,67.411,0,0,0-4.739-10.721c-.994-1.749-.724-2.781.922-4.148,2.407-2,3.79-4.746,5.527-7.237a1.64,1.64,0,0,0,.228-.449c.257-.841,1.784-1.127,1.23-2.184-.349-.666-1.295-1.016-1.966-1.518a40.9,40.9,0,0,1-8.325-8.386c-.974-1.309-2.269-2.347-3.015-3.856-.942-1.907-.909-1.982.8-3.086a42.307,42.307,0,0,0,11.568-10.552,64.089,64.089,0,0,0,5.787-8.488c2.054-4.049,4.114-8.1,6.273-12.088C304.673,252.3,305.231,250.414,307.627,250.932Z" fill="#004c94"/><path d="M438.658,297.337a65.944,65.944,0,0,1-2.989,9.51c-3.121,8.274-6.246,16.547-9.285,24.852-1.956,5.346-2.736,10.959-3.4,16.581-1.2,10.1-.419,20.245-.725,30.364-.121,4.02.972,7.859,1.249,11.782a157.444,157.444,0,0,1,.047,16.518,15.238,15.238,0,0,1-.911,5.125c-.146.365-.193.846-.7.8s-.529-.524-.615-.909c-.594-2.669.4-5.259.389-7.909-.027-5.28.714-10.575-.384-15.832a10.436,10.436,0,0,1-.051-1.536c-.054-.989.447-2.088-.915-2.767-.369-.184-.388-1.257-.406-1.926-.134-4.893-.325-9.789-.308-14.683.019-5.656-.045-11.335.429-16.962a79.741,79.741,0,0,1,4.93-22.444c3.4-8.707,6.635-17.476,10.062-26.171C435.738,300.045,436.29,298.033,438.658,297.337Z" fill="#004c94"/><path d="M252.538,330.063c0,3.251-.129,6.508.031,9.751.218,4.393-.628,8.672-1.08,12.994-.365,3.485-1.082,6.892-1.191,10.454-.147,4.775-.4,9.557-.521,14.343a45.706,45.706,0,0,0,1.781,14.889,31.594,31.594,0,0,1,1.323,8.47c.009.344.314.85-.25,1.028-.5.159-.65-.415-.878-.653-.952-.993-1-2.37-1.228-3.623a78.816,78.816,0,0,0-2.208-9.507c-.713-2.25-.21-4.614-.215-6.919a91.314,91.314,0,0,1,.32-11.564c.269-2.153-.621-4.221-.578-6.365a89.737,89.737,0,0,1,1.167-11.937,82.045,82.045,0,0,0,1.1-14.616c-.154-6.3,0-12.617.083-18.926.022-1.565-.307-3.149.253-4.713.21-.587.3-1.08,1.043-1.077.8,0,.592.616.723,1.084.546,1.96.275,3.958.308,5.936C252.581,322.761,252.538,326.412,252.538,330.063Z" fill="#004c94"/><path d="M406.575,126.843a1.218,1.218,0,0,1,1.617-.488c5.557,2.15,10.976,4.342,15.23,8.928,5.646,6.087,8.936,13.207,10.866,21.125a57.924,57.924,0,0,1,1.062,8.179c.383,3.919-.861,7.319-2.711,10.6a4.948,4.948,0,0,0-.786,2.368c-.018.757-.483,1.06-1.252,1.044-.812-.016-1.111-.42-1.143-1.16a5.647,5.647,0,0,1,.92-3.548c2.578-3.779,2.5-7.936,2-12.269a44.261,44.261,0,0,0-2.568-10.925c-3.076-7.991-7.6-14.936-15.071-19.537-1.809-1.113-3.8-1.927-5.694-2.906C408.208,127.82,407.4,127.319,406.575,126.843Z" fill="#004c94"/><path d="M322.1,109.879c2.385-.746,4.8-1.414,7.149-2.255,4.68-1.672,9.294-3.532,14-5.138,4.266-1.457,8.741-1.871,13.212-2.3,2.058-.2,4.111-.139,6.164-.272,5.285-.343,10.34.921,15.38,2.346,5.15,1.456,9.571,4.358,14.051,7.063a26.109,26.109,0,0,1,7.894,7.8,5.975,5.975,0,0,1,1.14,4.159c-.05.414-.064.857-.463,1.025a1.128,1.128,0,0,1-1.224-.384,2.45,2.45,0,0,1-.613-1c-1.192-4.3-4.337-7.12-7.7-9.565-5.12-3.719-10.6-6.925-16.839-8.409a43.758,43.758,0,0,0-13-1.515c-4.351.27-8.692.567-12.983,1.229-3.136.483-6.093,1.792-9.086,2.869-4.589,1.652-9.2,3.224-13.931,4.433A8.028,8.028,0,0,1,322.1,109.879Z" fill="#004c94"/><path d="M315.155,194.373c1.483-.213,1.443.72.935,1.524a10.366,10.366,0,0,0-2,5.633c0,.59-.544,1.075-.959,1.552a2.664,2.664,0,0,0-.341,3.287c.617,1.064,1.5.478,2.386.37a6.6,6.6,0,0,1,3.85.336,6.34,6.34,0,0,0,5.232.194,8.179,8.179,0,0,1,6.986.377,16.757,16.757,0,0,0,4.289,1.371,2.948,2.948,0,0,0,2.982-1.464c1.089-1.478,1.815-2.994.985-4.837-.138-.307-.38-.566-.544-.864-.3-.538-1.45-.838-.912-1.511.494-.619,1.678-.033,1.993.33,3.479,4.019,7.934,7.453,8.478,13.339a1.166,1.166,0,0,1-.025.5c-.167.435.269,1.142-.459,1.3-.794.176-.945-.582-1.064-1.06a22.576,22.576,0,0,0-4.916-9.706,28.476,28.476,0,0,1-1.63,2.853c-1.939,2.656-4.774,1.883-7.358,1.669a11.514,11.514,0,0,1-4.048-1.484,3.821,3.821,0,0,0-3.4-.107,9.3,9.3,0,0,1-7.083.195c-1.139-.4-2.336-.92-3.531.071a1.562,1.562,0,0,1-1.319.089c-1.467-.586-2.088.286-2.806,1.324a30.037,30.037,0,0,0-2.43,4.975c-.24.536-.367,1.184-1.1.965-.67-.2-.4-.9-.348-1.34a8.443,8.443,0,0,1,3.3-5.993c.546-.423,1.135-.6.392-1.651-.9-1.267-.265-2.811.6-4.082.25-.367.8-.563.794-1.063-.042-2.864,1.76-4.907,3.13-7.144Z" fill="#004c94"/><path d="M337.636,339.966q1.767-3.864,3.54-7.725a4.889,4.889,0,0,1,.68-1.161c.34-.394.818-.714,1.352-.381.561.348.369.818.135,1.331-1.838,4.025-3.118,8.333-6.025,11.812-.422.5-.411,1.436-.18,1.579,1.952,1.207.96,3.176,1.107,4.686a100.922,100.922,0,0,1,.143,10.47c-.008,1.012-.236,2.022-.333,3.035-.034.358-.037.741-.492.732-.508-.01-.37-.466-.4-.774-.357-3.211-.375-6.437-.413-9.662-.016-1.421-.058-2.841-.067-4.262a2.9,2.9,0,0,0-.547-1.648,7.313,7.313,0,0,1-1.156-4.2,32.254,32.254,0,0,1,1.1-8.689,9.71,9.71,0,0,1,.642-1.556c.443-.877,1.309-.711,1.96-.523.977.282.162.989.041,1.368A20.011,20.011,0,0,0,337.636,339.966Z" fill="#004c94"/><path d="M322.136,256.139c1.926,3.025,3.272,6.371,5.316,9.343a142.384,142.384,0,0,0,9.793,12.027,110.208,110.208,0,0,0,7.445,8.181,7.826,7.826,0,0,1,.91,1.356,5.212,5.212,0,0,1-3.949-1.787,87.041,87.041,0,0,1-8.831-9.861c-2.468-3.064-5.263-5.87-7.317-9.275a52.573,52.573,0,0,1-4.177-8.441c-.329-.862-.106-1.391.844-1.53Z" fill="#004c94"/><path d="M478.336,289.6c-1.459,2.2-3.674,3.458-5.635,4.99a61.462,61.462,0,0,0-8.734,8.1,44.912,44.912,0,0,1-7.906,6.853,9.877,9.877,0,0,0-1.816,1.512c-.62.728-1.472,1.051-2.018.432-.567-.644.173-1.361.767-1.818a50.435,50.435,0,0,0,7.525-6.574,70.953,70.953,0,0,1,8.024-7.96,46.458,46.458,0,0,1,7.916-5.326A2.559,2.559,0,0,1,478.336,289.6Z" fill="#004c94"/><path d="M383.367,254.221a1.714,1.714,0,0,1,.721-1.619c4.367-3.917,6.575-9.093,8.467-14.458a5.028,5.028,0,0,1,1.282-2.133.74.74,0,0,1,.782-.188c.261.094.241.309.188.552-1.3,5.961-3.127,11.677-7.8,15.974A6.571,6.571,0,0,1,383.367,254.221Z" fill="#004c94"/><path d="M309.238,224.6a50.8,50.8,0,0,0,7.475-4.708,3.222,3.222,0,0,1,3.082-.455c2.658,1.017,5.154-.079,7.677-.493a4.463,4.463,0,0,1,3.18.355,48.166,48.166,0,0,0,8.011,3.4,2.244,2.244,0,0,1,1.531.99,9.849,9.849,0,0,1-4.9-.913,60.068,60.068,0,0,1-5.709-2.435,3.9,3.9,0,0,0-2.467-.259c-2.731.473-5.422,1.52-8.235.306-.7-.3-1.277.292-1.834.674a26.2,26.2,0,0,1-5.788,3.424A2.9,2.9,0,0,1,309.238,224.6Z" fill="#004c94"/><path d="M305.819,164.74c2.839-1.619,5.515-3.4,8.812-3.588.477-.027.5.01.487.715-.01.525.386.3.562.285.724-.072,1.85-.7,2.076-.272.616,1.184,2.518.265,2.7,1.861.007.063.3.1.464.139,1.543.312.716.774.035,1.256.689.222,1.648-.074,1.945.714.187.495-.6.3-.915.543.35.428,1.359.063,1.225.775-.14.739-.857,0-1.317.173a2.138,2.138,0,0,1-1.008-.059c-.432-.069-.429-.085-.243-.689.055-.18-.137-.428-.466-.529-.268-.082-.554-.1-.829-.164s-.6-.178-.522-.482c.04-.152.435-.211.683-.318C314.991,163.193,310.443,163.45,305.819,164.74Z" fill="#004c94"/><path d="M311.276,227.334c3.627-1.459,6.793-2.877,10.521-1.913a10.009,10.009,0,0,0,4.87-.253c4.008-1.018,7.768.316,11.551,1.328a8.9,8.9,0,0,0,2.146.418c.327.006.73.195.733.571.005.541-.591.609-.877.555a35.066,35.066,0,0,1-4.3-.731,20.273,20.273,0,0,0-9.611-.919,17.489,17.489,0,0,1-6.433-.149c-1.865-.4-3.668.239-5.441.8A4.707,4.707,0,0,1,311.276,227.334Z" fill="#004c94"/><path d="M380.53,146.865a19.1,19.1,0,0,0-3.082,12.3c.046.659.142,1.482-.82,1.588-.836.093-1.283-.391-1.574-1.207-1.123-3.141.607-9.952,3.148-12.02A2.476,2.476,0,0,1,380.53,146.865Z" fill="#004c94"/><path d="M352.784,131.6c.739-1.057,1.941-.645,2.831-.81,2.586-.48,5.247-.56,7.879-.792,3.843-.338,7.752-.333,11.289-2.234.288-.155.664-.148.954-.3a.678.678,0,0,1,.985.347c.174.373-.268.56-.546.735a14.189,14.189,0,0,1-6.509,2.042c-5.462.409-10.9,1.172-16.4,1.1A3.125,3.125,0,0,1,352.784,131.6Z" fill="#004c94"/><path d="M472.1,325.132c-8.811,2.645-17.556,5.561-26.705,6.838C454.332,329.816,462.9,326.2,472.1,325.132Z" fill="#004c94"/><path d="M404.493,120.962c.026.558-.1,1.043-.746,1.123-.744.092-.969-.539-1.156-1.037-.837-2.232-1.142-4.658-2.5-6.7-.552-.832-1.014-1.723-1.525-2.582-.205-.344-.466-.773-.189-1.075.393-.428.844-.071,1.2.2,2.7,2.032,3.871,4.941,4.569,8.1C404.292,119.641,404.38,120.3,404.493,120.962Z" fill="#004c94"/><path d="M307.116,123.362c-1.4.382-2.788.795-4.2,1.127-.408.1-1.046.182-1.2-.347-.187-.653.526-.493.857-.707,2.866-1.851,5.939-3.379,8.569-5.607.876-.742,1.86-1.584,3.463-.964-1.194,1.592-2.875,2.471-4.363,3.552-1.041.754-2.155,1.408-3.242,2.1-.544.345-.3.617.065.887Z" fill="#004c94"/><path d="M454.492,320.262c5.757-.555,10.716-3.019,16.154-3.085C468.212,319.447,457.1,321.664,454.492,320.262Z" fill="#004c94"/><path d="M397.06,208.152c-1.493,3.349-3.237,6.581-4.119,10.17-.131.531.037,1.453-.974,1.2-.986-.242-.908-1.176-.715-1.824a37.112,37.112,0,0,1,2.439-6.067C394.457,210.108,394.992,208.367,397.06,208.152Z" fill="#004c94"/><path d="M464.447,336.889c-2.267,2.261-12.654,4.99-14.893,4.227Z" fill="#004c94"/><path d="M427.088,187.159c-.046.394.077.837-.386.9a1.057,1.057,0,0,1-1.116-.635q-1.005-2.229-1.9-4.507a4.306,4.306,0,0,1-.364-2.8c.084-.3-.106-.732.4-.8a.743.743,0,0,1,.849.434C425.437,182.24,426.268,184.731,427.088,187.159Z" fill="#004c94"/><path d="M338.155,164.753c-.218,0-.487-.083-.646.014-.75.454-1.524.926-2.224.042-.42-.53.275-3.268.884-3.609.569-.318,1.331-.99,1.607.328.093.441.375.3.645.251.46-.084,1.388-.571,1.159.274C339.329,162.975,340.248,164.768,338.155,164.753Z" fill="#004c94"/><path d="M343.4,162.581a10.171,10.171,0,0,1,5.215-1.21c-1.993.967-3.8,2.26-5.948,2.837-.161.043-.387-.042-.5.043-.714.525-1.617,1.13-2.163.15-.37-.665.6-1.336,1.073-1.928a8.056,8.056,0,0,1,1.116-1.042,1.277,1.277,0,0,1,1.438-.144C343.734,161.339,343.507,162.031,343.4,162.581Z" fill="#004c94"/><path d="M370.744,250.542c3.315-2.491,6.241-5.555,10.34-6.793C377.9,246.426,374.858,249.317,370.744,250.542Z" fill="#004c94"/><path d="M381.567,156.269c0,.852.016,1.7-.007,2.555-.01.354.179.838-.435.926a.812.812,0,0,1-1.031-.61,12.686,12.686,0,0,1-.122-6.547c.076-.3.337-.664.748-.527a1.056,1.056,0,0,1,.831.966c.021,1.078.006,2.158.006,3.237Z" fill="#004c94"/><path d="M426.326,175.985c.382-1.659.731-3.3,1.149-4.922.148-.572.573-1.119,1.228-.9.768.258.312.838.214,1.379-.3,1.638-.326,3.341-1.171,4.834-.224.4-.374,1.151-.995.966S426.648,176.417,426.326,175.985Z" fill="#004c94"/><path d="M384.644,161.053a8.07,8.07,0,0,1-.011,1.2c-.066.442.315,1.163-.488,1.22-.558.04-1.285-.241-1.4-.765-.252-1.189-.808-2.384-.278-3.656.223-.536.319-1.053,1.126-.966.835.089,1.03.573,1.043,1.263C384.651,159.913,384.642,160.483,384.644,161.053Z" fill="#004c94"/><path d="M232.428,329.263c-3.345-1.212-6.2-3.344-9.714-4.962C225.032,323.943,230.889,326.96,232.428,329.263Z" fill="#004c94"/><path d="M317.336,229.217c4.354.756,8.658,1.769,13.094,1.812A21.163,21.163,0,0,1,317.336,229.217Z" fill="#004c94"/><path d="M310.423,115.467a29.789,29.789,0,0,1,7.892-4.175.622.622,0,0,1,.742.182c.23.251.016.457-.139.537-2.424,1.24-4.64,2.913-7.338,3.586A4.665,4.665,0,0,1,310.423,115.467Z" fill="#004c94"/><path d="M379.268,239.875a23.81,23.81,0,0,1-8.216,5.3.457.457,0,0,1-.594-.155c-.184-.252.043-.443.207-.546,2.413-1.513,4.829-3.022,7.267-4.495C378.181,239.826,378.576,239.918,379.268,239.875Z" fill="#004c94"/><path d="M371.565,136.43a19.04,19.04,0,0,1,9.178-3.875A32.978,32.978,0,0,1,371.565,136.43Z" fill="#004c94"/><path d="M369.96,240.471c1.253-1.587,3.009-2.356,3.962-3.939a.848.848,0,0,1,1.207-.154c.42.39.281.784.075,1.227A5.967,5.967,0,0,1,369.96,240.471Z" fill="#004c94"/><path d="M416.619,121.33c-3.356.305-6.535.918-9.738,0C408.016,120.537,415.046,120.475,416.619,121.33Z" fill="#004c94"/><path d="M363.274,267.816c3.058-1.858,6.1-3.755,9.756-4.232C369.716,264.851,366.859,267.175,363.274,267.816Z" fill="#004c94"/><path d="M312.416,160.278l-7.525,3.107-.216-.548c2.317-1.539,4.69-2.938,7.579-3.065Z" fill="#004c94"/><path d="M377.268,139.361c1.468-1.071,2.546-1.877,3.647-2.651.389-.274.935-.4,1.234,0,.323.429-.018.9-.416,1.136C380.5,138.563,379.455,139.833,377.268,139.361Z" fill="#004c94"/><path d="M387.924,198.822a6.618,6.618,0,0,1-1.007,2.475,1.16,1.16,0,0,1-1.606.487c-.748-.344-.033-.956.135-1.252C385.963,199.617,386.406,198.4,387.924,198.822Z" fill="#004c94"/><path d="M408.7,124.5a6.63,6.63,0,0,1,5.632.725C412.739,125.748,411.361,125.57,408.7,124.5Z" fill="#004c94"/><path d="M345.927,163.666c1.571-.442,3.029-1.425,5.127-1.014C349.225,163.48,347.715,164.182,345.927,163.666Z" fill="#004c94"/><path d="M317.62,204.067a1.9,1.9,0,0,1-2.269-1.011c-.123-.265.216-.749.525-.771C317.063,202.205,316.929,203.537,317.62,204.067Z" fill="#004c94"/><path d="M356.316,181.9c.507-.914,1.64-.158,2.188-1.124a7.613,7.613,0,0,1-2.651-.768,1.8,1.8,0,0,0-2.588.175c-.965,1.015-6.033.134-7.025-.954a1.7,1.7,0,0,1-.409-1.992c.2-.451.73-1.146-.38-1.618a10.43,10.43,0,0,1,6.583,1.16c2.494,1.406,4.976,3.05,8.008,3.261.335.023.945.155.969.757.021.547-.371.792-.815.964A6.118,6.118,0,0,1,356.316,181.9Z" fill="#004c94"/><path d="M338.642,181.7c-.519-.2-1.287.343-1.5-.413-.22-.795.636-.771,1.083-.979a8.407,8.407,0,0,0,3.638-3.148c.334-.526.767-.937,1.374-.589.65.372.3.914.094,1.451a6.477,6.477,0,0,1-.884,1.208c-.243.368-1.371.6-.172,1.323.548.332-.269.642-.517.692C340.725,181.457,339.667,181.563,338.642,181.7Z" fill="#004c94"/><path d="M311.725,174.506c2.75-.205,4.68,1.351,6.584,2.957.389.328.734.71,1.123,1.038s1.254.244,1.1.979c-.134.637-.947.517-1.438.7a2.552,2.552,0,0,1-1.83.075c-2.509-1.3-5.388-.037-7.923-1.282-1.023-.5-1.742-.941-1.684-2.152a1.884,1.884,0,0,1,1.778-2.031A9.068,9.068,0,0,1,311.725,174.506Zm.51,2.44c.961.463.835-.736.963-1.119.162-.483-.537-.611-1.024-.663-.759-.082-.968.45-1.082,1.006C310.924,176.985,311.574,176.868,312.235,176.946Z" fill="#004c94"/><path d="M303.655,181.62c-.9-.048-1.234-.337-1.026-1.2.426-1.765,1.5-3.206,2.282-4.793a1.256,1.256,0,0,1,1.689-.6c.76.422.079.966-.108,1.532-.473,1.426-1.465,2.634-1.634,4.187C304.785,181.414,304.345,181.9,303.655,181.62Z" fill="#004c94"/><path d="M306.611,179.091c1.632-.268,2.756.942,4.495,1.3C309.019,181.131,308.015,179.5,306.611,179.091Z" fill="#004c94"/></g></svg>