<svg xmlns="http://www.w3.org/2000/svg" width="436.053" height="356.196" viewBox="0 0 436.053 356.196"><g transform="translate(-632.029 -91.16)"><path d="M857.618,251.674c-9.091,2.745-17.2,7.489-26.759,9.366-.261.051.316.266.152.056-11.289-.49-24.629-2.945-35.656.3-8.278,2.44-19.375,4.742-25.988,10.542-5.334,4.677-7.03,11.07-9.647,17.346-2.186,5.243-4.09,13.311-9.585,15.6-2.6,1.083-5.577,2.031-6.951,4.49a25.74,25.74,0,0,1-1.494,3.127,13.57,13.57,0,0,1-2.524,2.114,8.531,8.531,0,0,0-2.623,3.667,10.007,10.007,0,0,1-1.2,2.865,6.3,6.3,0,0,1-1.211,1.086c-2.03,1.526-4.124,3.506-6.392,4.534,1.263-3.834,4.548-7.345,6.442-10.971-7.8,1.054-13.764,7.686-21.648,8.822-8.219,1.184-16.63-.534-24.456-3a1.581,1.581,0,0,1-1.413-1.707l-.514-5.1c-.527.661-1.715.11-1.908-.713a3.449,3.449,0,0,1,.657-2.385l10.573-18.628c-8.743,2.072-12.584,7.952-18.105,14.489A153.8,153.8,0,0,0,662.6,328.7c-4.146,7.019-8.833,13.339-12.971,20.289-3.639,6.11-7.3,12.262-9.8,18.925l-.01.027c-5.582,14.886-8.057,34.009-7.776,49.857.035,1.97.221,4.165,1.683,5.485,1.3,1.171,3.205,1.285,4.952,1.337,66.939,1.995,135.3-1.525,201.848,2.429,69.157,4.11,133.954,25.424,204.371,19.164,6.606-.588,13.6-1.527,18.73-5.729,10.2-8.352-.027-33.09-2.246-43.823-1.293-6.251-3.084-11.515-3.017-18.1q.18-17.586.359-35.174c.1-9.247,2.067-19.763-4.016-27.756-2.206-2.9-5.274-5-8.286-7.045l-21.571-14.661a104.249,104.249,0,0,0-9.728-6.1c-3.062-1.619-6.276-2.928-9.389-4.446-4.172-2.035-8.15-4.442-12.122-6.845l-10.031-6.069c-7.333-4.437-14.7-8.9-21.408-14.259-3.329-2.66-7.017-5.574-9.621-8.98-2.418-3.16-1.859-5.858-3.389-9.446-1.468-3.444-4.754-6.71-6.643-10.031" fill="#032d46"/><path d="M854.07,119.465c4.515-4.845,11.853-5.51,18.474-5.6a253.077,253.077,0,0,1,41.212,2.82c7.17,1.084,14.689,2.666,20.058,7.541,8.885,8.067,8.747,21.722,9.584,33.694.317,4.52.479,8.139,2.426,12.207,1.965-.959,3.632-2.437,5.538-3.51,3.445-1.94,9.578-1.377,11.54,2.567a11.939,11.939,0,0,1,.825,6A33.686,33.686,0,0,1,961.9,185.8c-2.084,5.523-1.176,11.682-3.554,16.715-1.806,3.823-4.311,8.959-8.509,10.411a54.7,54.7,0,0,0-5.331,1.712c-9.1,4.238-3.961,10.873-3.2,17.578.988,8.724-6.669,15.319-10.564,22.176-1.227,2.161-2.05,4.543-3.392,6.635-3.737,5.828-9.323,10.4-14.473,14.856-4.91,4.249-14.733,11.9-21.742,9.647a16.638,16.638,0,0,1-5.03-3.084c-2.673-2.114-6.058-3.654-8.225-6.372-2.7-3.39-5.258-7.025-6.468-11.19a2.372,2.372,0,0,0-.726-1.354,2.225,2.225,0,0,0-.855-.3c-6.839-1.414-8.582-9.431-12.783-14.686-5.143-6.432-8.906-12.134-9.985-20.538-1.514-11.8-6.139-22.166-6.518-34.356-.168-5.39,1.461-11.282,1.849-16.71.39-5.444.628-10.9,1.17-16.333.911-9.115-.31-18.456,1.756-27.381,2.8-12.091,16.506-23.894,27.555-28.741a52.942,52.942,0,0,1,17.258-3.809,65,65,0,0,1,20.23,1.207,46.806,46.806,0,0,1,35.749,48.209" fill="#dfb1aa"/><path d="M946.588,112.48c-5.853-5.15-13.15-10.976-20.638-13.5-6.847-2.305-13.867-6.033-21.029-7.319-7.679-1.379-15.545.319-23.129,2.148-7.012,1.692-14.246,3.627-19.8,8.233-4.153,3.446-6.948,8.1-10.547,12.054-3.655,4.015-6.505,6.637-8.295,12.024-1.393,4.193-3.86,7.487-6.713,10.911a2.389,2.389,0,0,1,3.207.924,6.929,6.929,0,0,1,.757,3.614c.122,4.789.175,9.863-2.245,14,1.07-.793,2.706.027,3.253,1.241a7.512,7.512,0,0,1,.2,3.937,33.884,33.884,0,0,0-.165,7.222c3.114-2.025,1.98-11.67,2.3-15.3q.819-9.288,2.294-18.5c.594-3.712,1.313-7.529,3.388-10.664,5.217-7.887,15.92-8.184,24.414-8.551l12.987-.563c7.94-.344,15.95-.683,23.788.633,6.259,1.052,12.144,3.153,18.186,5.113,1.874.608,3.877,1.308,5.02,2.912a9.332,9.332,0,0,1,1.283,4.559c.9,8.761,3.171,17.284,4.961,25.885,1.693,8.138.852,15.9.781,24.214,3.723-1.98,7.668-3.531,11.3-5.684,3.675-2.178,7.047-6.67,11.73-4.114-1.1-.6-.769-14.205-.977-16.087a106.675,106.675,0,0,0-3.483-16.446c-.927-3.417-.845-7.059-2.266-10.313C955,120.121,950.558,115.973,946.588,112.48Z" fill="#dcdbda"/><path d="M853.063,171.653l6.424-.253c1.35-.053,2.9-.026,3.78,1,1.11-1.457.236-3.72-1.3-4.711s-3.476-1.063-5.307-1.1c-7.3-.162-11.474.662-13.821,8.068C845.671,172.143,849.431,171.8,853.063,171.653Z" fill="#dcd3d0"/><path d="M884.916,172.176A31.474,31.474,0,0,1,913.95,173.3a12.467,12.467,0,0,0-7.666-6.339C898.723,164.517,889.057,164.012,884.916,172.176Z" fill="#dcd3d0"/><path d="M892.836,225.75c2.641-.5,4.647-1.013,4.469-1.386s-.7-.415-1.115-.4c-6.949.3-14.3-.065-21.153.879-2.64.364-10.688-1.187-11.15,1.611,5.7,1.522,11.766,1.418,17.6.983C882.255,227.382,888.43,226.584,892.836,225.75Z" fill="#dcd3d0"/><path d="M872.432,229.783l11.573.458c.824.033,1.965.495,1.681,1.269-.162.439-.707.573-1.17.636a49.5,49.5,0,0,1-12.1.164" fill="#dcd3d0"/><path d="M878.473,222.01a7.48,7.48,0,0,0,.776-.242c4.606-1.715,11.341.168,15.654,1.852-10.182.107-20.874-.694-30.983.375,2.2.051,4.483-1.683,6.743-1.977C873.519,221.646,875.769,222.7,878.473,222.01Z" fill="#8b4e58" opacity="0.32"/><path d="M879.592,232.766c-4.994-.3-9.223-2.641-13.944-3.436-.191,2.07,1.867,3.978,3.594,4.813,5.151,2.489,14.99,2.347,19.985-.43a15.567,15.567,0,0,0,2.057-1.4,26.892,26.892,0,0,0,4.721-4.778C892.443,232.179,884.92,233.088,879.592,232.766Z" fill="#8b4e58" opacity="0.32"/><path d="M872.11,230.164c2.476.06,4.937-.4,7.414-.451a22.316,22.316,0,0,1,8.06,1.339,3.189,3.189,0,0,0,1.515.3,2.973,2.973,0,0,0,1.2-.574l7.558-5.142c-4.947,1.7-10.287,1.728-15.517,1.741-4.3.011-8.6-.01-12.9-.158-1.2-.041-3.459-.366-2.311,1.56C867.878,230.032,870.864,230.134,872.11,230.164Z" fill="#131109" opacity="0.5"/><path d="M896.091,177.6q.642.118,1.285.268c2.805.648,5.59,1.558,8.469,1.581.534,0,1.213-.141,1.305-.666.073-.412-.284-.763-.617-1.015-4.791-3.626-13.261-4.834-17.533-.006,1.468-1.659,5.949-.04,7.658.2a61.442,61.442,0,0,0,10.473.117" fill="#004c94" opacity="0.35"/><path d="M852.8,175.9l-4.127,1.83a39.069,39.069,0,0,0,14.165,1.574,2.321,2.321,0,0,0,1.525-.5,1.672,1.672,0,0,0,.03-2.036c-.924-1.415-2.9-1.575-4.589-1.588a15.267,15.267,0,0,0-6.006.759" fill="#004c94" opacity="0.21"/><path d="M873.338,195.228a42.774,42.774,0,0,0-4.356,8.575c3.155-.54,7.443,1.22,8.963-1.6a4.842,4.842,0,0,0,.422-2.363A21.423,21.423,0,0,0,875.844,190" fill="#e1cdcb"/><path d="M912.293,186.1l-15.214-.128A89.116,89.116,0,0,1,920.394,196.4a30.1,30.1,0,0,0,2.678-14.061,143.992,143.992,0,0,0-33.35,2.369l14.847,3.635" fill="#e1cdcb"/><path d="M858.1,188.423l-15.251.02a37.107,37.107,0,0,1,17.626,5.83l2.271-5.077" fill="#e1cdcb"/><path d="M876.282,250.116a27.464,27.464,0,0,1-14.459-2.444,24.374,24.374,0,0,0,14.552,10.248c5.943,1.275,12.615-.419,16.71-4.909a162.822,162.822,0,0,0-20.022-4.633" fill="#e1cdcb"/><path d="M736.829,298.866c-9.3,9.05-19.555,16.819-31.333,6.035-5.324-4.876-7.182-11.218-9-17.855,1.063,3.88-4.985,10.593-6.912,13.423-4.138,6.08-9.3,16.876-2.043,22.983,6.067,5.1,14.235,3.152,21.159,1.843,3.929-.742,7.088-.153,10.2-2.735,6.409-5.319,14.453-3.887,17.84-12.419C737.933,307.133,737.553,302.03,736.829,298.866Z" fill="#bfc4d0"/><path d="M735.045,186.456a66.094,66.094,0,0,0,1.778-7.165,8.012,8.012,0,0,0,.2-2.259,4.368,4.368,0,0,0-3.841-3.8.667.667,0,0,1-.063-.6c-2.478,3.659-5.587,7.338-7.549,11.26-2.073,4.143-3.137,8.929-4.886,13.228-1.236,3.039-2.467,6.09-3.569,9.18-.859,2.408-1.872,4.858-2.555,7.339-.69,2.509-.948,5.12-1.63,7.631-.855,3.149-2.941,5.973-3.539,9.147-.569,3.016-.779,6.156-1.512,9.135-.371,1.505-1.007,2.931-1.424,4.424-1.442,5.171-.4,10.641.414,15.812.379,2.391-.91,5.089-1.787,7.247-1.23,3.024-2.46,6.051-3.86,9-.826,1.738-1.713,3.454-2.375,5.261a24.5,24.5,0,0,0-1.38,6.917c-.1,1.578-.724,3.1-.564,4.676.4,3.984,3.22,7.532,6.009,10.2a31.547,31.547,0,0,0,17.807,8,10.32,10.32,0,0,0,4.324-.135,11.1,11.1,0,0,0,4.3-2.977,86.221,86.221,0,0,0,16.006-21.521c1.739-3.316,3.2-7.036,5.529-10,.933-1.186,1.6-1.191,2.974-1.585a17.479,17.479,0,0,0,4.944-2.415,13.516,13.516,0,0,0,4.984-5.778c.916-2.2,1.027-4.72,2.623-6.567s2.793-3.988,4.356-5.9c2.54-3.1,5.9-5.31,9.241-7.453a65.664,65.664,0,0,0,9.972-7.849,3.069,3.069,0,0,0,.8-1.012,3.2,3.2,0,0,0,.119-1.37c-.177-3.369.655-6.006,1.67-9.147.784-2.427,1.639-4.795,3.56-6.6.877-.823,1.634-2.112,1.067-3.173s-2.052-1.144-3.237-.935a17.994,17.994,0,0,0-8.735,4.539c-5.111,4.6-8.245,11.577-14.789,14.616-2.281,1.059-5.244,1.112-7.079-.608-1.323-1.24-1.8-3.112-2.2-4.881-.854-3.793-2.706-8.934.326-12.19a69.918,69.918,0,0,1,5.878-5.617c2.476-2.1,5.84-3.375,9.008-2.113a41.806,41.806,0,0,1,4.393,2.4,8.681,8.681,0,0,0,3.779.654,11.723,11.723,0,0,0,7.918-3.526,1.615,1.615,0,0,0,.537-.839,1.731,1.731,0,0,0-.645-1.339q-2.088-2.23-4.293-4.349a9.654,9.654,0,0,0-2.685-2.016,10.061,10.061,0,0,0-2.68-.631c-3.9-.547-8.378-.566-12.071-1.954-3.457-1.3-5.882.053-8.8,2.14-2.337,1.67-4.143,2.951-5.654,5.46-.9,1.488-2.515,2.646-3.769,3.832-.658.623-1.68,1.27-2.375.687a19.365,19.365,0,0,1,4.96-8.714c1.27-1.282,2.854-2.727,2.585-4.511a2.185,2.185,0,0,1-.062-.735c.122-.629.9-.826,1.5-1.033a8.84,8.84,0,0,0,3.666-3.077q4.423-5.384,8.757-10.839,2.168-2.729,4.311-5.474c1.223-1.565,1.983-3.26,3.172-4.85.866-1.158,1.656-2.631,1.157-3.987a3.256,3.256,0,0,0-3.454-1.8,8.61,8.61,0,0,0-3.78,1.725,117.979,117.979,0,0,0-11.852,9.777,49.693,49.693,0,0,1-7.265,5.769c-.343.208-.9.344-1.048-.03,2.27-3.851,4.893-7.655,6.823-11.687a47.093,47.093,0,0,0,2.3-5.646c.5-1.573-.722-2.846-2.389-2.959a6.371,6.371,0,0,0-4.158,1.659,38.68,38.68,0,0,0-4.9,4.852c-1.179,1.314-2.357,2.628-3.509,3.966q-2.324,2.7-4.495,5.529c-1.07,1.394-2.707,4.982-4.186,5.793-2.1,1.152-1.392-.655-2.288-2.618a8.764,8.764,0,0,0-3.1-3.669,4.074,4.074,0,0,0-2.618-.81c-1.826.2-2.87,2.132-3.576,3.828q-.279.669-.546,1.341" fill="#dfb1aa"/><path d="M698.762,288.035c-.95-2.9-.2-6.113,1.11-8.873s3.151-5.235,4.55-7.95a27.954,27.954,0,0,0,2.988-15.067c-.229-2.708-.856-5.382-.887-8.1a37.206,37.206,0,0,1,1.563-9.541c3.6-14.113,7.212-28.292,12.935-41.685a68.575,68.575,0,0,0,3.3-8.511,58.864,58.864,0,0,1,1.909-6.962,27.913,27.913,0,0,1,4.905-7.173c1.151-1.347,3.227-2.749,4.447-1.463a3.091,3.091,0,0,1,.647,1.593,44.347,44.347,0,0,1,.671,11.8" fill="none"/><path d="M719.7,251.053c1.8,1.173,4.072-.381,5.7-1.778a69.522,69.522,0,0,1,23.151-13.138c3.1-1.035,6.441-1.961,8.61-4.4a1.056,1.056,0,0,0,.347-.728c-.036-.5-.653-.7-1.148-.749-5.933-.643-12.008,1.717-17.826.391-3.69-.841-6.1-3-8.826-5.429-2.88-2.57-2.964-3.289-4.963.793C721.158,233.335,720.236,243.02,719.7,251.053Z" fill="#e1cdcb"/><path d="M710.148,257.561a37.206,37.206,0,0,1-2.005,9.193,15.18,15.18,0,0,0,4.544-7.93,45.214,45.214,0,0,0,1.014-9.214c.171-4.169,1.337-9.641.253-13.6C707.786,238.665,710.148,252.439,710.148,257.561Z" fill="#e1cdcb"/><path d="M951.655,250.338a28.373,28.373,0,0,0-2.5-10.5c-.551-1.078-6.584-6.248-6.572-5.862a15.19,15.19,0,0,1-.944,6.456c-2.212,5.009-6.364,9.625-9.533,14-3.567,4.924-6.6,10.251-10.294,15.085-1.294,1.693-2.552,3.807-4.22,5.111-1.892,1.479-4.326,1.992-6.256,3.4-1.834,1.334-2.982,3.483-4.934,4.649a21.562,21.562,0,0,1-11.094,2.569c-12.417-.968-14.869-10.577-22.308-18.164-2.479-2.528-5.841-4.4-9.381-4.312l-2.219-5.919a4.1,4.1,0,0,0-1.275-2.041c-1.161-.813-2.879-.161-3.69,1a7.943,7.943,0,0,0-1.051,4.063c-.927,13.32-2.9,26.249-4.9,39.488-.351,2.321-.7,4.643-1.091,6.958a111.322,111.322,0,0,1-4.538,16.945c-.493,1.488-1,2.987-1.5,4.514-3.032,9.2-1.136,18.658-2.612,27.936-1.874,11.781-2.63,23.916-4.894,35.606-2.04,10.541.842,20.315,5.917,29.847a14.433,14.433,0,0,0,3.34,4.534,15.82,15.82,0,0,0,5.544,2.543c7.615,2.332,15.6,5.052,23.485,6.263,3.651.56,12.847,1.312,8.058-4.387,8.121-18.2,12.462-37.894,20.5-56.161,5.9-13.415,9.944-28.1,14.3-42.279,2.263-7.366,4.64-14.706,7.5-21.865,2.734-6.841,6.9-13.295,8.973-20.277" fill="#bfc4d0"/><path d="M864.041,327.609c-2.886,9-4.451,18.338-5.721,27.686-1.521,11.2-3.251,22.369-4.784,33.568-.778,5.671-2.5,10.874-1.886,16.589.68,6.352.55,12.895,1.057,19.351a3.654,3.654,0,0,0,2.409,3.96c4.709,2.323,9.57,4.689,14.809,5.063a2.84,2.84,0,0,0,1.561-.2,3,3,0,0,0,1.058-1.236c5.33-9.3,9.713-20.4,10.611-31.006a89.082,89.082,0,0,1,1.957-10.666c1.047-5,2.229-10.03,2.984-15.089,1.779-11.939-.811-23.211-.389-35.246.28-7.986-1.647-16.056-1.6-24.161,0-5,4.109-6.946,8.022-9,2.4-1.26,9.1-5.038,9.517-8.012.34-2.393-4.039-7.228-5.438-8.972-4.282-5.333-11.178-10.681-17.3-4.616-6.172,6.111-6.3,17.253-8.887,25.073-1.275,3.86-3.71,6.513-5.384,10.2A62.3,62.3,0,0,0,864.041,327.609Z" fill="#00385c"/><path d="M1061.652,407c-.712,1.133-.177,2.384-.336,3.57-.087.651.234,1.6-.813,1.631-1.1.034-1.071-.965-1.1-1.7-.068-1.729-.071-3.461-.049-5.191a162.518,162.518,0,0,0-.905-19.359c-.509-4.772-.129-9.639-.158-14.463-.044-7.326.344-14.689-.27-21.967-.66-7.833-1.241-15.693-2.319-23.493-.946-6.851-3.668-12.824-9.113-17.218a39.619,39.619,0,0,0-7.98-4.995c-4.974-2.334-9.3-5.63-13.828-8.63-5.281-3.5-10.429-7.21-15.8-10.559-2.7-1.683-5.794-2.719-8.668-4.133A250.861,250.861,0,0,1,969.8,263.054c-3.764-2.558-7.771-4.76-11.671-7.12a17.578,17.578,0,0,1-5.561-4.952,1.265,1.265,0,0,0-1.171-.751c.259,2.645-1.318,4.576-2.71,6.532-3.235,4.541-4.929,9.848-7.5,14.712-2.716,5.146-4.5,10.767-7.693,15.634-5.06,7.721-8.3,16.285-12.044,24.625a12.224,12.224,0,0,1-1.886,3.547,1.817,1.817,0,0,1-3.045-.122c-4.849-7.368-10.955-13.711-16.615-20.418a44.93,44.93,0,0,1-2.89-3.838c-.242-.359-1.011-.94-.2-1.424.648-.388,1.03.24,1.4.693,1.413,1.748,2.777,3.541,4.26,5.228,5.381,6.117,10.932,12.089,15.588,18.95,1.748-2.075,2.082-4.564,3.162-6.7,3.589-7.11,6.377-14.582,10.658-21.4a118.116,118.116,0,0,0,8.317-16.831,97.312,97.312,0,0,1,8.509-15.9c1.409-2.125.541-4.379.716-6.55.371-4.622-1.877-8.366-4.658-11.835-.716-.894-1.38-1.83-2.152-2.86a1.686,1.686,0,0,1,1.967.549c3.953,3.561,6.638,7.773,6.767,13.282a5.379,5.379,0,0,0,1.646,3.365,33.823,33.823,0,0,0,10.416,8.134c7.192,3.716,13.634,8.665,20.744,12.512,4.449,2.407,8.887,4.835,13.332,7.249,3.6,1.956,7.365,3.565,11.082,5.28,4.144,1.912,7.653,4.873,11.519,7.255,6.922,4.263,13.226,9.465,20.554,13.142,6.147,3.085,11.559,7.2,14.706,13.577a30.225,30.225,0,0,1,2.394,9.442,267.988,267.988,0,0,1,2.611,31.558c.136,8.34-.165,16.694.213,25.02.35,7.7.951,15.384.776,23.1a2.621,2.621,0,0,0,.317.87Z" fill="#004c94"/><path d="M904.077,92.319c.195.293.924.679-.134.751-1.664.112-3.332.354-4.993.321-9.872-.2-19.071,2.68-28.155,6.073a28.71,28.71,0,0,0-13.454,9.825c-1.144,1.547-2.458,2.968-3.7,4.444-.31.37-.583,1.071-1.168.609-.506-.4-.037-.974.223-1.372,3.7-5.68,8.118-10.576,14.479-13.406,7.3-3.248,15.038-5,22.748-6.868.836-.2,1.787.383,2.538-.377Z" fill="#004c94"/><path d="M779.049,166.554a6.545,6.545,0,0,0-7.49,1.052q-.209.195-.412.4a1.961,1.961,0,0,1-1.008,1.372c-1.495.865-2.71,2.136-4.313,2.82-.092.039-.186.068-.28.1-.19.209-.382.415-.573.623a3.023,3.023,0,0,1-.539.934c-.6.775-1.371,1.4-1.991,2.157a1.721,1.721,0,0,1-1.255.614c-2.517,2.248-5.16,4.322-7.676,6.541l-.516-.579a67.345,67.345,0,0,0,5.076-6.192,10.034,10.034,0,0,1,.861-1.133,2.228,2.228,0,0,1-.148-.766,2.31,2.31,0,0,1,.628-1.516c.327-.4.7-.765,1.062-1.133a2.044,2.044,0,0,1,.262-1.419c.129-.169.26-.332.393-.492a11.128,11.128,0,0,0,.9-4.962c-.293-2.232-1.461-3.349-3.621-2.771-2.954.791-5.636,2.027-7.367,4.835a23.978,23.978,0,0,1-4.04,4.613,29.417,29.417,0,0,0-4.711,5.817,32.584,32.584,0,0,1-4.673,6.327c1.667-3.326.28-6.313-.8-9.316-1.306-3.647-2.881-4.085-6.237-1.252a3.426,3.426,0,0,0-.654.7,42.935,42.935,0,0,0-5.3,10.2c-2.2,6.695-4.838,13.212-7.436,19.751-1.158,2.915-2.578,5.809-3.164,8.851-1.7,8.846-5.529,17.065-7.3,25.891-1.279,6.392-2.25,12.745-1.438,19.274.711,5.72-.017,11.387-3.459,15.971a23.884,23.884,0,0,0-4.947,11.617,9.683,9.683,0,0,1-3.057,6.017,153.751,153.751,0,0,1-13.243,12.394c-4.286,3.46-8.324,6.989-10.957,12-2.115,4.021-4.981,7.627-7.332,11.514-2.16,3.57-4.857,6.8-6.77,10.481-4.521,8.7-8.816,17.513-13.148,26.307a49.914,49.914,0,0,0-4.257,14.883c-.089.6-.036,1.208.682,1.414.753.215,1.021-.312,1.183-.9.168-.614.329-1.234.443-1.86a47.552,47.552,0,0,1,3-11.072c3.126-6.952,6.463-13.81,10.175-20.472,1.561-2.8,2.5-5.9,4.288-8.584q7.363-11.057,14.158-22.469c1.347-2.27,2.611-4.7,4.65-6.318a188.369,188.369,0,0,0,15-13.292c.145-.143.319-.451.63-.068a3.772,3.772,0,0,1-.441.79c-3.705,4.054-5.746,9.06-7.976,13.953-.24.527-.978,1.248-.258,1.714.869.562,1.222-.478,1.54-1a22.743,22.743,0,0,0,2.334-4.4c1.882-5.683,6.628-9.527,9.158-15.109,2.005,6.834,4.469,12.8,10.319,16.952,5.449,3.863,10.951,4.876,17.148,2.295,7.113-2.962,11.721-8.617,15.813-14.738,2.627-3.93,4.942-8.081,7.19-12.246a43.866,43.866,0,0,1,4.588-7.1,18.152,18.152,0,0,0-4.986,5.586c-4.2,6.583-7.954,13.477-13.3,19.267-2.74,2.964-5.409,6.011-9.256,7.637-2.7,1.141-5.325,2.6-8.442,1.75a21.127,21.127,0,0,1-13.333-10.154,25.439,25.439,0,0,1-3.175-17.763c.693-3.911,3.123-6.945,4.717-10.335a27.272,27.272,0,0,0,2.891-14.821c-.944-8.857.471-17.418,3.049-25.8,1.6-5.216,3.5-10.344,4.661-15.687a74.2,74.2,0,0,1,3.743-11.5c1.885-4.758,3.877-9.472,5.575-14.313,1.769-5.043,2.976-10.371,6.353-14.739.841-1.087,1.338-2.913,2.858-2.8,1.505.113,1.554,1.976,2.087,3.18,1.688,3.813.474,11.085-2.317,14.1-.692.748-1.993.433-2.566,1.6l2.741-.18.416.3c-2.647,2.639-.967,7.4-5.164,9.23.654.765,1.377-.433,2.151.44a31.74,31.74,0,0,0-2.738,9.593c-.057.645-.736,1.5.249,1.819,1.033.333,1.34-.633,1.413-1.391.527-5.488,2.974-10.481,4.052-15.831a18.381,18.381,0,0,1,2.127-6.141c3.186-5.041,6.675-9.892,10.086-14.789,2.018-2.9,5.1-4.873,6.918-7.961a8.228,8.228,0,0,1,4-3.179c2.54-1.152,4.181-.288,3.884,2.478a20.858,20.858,0,0,1-5.24,11.974c-1.668,1.852-2.867,4.495-6.06,4.189,0,0-.017.12-.045.329.441.1.9.227,1.369.3.721.113.934.76.618,1.119-1.767,2.012-1.965,4.727-3.213,6.926-1.9,3.34-4.106,6.485-4.994,10.326a9.591,9.591,0,0,1-2.468,4.529A11.129,11.129,0,0,0,738,210.2c-.125.369-.659.816-.065,1.179a1.228,1.228,0,0,0,1.433-.256,1.968,1.968,0,0,0,.633-.945c.529-2,1.887-3.487,3.137-5.023a5.934,5.934,0,0,0,1.107-1.987c1.5-4.694,2.928-9.389,5.728-13.58,1.822-2.729,3.474-5.454,6.163-7.509a73.847,73.847,0,0,0,9.012-7.849,10.282,10.282,0,0,1,4.211-2.969,12.278,12.278,0,0,1,1.757-1.54c1.355-2.16,3.123-3.23,4.841-2.936,2.825.485,3.572,2.335,1.848,4.654a1.647,1.647,0,0,1-.376.714q-.3.567-.646,1.112a1.994,1.994,0,0,1-.17.653,17.776,17.776,0,0,1-8.1,8.431,3.778,3.778,0,0,1-.934.211c-.684.155-1.968-.845-1.943.447.019,1.007,1.375.427,2.152.5.283.029.6-.342.907.135-.683.891-1.41,1.778-2.07,2.713-2.892,4.1-5.489,8.489-10.529,10.417.4.9,1.326.023,1.777.513-2.574,4.546-6.158,8.4-8.392,13.383a2.321,2.321,0,0,0,2.28-1.326c2.058-4.241,5.267-7.743,7.61-11.8a14.07,14.07,0,0,1,1.709-2.293c2.338-2.638,4.882-5.105,6.694-8.2a19.915,19.915,0,0,1,3.813-5.239,31.047,31.047,0,0,0,8.617-11.853A2.454,2.454,0,0,0,779.049,166.554Z" fill="#004c94"/><path d="M852.162,258.4c-.4,1.5-1.682,2.091-2.712,2.828-3.791,2.71-7.814,4.861-12.583,5.4-1.229.138-3.091.126-3.517,1.385-.434,1.283,1.034,2.4,1.894,3.381,1.349,1.545,2.93,2.882,4.158,4.551.764,1.041.756,1.859-.46,2.5-3.623,1.917-7.3,3.709-11.43,4.231a37.439,37.439,0,0,0-6.267,1.692c-1.088.334-1.48,1.34-1.8,2.326a22.106,22.106,0,0,0-1.2,7.351c.124,5.913-.779,11.742-1.259,17.607-.288,3.511-.183,7.053-.463,10.564-.379,4.775-1.047,9.526-1.412,14.3-.186,2.423-.38,4.859-.436,7.285-.124,5.349.055,10.705-.062,16.055-.144,6.569,1.215,12.987,1.725,19.486a60.647,60.647,0,0,0,2.981,15.185c1.61,4.636,2.815,9.439,5.074,13.845.776,1.514,1.969,2.806,2.621,4.88a9.753,9.753,0,0,1-5.1-4.735c-1.552-2.677-2.158-5.743-3.37-8.558-2.01-4.669-2.857-9.647-4.094-14.524-.638-2.513-.552-5.1-.828-7.654-.529-4.9-1.174-9.776-1.38-14.714-.237-5.713.186-11.4.1-17.108a153.294,153.294,0,0,1,1.433-20.31c.511-4.323.236-8.732.563-13.083.4-5.3,1.2-10.566,1.322-15.9a45.44,45.44,0,0,1,.933-8.961,6.271,6.271,0,0,1,4.5-5.153c3.593-1.156,7.453-1.21,10.918-2.811,1.392-.644,2.793-1.27,4.2-1.89.89-.393,1.128-.769.437-1.713a30.868,30.868,0,0,0-3.149-3.369,14.329,14.329,0,0,1-2.454-3.44c-.832-1.584-.419-2.563,1.3-3.024,2.039-.546,4.126-.91,6.185-1.386,4.276-.991,7.786-3.535,11.478-5.706C850.641,258.839,851.179,258.24,852.162,258.4Z" fill="#004c94"/><path d="M959.718,300.978c4.247,3.09,7.528,6.734,11.652,9.383,2.854,1.832,2.875,2.29,1.448,5.3-2.634,5.56-6.908,9.856-10.961,14.323a105.877,105.877,0,0,0-10,13.156A202.667,202.667,0,0,0,939.266,364.7c-2.865,5.815-6.1,11.417-9.27,17.054a85.266,85.266,0,0,1-7.945,11.265,66.58,66.58,0,0,0-8.105,13.269C909.6,415.5,905.5,424.8,902.088,434.41c1.46-4.111.813-9.911,2.044-14.37a31.4,31.4,0,0,1,5.038-10.44c5.29-7.574,9.779-15.788,15.089-23.454,4.713-6.8,8.5-14.16,12.261-21.517a226.9,226.9,0,0,1,12.2-20.928,107.3,107.3,0,0,1,9.566-12.992c2.818-3.155,5.647-6.3,8.4-9.509a46.507,46.507,0,0,0,4.522-7.131c.694-1.191-.2-1.732-.895-2.177-4.227-2.724-7.735-6.341-11.739-9.337a3.664,3.664,0,0,1-.613-.466c-.446-.516-1.394-.907-1.113-1.65.261-.692,1.142-.886,1.939-1,4.346-.635,8.3-2.505,12.381-3.982.478-.174.793-.433.564-1-2.581-6.431-1.918-13.492-4.006-20.073a81.992,81.992,0,0,0-5.341-13.12c-.258-.5-1.095-1.138-.237-1.632s1.27.518,1.565,1.026a49.6,49.6,0,0,1,5.11,10.722,83.2,83.2,0,0,1,3.441,16.684,18.094,18.094,0,0,0,1.559,5.507c.75,1.73.155,2.486-1.368,3.053A119.756,119.756,0,0,1,959.718,300.978Z" fill="#004c94"/><path d="M749.18,307.023l3.786,1.127a8.566,8.566,0,0,1-4.391.069,5.959,5.959,0,0,0-6.69,3.514c-.178.471-.107,1.23-.79,1.009s-.47-1-.213-1.479c1.094-2.037,2.5-3.744,4.992-4.082a4.053,4.053,0,0,0,2.843-1.552,47.964,47.964,0,0,0,7.735-13.175c1.12-2.813,3.284-4.864,4.917-7.3,2.429-3.622,4.706-7.347,6.984-11.068,2.7-4.409,6.929-6.493,11.652-7.9,3.492-1.037,6.978-2.094,10.448-3.2a69.946,69.946,0,0,1,14.856-2.72c8.575-.8,17.174-.877,25.767-1.193a19.71,19.71,0,0,0,6.17-1.163c4.761-1.8,9.741-2.658,14.65-3.834,2.037-.488,3.965-1.376,6.155-1.643-1.321-4.1-2.8-8-5.914-10.964-2.133-2.028-2.807-4.7-3.573-7.329-.983-3.374-1.753-6.81-2.689-10.2-.505-1.826.078-3.728-.658-5.662,1.355.35,1.328,1.443,1.482,2.25a164.763,164.763,0,0,0,4.665,16.995c.517,1.7,1.815,2.772,2.947,3.992,3.235,3.486,4.516,7.992,6.355,12.2,2.347,5.372,5.992,9.475,12,10.267a50.639,50.639,0,0,0,12.5-.213c4.454-.524,8.481-2.249,12.652-3.6a4.563,4.563,0,0,1,.915-.225c.362-.039.732-.009,1.594-.009-4.41,2.116-8.415,3.846-12.811,4.593a64.7,64.7,0,0,1-15.694.336c-4.474-.329-7.559-2.933-10.25-6.134a13.993,13.993,0,0,1-2.361-3.947c-.559-1.474-1.271-1.545-2.58-1.115-6.625,2.176-13.521,3.362-20.17,5.481-2.867.913-5.915.719-8.895.966-4.92.408-9.862-.269-14.783.725-2.918.589-6.008.292-9.024.573a58.949,58.949,0,0,0-12.928,2.734c-4.186,1.37-8.388,2.7-12.587,4.028-4.49,1.423-7.184,4.8-9.39,8.671a83.253,83.253,0,0,1-8.981,13.154c-.68.792-.148,1.726-.443,2.321-1.239,2.5-1.72,5.417-3.909,7.41A74.153,74.153,0,0,0,749.18,307.023Z" fill="#004c94"/><path d="M778.91,276.864c.078,2.961.9,5.865.392,8.758-.648,3.676-.673,7.389-1.072,11.075-.551,5.088-1.021,10.186-1.493,15.282-.189,2.039-.407,4.087-.405,6.13,0,3.3.5,6.655.516,9.883a186.962,186.962,0,0,1-2.287,31.183c-1.189,7.238-2.117,14.531-2.629,21.872-.384,5.51-.576,11.014-.71,16.533a33.54,33.54,0,0,0,2.393,14.089c.213.507.751,1.186.137,1.549-.712.421-.908-.511-1.205-.92a17.969,17.969,0,0,1-3.593-10.75c-.016-7.214-.136-14.437.515-21.624.5-5.525,1.555-11,2.064-16.524.494-5.359,1.631-10.614,2.169-15.97.491-4.872-.316-9.718.1-14.509.712-8.194.021-16.439,1.287-24.607.675-4.356.778-8.8,1.247-13.189.591-5.536,1.255-11.063,1.607-16.623C777.976,278,777.76,277.133,778.91,276.864Z" fill="#004c94"/><path d="M684.671,314.547c1.8,1.812,2.347,4.164,1.235,5.957-.88,1.418-.375,1.977.788,2.693a17.815,17.815,0,0,0,10.572,3.009c3.784-.218,7.643.168,11.354-.429a37.691,37.691,0,0,0,13.136-4.536A75.785,75.785,0,0,1,729.2,317.2c3.893-1.724,5.254-5.251,6.722-8.738.443-1.052.583-2.227.952-3.314.141-.417.205-1.1.94-.985.7.112.813.623.9,1.269.357,2.721-.592,5.114-1.757,7.458-1.659,3.338-3.855,6.359-5.725,9.567-2.745,4.707-4.466,9.885-6.367,14.976-1.136,3.042-2.415,6.044-4.935,8.3-2.365,2.117-4.111,4.761-6.113,7.192-2.484,3.016-5.17,5.89-7.857,8.726a51.18,51.18,0,0,0-9.524,13.667,3.756,3.756,0,0,1-1.841,2.194,32.45,32.45,0,0,1,2.147-5.813c1.772-4.208,5.068-7.306,7.823-10.819,5.813-7.413,12.4-14.237,17.232-22.4a28.993,28.993,0,0,0,2.114-5.14,60.8,60.8,0,0,1,8.033-15.9c-3.379,1.744-6.479,3.212-9.449,4.908a36.366,36.366,0,0,1-18.2,4.612c-3.158.019-6.317-.086-9.476-.084-4.126,0-7.54-1.806-10.768-4.126-.383-.275-.8-.55-.427-1.073C685.135,319.593,685.311,317.262,684.671,314.547Z" fill="#004c94"/><path d="M1032.209,324.648c-2.227,4.284-4.555,8.32-7.091,12.264-3.949,6.142-7.465,12.563-11.447,18.682a147.315,147.315,0,0,0-17.209,35.257c-2.729,8.5-5.281,17.14-5.311,26.241,0,.912.246,2.459-1.024,2.455-1.149,0-.878-1.483-.954-2.407-.571-6.975,1.3-13.6,2.994-20.234a113.749,113.749,0,0,1,9.1-23.964c3.28-6.36,6.5-12.75,10.594-18.7,3.327-4.83,6.268-9.959,9.209-15.064,2.65-4.6,5.7-8.97,8.6-13.424A2.32,2.32,0,0,1,1032.209,324.648Z" fill="#004c94"/><path d="M931.87,295.128a12.712,12.712,0,0,0-.957,2.156c-1.59,6.371-4.423,12.282-6.905,18.306-2.371,5.758-4,11.73-5.984,17.6-3,8.891-5.145,18.1-9.021,26.661a259.564,259.564,0,0,0-9.827,26.013c-1.766,5.371-2.824,11-4.453,16.442-3.25,10.853-7.747,21.219-10.553,32.249,1.4-8.486,1.7-19.3,5.558-27.037a100.367,100.367,0,0,0,7.36-20.91c.914-3.58,2.349-7.017,3.6-10.5,2.16-6.016,4.34-12.012,7.083-17.8,2.086-4.4,3.147-9.172,4.682-13.772,1.638-4.91,3.33-9.809,4.733-14.788,2.65-9.4,6.6-18.287,10.389-27.25,1.066-2.522,1.677-5.238,2.737-7.785.189-.453.262-.9.859-.767C931.7,294.06,931.807,294.519,931.87,295.128Z" fill="#004c94"/><path d="M848.767,221.279c-1.336-.261-1.143-1.44-1.658-2.1a25.078,25.078,0,0,1-5.227-13.758c-.252-2.98-1.034-5.986-.433-8.917a50.266,50.266,0,0,0,.58-11.5c-.057-2.3-.219-4.578-.133-6.9.23-6.181,2.028-12.132,1.764-18.456-.286-6.832-.211-13.745.114-20.609a22.921,22.921,0,0,1,3.665-10.992A41.436,41.436,0,0,1,854.7,119.1c.458-.415.941-1.449,1.652-.75.527.518-.309,1.109-.706,1.58-3.357,3.97-6.554,8.023-8.446,12.972a17.8,17.8,0,0,0-1.209,5.785c-.087,2.512.011,5.029-.027,7.542-.1,6.815-.259,13.63-.332,20.445-.009.847-.618,1.581-.308,2.474.628.277,1.145-.4,1.9-.227-.56.982-2.6.4-2.259,2.325a6.526,6.526,0,0,1,5.5-1.307c-1.505.609-2.851,1.124-4.173,1.7a3.326,3.326,0,0,0-2.363,3.133,91.453,91.453,0,0,0,.034,10.768,45.151,45.151,0,0,1-.3,9.428c-1,8.168-.32,16.106,4.271,23.278A4.729,4.729,0,0,1,848.767,221.279Z" fill="#004c94"/><path d="M942.444,235.122c.322,7.794-3.346,13.244-7.717,18.143a69.745,69.745,0,0,0-8.163,10.422c-2.241,3.742-5.515,6.606-8.719,9.462-1.879,1.676-3.538,3.546-5.324,5.3-3.951,3.871-8.81,6.074-13.9,7.82a8.031,8.031,0,0,1-5.865-.161c-4.149-1.869-8.279-3.791-11.792-6.807-2.118-1.818-3.549-4.2-5.4-6.232-1.543-1.7-3.478-3.1-4.478-5.257-.257-.553-1.112-1.2-.132-1.773.793-.463,1.17.165,1.634.795a111.2,111.2,0,0,0,10.132,11.577c3.1,3.174,7.358,4.787,11.4,6.553a4.949,4.949,0,0,0,3.79.035c2.582-1.09,5.276-1.878,7.693-3.442a34.436,34.436,0,0,0,6.392-5.23c3.4-3.587,7.319-6.648,10.513-10.456a32.323,32.323,0,0,0,3.173-4.553c2.058-3.548,5.025-6.292,7.662-9.342,4.36-5.043,7.572-10.625,7.141-17.662a10.362,10.362,0,0,0-.766-3.517,3.452,3.452,0,0,1-.425-1.854c.071-.52.145-1.125.755-1.208.581-.079.539.575.766.925A9.434,9.434,0,0,1,942.444,235.122Z" fill="#004c94"/><path d="M753.7,209.506c2.229-2.881,4.277-5.586,6.389-8.24a8.2,8.2,0,0,1,8.37-3.21c5.587,1.058,11.268,1.567,16.8,2.955a12.279,12.279,0,0,1,5.817,3.692c1,1.051,3.813,3.386,3.035,4.976a3.925,3.925,0,0,1-1.417,1.41c-3.135,2.131-7.171,3.541-10.71,2.181-1.628-.625-3.018-1.79-4.679-2.321a11.739,11.739,0,0,0-7.484.508c-2.086.969-3.67,3.183-5.422,4.621-3.934,3.228-3.535,7.543-3.174,11.387.242,2.578,2.246,5.32,4.163,7.6.918,1.092,1.765,2.176,3.45,2.227-1.7,1.38-3.042,1.184-4.408-.521a26.122,26.122,0,0,1-3.922-6.618c-2.568,2.557-5.729,2.507-8.877,2.582,2.476-1.491,6.9-.053,7.177-5.031-2.41.493-4.7,1.567-7.2.58.388-.862,1.12-.547,1.67-.6.634-.062,1.283.038,1.925.03,3.184-.044,3.842-.694,4.081-3.778a10.5,10.5,0,0,1,.341-3.425c.278-.668-.292-.98-.779-1.352a29.277,29.277,0,0,0-4.332-2.494,3.554,3.554,0,0,1-2.128-2.569c-.077-.454-.142-.919.4-1.159a.792.792,0,0,1,1.116.453c1.312,2.781,4.495,2.978,6.531,4.754.333.29.624.05.807-.193a55.8,55.8,0,0,1,6.046-6.464,4.36,4.36,0,0,0-.412-.3c-.7-.363-2.007-.5-1.615-1.5.418-1.063,1.432-.232,2.136.076,2.437,1.068,4.716-.374,7.331-.19-.285-.466-.425-.661-.53-.873-.267-.534-.493-1,.229-1.465.7-.448,1.026-.091,1.437.365a20.165,20.165,0,0,0,5.042,3.808c3.966,2.3,7.609,1.14,10.759-1.483,1-.836.429-1.593-.157-2.326-2.787-3.49-6.262-6.042-10.782-6.371-4.62-.337-9.077-1.524-13.647-2.09-2.682-.331-4.386.834-5.919,2.734q-2.782,3.45-5.662,6.823A1.756,1.756,0,0,1,753.7,209.506Z" fill="#004c94"/><path d="M851.176,406.535c1.09-7.373.983-14.821,1.278-22.238.348-8.743,2.283-17.229,3.8-25.782,1.662-9.368,3.42-18.723,6.513-27.766a81.866,81.866,0,0,1,6.957-14.686c1-1.712,1.653-3.62,2.976-5.152.36-.417.563-1.3,1.22-.922.74.43-.049.953-.27,1.426-2.923,6.26-6.794,12.065-8.868,18.734a145.987,145.987,0,0,0-5.725,23.593c-.872,6.377-2.34,12.673-3.555,19-.6,3.149-.652,6.354-.989,9.53-.745,7.008-.2,14.1-1.229,21.075-.286,1.93-.124,3.843-.4,5.738-.051.35.285,1.3-.75,1.152a1.024,1.024,0,0,1-.964-1.191C851.192,408.212,851.176,407.373,851.176,406.535Z" fill="#004c94"/><path d="M886.893,315.837a4.582,4.582,0,0,1,.5,3.058c-.186,5.535,1.083,10.956,1.142,16.489.073,6.894,0,13.787.1,20.68.078,5.319,1.11,10.6.705,15.938a134.237,134.237,0,0,1-3.012,21.574c-1.04,4.293-1.128,11.728-4.085,15.068-.806-2.727.279-6.152.9-8.941,1.066-4.766,2.265-9.5,2.983-14.339a97.07,97.07,0,0,0,1.049-23.017c-.663-7.379-.242-14.808-.245-22.215,0-5.84-.7-11.641-.881-17.464A16.472,16.472,0,0,1,886.893,315.837Z" fill="#004c94"/><path d="M783.835,236.27c-3,1-4.624-.314-6.172-5.082-3.247,1.487-5.355,4.05-7.112,6.992.819-3.511,3.208-5.739,6.275-7.3a3.032,3.032,0,0,0,1.712-1.809c1.45-3.842,4.2-6.662,7.44-9.08,2.936-2.19,6.363-3.229,9.749-4.4,1.525-.53,2.02.23,2.158,1.5a7.763,7.763,0,0,1-1.271,5.1c-1.869,2.96-4.241,5.673-4.474,9.436-.094,1.528-.551,3.016-.055,4.574a2.57,2.57,0,0,1-1.161,2.969,52.818,52.818,0,0,0-7.142,6.143c-1.005,1.124-2.445,1.64-3.62,2.516q-4.48,3.344-8.837,6.849c-2.432,1.95-3.158,4.916-4.295,7.618-.446,1.058-.725,2.185-1.133,3.26-1.767,4.655-8.6,9.6-13.427,9.721.244-.811,1-.875,1.593-1.188a55.345,55.345,0,0,0,6.714-3.7c2.151-1.555,2.884-4.19,3.672-6.617,1.476-4.544,3.626-8.612,7.546-11.523,1.506-1.119,3.039-2.217,4.646-3.181,4.655-2.793,8.315-6.816,12.6-10.062a1.979,1.979,0,0,0,1.009-1.949c-.959-5.528,1-10.162,4.265-14.466,1.04-1.37,1.906-2.937,1.42-4.831-.19-.737-.324-1.215-1.376-.88a24.34,24.34,0,0,0-13.446,10.031c-2.358,3.605-1.671,6.244,1.981,8.558C783.407,235.669,783.795,235.812,783.835,236.27Z" fill="#004c94"/><path d="M861.9,206.769c-2.109,3.92-4.325,7.305-5.375,11.251-.16.6-.292,1.436-1.169,1.214s-.479-1.081-.471-1.648c.046-3.042,1.777-5.443,3.235-7.9.735-1.242,1.014-3.031,2.954-3.257.4-.046.308-.5.388-.793,1.156-4.26,3.015-8.279,4.379-12.45,1.593-4.873,3.917-9.541,3.915-14.945,0-3.874,1.351-7.646,2.89-11.254.182-.427.329-.844,1.022-.913.69,1.363-.3,2.528-.6,3.718a77.586,77.586,0,0,0-2.153,11.637c-.533,5.626-3.069,10.776-5.043,16.034-.9,2.385-1.819,4.76-2.648,7.167-.625,1.815.607,2.786,1.962,3.436,2.8,1.346,5.455,2.19,8.72.484a15.551,15.551,0,0,1,10.875-1.335,3.7,3.7,0,0,0,4.516-2.066c.255-.517.485-1.274,1.2-.841.758.457.258,1.1-.1,1.645-1.139,1.768-3.608,2.645-6.373,1.922-3.6-.942-6.9,0-10.048,1.478a8.179,8.179,0,0,1-7.208.271C865.11,208.888,863.052,208.949,861.9,206.769Z" fill="#004c94"/><path d="M865.632,301.668a13.34,13.34,0,0,0,3.577-4.335A46.176,46.176,0,0,1,881.33,284.4a4.461,4.461,0,0,1,3.415-.9c-3.636,1.6-5.82,4.859-8.643,7.387-2.861,2.562-4.445,6.1-6.831,9.031-1.053,1.292-2.087,2.6-3.136,3.9a2.029,2.029,0,0,1-2.185.9c-.92-.287-.432-1.257-.436-1.81-.034-4.763.245-9.533.078-14.288-.186-5.322.236-10.63.082-15.934-.065-2.228-.16-4.474-.259-6.71-.024-.551-.26-1.255.687-1.238.806.014.847.619.861,1.232.117,5.186.477,10.362.407,15.558-.086,6.414.045,12.831.09,19.247A5.874,5.874,0,0,0,865.632,301.668Z" fill="#004c94"/><path d="M963.292,178.24c.434-3.561,1.628-7.214-1.546-10.262-1.14-1.094-2.266-1.866-3.928-1.31a.906.906,0,0,1-1.049-.194c1.468-1.4,3.912-1.2,5.661.022,3.484,2.436,3.376,5.819,3.076,9.465-.538,6.531-2.923,12.724-3.593,19.169-.653,6.271-4.013,11.069-7.029,16.147a5.048,5.048,0,0,1-4.278,2.57,12.444,12.444,0,0,0-7.148,2.435,8.1,8.1,0,0,1-1.759.637c2.02-2.879,4.763-3.5,7.532-3.786a4.816,4.816,0,0,0,3.723-2.056c2.49-3.943,5.505-7.79,6.389-12.4q1.825-9.507,3.951-18.94a7.7,7.7,0,0,0,.034-1.544Z" fill="#004c94"/><path d="M1024.345,401.752a100.032,100.032,0,0,1,6.436-8.861,86.649,86.649,0,0,1,12.458-12.242,76.049,76.049,0,0,0,8.216-8.66c.433-.493.68-1.3,1.352-.853.622.414.451,1.274-.01,1.875-1.132,1.474-2.243,2.971-3.472,4.363a61.326,61.326,0,0,1-7.186,6.9c-5.009,4.089-8.979,9.122-13.048,14.074-.9,1.09-1.929,2.068-2.9,3.1A1.362,1.362,0,0,1,1024.345,401.752Z" fill="#004c94"/><path d="M877.052,295.926a36.115,36.115,0,0,1-1.427,9.826c-.4,1.318-.218,2,1.13,2.5a55.65,55.65,0,0,1,8.45,3.669,1.785,1.785,0,0,0,2.268-.385c4.147-3.655,9.2-6.041,13.434-9.562a2.906,2.906,0,0,1,.98-.581c.277-.082.76-.068.895.1.281.358-.008.7-.332.951a53.454,53.454,0,0,1-5.843,4.361,59.2,59.2,0,0,0-8.448,5.99,2.777,2.777,0,0,1-3.5.371,52.567,52.567,0,0,0-9.492-4.125c-1.893-.632-1.9-1.868-1.519-3.326a49.53,49.53,0,0,0,1.752-10.939c.019-.671-.486-1.781.767-1.8,1.2-.014.75,1.11.877,1.787A6.487,6.487,0,0,1,877.052,295.926Z" fill="#004c94"/><path d="M862.139,226.152c2.09-.392,3.379.745,4.565,1.638,2.118,1.594,4.585,1.705,6.956,1.868,4.483.308,9.025-.058,13.478.435a13.077,13.077,0,0,0,9.241-2.525,17.435,17.435,0,0,1,6.7-2.6c-1.643,1.567-3.94,1.973-5.69,3.309-4.737,3.618-10.146,4.917-16.006,4.751-6.406-.181-12.416-1.535-17.508-5.723C863.437,226.944,862.93,226.673,862.139,226.152Zm9.881,4.143c5.79,1.7,11.609,2.29,17.519.651C883.709,230.4,877.829,230.851,872.02,230.295Z" fill="#004c94"/><path d="M854.442,179.663c2.274-.709-1.158-2.923,1.4-3.514-2.258.193-3.472,1.739-4.856,3.107s-1.65,3.488-3.412,4.631c1.706-5.807,4.095-8.718,11.165-9.14,2.689-.16,5.316-.069,7.174,2.331.361.466,1.252.707.866,1.526a1.82,1.82,0,0,1-1.816.867c-.317.006-.635-.035-1.087-.062.36-.785,1.234-.4,1.6-.95a16.663,16.663,0,0,0-3.1-2.512c.106,3.238-.015,2.883-3.677,3.161.833.629,2,.035,2.611,1.178A13.974,13.974,0,0,1,854.442,179.663Zm2.659-4.037c1.161,1.895,2.011,1.372,2.791-.038C859.019,175.155,858.17,175.728,857.1,175.626Z" fill="#004c94"/><path d="M912.715,179.357a10.576,10.576,0,0,1-5.577-1.568,13.761,13.761,0,0,0-2.448-1.436c-.974-.417-2.072-1.5-2.211.74-.057.925-1.173.525-1.861,1.072l3.751.2-.054.541c-2.77-.2-5.649.929-8.28-.948-.41-.292-1.007-.657-1.065-1.054-.413-2.827-1.644-1.068-2.664-.526-.287.152-.572.309-1.094.591,1.373.776,2.543.114,3.919,1.026-2.354.5-4.269.21-6.515.31a8.946,8.946,0,0,1,6.952-3.877c2.162-.148,4.342-.017,6.514-.033,1.932-.014,3.456,1.2,4.785,2.188A25.234,25.234,0,0,0,912.715,179.357Z" fill="#004c94"/><path d="M928.909,239.3a62.677,62.677,0,0,0,8.836-12.852,12.709,12.709,0,0,0,1.728-5.059c.056-.745.469-1.457.591-2.205.142-.87.735-.8,1.3-.709.726.121.6.635.483,1.189a26.094,26.094,0,0,1-5.489,12.24c-1.485,1.736-2.352,3.957-3.97,5.646A4.394,4.394,0,0,1,928.909,239.3Z" fill="#004c94"/><path d="M1042.642,366.586c-7.909,4.626-12.979,12.355-21.5,15.136l-.361-.51c2.015-1.416,4.109-2.734,6.031-4.267,4.151-3.312,7.947-7.07,12.525-9.847A3.567,3.567,0,0,1,1042.642,366.586Z" fill="#004c94"/><path d="M935.36,100.429c-3.172.165-5.67-1.523-8.415-1.638-.347.717.9.356.446,1.091a25.985,25.985,0,0,1-7.319-2.441,17.692,17.692,0,0,0-9.2-2.055c-.511.043-1.2.281-1.526-.453-.107-.24-.193-.48.082-.666.517-.35,1.043-.169,1.619-.147,3.631.138,6.98,1.269,10.446,2.236,3.4.947,7.03,1.3,10.493,2.239A6.893,6.893,0,0,1,935.36,100.429Z" fill="#004c94"/><path d="M860.516,224.638c14.315.012,28.683-1.468,43.171-1.025-3.227.727-6.355,1.786-9.772,1.286a51.624,51.624,0,0,0-14.87-.078,70.466,70.466,0,0,1-16.532.44A3.981,3.981,0,0,1,860.516,224.638Z" fill="#004c94"/><path d="M889.258,112.212A19.4,19.4,0,0,1,897.8,110.6c8.457.037,16.792,1.5,25.172,2.367,3.736.389,7.467,1.179,11.222,1.793a19.537,19.537,0,0,1-7.115,0c-5.7-1.2-11.52-1.608-17.281-2.4a77.565,77.565,0,0,0-13.205-1.126A66.829,66.829,0,0,0,889.258,112.212Z" fill="#004c94"/><path d="M771.566,335.744c-.008.474-.124.949-.588,1.118-.548.2-.787-.243-.971-.675a5.739,5.739,0,0,1-.378-.881c-1.175-4.94-3.949-9.1-6.461-13.4-.274-.468-1.067-1.047-.156-1.6a1.142,1.142,0,0,1,1.657.454c2.983,4.538,5.967,9.073,6.846,14.6C771.535,335.491,771.55,335.617,771.566,335.744Z" fill="#004c94"/><path d="M874.145,337.431c-.143-4.47,1.119-8.712,2.159-12.985.17-.7.508-1.662,1.514-1.389,1.041.283.457,1.188.317,1.766a71.513,71.513,0,0,0-2.295,14.856,6.861,6.861,0,0,1-.18,1.14c-.078.391-.221.752-.706.766-.6.017-.78-.422-.8-.882C874.118,339.614,874.145,338.522,874.145,337.431Z" fill="#004c94"/><path d="M940.679,110.43c2.334-.569,3.868.652,5.512,1.291a14.739,14.739,0,0,1,3.786,2.249,32.875,32.875,0,0,0,4.393,3.045c2.461,1.377,3.632,4.053,5.144,6.341.216.326.415.733,0,1.021-.384.269-.75.021-1-.288a43.168,43.168,0,0,1-3.337-4.226c-.741-1.186-1.9-1.625-2.925-2.338-3.184-2.215-6.09-4.874-9.912-6.059A8.875,8.875,0,0,1,940.679,110.43Z" fill="#004c94"/><path d="M906.121,215.6c-1.3.607-1.894-.444-2.535-1.163-1.832-2.051-3.486-4.273-5.419-6.221-1.688-1.7-3.92-2.8-5.643-4.587C895.55,202.573,904.663,210.673,906.121,215.6Z" fill="#004c94"/><path d="M873.4,114.374c1.624-3.048,4.181-4.508,7.537-5.074,5.309-.9,10.657-.293,15.962-.811,2.224-.217,4.449-.444,6.677-.62a1.933,1.933,0,0,1,1.968.5c-3.072.719-6.11.494-9.053.994-4.843.821-9.749.031-14.622.616a12.42,12.42,0,0,0-6.706,2.969C874.581,113.432,873.987,113.9,873.4,114.374Z" fill="#004c94"/><path d="M958.455,128.957a.81.81,0,0,1-.938.137c-3.093-1.389-6.473-1.372-9.726-1.961a7.3,7.3,0,0,1-4.733-2.642,5.389,5.389,0,0,0-3.364-2.076c-2.817-.53-5.466-1.758-8.343-2.142,1.793-.57,3.53.161,5.268.385,1.448.186,2.844.706,4.309.938a4.429,4.429,0,0,1,3.016,1.558c2.049,2.889,5.075,3.4,8.27,3.689a37.489,37.489,0,0,1,4.512.817A1.967,1.967,0,0,1,958.455,128.957Z" fill="#004c94"/><path d="M879.786,106.8c-.7.86-1.554.545-2.278.639-5.91.762-10.432,3.9-14.351,8.163-.841.914-1.41,2.39-3.133,2.013C861.975,112.688,872.256,105.165,879.786,106.8Z" fill="#004c94"/><path d="M893.75,233.274c-2.418,1.723-4.959,2.049-7.515,2.527a37.464,37.464,0,0,1-14.434.207c-3.419-.679-4.973-3.364-7.369-5.443,1.416-.118,2.068.005,3.55,1.834,2.27,2.8,5.331,3.4,8.574,3.5a40.465,40.465,0,0,0,16.151-2.616A3.93,3.93,0,0,1,893.75,233.274Z" fill="#004c94"/><path d="M750.306,226.89a2.058,2.058,0,0,1-.652.1c-4.036-.7-7.291,1.364-10.752,2.879a26.3,26.3,0,0,1-16.088,1.841c-.651-.132-1.688-.276-1.412-1.108.31-.934,1.184-.272,1.819-.053a17.608,17.608,0,0,0,9.315.385,34.724,34.724,0,0,0,9.888-3.516A9.076,9.076,0,0,1,750.306,226.89Z" fill="#004c94"/><path d="M952.373,139.759a15.365,15.365,0,0,1-6.83-2.759,43.4,43.4,0,0,1-6.738-4.726c-.3-.278-.85-.657-.332-1.072.381-.3.917-.791,1.531-.231,3.32,3.025,7.233,5.192,10.988,7.588A16.109,16.109,0,0,1,952.373,139.759Z" fill="#004c94"/><path d="M744.3,237.292c.99,1.335.629,2.568.208,3.735a20.513,20.513,0,0,0-1.551,9.379c.052.457.273,1.185-.378,1.318s-.677-.639-.871-1.069a8,8,0,0,1,0-6C742.534,242.188,743.435,239.746,744.3,237.292Z" fill="#004c94"/><path d="M762.653,258.133a18.354,18.354,0,0,0-2.362-10.593c-.274-.483-.561-1.063-.035-1.367.613-.354,1.01.254,1.351.727,1.761,2.444,2.144,5.334,2.382,8.183a36.963,36.963,0,0,1-.374,5.929c-.041.511-.133,1.223-.772,1.112-.789-.137-.221-.771-.2-1.217C762.681,259.886,762.653,258.862,762.653,258.133Z" fill="#004c94"/><path d="M740.689,267.185c.084-1.6.137-3.2.269-4.788.052-.615.12-1.417,1.044-1.314s.529.885.516,1.378c-.085,3.321-.22,6.64-.322,9.961-.017.58.088,1.307-.66,1.371-.767.067-.77-.66-.86-1.245A33.332,33.332,0,0,1,740.689,267.185Z" fill="#004c94"/><path d="M858.512,170.229a20.6,20.6,0,0,1-3.315,2.163c1.1-.226,2.2-.476,3.307-.665.437-.075.982-.076,1.069.524.124.859-.6.454-.918.481a41.871,41.871,0,0,1-5.453.2c-1.492-.069-3.121.669-4.842.7C849.779,171.562,855.707,169.61,858.512,170.229Z" fill="#004c94"/><path d="M867.4,227.22c9.13,1.27,18.175-.086,27.239-.838C885.613,228.15,876.558,229.221,867.4,227.22Z" fill="#004c94"/><path d="M963.328,178.2c-.688.569-.261,1.662-1.037,2.192-.306.209-.545.641-.979.462-.469-.2-.337-.647-.223-1a12,12,0,0,0,.355-5.1c-.314-3.044-1.242-3.563-3.917-2.068a2.966,2.966,0,0,1-1.155.51c1.085-1.555,2.693-1.878,4.491-1.829,1.556.043,1.73,1.184,2.082,2.318a12.257,12.257,0,0,1,.347,4.55Z" fill="#004c94"/><path d="M949.792,186.185c.023-2.922,1.576-4.758,2.881-6.7.175-.262.462-.564.769-.267.394.38.16.846-.064,1.234A9.635,9.635,0,0,0,951.66,186a7.981,7.981,0,0,0,.452,2.208c.13.359.358.768-.065,1.031-.44.275-.83.055-1.19-.292A3.389,3.389,0,0,1,949.792,186.185Z" fill="#004c94"/><path d="M952.286,196.408c-.021.115-.04.331-.067.332-2.1.074-3.1,1.435-3.906,3.153-.21.445-.737,1.289-1.463.857s-.145-1.143.1-1.641c.931-1.921,1.717-3.84.983-6.027-.106-.314-.112-.687.273-.8.425-.121.937-.2,1.147.355a8.588,8.588,0,0,1,.53,1.818C950.2,196.765,950.175,196.768,952.286,196.408Z" fill="#004c94"/><path d="M963.959,154.873c.024.947.2,1.548-.522,1.683-.85.157-1.107-.468-1.256-1.118-.454-1.975-.845-3.965-1.346-5.927-.15-.591-.231-.983.456-1.163a.9.9,0,0,1,1.16.718A29.549,29.549,0,0,1,963.959,154.873Z" fill="#004c94"/><path d="M738.574,320.818c-2.115,2.276-4.85,3.57-6.767,5.8-.54.629-1.164,1.187-1.744,1.784-.3.311-.366,1.211-1.055.594-.519-.464.066-.95.34-1.317a20.217,20.217,0,0,1,4.708-4.673,22.757,22.757,0,0,0,1.73-1.495A2.8,2.8,0,0,1,738.574,320.818Z" fill="#004c94"/><path d="M873.667,145.836a24.716,24.716,0,0,1-15.431-.485c2.606-.722,5.1.668,7.716.56C868.514,145.8,871.106,145.294,873.667,145.836Z" fill="#004c94"/><path d="M912.751,115.264c6.388.312,12.643,2.2,19.133,1.752C925.32,118.475,919.1,116.322,912.751,115.264Z" fill="#004c94"/><path d="M957.107,125.152a1.2,1.2,0,0,1,.461.133,17.814,17.814,0,0,1,5.949,6.657c.157.34.391.831-.013,1.023a.984.984,0,0,1-1.166-.377c-1.1-1.412-2.056-2.924-3.279-4.255-.743-.81-1.616-1.449-2.357-2.238a.99.99,0,0,1-.289-.651C956.438,125.133,956.766,125.156,957.107,125.152Z" fill="#004c94"/><path d="M903.9,145.528a37.753,37.753,0,0,1,17.795,7.118C915.872,149.95,910.314,146.577,903.9,145.528Z" fill="#004c94"/><path d="M907.594,214.55a1.311,1.311,0,0,1,1.706-.049,22.967,22.967,0,0,1,5.2,5.616c.215.333.708.735.125,1.14-.493.342-.849-.059-1.152-.382C911.52,218.787,909.579,216.687,907.594,214.55Z" fill="#004c94"/><path d="M881.614,172.917c0,.961.009,1.921,0,2.881-.005.362.1.86-.427.9a1.215,1.215,0,0,1-.8-.417c-.819-.859-.954-5.5-.277-6.508a.947.947,0,0,1,.983-.388c.567.024.5.48.512.842.017.9.005,1.793.005,2.689Z" fill="#004c94"/><path d="M889.979,222.374c-2.073-.265-4.144-.545-6.219-.786-.633-.073-1.427-.289-1.9-.013-3.54,2.09-7.574.412-11.225,1.553a3.76,3.76,0,0,1-1.713-.081c1.637-.431,3.34-.526,4.862-1.328a1.163,1.163,0,0,1,.935-.065c1.989,1.1,3.795.222,5.678-.369C882.519,220.621,886.847,221.091,889.979,222.374Z" fill="#004c94"/><path d="M744.482,312.708c-1.451,1.957-3.826,2.359-5.466,3.885-1.6,1.489-2.51,3.556-4.434,5.184C735.158,317.9,740.711,313.137,744.482,312.708Z" fill="#004c94"/><path d="M938.791,136.771c2.931,1.768,5.781,3.621,7.165,7l-.408.424-7.151-7.016Z" fill="#004c94"/><path d="M964.3,146.525c-.233.481.138,1.473-.531,1.578-.806.126-.737-.811-.906-1.418-.513-1.841-.411-3.822-1.263-5.578a.669.669,0,0,1,.4-1.057c.562-.2.724.219.947.662A16.006,16.006,0,0,1,964.3,146.525Z" fill="#004c94"/><path d="M901.914,169.664c-1.36.356-2.338.885-3.835.247-1.275-.545-3.02-.006-4.555.083-.62.035-1.129.606-1.821.429C893.985,168.428,897.923,168.107,901.914,169.664Z" fill="#004c94"/><path d="M859.982,184.644c3.126.25,5.132-1.707,7.244-3.448.338-.279.7-.737,1.149-.4.489.361.091.836-.129,1.178A7.392,7.392,0,0,1,859.982,184.644Z" fill="#004c94"/><path d="M919.769,189.847c-3.751-1.161-6.994-3.625-10.931-4.427C911.387,184.824,917.456,187.191,919.769,189.847Z" fill="#004c94"/><path d="M897.348,264.338a26.833,26.833,0,0,1,8.964,1.338A12.468,12.468,0,0,1,897.348,264.338Z" fill="#004c94"/><path d="M939.7,148.308a1.765,1.765,0,0,1,.569.234,15.5,15.5,0,0,1,3.888,4.219c.192.341.336.773-.023,1.05-.267.206-.648.027-.868-.207-1.359-1.446-2.714-2.9-4.032-4.379C938.911,148.861,938.769,148.381,939.7,148.308Z" fill="#004c94"/><path d="M939.956,106.044a55.513,55.513,0,0,1-9.083-3.25C932.731,102.1,938.452,104.142,939.956,106.044Z" fill="#004c94"/><path d="M717.75,282.409c4.078.364,7.864-.835,11.787-2.125C727.919,282.385,720.539,283.743,717.75,282.409Z" fill="#004c94"/><path d="M896.278,167.787a32.433,32.433,0,0,1-8.308,2.321C890.571,169.359,892.535,166.619,896.278,167.787Z" fill="#004c94"/><path d="M909.635,165.282c-3.14-1.377-6.317-2.646-9.44-4.045C903.581,162.028,907.03,162.665,909.635,165.282Z" fill="#004c94"/><path d="M756.634,270.68c.882-3.48-1.414-6.348-1.909-9.74C756.786,262.6,757.954,268.328,756.634,270.68Z" fill="#004c94"/><path d="M873.92,240.736c3.24-.5,6.608-.242,9.772-1.4C880.709,241.47,877.281,240.855,873.92,240.736Z" fill="#004c94"/><path d="M904.874,150.076l-12.106-1.892.09-.531,12.1,1.944Z" fill="#004c94"/><path d="M768.976,251.215c.2-1.341-.362-2.4.577-3.109.272-.207.726.079.776.339a6,6,0,0,1-.388,4.069c-.079.148-.458.209-.688.191-.357-.028-.257-.374-.27-.6C768.959,251.664,768.976,251.219,768.976,251.215Z" fill="#004c94"/><path d="M873.129,323.275c.793-3.958,2.266-5.3,5.014-4.809C875.148,318.484,875.193,321.668,873.129,323.275Z" fill="#004c94"/><path d="M876.237,217.2c-1.828-.109-2.39-1.256-2.789-2.566-.119-.393-.523-.878.106-1.142.551-.232,1.165-.258,1.449.452C875.419,214.978,875.8,216.029,876.237,217.2Z" fill="#004c94"/><path d="M923.4,185.287c-2.929.379-5.062-1.433-7.581-2.585.627-.323,1.025-.022,1.443.083C919.411,183.325,921.227,184.687,923.4,185.287Z" fill="#004c94"/><path d="M885.819,176.628c-.04.995.111,2.364-.811,2.326-1.269-.053-.638-1.543-.817-2.381-.119-.562-.144-1.567.935-1.467C886.264,175.211,885.56,176.221,885.819,176.628Z" fill="#004c94"/><path d="M921.614,171.471a18.234,18.234,0,0,1-6.116,5.119A17.916,17.916,0,0,1,921.614,171.471Z" fill="#004c94"/><path d="M767.689,250.6a7.77,7.77,0,0,1-.152,1.276.71.71,0,0,1-.513.441.727.727,0,0,1-.522-.452,6.992,6.992,0,0,1-.073-1.291c-.027-.854-1.032-2.246.375-2.37C767.949,248.1,767.247,249.769,767.689,250.6Z" fill="#004c94"/><path d="M758.428,334.379c2.341.168,3.959,2.176,4.235,4.758C761.018,337.768,760.522,335.678,758.428,334.379Z" fill="#004c94"/><path d="M729.949,213.308a10.779,10.779,0,0,1,6.709-1.6C734.6,212.991,732.119,212.5,729.949,213.308Z" fill="#004c94"/><path d="M925.926,176.93c-2.343,1.274-4.626,2.784-7.467,2.727C921.038,179,923.256,177.39,925.926,176.93Z" fill="#004c94"/><path d="M955.959,184.887c1.316,2.612,1.138,3.946-.736,5.171C955.973,188.378,955.647,186.818,955.959,184.887Z" fill="#004c94"/><path d="M897.448,153.581c-2.639-.4-5.323-.014-7.976-.366C892.135,153.124,894.8,152.872,897.448,153.581Z" fill="#004c94"/><path d="M851.407,184.956c-1.031.691-1.8,1.222-2.581,1.723a.866.866,0,0,1-1.306-.253c-.26-.542.338-.676.734-.867A4.581,4.581,0,0,1,851.407,184.956Z" fill="#004c94"/><path d="M905.117,155.011a12.932,12.932,0,0,1-6.4-1.5Z" fill="#004c94"/><path d="M904.352,184.914a8.6,8.6,0,0,1-5.716-.789Z" fill="#004c94"/><path d="M893.971,182.348c-1.927.287-3.17-.446-4.488-.824A5.2,5.2,0,0,1,893.971,182.348Z" fill="#004c94"/><path d="M853.64,273.532a13.3,13.3,0,0,1-.276,2.309c-1.807,6.279-2.4,12.7-3.327,19.068-.887,6.085-2.469,12.033-3.72,18.046-1.894,9.107-4.629,18.111-5.67,27.315-1.037,9.162-3.088,18.072-4.719,27.126-1.628,9.036-1.463,18.6-1.52,27.777-.054,8.558,3.251,13.777,5.491,21.8-3.46-12.389-2.037-24.579-1.973-37.209.037-7.063.2-14.686,1.509-21.6,1.18-6.218,2.336-12.428,2.94-18.7.459-4.772,1.915-9.417,2.911-14.12,1.062-5.021,2.077-10.056,3.36-15.033,2.424-9.4,3.558-18.92,4.863-28.434.368-2.677,1.191-5.324,1.573-8.021.069-.48.225-.9-.314-1.049C854.29,272.671,853.984,273.026,853.64,273.532Z" fill="#004c94"/><path d="M786.857,211.62v-.493l1.017,0,0,.494Z" fill="#004c94"/><path d="M786.859,212.357l0-.493,1.017,0,0,.493Z" fill="#004c94"/><path d="M786.861,213.095l0-.494,1.017,0,0,.494Z" fill="#004c94"/><path d="M786.864,213.832l0-.493,1.017,0,0,.493Z" fill="#004c94"/><path d="M786.866,214.569l0-.493,1.017,0v.493Z" fill="#004c94"/><path d="M786.868,215.307l0-.493,1.017,0v.493Z" fill="#004c94"/><path d="M792.605,216.68h.648l0,.762h-.648Z" fill="#004c94"/><path d="M791.637,216.682h.648l0,.762h-.648Z" fill="#004c94"/><path d="M790.669,216.684h.648l0,.762h-.648Z" fill="#004c94"/><path d="M789.7,216.685h.648l0,.762H789.7Z" fill="#004c94"/><path d="M788.732,216.687h.648l0,.762h-.648Z" fill="#004c94"/><path d="M787.764,216.689h.648l0,.762h-.648Z" fill="#004c94"/><path d="M792.586,210.451h.648l0,.762h-.648Z" fill="#004c94"/><path d="M791.617,210.453h.648l0,.762h-.648Z" fill="#004c94"/><path d="M790.649,210.455h.648l0,.762h-.648Z" fill="#004c94"/><path d="M789.681,210.456h.648l0,.762h-.648Z" fill="#004c94"/><path d="M788.712,210.458h.648l0,.762h-.648Z" fill="#004c94"/><path d="M787.744,210.46h.648l0,.762h-.648Z" fill="#004c94"/><path d="M786.871,216.044l0-.493,1.017,0,0,.494Z" fill="#004c94"/><path d="M793.127,216.336l-.015-4.788h.241l.015,4.788Z" fill="#32803b"/><path d="M787.642,216.346l-.015-4.788h.241l.015,4.788Z" fill="#32803b"/><path d="M788.347,211.038l4.324-.008v.183l-4.324.008Z" fill="#32803b"/><path d="M788.365,216.687l4.324-.008v.183l-4.324.008Z" fill="#32803b"/><path d="M786.873,216.781l0-.494,1.017,0,0,.494Z" fill="#004c94"/><path d="M793.128,216.679l-.017-5.467-5.238.01.017,5.466Z" fill="#11100f"/><path d="M787.645,216.935l-.019-5.958,5.729-.011.019,5.958Zm.473-5.468.016,4.976,4.747-.009-.015-4.975Z" fill="#e3f0e5"/><path d="M786.74,211.52v-.3l1.133,0v.3Z" fill="#004c94"/><path d="M786.742,212.258v-.3l1.133,0v.3Z" fill="#004c94"/><path d="M786.745,213v-.3l1.133,0v.3Z" fill="#004c94"/><path d="M786.747,213.736v-.3l1.133,0v.3Z" fill="#004c94"/><path d="M786.749,214.474v-.3l1.133,0v.3Z" fill="#004c94"/><path d="M786.752,215.213v-.3l1.133,0v.3Z" fill="#004c94"/><path d="M786.754,215.952v-.3l1.133,0v.3Z" fill="#004c94"/><path d="M786.756,216.691v-.3l1.133,0v.3Z" fill="#004c94"/><path d="M787.594,211.518v-.3h.279v.3Z" fill="#004c94"/><rect width="0.279" height="0.295" transform="matrix(1, -0.003, 0.003, 1, 787.595, 211.962)" fill="#004c94"/><path d="M787.6,213v-.3h.279v.3Z" fill="#004c94"/><path d="M787.6,213.734v-.3h.279v.3Z" fill="#004c94"/><path d="M787.6,214.473v-.3h.279v.3Z" fill="#004c94"/><path d="M787.605,215.212v-.3h.279v.3Z" fill="#004c94"/><path d="M787.608,215.95v-.3h.279v.3Z" fill="#004c94"/><path d="M787.61,216.689v-.3h.279v.3Z" fill="#004c94"/><path d="M793.112,211.608l0-.494,1,0,0,.494Z" fill="#004c94"/><path d="M793.114,212.346l0-.493,1,0,0,.493Z" fill="#004c94"/><path d="M793.116,213.083l0-.493,1,0,0,.494Z" fill="#004c94"/><path d="M793.119,213.82l0-.493,1,0,0,.493Z" fill="#004c94"/><path d="M793.121,214.558l0-.493,1,0,0,.493Z" fill="#004c94"/><path d="M793.123,215.3l0-.493,1,0,0,.493Z" fill="#004c94"/><path d="M793.126,216.032l0-.493,1,0,0,.494Z" fill="#004c94"/><path d="M793.128,216.77l0-.493,1,0,0,.494Z" fill="#004c94"/><path d="M794.244,211.506v-.3l-1.133,0v.3Z" fill="#004c94"/><path d="M794.247,212.244v-.3l-1.133,0v.3Z" fill="#004c94"/><path d="M794.249,212.983v-.3l-1.133,0v.3Z" fill="#004c94"/><path d="M794.252,213.722v-.3l-1.133,0v.3Z" fill="#004c94"/><path d="M794.254,214.461v-.3l-1.133,0v.3Z" fill="#004c94"/><path d="M794.256,215.2v-.3l-1.133,0v.3Z" fill="#004c94"/><path d="M794.258,215.938v-.3l-1.133,0v.3Z" fill="#004c94"/><path d="M794.261,216.677v-.3l-1.133,0v.3Z" fill="#004c94"/><path d="M793.391,211.507v-.3h-.279v.3Z" fill="#004c94"/><rect width="0.279" height="0.295" transform="translate(793.113 211.951) rotate(-0.183)" fill="#004c94"/><path d="M793.4,212.985v-.3h-.279v.3Z" fill="#004c94"/><rect width="0.279" height="0.295" transform="matrix(1, -0.003, 0.003, 1, 793.117, 213.429)" fill="#004c94"/><path d="M793.4,214.462v-.3h-.279v.3Z" fill="#004c94"/><path d="M793.4,215.2v-.3h-.279v.3Z" fill="#004c94"/><rect width="0.279" height="0.295" transform="matrix(1, -0.003, 0.003, 1, 793.125, 215.645)" fill="#004c94"/><path d="M793.407,216.679v-.3h-.279v.3Z" fill="#004c94"/><path d="M788.257,210.359h-.388l0,.863h.388Z" fill="#004c94"/><path d="M789.227,210.357h-.388l0,.863h.388Z" fill="#004c94"/><path d="M790.2,210.355h-.388l0,.863h.388Z" fill="#004c94"/><path d="M791.167,210.353h-.388l0,.863h.388Z" fill="#004c94"/><path d="M792.138,210.351h-.388l0,.863h.388Z" fill="#004c94"/><path d="M793.108,210.35h-.388l0,.863h.388Z" fill="#004c94"/><rect width="0.388" height="0.213" transform="translate(787.872 211.009) rotate(-0.114)" fill="#004c94"/><path d="M789.229,211.007h-.388v.213h.388Z" fill="#004c94"/><path d="M790.2,211.005h-.388v.213h.388Z" fill="#004c94"/><path d="M791.169,211h-.388v.213h.388Z" fill="#004c94"/><rect width="0.388" height="0.213" transform="matrix(1, -0.002, 0.002, 1, 791.752, 211.002)" fill="#004c94"/><path d="M793.11,211h-.388v.213h.388Z" fill="#004c94"/><path d="M788.28,217.551h-.388l0-.863h.388Z" fill="#004c94"/><path d="M789.25,217.549h-.388l0-.863h.388Z" fill="#004c94"/><path d="M790.22,217.547h-.388l0-.863h.388Z" fill="#004c94"/><path d="M791.19,217.545H790.8l0-.863h.388Z" fill="#004c94"/><path d="M792.16,217.544h-.388l0-.863h.388Z" fill="#004c94"/><path d="M793.13,217.542h-.388l0-.863h.388Z" fill="#004c94"/><path d="M788.278,216.9h-.388v-.213h.388Z" fill="#004c94"/><path d="M789.248,216.9h-.388v-.213h.388Z" fill="#004c94"/><path d="M790.218,216.9h-.388v-.213h.388Z" fill="#004c94"/><path d="M791.188,216.9H790.8v-.213h.388Z" fill="#004c94"/><path d="M792.158,216.894h-.388v-.213h.388Z" fill="#004c94"/><path d="M793.128,216.892h-.388v-.213h.388Z" fill="#004c94"/></g></svg>