<svg xmlns="http://www.w3.org/2000/svg" width="157.096" height="311.234" viewBox="0 0 157.096 311.234"><g transform="translate(-1354.037 -501.5)"><rect width="8.538" height="21.739" transform="translate(1354.037 564.356)" fill="#767173"/><rect width="8.538" height="23.346" transform="translate(1502.595 564.325)" fill="#767173"/><rect width="8.538" height="15.885" transform="translate(1502.215 537.037)" fill="#767173"/><rect width="8.538" height="23.346" transform="translate(1502.595 592.72)" fill="#767173"/><rect width="147.218" height="306.234" rx="14.83" transform="translate(1359.001 504)" fill="#271f27" stroke="#0e0b0c" stroke-miterlimit="10" stroke-width="5"/><path d="M1093.11,11431.367a11.743,11.743,0,0,1,1.822-6.927,8.478,8.478,0,0,1,10.26-3.49c.469.157.94.314,1.4.5a5.277,5.277,0,0,0,4.023-.011,13.049,13.049,0,0,1,5.05-1.116,8.428,8.428,0,0,1,6.325,2.946c.339.382.366.606-.067.963a8.8,8.8,0,0,0-3.285,4.925,7.43,7.43,0,0,0,3.984,8.593c.615.319.678.58.407,1.184a26.04,26.04,0,0,1-3.757,6.479,10.086,10.086,0,0,1-1.235,1.214,4.589,4.589,0,0,1-4.936.8,9.482,9.482,0,0,0-4.021-1.1,8.881,8.881,0,0,0-3.446.724c-2.986,1.406-4.8.908-7.1-1.637a22.281,22.281,0,0,1-5.424-14.051Z" transform="translate(323.933 -10847.979)"/><path d="M1115.319,11412.967a8.257,8.257,0,0,1-5.531,7.553c-.185.055-.372.1-.561.143-1.137.228-1.286.094-1.182-1.053a7.966,7.966,0,0,1,6.529-7.237C1115.223,11412.257,1115.447,11412.394,1115.319,11412.967Z" transform="translate(323.933 -10847.979)"/><circle cx="10.984" cy="10.984" r="10.984" transform="translate(1367.167 508.518)" fill="#8c8688"/><path d="M1180.747,11378.761l-4.368-1.588c1.986-22.041-21.246-20.85-21.246-20.85h-90.148c-30.579-.794-25.218,20.254-25.218,20.254l-2.53,1.855-.448.328v-8.091a17.524,17.524,0,0,1,17.524-17.524h108.911a17.52,17.52,0,0,1,17.523,17.523Z" transform="translate(323.933 -10847.979)" fill="#524a52"/><circle cx="10.381" cy="10.381" r="10.381" transform="translate(1368.712 509.918)" fill="#221b22"/><circle cx="8.64" cy="8.64" r="8.64" transform="translate(1370.454 511.66)" fill="#494149"/><circle cx="7.089" cy="7.089" r="7.089" transform="translate(1372.099 513.438)" fill="#090708"/><circle cx="2.098" cy="2.098" r="2.098" transform="translate(1394.468 518.43)" fill="#090708"/><path d="M1180.221,11638.948c-.019-.644-.059-1.264-.11-1.84a34.268,34.268,0,0,0-5.693,7.083,14.51,14.51,0,0,1-5.233,5.1,27.844,27.844,0,0,1-14.144,3.52h-90.147c-7.548.194-21.878-.732-23.492-10.388a3.186,3.186,0,0,0-.365-1.258,2.641,2.641,0,0,0-.567-.571l-3.714-3.056c-1.249,4.278,1.992,10.205,4.88,13.147a17.721,17.721,0,0,0,12.585,5.263h108.912a17.709,17.709,0,0,0,12.484-5.159,17.328,17.328,0,0,0,3.8-5.743,15.817,15.817,0,0,0,.8-6.1Z" transform="translate(323.933 -10847.979)" fill="#524a52"/></g></svg>