<svg xmlns="http://www.w3.org/2000/svg" width="109.124" height="253.484" viewBox="0 0 109.124 253.484"><g transform="translate(-634.5 -560.327)"><rect width="0.989" height="0.989" transform="translate(722.666 560.327)" fill="#fff"/><path d="M365,11413.94l-26.662,1.275c-19.007,1.786-20.575,15.65-22.749,31.126l-2.362,40.254q-.2,3.46-.15,6.924l.966,63.755q.015.986.091,1.972l4.516,58.207,2.041,21.262c1.459,15.846,6.8,18.2,20.751,20.07l23.558.506" transform="translate(323.933 -10847.979)" fill="#271e3c" stroke="#0b080f" stroke-miterlimit="10" stroke-width="5"/><path d="M365.257,11659.291l23.557-.506c13.948-1.871,19.292-4.225,20.751-20.07l2.041-21.262,4.516-58.207q.076-.984.092-1.972l.966-63.755q.053-3.463-.15-6.924l-2.362-40.254c-2.175-15.476-3.742-29.34-22.75-31.126l-26.661-1.275" transform="translate(323.933 -10847.979)" fill="#271e3c" stroke="#0b080f" stroke-miterlimit="10" stroke-width="5"/><path d="M411.04,11463.04c-8.907-41.037,2.292-46.777-45.781-46.722v0c-48.073-.056-36.874,5.685-45.781,46.722-4.57,38.329-6.206,106.847,45.529,110.276a2.444,2.444,0,0,1,.507,0C417.246,11569.887,415.61,11501.368,411.04,11463.04Z" transform="translate(323.933 -10847.979)" fill="#e8e5e6"/><path d="M406.307,11471.576c-3.647-31.925-.094-58.171-41.3-52.249-40.287-4.48-37.334,14.927-40.877,52.285,1.924,18.946-7.105,65.172,16.856,73.893.994-4.4,47.145-4.361,48.042,0C413.23,11533.836,405.185,11494.006,406.307,11471.576Z" transform="translate(323.933 -10847.979)" fill="#282036"/><line y1="0.025" x2="0.403" transform="translate(688.861 630)" fill="#6e9869"/><line x2="0.403" y2="0.034" transform="translate(688.861 684.056)" fill="#6e9869"/><path d="M394.737,11529.531l-4.348.366c-9.953.835-20,2.266-29.98,1.662-8.432-.51-16.864-1.32-25.291-2.028a4.745,4.745,0,0,1-4.348-4.6l-1.115-40.153a4.748,4.748,0,0,1,4.453-4.872l22.2-1.369c10.179-.629,20.284.187,30.438.813l9.007.557a4.746,4.746,0,0,1,4.453,4.87l-1.115,40.154a4.747,4.747,0,0,1-4.354,4.6Z" transform="translate(323.933 -10847.979)" fill="#6e9869"/><line x2="0.403" y2="0.025" transform="translate(688.458 630)" fill="#6e9869"/><line x1="0.403" y2="0.034" transform="translate(688.458 684.056)" fill="#6e9869"/><rect width="35.719" height="5.575" transform="translate(670.767 613.619)"/><path d="M351.92,11463.574v2.984c0,.182-.071.269-.257.267q-.48-.007-.96,0c-.19,0-.251-.094-.251-.272v-4.04c0-.217.093-.289.3-.288q.973.01,1.947,0a.488.488,0,0,1,.416.215c.738.923,1.484,1.84,2.229,2.757.058.071.1.164.208.191a.518.518,0,0,0,.035-.311c0-.833.008-1.666,0-2.5,0-.266.1-.368.36-.354s.543.01.814,0c.2,0,.3.068.3.287q-.009,2.021,0,4.041c0,.2-.089.273-.28.272h-1.918c-.234,0-.341-.159-.462-.308q-1.139-1.4-2.274-2.8a.308.308,0,0,0-.207-.143Z" transform="translate(323.933 -10847.979)" fill="#fff"/><path d="M360.639,11466.841h-1.8a1.218,1.218,0,0,1-1.277-1.223q-.029-1.09,0-2.179a1.221,1.221,0,0,1,1.279-1.226q1.815,0,3.63,0a1.2,1.2,0,0,1,1.266,1.255q.009,1.059,0,2.119a1.2,1.2,0,0,1-1.238,1.252C361.878,11466.847,361.258,11466.841,360.639,11466.841Zm0-1.187c.474,0,.949-.006,1.424,0,.215,0,.32-.056.315-.294-.012-.562-.011-1.124,0-1.686,0-.221-.09-.283-.3-.281-.969.006-1.938.008-2.907,0-.211,0-.266.084-.264.276.006.571.007,1.144,0,1.715,0,.2.079.274.276.271.491-.007.975,0,1.46,0Z" transform="translate(323.933 -10847.979)" fill="#fff"/><path d="M376.013,11462.227c.621-.2.973.176,1.289.8.594,1.163,1.273,2.283,1.915,3.423.2.351.181.377-.221.379-.339,0-.679-.009-1.018,0a.382.382,0,0,1-.429-.264.761.761,0,0,0-.9-.552c-.617.048-1.24.022-1.86.009-.232,0-.393.046-.458.292a2.62,2.62,0,0,1-.133.288.319.319,0,0,1-.335.223H372.7c-.2,0-.271-.058-.158-.259q1.168-2.079,2.326-4.16a.314.314,0,0,1,.306-.18C375.413,11462.229,375.656,11462.227,376.013,11462.227Zm-.1,2.736h.61c.166,0,.214-.063.128-.213q-.336-.577-.671-1.155c-.058-.1-.121-.129-.187-.011q-.322.584-.641,1.172c-.073.133-.025.2.122.2.211.009.426.007.637.007Z" transform="translate(323.933 -10847.979)" fill="#fff"/><path d="M370.081,11462.292a4.257,4.257,0,0,1-.655.576q-.816.678-1.646,1.339c-.189.15-.182.237.009.39.818.653,1.623,1.322,2.431,1.987.057.048.163.086.139.168-.029.106-.146.07-.228.071h-1.512a.682.682,0,0,1-.486-.219q-1.055-.959-2.12-1.9c-.06-.053-.117-.169-.211-.116s-.041.159-.041.243c0,.543-.012,1.086,0,1.629.008.28-.1.382-.376.366s-.581-.008-.872,0c-.191,0-.283-.067-.282-.272q.008-2.02,0-4.042c0-.22.1-.29.3-.285.3.007.6.01.9,0,.236-.009.332.086.328.324-.009.494,0,.989,0,1.483,0,.07-.038.173.057.2.07.021.114-.061.164-.1.669-.574,1.341-1.145,2-1.726a.661.661,0,0,1,.47-.185c.445.01.891,0,1.337,0a.368.368,0,0,1,.294.066Z" transform="translate(323.933 -10847.979)" fill="#fff"/><path d="M372.173,11464.535c0,.657-.008,1.314,0,1.973.005.243-.089.328-.323.319-.3-.011-.6-.006-.9,0-.18,0-.262-.074-.262-.26v-4.063c0-.2.086-.278.279-.275.3.007.6.01.9,0,.223-.007.31.08.306.308C372.167,11463.2,372.173,11463.867,372.173,11464.535Z" transform="translate(323.933 -10847.979)" fill="#fff"/><path d="M345.533,11583.722c0,1.722-1.413,2.421-2.919,2.648a24.333,24.333,0,0,1-8.834-.12,12.6,12.6,0,0,1-7.058-4.52c-1.71-2.015-1.234-5.823,1.334-7.066,1.666-.806,5.433-.821,7.526,0C341.768,11577.09,345.533,11580.2,345.533,11583.722Z" transform="translate(323.933 -10847.979)" fill="#c3b9b4" stroke="#000" stroke-miterlimit="10" stroke-width="3"/><path d="M345.533,11600.391c0,1.722-1.413,2.421-2.919,2.648a24.333,24.333,0,0,1-8.834-.12,12.609,12.609,0,0,1-7.058-4.521c-1.71-2.014-1.234-5.822,1.334-7.065,1.666-.806,5.433-.821,7.526,0C341.768,11593.759,345.533,11596.868,345.533,11600.391Z" transform="translate(323.933 -10847.979)" fill="#c3b9b4" stroke="#000" stroke-miterlimit="10" stroke-width="3"/><path d="M348.084,11618.59c0,1.721-1.413,2.421-2.919,2.648a24.268,24.268,0,0,1-8.834-.12,12.6,12.6,0,0,1-7.058-4.52c-1.709-2.014-1.233-5.822,1.334-7.065,1.667-.808,5.433-.821,7.527,0C344.319,11611.959,348.084,11615.068,348.084,11618.59Z" transform="translate(323.933 -10847.979)" fill="#c3b9b4" stroke="#000" stroke-miterlimit="10" stroke-width="3"/><path d="M348.084,11635.259c0,1.722-1.413,2.421-2.919,2.648a24.268,24.268,0,0,1-8.834-.12,12.609,12.609,0,0,1-7.058-4.521c-1.709-2.013-1.233-5.821,1.334-7.064,1.667-.808,5.433-.821,7.527,0C344.319,11628.628,348.084,11631.736,348.084,11635.259Z" transform="translate(323.933 -10847.979)" fill="#c3b9b4" stroke="#000" stroke-miterlimit="10" stroke-width="3"/><path d="M385.261,11583.371c0,1.721,1.42,2.421,2.933,2.647a24.557,24.557,0,0,0,8.875-.119,12.673,12.673,0,0,0,7.091-4.521c1.717-2.014,1.239-5.823-1.34-7.065-1.675-.807-5.459-.821-7.562,0C389.044,11576.739,385.261,11579.848,385.261,11583.371Z" transform="translate(323.933 -10847.979)" fill="#c3b9b4" stroke="#000" stroke-miterlimit="10" stroke-width="3"/><path d="M385.261,11600.039c0,1.721,1.42,2.422,2.933,2.649a24.536,24.536,0,0,0,8.875-.12,12.659,12.659,0,0,0,7.091-4.521c1.717-2.013,1.239-5.822-1.34-7.064-1.675-.807-5.459-.821-7.562,0C389.044,11593.408,385.261,11596.517,385.261,11600.039Z" transform="translate(323.933 -10847.979)" fill="#c3b9b4" stroke="#000" stroke-miterlimit="10" stroke-width="3"/><path d="M382.7,11618.239c0,1.721,1.419,2.421,2.932,2.647a24.519,24.519,0,0,0,8.876-.12,12.658,12.658,0,0,0,7.091-4.52c1.717-2.013,1.239-5.822-1.341-7.065-1.674-.807-5.458-.82-7.561,0C386.48,11611.608,382.7,11614.716,382.7,11618.239Z" transform="translate(323.933 -10847.979)" fill="#c3b9b4" stroke="#000" stroke-miterlimit="10" stroke-width="3"/><path d="M382.7,11634.908c0,1.721,1.419,2.421,2.932,2.647a24.519,24.519,0,0,0,8.876-.119,12.659,12.659,0,0,0,7.091-4.521c1.717-2.012,1.239-5.822-1.341-7.064-1.674-.807-5.458-.821-7.561,0C386.48,11628.277,382.7,11631.385,382.7,11634.908Z" transform="translate(323.933 -10847.979)" fill="#c3b9b4" stroke="#000" stroke-miterlimit="10" stroke-width="3"/><path d="M376.368,11583.934c0,2.632-4.11,6.428-10.169,6.428s-11.773-3.8-11.773-6.428,4.912-4.762,10.971-4.762S376.368,11581.3,376.368,11583.934Z" transform="translate(323.933 -10847.979)" fill="#c3b9b4" stroke="#000" stroke-miterlimit="10" stroke-width="3"/><path d="M376.368,11601.454c0,2.63-4.11,6.426-10.169,6.426s-11.773-3.8-11.773-6.426,4.912-4.763,10.971-4.763S376.368,11598.823,376.368,11601.454Z" transform="translate(323.933 -10847.979)" fill="#c3b9b4" stroke="#000" stroke-miterlimit="10" stroke-width="3"/><path d="M376.368,11617.782c0,2.631-4.11,6.427-10.169,6.427s-11.773-3.8-11.773-6.427,4.912-4.763,10.971-4.763S376.368,11615.152,376.368,11617.782Z" transform="translate(323.933 -10847.979)" fill="#c3b9b4" stroke="#000" stroke-miterlimit="10" stroke-width="3"/><path d="M376.368,11635.3c0,2.63-4.11,6.426-10.169,6.426s-11.773-3.8-11.773-6.426,4.912-4.763,10.971-4.763S376.368,11632.671,376.368,11635.3Z" transform="translate(323.933 -10847.979)" fill="#c3b9b4" stroke="#000" stroke-miterlimit="10" stroke-width="3"/><path d="M338.638,11564.926a2.088,2.088,0,0,0,1.822.627,2.191,2.191,0,0,0,1.009-.9l5.354-7.352a2.018,2.018,0,0,0,.431-.849c.132-.867-.818-1.464-1.614-1.834a53.316,53.316,0,0,1-9.393-5.619c-1.309-.979-2.568-2.409-4.328-1.979a8.434,8.434,0,0,0-3.9,3.091c-2.157,3.271,1.383,5.006,3.438,7.058C333.953,11559.658,335.872,11562.7,338.638,11564.926Z" transform="translate(323.933 -10847.979)" fill="#c3b9b4"/><path d="M373.917,11571.081a2.173,2.173,0,0,0,.621,1.382c1.17.922,4.048-.5,5.168-.959a34.061,34.061,0,0,0,7.094-4.467c2.045-1.5,4.182-2.493,6.131-4.248a96,96,0,0,0,9.322-9.664,1.144,1.144,0,0,0,.356-.739,1.129,1.129,0,0,0-.387-.677,29.093,29.093,0,0,0-4.321-3.723,3.435,3.435,0,0,0-2.761-.857,4,4,0,0,0-1.772,1.466c-4,4.7-10.385,7.508-16.377,8.517-2.07.348-4.361.223-4.735,2.719C371.76,11563.147,373.319,11567.8,373.917,11571.081Z" transform="translate(323.933 -10847.979)" fill="#c3b9b4"/><path d="M344.676,11544.484s20.241-6.974,41.162,0C385.838,11544.484,363.9,11565.576,344.676,11544.484Z" transform="translate(323.933 -10847.979)" fill="#c3b9b4"/><path d="M356.873,11546.939s8.767,3.118,17.141.118" transform="translate(323.933 -10847.979)" fill="none" stroke="#528891" stroke-miterlimit="10" stroke-width="7"/><path d="M338.9,11553.621a2.843,2.843,0,1,0,.787,5.565" transform="translate(323.933 -10847.979)" fill="none" stroke="#000" stroke-miterlimit="10" stroke-width="7"/><path d="M378.148,11562.156a6.327,6.327,0,0,0-.477,2.858.843.843,0,0,0,.2.571.914.914,0,0,0,.645.165l2.484-.008" transform="translate(323.933 -10847.979)" fill="none" stroke="#000" stroke-miterlimit="10" stroke-width="7"/><path d="M393.765,11551.886a2.523,2.523,0,0,1,2.785.171,1.96,1.96,0,0,1,.317,2.651" transform="translate(323.933 -10847.979)" fill="none" stroke="#000" stroke-miterlimit="10" stroke-width="7"/></g></svg>