<svg xmlns="http://www.w3.org/2000/svg" width="150.642" height="276.523" viewBox="0 0 150.642 276.523"><g transform="translate(-961.499 -530.133)"><rect width="4.595" height="20.531" transform="translate(1107.546 584.097)" fill="#767173"/><rect width="4.595" height="13.969" transform="translate(1107.342 560.1)" fill="#767173"/><rect width="4.595" height="20.531" transform="translate(1107.546 609.067)" fill="#767173"/><rect width="144.752" height="271.523" rx="21.993" transform="translate(963.999 532.633)" fill="#0c090b" stroke="#0e0b0c" stroke-miterlimit="10" stroke-width="5"/><path d="M696.764,11449a12.353,12.353,0,0,1,1.916-7.286,8.915,8.915,0,0,1,10.79-3.67c.494.166.989.332,1.472.526a5.55,5.55,0,0,0,4.231-.014,13.737,13.737,0,0,1,5.311-1.173,8.852,8.852,0,0,1,6.654,3.1c.356.4.384.638-.072,1.012a9.271,9.271,0,0,0-3.454,5.181,7.814,7.814,0,0,0,4.191,9.036c.646.336.712.61.427,1.246a27.352,27.352,0,0,1-3.952,6.813,10.556,10.556,0,0,1-1.3,1.276,4.825,4.825,0,0,1-5.191.847,9.983,9.983,0,0,0-4.23-1.154,9.345,9.345,0,0,0-3.624.759c-3.14,1.478-5.052.954-7.469-1.722a23.438,23.438,0,0,1-5.7-14.776Z" transform="translate(323.933 -10847.979)" fill="#a8b0b8"/><path d="M720.121,11429.643a8.683,8.683,0,0,1-5.817,7.945c-.194.057-.391.109-.589.148-1.2.24-1.353.1-1.243-1.107a8.378,8.378,0,0,1,6.866-7.613C720.02,11428.9,720.256,11429.042,720.121,11429.643Z" transform="translate(323.933 -10847.979)" fill="#a8b0b8"/><circle cx="5.984" cy="5.984" r="5.984" transform="translate(982.349 548.359)" fill="#221b22"/><circle cx="4.98" cy="4.98" r="4.98" transform="translate(983.353 549.363)" fill="#fff"/><circle cx="4.086" cy="4.086" r="4.086" transform="translate(984.302 550.388)" fill="#090708"/></g></svg>