<svg xmlns="http://www.w3.org/2000/svg" width="159.962" height="311.234" viewBox="0 0 159.962 311.234"><g transform="translate(-1157.803 -501.5)"><rect width="8.957" height="21.739" transform="translate(1157.803 564.356)" fill="#8a8280"/><rect width="8.957" height="23.346" transform="translate(1308.808 564.325)" fill="#8a8280"/><rect width="8.957" height="15.885" transform="translate(1308.409 537.037)" fill="#8a8280"/><rect width="8.957" height="23.346" transform="translate(1308.808 592.72)" fill="#8a8280"/><rect width="147.218" height="306.234" rx="13.826" transform="translate(1164.172 504)" fill="#a29c97" stroke="#493f44" stroke-miterlimit="10" stroke-width="5"/><path d="M898.281,11431.367a11.746,11.746,0,0,1,1.821-6.927,8.478,8.478,0,0,1,10.26-3.49c.47.157.94.314,1.4.5a5.287,5.287,0,0,0,4.024-.013,13.015,13.015,0,0,1,5.05-1.115,8.426,8.426,0,0,1,6.325,2.948c.338.381.366.605-.068.962a8.81,8.81,0,0,0-3.285,4.925,7.429,7.429,0,0,0,3.985,8.593c.615.319.677.58.406,1.184a26,26,0,0,1-3.757,6.479,10.169,10.169,0,0,1-1.234,1.214,4.589,4.589,0,0,1-4.936.8,9.487,9.487,0,0,0-4.022-1.1,8.881,8.881,0,0,0-3.446.721c-2.985,1.407-4.8.909-7.1-1.636a22.286,22.286,0,0,1-5.423-14.051Z" transform="translate(323.933 -10847.979)" fill="#fff"/><path d="M920.489,11412.967a8.255,8.255,0,0,1-5.53,7.553c-.185.055-.372.1-.561.143-1.138.228-1.287.094-1.182-1.053a7.967,7.967,0,0,1,6.529-7.237C920.393,11412.257,920.618,11412.394,920.489,11412.967Z" transform="translate(323.933 -10847.979)" fill="#fff"/><path d="M985.918,11378.761l-4.369-1.588c1.986-22.041-21.246-20.85-21.246-20.85H870.155c-30.578-.794-25.217,20.254-25.217,20.254l-2.531,1.855-.448.328v-8.091a17.524,17.524,0,0,1,17.524-17.524H968.4a17.523,17.523,0,0,1,17.523,17.522Z" transform="translate(323.933 -10847.979)" fill="#797070"/><path d="M985.392,11638.948c-.019-.644-.059-1.264-.11-1.84a34.23,34.23,0,0,0-5.693,7.082,14.508,14.508,0,0,1-5.234,5.1,27.851,27.851,0,0,1-14.143,3.519H870.064c-7.547.194-21.878-.732-23.492-10.388a3.161,3.161,0,0,0-.364-1.259,2.7,2.7,0,0,0-.568-.571l-3.713-3.055c-1.25,4.278,1.991,10.205,4.879,13.147a17.719,17.719,0,0,0,12.586,5.263H968.3a17.717,17.717,0,0,0,12.483-5.159,17.365,17.365,0,0,0,3.8-5.743,15.838,15.838,0,0,0,.809-6.1Z" transform="translate(323.933 -10847.979)" fill="#797070"/><circle cx="7.876" cy="7.876" r="7.876" transform="translate(1177.637 511.347)" fill="#eff6ef"/><circle cx="6.555" cy="6.555" r="6.555" transform="translate(1178.959 512.668)" fill="#050405"/><circle cx="5.379" cy="5.379" r="5.379" transform="translate(1180.135 513.845)" fill="#10132a"/><circle cx="2.178" cy="2.178" r="2.178" transform="translate(1197.457 517.045)" fill="#090708"/><circle cx="4.154" cy="4.154" r="4.154" transform="translate(1206.525 515.651)" fill="none" stroke="#55262c" stroke-miterlimit="10" stroke-width="1"/><rect width="5.13" height="265.591" transform="translate(1165.694 527.1)" fill="#dcd9d4"/><rect width="5.13" height="265.591" transform="translate(1303.662 527.1)" fill="#dcd9d4"/><rect width="143.644" height="4.044" transform="translate(1165.694 528.427)" fill="#797070"/><rect width="143.644" height="4.044" transform="translate(1165.694 788.646)" fill="#797070"/></g></svg>