<svg width="241" height="477" viewBox="0 0 241 477" fill="none" xmlns="http://www.w3.org/2000/svg">
<path d="M227.909 129.654H241V96.331H227.909V129.654Z" fill="#868A8C"/>
<path d="M-5.72205e-06 132.074H13.091L13.091 96.2941H-5.72205e-06L-5.72205e-06 132.074Z" fill="#868A8C"/>
<path d="M0.591679 78.8198H13.6827L13.6827 54.4739H0.591679L0.591679 78.8198Z" fill="#868A8C"/>
<path d="M-5.72205e-06 175.576H13.091L13.091 139.796H-5.72205e-06L-5.72205e-06 175.576Z" fill="#868A8C"/>
<path d="M30.2868 473.176H210.639C223.2 473.176 233.382 463.004 233.382 450.456L233.382 26.5626C233.382 14.0145 223.2 3.84219 210.639 3.84219H30.2868C17.7263 3.84219 7.54396 14.0145 7.54396 26.5626L7.54396 450.456C7.54396 463.004 17.7263 473.176 30.2868 473.176Z" fill="#3C3E42" stroke="#181919" stroke-width="4.15" stroke-miterlimit="10"/>
<path d="M120.463 457.401C129.255 457.401 136.383 450.281 136.383 441.497C136.383 432.713 129.255 425.593 120.463 425.593C111.671 425.593 104.543 432.713 104.543 441.497C104.543 450.281 111.671 457.401 120.463 457.401Z" fill="#36383C"/>
<path d="M120.463 454.741C127.785 454.741 133.72 448.811 133.72 441.497C133.72 434.182 127.785 428.252 120.463 428.252C113.141 428.252 107.206 434.182 107.206 441.497C107.206 448.811 113.141 454.741 120.463 454.741Z" fill="#5E6264"/>
<path d="M72.6846 27.0615C74.4615 27.0615 75.9019 25.6225 75.9019 23.8474C75.9019 22.0723 74.4615 20.6333 72.6846 20.6333C70.9078 20.6333 69.4673 22.0723 69.4673 23.8474C69.4673 25.6225 70.9078 27.0615 72.6846 27.0615Z" fill="#0E0F0F"/>
<path d="M158.46 21.0581H82.4474C80.936 21.0581 79.7108 22.2821 79.7108 23.7919V23.8104C79.7108 25.3203 80.936 26.5443 82.4474 26.5443H158.46C159.972 26.5443 161.197 25.3203 161.197 23.8104V23.7919C161.197 22.2821 159.972 21.0581 158.46 21.0581Z" fill="#0E0F0F"/>
<path d="M221.752 42.4482H19.2482V413.937H221.752V42.4482Z" fill="#0E0F0F"/>
</svg>
