<svg xmlns="http://www.w3.org/2000/svg" width="120.547" height="245.929" viewBox="0 0 120.547 245.929"><g transform="translate(-763.002 -565.552)"><path d="M545.052,11575.819H453.287c-4.336,0-7.852,1.686-7.852,3.765v68.709c0,2.079,7.768,3.294,12.105,3.294l42.008,5.352q2.02.04,4.042,0l38.027-5.352c4.337,0,11.287-1.215,11.287-3.294v-68.709C552.9,11577.5,549.389,11575.819,545.052,11575.819Z" transform="translate(323.933 -10847.979)" fill="#271f27" stroke="#0e0b0c" stroke-miterlimit="10" stroke-width="5"/><path d="M545.052,11575.819H453.287a7.853,7.853,0,0,1-7.852-7.852v-143.307c0-4.336,7.768-6.87,12.105-6.87l39.987-1.717q2.02-.088,4.042,0l40.048,1.717c4.337,0,11.287,2.534,11.287,6.87v143.307a7.851,7.851,0,0,1-7.851,7.851Z" transform="translate(323.933 -10847.979)" fill="#271f27" stroke="#0e0b0c" stroke-miterlimit="10" stroke-width="5"/><path d="M539.776,11647.118c-29.23,6.525-51.648,6.43-80.867,0-10.135-3.268-17.34-7.76-17.34-17.337V11439.3a17.339,17.339,0,0,1,17.34-17.339h80.867a17.341,17.341,0,0,1,17.34,17.341v190.48C557.116,11639.355,549.776,11642.865,539.776,11647.118Z" transform="translate(323.933 -10847.979)" fill="#fbf6ed" stroke="#352b30" stroke-miterlimit="10" stroke-width="5"/><path d="M550.485,11550.941V11452.8a11.777,11.777,0,0,0-11.779-11.777H459.632a11.778,11.778,0,0,0-11.778,11.779v98.145a76.843,76.843,0,0,0,.4,12.419c.332,2.358.891,4.679,1.313,7.022a121.659,121.659,0,0,1,1.416,18.342v44.281a8.772,8.772,0,0,0,6.889,8.992c22.654,6.275,46.09,5.378,69.252,3.676a70.409,70.409,0,0,0,12.26-2.4,10.593,10.593,0,0,0,7.972-10.263v-44.281a121.651,121.651,0,0,1,1.416-18.342c.422-2.344.981-4.664,1.313-7.022a76.721,76.721,0,0,0,.4-12.427Z" transform="translate(323.933 -10847.979)" fill="#c0beb0" stroke="#6a6063" stroke-miterlimit="10" stroke-width="5"/><rect width="85.811" height="99.372" rx="27.767" transform="translate(780.126 614.142)" fill="#140504" stroke="#dfdac9" stroke-miterlimit="10" stroke-width="6"/><rect width="5.275" height="5.275" transform="translate(783.006 580.281)" fill="#140504"/><rect width="22.949" height="21.209" rx="10.604" transform="translate(842.885 580.757)" fill="#07040a"/><rect width="20.409" height="18.862" rx="9.431" transform="translate(844.155 581.931)" fill="#d7d4d0"/><rect width="11.171" height="10.265" rx="5.132" transform="translate(848.774 586.049)" fill="#433c44"/><circle cx="4.698" cy="4.698" r="4.698" transform="translate(849.661 586.482)" fill="#6a646d"/><circle cx="2.349" cy="2.349" r="2.349" transform="translate(852.141 588.768)"/><rect width="20.283" height="6.557" rx="3.279" transform="translate(813.196 586.8)" fill="#433c44"/><path d="M487.749,11586.764l-30.415-.783v-4.833a6.114,6.114,0,0,1,6.111-6.113l26.135-2.147Z" transform="translate(323.933 -10847.979)" fill="#dfdac9" stroke="#97908d" stroke-miterlimit="10" stroke-width="3"/><path d="M487.749,11586.764l-30.415.7v4.286c0,2.994,2.737,5.421,6.112,5.421l26.134,1.905Z" transform="translate(323.933 -10847.979)" fill="#dfdac9" stroke="#97908d" stroke-miterlimit="10" stroke-width="3"/><path d="M508.5,11586.6l31.786-.783v-4.832a6.255,6.255,0,0,0-6.387-6.113l-27.313-2.147Z" transform="translate(323.933 -10847.979)" fill="#dfdac9" stroke="#97908d" stroke-miterlimit="10" stroke-width="3"/><path d="M508.5,11586.6l31.786.7v4.286c0,2.994-2.86,5.421-6.387,5.421l-27.313,1.905Z" transform="translate(323.933 -10847.979)" fill="#dfdac9" stroke="#97908d" stroke-miterlimit="10" stroke-width="3"/><path d="M466.025,11618.824H456.7v-22.2l9.324,1.547Z" transform="translate(323.933 -10847.979)" fill="#dfdac9" stroke="#97908d" stroke-miterlimit="10" stroke-width="3"/><path d="M0,0H9.324V22.2h0A9.324,9.324,0,0,1,0,12.875Z" transform="translate(780.634 771.711)" fill="#dfdac9" stroke="#97908d" stroke-miterlimit="10" stroke-width="3"/><path d="M467.2,11620.482l20.552,2.084v9.82L467.2,11630.3Z" transform="translate(323.933 -10847.979)" fill="#dfdac9" stroke="#97908d" stroke-miterlimit="10" stroke-width="3"/><path d="M467.2,11630.987l20.552,2.085v9.819l-20.552-2.084Z" transform="translate(323.933 -10847.979)" fill="#dfdac9" stroke="#97908d" stroke-miterlimit="10" stroke-width="3"/><path d="M467.2,11598.572l20.552,2.084v9.82l-20.552-2.084Z" transform="translate(323.933 -10847.979)" fill="#dfdac9" stroke="#97908d" stroke-miterlimit="10" stroke-width="3"/><path d="M467.2,11609.077l20.552,2.085v9.82L467.2,11618.9Z" transform="translate(323.933 -10847.979)" fill="#dfdac9" stroke="#97908d" stroke-miterlimit="10" stroke-width="3"/><rect width="20.552" height="9.82" transform="translate(812.756 774.588)" fill="#dfdac9" stroke="#97908d" stroke-miterlimit="10" stroke-width="3"/><rect width="20.552" height="9.82" transform="translate(812.756 785.094)" fill="#dfdac9" stroke="#97908d" stroke-miterlimit="10" stroke-width="3"/><rect width="20.552" height="9.82" transform="translate(812.756 763.184)" fill="#dfdac9" stroke="#97908d" stroke-miterlimit="10" stroke-width="3"/><path d="M510.449,11632.387,531,11630.3v-9.819l-20.552,2.084" transform="translate(323.933 -10847.979)" fill="#dfdac9" stroke="#97908d" stroke-miterlimit="10" stroke-width="3"/><path d="M510.449,11642.892l20.552-2.084v-9.82l-20.552,2.085" transform="translate(323.933 -10847.979)" fill="#dfdac9" stroke="#97908d" stroke-miterlimit="10" stroke-width="3"/><path d="M510.449,11610.477l20.552-2.084v-9.82l-20.552,2.084" transform="translate(323.933 -10847.979)" fill="#dfdac9" stroke="#97908d" stroke-miterlimit="10" stroke-width="3"/><path d="M510.449,11620.982,531,11618.9v-9.82l-20.552,2.085" transform="translate(323.933 -10847.979)" fill="#dfdac9" stroke="#97908d" stroke-miterlimit="10" stroke-width="3"/><rect width="20.552" height="9.82" transform="translate(812.756 752.27)" fill="#dfdac9" stroke="#97908d" stroke-miterlimit="10" stroke-width="3"/><path d="M9.324,0h0V22.2H0V9.324A9.324,9.324,0,0,1,9.324,0Z" transform="translate(864.891 793.91) rotate(180)" fill="#dfdac9" stroke="#97908d" stroke-miterlimit="10" stroke-width="3"/><path d="M531.6,11618.824h9.677v-22.2l-9.677,1.547Z" transform="translate(323.933 -10847.979)" fill="#dfdac9" stroke="#97908d" stroke-miterlimit="10" stroke-width="3"/><path d="M490.038,11451.054v2.154c0,.132-.051.194-.185.192h-.693c-.137,0-.181-.068-.181-.2v-2.917c0-.157.067-.209.215-.207q.7.006,1.406,0a.354.354,0,0,1,.3.156q.8,1,1.609,1.988c.042.053.073.118.15.14a.369.369,0,0,0,.025-.226c0-.6.006-1.2,0-1.8,0-.191.07-.266.26-.255s.391.006.587,0c.147,0,.215.05.215.207q-.007,1.459,0,2.917c0,.147-.064.2-.2.2h-1.385c-.168,0-.246-.114-.333-.222q-.822-1.008-1.641-2.019a.217.217,0,0,0-.149-.11Z" transform="translate(323.933 -10847.979)" fill="#fff"/><path d="M496.332,11453.412h-1.3a.879.879,0,0,1-.922-.883c-.014-.525-.013-1.049,0-1.573a.881.881,0,0,1,.923-.885h2.621a.865.865,0,0,1,.913.9q.006.766,0,1.531a.865.865,0,0,1-.895.9C497.226,11453.416,496.779,11453.412,496.332,11453.412Zm0-.856h1.028c.156,0,.231-.04.228-.212-.009-.405-.008-.812,0-1.217,0-.16-.065-.205-.213-.2q-1.05.007-2.1,0c-.152,0-.192.062-.191.2.005.412.006.825,0,1.238,0,.146.057.2.2.194.351-.008.7,0,1.05,0Z" transform="translate(323.933 -10847.979)" fill="#fff"/><path d="M507.429,11450.082c.449-.149.7.126.931.574.429.84.919,1.648,1.382,2.471.143.253.131.272-.159.273-.245,0-.49-.007-.735,0a.275.275,0,0,1-.31-.192.55.55,0,0,0-.652-.4c-.445.033-.9.014-1.342.006-.168,0-.284.031-.331.21a1.842,1.842,0,0,1-.1.208.232.232,0,0,1-.242.163h-.839c-.143,0-.2-.042-.114-.187q.843-1.5,1.679-3a.226.226,0,0,1,.221-.13C507,11450.083,507.172,11450.082,507.429,11450.082Zm-.073,1.975h.44c.12,0,.155-.046.093-.153l-.484-.834c-.042-.072-.088-.094-.135-.007q-.234.42-.464.845c-.052.1-.017.146.089.147C507.049,11452.058,507.2,11452.057,507.356,11452.057Z" transform="translate(323.933 -10847.979)" fill="#fff"/><path d="M503.147,11450.128a3.077,3.077,0,0,1-.473.415q-.587.492-1.188.968c-.136.108-.131.171.007.281.591.472,1.171.955,1.755,1.435.041.034.117.062.1.121-.021.076-.1.052-.164.052h-1.092a.493.493,0,0,1-.351-.159q-.759-.69-1.53-1.372c-.043-.038-.085-.122-.152-.084s-.03.115-.03.176c0,.393-.009.784,0,1.175.005.2-.074.276-.272.266s-.42-.006-.629,0c-.138,0-.2-.05-.2-.2v-2.918c0-.159.069-.209.215-.206.217,0,.434.007.651,0,.17-.006.24.062.237.234-.006.356,0,.714,0,1.069,0,.052-.028.125.042.148.049.016.081-.044.117-.075.484-.414.968-.826,1.447-1.246a.47.47,0,0,1,.339-.131h.966a.267.267,0,0,1,.205.053Z" transform="translate(323.933 -10847.979)" fill="#fff"/><path d="M504.658,11451.747c0,.475-.006.95,0,1.425,0,.176-.065.237-.234.23-.216-.009-.433,0-.649,0-.13,0-.19-.054-.189-.188v-2.933c0-.146.063-.2.2-.2.216,0,.433.006.649,0,.161,0,.223.058.221.222C504.653,11450.784,504.658,11451.266,504.658,11451.747Z" transform="translate(323.933 -10847.979)" fill="#fff"/><rect width="30.916" height="29.444" rx="14.722" transform="translate(807.574 723.116)" fill="#07040a"/><rect width="27.494" height="26.184" rx="13.092" transform="translate(809.285 724.745)" fill="#d7d4d0"/><rect width="22.7" height="21.619" rx="10.809" transform="translate(811.682 727.028)" fill="#fff" stroke="#000" stroke-miterlimit="10" stroke-width="5"/><rect width="11.908" height="7.186" rx="3.593" transform="translate(817.078 734.244)" fill="#fff" stroke="#000" stroke-miterlimit="10" stroke-width="5"/></g></svg>