<svg width="279" height="434" viewBox="0 0 279 434" fill="none" xmlns="http://www.w3.org/2000/svg">
<path d="M138.2 2.99958C99.64 42.8896 60.79 83.0896 31.08 129.91C17.94 150.63 6.52001 173 2.15001 197.09C-4.84999 235.78 6.73001 275.09 15.29 313.44C23.14 348.65 26.38 385.35 18.06 420.61C17.5435 422.319 17.3403 424.108 17.46 425.89C20.1 446.46 114.16 420.12 126.85 414.04C138.49 408.48 149.24 401.22 160.7 395.29C173.07 388.89 186.29 384.02 197.99 376.44C212.11 367.31 223.5 354.58 236.78 344.26C247.253 336.124 258.837 329.53 271.18 324.68C273.85 323.63 276.88 322.35 277.81 319.63C278.48 317.63 277.81 315.51 277.16 313.55C263.117 271.904 245.136 231.692 223.46 193.46C211 171.51 197 149.84 177.41 134L232.56 77.1396C234.48 75.1396 236.56 72.7696 236.17 70.0396C235.87 67.8696 234.09 66.2396 232.42 64.8096L172.17 12.9396C166.09 7.70958 159.67 2.30958 151.86 0.499576C144.05 -1.31042 134.45 1.80958 131.71 9.35958" fill="#BDCBCB"/>
<path d="M157.218 148.683L111.41 182.604C110.309 183.419 110.078 184.972 110.893 186.073L144.814 231.881C145.629 232.982 147.182 233.213 148.283 232.398L194.091 198.477C195.192 197.662 195.423 196.109 194.608 195.009L160.687 149.201C159.872 148.1 158.319 147.868 157.218 148.683Z" fill="#EAEAE7"/>
<path d="M201.608 213.295L152.208 249.876C151.107 250.691 150.875 252.244 151.69 253.345L188.271 302.745C189.087 303.846 190.64 304.077 191.74 303.262L241.141 266.681C242.241 265.866 242.473 264.313 241.658 263.212L205.077 213.812C204.262 212.711 202.709 212.48 201.608 213.295Z" fill="#EAEAE7"/>
<path d="M105.012 91.4368L80.4042 109.659C79.3035 110.474 79.0719 112.027 79.887 113.128L116.456 162.512C117.271 163.613 118.824 163.844 119.925 163.029L144.533 144.807C145.633 143.992 145.865 142.439 145.05 141.338L108.481 91.954C107.666 90.8533 106.113 90.6218 105.012 91.4368Z" fill="#EAEAE7"/>
<path d="M143.049 23.2577L120.88 49.3522C119.994 50.396 120.121 51.9611 121.165 52.8479L183.451 105.764C184.495 106.651 186.06 106.524 186.947 105.48L209.116 79.3856C210.003 78.3418 209.875 76.7767 208.832 75.8899L146.545 22.9734C145.501 22.0866 143.936 22.2139 143.049 23.2577Z" fill="#EAEAE7"/>
<path d="M82.09 208.319H13.17V269.979H82.09V208.319Z" fill="#EAEAE7"/>
<path d="M101.04 303.909H32.12V372.829H101.04V303.909Z" fill="#EAEAE7"/>
<path d="M39.4436 239.3V244.09H37.8302V231.855H42.3427C43.6817 231.855 44.7293 232.196 45.4856 232.88C46.2475 233.563 46.6284 234.468 46.6284 235.594C46.6284 236.782 46.2559 237.698 45.5108 238.342C44.7713 238.981 43.7097 239.3 42.3259 239.3H39.4436ZM39.4436 237.981H42.3427C43.2055 237.981 43.8665 237.779 44.3259 237.376C44.7853 236.967 45.015 236.378 45.015 235.611C45.015 234.883 44.7853 234.3 44.3259 233.863C43.8665 233.426 43.2363 233.199 42.4352 233.182H39.4436V237.981ZM55.704 235.048C55.704 235.659 55.5416 236.202 55.2166 236.678C54.8973 237.154 54.4631 237.527 53.9141 237.796C54.5528 238.07 55.057 238.471 55.4267 238.997C55.8021 239.524 55.9897 240.121 55.9897 240.787C55.9897 241.846 55.6312 242.689 54.9141 243.317C54.2026 243.944 53.2643 244.258 52.099 244.258C50.9225 244.258 49.9786 243.944 49.2671 243.317C48.5612 242.684 48.2083 241.841 48.2083 240.787C48.2083 240.126 48.3875 239.53 48.7461 238.997C49.1102 238.465 49.6116 238.062 50.2503 237.787C49.7069 237.518 49.2783 237.146 48.9646 236.67C48.6508 236.194 48.494 235.653 48.494 235.048C48.494 234.017 48.8245 233.199 49.4856 232.594C50.1466 231.989 51.0178 231.687 52.099 231.687C53.1746 231.687 54.043 231.989 54.704 232.594C55.3707 233.199 55.704 234.017 55.704 235.048ZM54.4351 240.754C54.4351 240.07 54.2166 239.513 53.7797 239.081C53.3483 238.65 52.7825 238.434 52.0822 238.434C51.3819 238.434 50.8189 238.647 50.3931 239.073C49.973 239.499 49.7629 240.059 49.7629 240.754C49.7629 241.448 49.9674 241.995 50.3763 242.392C50.7909 242.79 51.3651 242.989 52.099 242.989C52.8273 242.989 53.3987 242.79 53.8133 242.392C54.2278 241.989 54.4351 241.443 54.4351 240.754ZM52.099 232.964C51.4884 232.964 50.9926 233.154 50.6116 233.535C50.2363 233.911 50.0486 234.423 50.0486 235.073C50.0486 235.695 50.2335 236.199 50.6032 236.586C50.9786 236.967 51.4772 237.157 52.099 237.157C52.7208 237.157 53.2166 236.967 53.5864 236.586C53.9617 236.199 54.1494 235.695 54.1494 235.073C54.1494 234.451 53.9561 233.944 53.5696 233.552C53.183 233.16 52.6928 232.964 52.099 232.964Z" fill="#2666A7"/>
<path d="M58.8736 340.01V344.8H57.2602V332.565H61.7728C63.1117 332.565 64.1593 332.906 64.9156 333.59C65.6775 334.273 66.0584 335.178 66.0584 336.304C66.0584 337.492 65.6859 338.408 64.9408 339.052C64.2013 339.691 63.1397 340.01 61.7559 340.01H58.8736ZM58.8736 338.691H61.7728C62.6355 338.691 63.2966 338.489 63.7559 338.086C64.2153 337.677 64.445 337.088 64.445 336.321C64.445 335.593 64.2153 335.01 63.7559 334.573C63.2966 334.136 62.6663 333.909 61.8652 333.892H58.8736V338.691ZM73.6719 339.422C73.3469 339.808 72.9576 340.119 72.5038 340.354C72.0556 340.59 71.5626 340.707 71.0248 340.707C70.3189 340.707 69.7027 340.534 69.1761 340.186C68.6551 339.839 68.2517 339.352 67.966 338.724C67.6803 338.091 67.5374 337.394 67.5374 336.632C67.5374 335.814 67.6915 335.077 67.9996 334.422C68.3133 333.766 68.7559 333.265 69.3273 332.918C69.8988 332.57 70.5654 332.397 71.3273 332.397C72.5374 332.397 73.4898 332.85 74.1845 333.758C74.8847 334.66 75.2349 335.892 75.2349 337.455V337.909C75.2349 340.29 74.7643 342.03 73.8231 343.128C72.8819 344.22 71.4618 344.78 69.5626 344.808H69.2601V343.497H69.5878C70.8707 343.475 71.8567 343.142 72.5458 342.497C73.2349 341.847 73.6102 340.822 73.6719 339.422ZM71.2769 339.422C71.7979 339.422 72.2769 339.262 72.7139 338.943C73.1565 338.623 73.4786 338.228 73.6803 337.758V337.136C73.6803 336.116 73.459 335.287 73.0164 334.649C72.5738 334.01 72.0136 333.691 71.3357 333.691C70.6523 333.691 70.1032 333.954 69.6887 334.481C69.2741 335.002 69.0668 335.691 69.0668 336.548C69.0668 337.382 69.2657 338.072 69.6635 338.615C70.0668 339.153 70.6046 339.422 71.2769 339.422Z" fill="#2666A7"/>
<path d="M147.934 65.8898V70.6797H146.32V58.4445H150.833C152.172 58.4445 153.219 58.7862 153.976 59.4697C154.737 60.1531 155.118 61.0579 155.118 62.1839C155.118 63.3716 154.746 64.2876 154.001 64.9318C153.261 65.5705 152.2 65.8898 150.816 65.8898H147.934ZM147.934 64.5705H150.833C151.695 64.5705 152.357 64.3688 152.816 63.9654C153.275 63.5565 153.505 62.9682 153.505 62.2007C153.505 61.4725 153.275 60.8898 152.816 60.4528C152.357 60.0159 151.726 59.789 150.925 59.7722H147.934V64.5705ZM161.883 70.6797H160.32V60.3184L157.186 61.4696V60.0579L161.639 58.3856H161.883V70.6797ZM166.908 71.7301H165.572L170.681 58.4445H172.009L166.908 71.7301ZM181.547 70.6797H173.53V69.562L177.765 64.8562C178.393 64.1447 178.824 63.5677 179.06 63.1251C179.3 62.6769 179.421 62.2147 179.421 61.7386C179.421 61.0999 179.228 60.5761 178.841 60.1671C178.454 59.7582 177.939 59.5537 177.295 59.5537C176.522 59.5537 175.919 59.775 175.488 60.2176C175.062 60.6545 174.849 61.2652 174.849 62.0495H173.295C173.295 60.9234 173.656 60.0131 174.379 59.3184C175.107 58.6237 176.079 58.2764 177.295 58.2764C178.432 58.2764 179.331 58.5761 179.992 59.1755C180.653 59.7694 180.984 60.5621 180.984 61.5537C180.984 62.7582 180.216 64.1923 178.681 65.8562L175.404 69.4108H181.547V70.6797Z" fill="#2666A7"/>
<path d="M186.544 262.92V267.71H184.93V255.475H189.443C190.782 255.475 191.829 255.816 192.586 256.5C193.347 257.183 193.728 258.088 193.728 259.214C193.728 260.402 193.356 261.318 192.611 261.962C191.871 262.601 190.81 262.92 189.426 262.92H186.544ZM186.544 261.601H189.443C190.305 261.601 190.967 261.399 191.426 260.996C191.885 260.587 192.115 259.999 192.115 259.231C192.115 258.503 191.885 257.92 191.426 257.483C190.967 257.046 190.336 256.819 189.535 256.802H186.544V261.601ZM203.283 256.349L198.216 267.71H196.586L201.636 256.752H195.014V255.475H203.283V256.349Z" fill="#2666A7"/>
<path d="M136.444 193.39V198.18H134.83V185.944H139.343C140.682 185.944 141.729 186.286 142.486 186.97C143.248 187.653 143.628 188.558 143.628 189.684C143.628 190.872 143.256 191.788 142.511 192.432C141.771 193.07 140.71 193.39 139.326 193.39H136.444ZM136.444 192.07H139.343C140.206 192.07 140.867 191.869 141.326 191.465C141.785 191.056 142.015 190.468 142.015 189.701C142.015 188.972 141.785 188.39 141.326 187.953C140.867 187.516 140.236 187.289 139.435 187.272H136.444V192.07ZM151.847 194.07H153.544V195.339H151.847V198.18H150.284V195.339H144.712V194.423L150.191 185.944H151.847V194.07ZM146.477 194.07H150.284V188.07L150.099 188.407L146.477 194.07ZM155.418 199.23H154.082L159.191 185.944H160.519L155.418 199.23ZM162.754 192.045L163.376 185.944H169.645V187.381H164.696L164.326 190.718C164.925 190.365 165.606 190.188 166.368 190.188C167.483 190.188 168.368 190.558 169.023 191.297C169.679 192.031 170.006 193.026 170.006 194.281C170.006 195.541 169.665 196.535 168.981 197.264C168.303 197.986 167.354 198.348 166.133 198.348C165.051 198.348 164.169 198.048 163.485 197.449C162.802 196.849 162.413 196.02 162.317 194.961H163.788C163.883 195.661 164.133 196.191 164.536 196.549C164.939 196.902 165.471 197.079 166.133 197.079C166.855 197.079 167.421 196.832 167.83 196.339C168.245 195.846 168.452 195.166 168.452 194.297C168.452 193.479 168.228 192.824 167.78 192.331C167.337 191.832 166.746 191.583 166.006 191.583C165.329 191.583 164.796 191.732 164.41 192.028L163.998 192.365L162.754 192.045Z" fill="#2666A7"/>
<path d="M105.064 127.98V132.77H103.45V120.534H107.963C109.302 120.534 110.349 120.876 111.106 121.56C111.867 122.243 112.248 123.148 112.248 124.274C112.248 125.461 111.876 126.377 111.131 127.022C110.391 127.66 109.33 127.98 107.946 127.98H105.064ZM105.064 126.66H107.963C108.825 126.66 109.487 126.459 109.946 126.055C110.405 125.646 110.635 125.058 110.635 124.291C110.635 123.562 110.405 122.98 109.946 122.543C109.487 122.106 108.856 121.879 108.055 121.862H105.064V126.66ZM120.005 120.526V121.845H119.719C118.509 121.868 117.545 122.226 116.828 122.921C116.111 123.616 115.697 124.593 115.585 125.854C116.229 125.114 117.108 124.744 118.223 124.744C119.288 124.744 120.136 125.12 120.769 125.87C121.408 126.621 121.727 127.59 121.727 128.778C121.727 130.038 121.383 131.047 120.694 131.803C120.01 132.559 119.092 132.938 117.937 132.938C116.767 132.938 115.817 132.489 115.089 131.593C114.36 130.691 113.996 129.531 113.996 128.114V127.517C113.996 125.265 114.475 123.545 115.433 122.358C116.397 121.165 117.828 120.554 119.727 120.526H120.005ZM117.963 126.038C117.43 126.038 116.94 126.198 116.492 126.517C116.044 126.837 115.733 127.237 115.559 127.719V128.291C115.559 129.299 115.786 130.111 116.24 130.728C116.694 131.344 117.26 131.652 117.937 131.652C118.638 131.652 119.187 131.394 119.585 130.879C119.988 130.363 120.19 129.688 120.19 128.854C120.19 128.013 119.985 127.335 119.576 126.82C119.173 126.299 118.635 126.038 117.963 126.038Z" fill="#2666A7"/>
<path d="M62.637 168.594L31.667 170.143C30.2973 170.211 29.2425 171.377 29.311 172.747L30.075 188.027C30.1435 189.396 31.3093 190.451 32.679 190.383L63.649 188.834C65.0187 188.766 66.0735 187.6 66.005 186.23L65.241 170.95C65.1725 169.58 64.0067 168.526 62.637 168.594Z" fill="#D9DFDF"/>
<path d="M124.59 359.759V322.879C124.59 321.51 123.48 320.399 122.11 320.399H110.83C109.46 320.399 108.35 321.51 108.35 322.879V359.759C108.35 361.129 109.46 362.239 110.83 362.239H122.11C123.48 362.239 124.59 361.129 124.59 359.759Z" fill="#D9DFDF"/>
<path d="M154.808 282.057L142.134 262.673C141.384 261.527 139.847 261.205 138.701 261.955L128.649 268.528C127.503 269.277 127.181 270.814 127.931 271.96L140.605 291.344C141.355 292.491 142.892 292.812 144.038 292.063L154.09 285.49C155.236 284.74 155.558 283.204 154.808 282.057Z" fill="#D9DFDF"/>
<path d="M138.685 242.441L121.855 216.737C121.102 215.587 119.559 215.265 118.408 216.018L109.513 221.843C108.362 222.596 108.04 224.139 108.793 225.29L125.623 250.994C126.377 252.145 127.92 252.467 129.071 251.713L137.966 245.889C139.117 245.135 139.439 243.592 138.685 242.441Z" fill="#D9DFDF"/>
<path d="M177.377 114.196L148.455 89.6252C147.411 88.7384 145.846 88.8657 144.959 89.9096L141.618 93.842C140.731 94.8858 140.859 96.4509 141.902 97.3377L170.824 121.909C171.868 122.795 173.433 122.668 174.32 121.624L177.661 117.692C178.548 116.648 178.42 115.083 177.377 114.196Z" fill="#D9DFDF"/>
<path d="M85.8833 138.856L71.7419 117.229C70.9923 116.083 69.4553 115.761 68.309 116.511L63.3458 119.756C62.1995 120.505 61.8778 122.042 62.6274 123.189L76.7689 144.816C77.5185 145.962 79.0554 146.284 80.2018 145.534L85.1649 142.289C86.3113 141.539 86.6329 140.002 85.8833 138.856Z" fill="#D9DFDF"/>
<path d="M57.5907 97.5913L44.6707 119.969C43.9858 121.156 44.3922 122.672 45.5784 123.357L50.7139 126.322C51.9001 127.007 53.4168 126.601 54.1017 125.414L67.0217 103.036C67.7065 101.85 67.3001 100.333 66.1139 99.6486L60.9784 96.6836C59.7922 95.9988 58.2755 96.4052 57.5907 97.5913Z" fill="#D9DFDF"/>
<path d="M99.1817 383.042L76.66 384.171C75.292 384.239 74.2387 385.404 74.3072 386.772L74.4054 388.729C74.474 390.097 75.6385 391.151 77.0064 391.082L99.5282 389.953C100.896 389.884 101.949 388.72 101.881 387.352L101.783 385.394C101.714 384.026 100.55 382.973 99.1817 383.042Z" fill="#D9DFDF"/>
<path d="M267.053 300.216L250.307 274.605C249.557 273.459 248.02 273.137 246.874 273.887L238.011 279.682C236.864 280.432 236.543 281.969 237.292 283.115L254.039 308.726C254.788 309.872 256.325 310.194 257.472 309.444L266.335 303.649C267.481 302.899 267.803 301.362 267.053 300.216Z" fill="#D9DFDF"/>
</svg>
