<svg xmlns="http://www.w3.org/2000/svg" xmlns:xlink="http://www.w3.org/1999/xlink" width="258.548" height="258.548" viewBox="0 0 258.548 258.548"><defs><clipPath id="a"><circle cx="129.274" cy="129.274" r="129.274" transform="translate(312.249 3974.613)" fill="none"/></clipPath></defs><g transform="translate(-312.249 -3974.613)"><g clip-path="url(#a)"><rect width="497.38" height="319.37" transform="translate(129.447 3941.365)" fill="#0c090b"/><rect width="489.271" height="33.938" transform="translate(133.639 3982.709)" fill="#264191"/><rect width="489.271" height="33.938" transform="translate(132.406 4194.422)" fill="#264191"/><rect width="7.655" height="7.655" transform="translate(346.229 4025.253)" fill="#fff"/><rect width="7.655" height="7.655" transform="translate(346.229 4053.386)" fill="#fff"/><rect width="7.655" height="7.655" transform="translate(346.229 4044.008)" fill="#fff"/><rect width="7.655" height="7.655" transform="translate(346.229 4034.631)" fill="#fff"/><rect width="7.655" height="7.655" transform="translate(346.229 4062.763)" fill="#fff"/><rect width="7.655" height="7.655" transform="translate(363.539 4025.253)" fill="#fff"/><rect width="7.655" height="7.655" transform="translate(363.539 4034.631)" fill="#fff"/><rect width="7.655" height="7.655" transform="translate(363.539 4044.008)" fill="#fff"/><rect width="7.655" height="7.655" transform="translate(363.539 4053.386)" fill="#fff"/><rect width="7.655" height="7.655" transform="translate(363.539 4062.763)" fill="#fff"/><rect width="7.655" height="7.655" transform="translate(380.38 4025.253)" fill="#fff"/><rect width="7.655" height="7.655" transform="translate(380.38 4034.631)" fill="#fff"/><rect width="7.655" height="7.655" transform="translate(380.38 4044.008)" fill="#fff"/><rect width="7.655" height="7.655" transform="translate(380.38 4053.386)" fill="#fff"/><rect width="7.655" height="7.655" transform="translate(380.38 4062.763)" fill="#fff"/><rect width="7.655" height="7.655" transform="translate(396.966 4025.253)" fill="#fff"/><rect width="7.655" height="7.655" transform="translate(396.966 4034.631)" fill="#fff"/><rect width="7.655" height="7.655" transform="translate(396.966 4044.008)" fill="#fff"/><rect width="7.655" height="7.655" transform="translate(396.966 4053.386)" fill="#fff"/><rect width="7.655" height="7.655" transform="translate(396.966 4062.763)" fill="#fff"/><rect width="7.655" height="7.655" transform="translate(423.504 4025.253)" fill="#fff"/><rect width="7.655" height="7.655" transform="translate(423.504 4034.631)" fill="#fff"/><rect width="7.655" height="7.655" transform="translate(423.504 4044.008)" fill="#fff"/><rect width="7.655" height="7.655" transform="translate(423.504 4053.386)" fill="#fff"/><rect width="7.655" height="7.655" transform="translate(423.504 4062.763)" fill="#fff"/><rect width="7.655" height="7.655" transform="translate(440.345 4025.253)" fill="#fff"/><rect width="7.655" height="7.655" transform="translate(440.345 4034.631)" fill="#fff"/><rect width="7.655" height="7.655" transform="translate(440.345 4044.008)" fill="#fff"/><rect width="7.655" height="7.655" transform="translate(440.345 4053.386)" fill="#fff"/><rect width="7.655" height="7.655" transform="translate(440.345 4062.763)" fill="#fff"/><rect width="9.909" height="9.909" transform="translate(405.44 3994.723)" fill="#fff" stroke="#419726" stroke-miterlimit="10" stroke-width="4"/><rect width="19.202" height="19.202" transform="translate(400.794 3990.077)" fill="none" stroke="#419726" stroke-miterlimit="10" stroke-width="4"/><rect width="9.909" height="9.909" transform="translate(446.448 4004.324)" fill="#fff" stroke="#419726" stroke-miterlimit="10" stroke-width="4"/><rect width="19.202" height="19.202" transform="translate(441.802 3999.677)" fill="none" stroke="#419726" stroke-miterlimit="10" stroke-width="4"/><rect width="9.909" height="9.909" transform="translate(362.412 3994.723)" fill="#fff" stroke="#419726" stroke-miterlimit="10" stroke-width="4"/><rect width="19.202" height="19.202" transform="translate(357.765 3990.077)" fill="none" stroke="#419726" stroke-miterlimit="10" stroke-width="4"/><rect width="114.317" height="65.946" transform="translate(339.467 4014.233)" fill="none" stroke="#e5f330" stroke-miterlimit="10" stroke-width="4"/><path d="M359.2,4018.879V4007.71h49.673v12.929" fill="none" stroke="#a43496" stroke-miterlimit="10" stroke-width="8"/><line y1="53.134" transform="translate(359.201 4018.879)" fill="none" stroke="#e5f330" stroke-miterlimit="10" stroke-width="8"/><line y1="51.375" transform="translate(375.787 4020.639)" fill="none" stroke="#e5f330" stroke-miterlimit="10" stroke-width="8"/><line y1="51.375" transform="translate(392.501 4020.639)" fill="none" stroke="#e5f330" stroke-miterlimit="10" stroke-width="8"/><line y1="51.375" transform="translate(408.662 4020.639)" fill="none" stroke="#e5f330" stroke-miterlimit="10" stroke-width="8"/><line y1="51.375" transform="translate(418.401 4020.639)" fill="none" stroke="#e5f330" stroke-miterlimit="10" stroke-width="8"/><line y1="51.375" transform="translate(435.752 4020.639)" fill="none" stroke="#e5f330" stroke-miterlimit="10" stroke-width="8"/><path d="M392.5,4073.289V4105.7H381.4v17.862" fill="none" stroke="#eb227c" stroke-miterlimit="10" stroke-width="8"/><rect width="108.703" height="27.048" transform="translate(343.805 4167.703)" fill="#42a729"/><circle cx="1.772" cy="1.772" r="1.772" transform="translate(348.285 4027.309)" fill="#42a729"/><circle cx="1.772" cy="1.772" r="1.772" transform="translate(348.285 4036.687)" fill="#42a729"/><circle cx="1.772" cy="1.772" r="1.772" transform="translate(348.285 4046.064)" fill="#42a729"/><circle cx="1.772" cy="1.772" r="1.772" transform="translate(348.285 4055.442)" fill="#42a729"/><circle cx="1.772" cy="1.772" r="1.772" transform="translate(348.285 4064.82)" fill="#42a729"/><circle cx="1.772" cy="1.772" r="1.772" transform="translate(365.595 4027.309)" fill="#42a729"/><circle cx="1.772" cy="1.772" r="1.772" transform="translate(365.595 4036.687)" fill="#42a729"/><circle cx="1.772" cy="1.772" r="1.772" transform="translate(365.595 4046.064)" fill="#42a729"/><circle cx="1.772" cy="1.772" r="1.772" transform="translate(365.595 4055.442)" fill="#42a729"/><circle cx="1.772" cy="1.772" r="1.772" transform="translate(365.595 4064.82)" fill="#42a729"/><circle cx="1.772" cy="1.772" r="1.772" transform="translate(382.521 4027.309)" fill="#42a729"/><circle cx="1.772" cy="1.772" r="1.772" transform="translate(382.521 4036.687)" fill="#42a729"/><circle cx="1.772" cy="1.772" r="1.772" transform="translate(382.521 4046.064)" fill="#42a729"/><circle cx="1.772" cy="1.772" r="1.772" transform="translate(382.521 4055.442)" fill="#42a729"/><circle cx="1.772" cy="1.772" r="1.772" transform="translate(382.521 4064.82)" fill="#42a729"/><circle cx="1.772" cy="1.772" r="1.772" transform="translate(399.377 4027.309)" fill="#42a729"/><circle cx="1.772" cy="1.772" r="1.772" transform="translate(399.377 4036.687)" fill="#42a729"/><circle cx="1.772" cy="1.772" r="1.772" transform="translate(399.377 4046.064)" fill="#42a729"/><circle cx="1.772" cy="1.772" r="1.772" transform="translate(399.377 4055.442)" fill="#42a729"/><circle cx="1.772" cy="1.772" r="1.772" transform="translate(399.377 4064.82)" fill="#42a729"/><circle cx="1.772" cy="1.772" r="1.772" transform="translate(425.553 4027.309)" fill="#42a729"/><circle cx="1.772" cy="1.772" r="1.772" transform="translate(425.553 4036.687)" fill="#42a729"/><circle cx="1.772" cy="1.772" r="1.772" transform="translate(425.553 4046.064)" fill="#42a729"/><circle cx="1.772" cy="1.772" r="1.772" transform="translate(425.553 4055.442)" fill="#42a729"/><circle cx="1.772" cy="1.772" r="1.772" transform="translate(425.553 4064.82)" fill="#42a729"/><circle cx="1.772" cy="1.772" r="1.772" transform="translate(442.409 4027.309)" fill="#42a729"/><circle cx="1.772" cy="1.772" r="1.772" transform="translate(442.409 4036.687)" fill="#42a729"/><circle cx="1.772" cy="1.772" r="1.772" transform="translate(442.409 4046.064)" fill="#42a729"/><circle cx="1.772" cy="1.772" r="1.772" transform="translate(442.409 4055.442)" fill="#42a729"/><circle cx="1.772" cy="1.772" r="1.772" transform="translate(442.409 4064.82)" fill="#42a729"/><rect width="6.989" height="6.989" transform="translate(345.84 4174.239)" fill="#fff"/><circle cx="2.063" cy="2.063" r="2.063" transform="translate(347.158 4175.592)" fill="#42a729"/><rect width="6.989" height="6.989" transform="translate(345.84 4182.532)" fill="#fff"/><circle cx="2.063" cy="2.063" r="2.063" transform="translate(347.158 4183.885)" fill="#42a729"/><rect width="6.989" height="6.989" transform="translate(398.157 4174.239)" fill="#fff"/><circle cx="2.063" cy="2.063" r="2.063" transform="translate(399.475 4175.592)" fill="#42a729"/><rect width="6.989" height="6.989" transform="translate(398.157 4182.532)" fill="#fff"/><circle cx="2.063" cy="2.063" r="2.063" transform="translate(399.475 4183.885)" fill="#42a729"/><rect width="6.989" height="6.989" transform="translate(426.013 4174.239)" fill="#fff"/><circle cx="2.063" cy="2.063" r="2.063" transform="translate(427.332 4175.592)" fill="#42a729"/><rect width="6.989" height="6.989" transform="translate(426.013 4182.532)" fill="#fff"/><circle cx="2.063" cy="2.063" r="2.063" transform="translate(427.332 4183.885)" fill="#42a729"/><rect width="6.989" height="6.989" transform="translate(442.132 4174.239)" fill="#fff"/><circle cx="2.063" cy="2.063" r="2.063" transform="translate(443.45 4175.592)" fill="#42a729"/><rect width="6.989" height="6.989" transform="translate(442.132 4182.532)" fill="#fff"/><circle cx="2.063" cy="2.063" r="2.063" transform="translate(443.45 4183.885)" fill="#42a729"/><path d="M340.573,4161.324v6.889H337v26.538h3.572v8.293s114.509.575,113.934,0,0-8.8,0-8.8h1.787V4167.7h-2.68v-6.379Z" fill="none" stroke="#42a729" stroke-miterlimit="10" stroke-width="3"/><path d="M356.394,4197.813v-42.869H339.467v-57.414H359.2v-22.455" fill="none" stroke="#eb227c" stroke-miterlimit="10" stroke-width="8"/><path d="M375.787,4075.076V4096h-4.593v10.717H360.987v37.51h6.379v62.517h54.862v-43.272h5.1v-85.079H418.4v-5.1" fill="none" stroke="#eb227c" stroke-miterlimit="10" stroke-width="8"/><path d="M394.159,4196.792v-33.321h6.634v-16.693h10.972v51.035" fill="none" stroke="#eb227c" stroke-miterlimit="10" stroke-width="8"/><path d="M356.394,4197.813v-42.869H339.467v-57.414H359.2v-22.455" fill="none" stroke="#eb227c" stroke-miterlimit="10" stroke-width="8"/><path d="M375.787,4075.076V4096h-4.593v10.717H360.987v37.51h6.379v62.517h54.862v-43.272h5.1v-85.079H418.4v-5.1" fill="none" stroke="#eb227c" stroke-miterlimit="10" stroke-width="8"/><path d="M394.159,4196.792v-33.321h6.634v-16.693h10.972v51.035" fill="none" stroke="#eb227c" stroke-miterlimit="10" stroke-width="8"/><path d="M435.752,4075.076v3.062h8.421v88.034h-7.145v31.642" fill="none" stroke="#eb227c" stroke-miterlimit="10" stroke-width="8"/><path d="M408.662,4075.076v31.131h-7.868v27.048H381.4v11.738h2.807v52.821" fill="none" stroke="#eb227c" stroke-miterlimit="10" stroke-width="8"/><line y1="53.134" transform="translate(359.201 4018.879)" fill="none" stroke="#e5f330" stroke-miterlimit="10" stroke-width="8"/><line y1="51.375" transform="translate(375.787 4020.639)" fill="none" stroke="#e5f330" stroke-miterlimit="10" stroke-width="8"/><line y1="51.375" transform="translate(392.501 4020.639)" fill="none" stroke="#e5f330" stroke-miterlimit="10" stroke-width="8"/><line y1="51.375" transform="translate(408.662 4020.639)" fill="none" stroke="#e5f330" stroke-miterlimit="10" stroke-width="8"/><line y1="51.375" transform="translate(418.401 4020.639)" fill="none" stroke="#e5f330" stroke-miterlimit="10" stroke-width="8"/><line y1="51.375" transform="translate(435.752 4020.639)" fill="none" stroke="#e5f330" stroke-miterlimit="10" stroke-width="8"/><line y1="28.579" transform="translate(355.905 4167.703)" fill="none" stroke="#e5f330" stroke-miterlimit="10" stroke-width="8"/><line y1="27.633" transform="translate(367.217 4168.649)" fill="none" stroke="#e5f330" stroke-miterlimit="10" stroke-width="8"/><line y1="27.633" transform="translate(384.59 4168.649)" fill="none" stroke="#e5f330" stroke-miterlimit="10" stroke-width="8"/><line y1="27.633" transform="translate(394.159 4168.649)" fill="none" stroke="#e5f330" stroke-miterlimit="10" stroke-width="8"/><line y1="27.633" transform="translate(411.766 4168.649)" fill="none" stroke="#e5f330" stroke-miterlimit="10" stroke-width="8"/><line y1="27.633" transform="translate(437.071 4168.649)" fill="none" stroke="#e5f330" stroke-miterlimit="10" stroke-width="8"/><line y1="27.633" transform="translate(422.111 4168.649)" fill="none" stroke="#e5f330" stroke-miterlimit="10" stroke-width="8"/><rect width="9.909" height="9.909" transform="translate(405.44 4211.391)" fill="#fff" stroke="#419726" stroke-miterlimit="10" stroke-width="4"/><rect width="19.202" height="19.202" transform="translate(400.794 4206.744)" fill="none" stroke="#e5f330" stroke-miterlimit="10" stroke-width="4"/><rect width="9.909" height="9.909" transform="translate(446.448 4202.459)" fill="#fff" stroke="#419726" stroke-miterlimit="10" stroke-width="4"/><rect width="19.202" height="19.202" transform="translate(441.802 4197.813)" fill="none" stroke="#e5f330" stroke-miterlimit="10" stroke-width="4"/><rect width="9.909" height="9.909" transform="translate(363.581 4210.491)" fill="#fff" stroke="#419726" stroke-miterlimit="10" stroke-width="4"/><rect width="19.202" height="19.202" transform="translate(358.935 4205.845)" fill="none" stroke="#e5f330" stroke-miterlimit="10" stroke-width="4"/><rect width="7.655" height="7.655" transform="translate(218.133 4025.253)" fill="#fff"/><rect width="7.655" height="7.655" transform="translate(218.133 4053.386)" fill="#fff"/><rect width="7.655" height="7.655" transform="translate(218.133 4044.008)" fill="#fff"/><rect width="7.655" height="7.655" transform="translate(218.133 4034.631)" fill="#fff"/><rect width="7.655" height="7.655" transform="translate(218.133 4062.763)" fill="#fff"/><rect width="7.655" height="7.655" transform="translate(235.442 4025.253)" fill="#fff"/><rect width="7.655" height="7.655" transform="translate(235.442 4034.631)" fill="#fff"/><rect width="7.655" height="7.655" transform="translate(235.442 4044.008)" fill="#fff"/><rect width="7.655" height="7.655" transform="translate(235.442 4053.386)" fill="#fff"/><rect width="7.655" height="7.655" transform="translate(235.442 4062.763)" fill="#fff"/><rect width="7.655" height="7.655" transform="translate(252.284 4025.253)" fill="#fff"/><rect width="7.655" height="7.655" transform="translate(252.284 4034.631)" fill="#fff"/><rect width="7.655" height="7.655" transform="translate(252.284 4044.008)" fill="#fff"/><rect width="7.655" height="7.655" transform="translate(252.284 4053.386)" fill="#fff"/><rect width="7.655" height="7.655" transform="translate(252.284 4062.763)" fill="#fff"/><rect width="7.655" height="7.655" transform="translate(268.87 4025.253)" fill="#fff"/><rect width="7.655" height="7.655" transform="translate(268.87 4034.631)" fill="#fff"/><rect width="7.655" height="7.655" transform="translate(268.87 4044.008)" fill="#fff"/><rect width="7.655" height="7.655" transform="translate(268.87 4053.386)" fill="#fff"/><rect width="7.655" height="7.655" transform="translate(268.87 4062.763)" fill="#fff"/><rect width="7.655" height="7.655" transform="translate(295.408 4025.253)" fill="#fff"/><rect width="7.655" height="7.655" transform="translate(295.408 4034.631)" fill="#fff"/><rect width="7.655" height="7.655" transform="translate(295.408 4044.008)" fill="#fff"/><rect width="7.655" height="7.655" transform="translate(295.408 4053.386)" fill="#fff"/><rect width="7.655" height="7.655" transform="translate(295.408 4062.763)" fill="#fff"/><rect width="7.655" height="7.655" transform="translate(312.249 4025.253)" fill="#fff"/><rect width="7.655" height="7.655" transform="translate(312.249 4034.631)" fill="#fff"/><rect width="7.655" height="7.655" transform="translate(312.249 4044.008)" fill="#fff"/><rect width="7.655" height="7.655" transform="translate(312.249 4053.386)" fill="#fff"/><rect width="7.655" height="7.655" transform="translate(312.249 4062.763)" fill="#fff"/><rect width="9.909" height="9.909" transform="translate(277.344 3994.723)" fill="#fff" stroke="#419726" stroke-miterlimit="10" stroke-width="4"/><rect width="19.202" height="19.202" transform="translate(272.697 3990.077)" fill="none" stroke="#419726" stroke-miterlimit="10" stroke-width="4"/><rect width="9.909" height="9.909" transform="translate(318.352 4004.324)" fill="#fff" stroke="#419726" stroke-miterlimit="10" stroke-width="4"/><rect width="19.202" height="19.202" transform="translate(313.706 3999.677)" fill="none" stroke="#419726" stroke-miterlimit="10" stroke-width="4"/><rect width="9.909" height="9.909" transform="translate(234.315 3994.723)" fill="#fff" stroke="#419726" stroke-miterlimit="10" stroke-width="4"/><rect width="19.202" height="19.202" transform="translate(229.669 3990.077)" fill="none" stroke="#419726" stroke-miterlimit="10" stroke-width="4"/><rect width="114.317" height="65.946" transform="translate(211.371 4014.233)" fill="none" stroke="#e5f330" stroke-miterlimit="10" stroke-width="4"/><path d="M231.1,4018.879V4007.71h49.673v12.929" fill="none" stroke="#a43496" stroke-miterlimit="10" stroke-width="8"/><line y1="53.134" transform="translate(231.104 4018.879)" fill="none" stroke="#e5f330" stroke-miterlimit="10" stroke-width="8"/><line y1="51.375" transform="translate(247.69 4020.639)" fill="none" stroke="#e5f330" stroke-miterlimit="10" stroke-width="8"/><line y1="51.375" transform="translate(264.404 4020.639)" fill="none" stroke="#e5f330" stroke-miterlimit="10" stroke-width="8"/><line y1="51.375" transform="translate(280.565 4020.639)" fill="none" stroke="#e5f330" stroke-miterlimit="10" stroke-width="8"/><line y1="51.375" transform="translate(290.304 4020.639)" fill="none" stroke="#e5f330" stroke-miterlimit="10" stroke-width="8"/><line y1="51.375" transform="translate(307.656 4020.639)" fill="none" stroke="#e5f330" stroke-miterlimit="10" stroke-width="8"/><path d="M264.4,4073.289V4105.7H253.3v17.862" fill="none" stroke="#eb227c" stroke-miterlimit="10" stroke-width="8"/><rect width="108.703" height="27.048" transform="translate(215.709 4167.703)" fill="#42a729"/><circle cx="1.772" cy="1.772" r="1.772" transform="translate(220.189 4027.309)" fill="#42a729"/><circle cx="1.772" cy="1.772" r="1.772" transform="translate(220.189 4036.687)" fill="#42a729"/><circle cx="1.772" cy="1.772" r="1.772" transform="translate(220.189 4046.064)" fill="#42a729"/><circle cx="1.772" cy="1.772" r="1.772" transform="translate(220.189 4055.442)" fill="#42a729"/><circle cx="1.772" cy="1.772" r="1.772" transform="translate(220.189 4064.82)" fill="#42a729"/><circle cx="1.772" cy="1.772" r="1.772" transform="translate(237.498 4027.309)" fill="#42a729"/><circle cx="1.772" cy="1.772" r="1.772" transform="translate(237.498 4036.687)" fill="#42a729"/><circle cx="1.772" cy="1.772" r="1.772" transform="translate(237.498 4046.064)" fill="#42a729"/><circle cx="1.772" cy="1.772" r="1.772" transform="translate(237.498 4055.442)" fill="#42a729"/><circle cx="1.772" cy="1.772" r="1.772" transform="translate(237.498 4064.82)" fill="#42a729"/><circle cx="1.772" cy="1.772" r="1.772" transform="translate(254.425 4027.309)" fill="#42a729"/><circle cx="1.772" cy="1.772" r="1.772" transform="translate(254.425 4036.687)" fill="#42a729"/><circle cx="1.772" cy="1.772" r="1.772" transform="translate(254.425 4046.064)" fill="#42a729"/><circle cx="1.772" cy="1.772" r="1.772" transform="translate(254.425 4055.442)" fill="#42a729"/><circle cx="1.772" cy="1.772" r="1.772" transform="translate(254.425 4064.82)" fill="#42a729"/><circle cx="1.772" cy="1.772" r="1.772" transform="translate(271.281 4027.309)" fill="#42a729"/><circle cx="1.772" cy="1.772" r="1.772" transform="translate(271.281 4036.687)" fill="#42a729"/><circle cx="1.772" cy="1.772" r="1.772" transform="translate(271.281 4046.064)" fill="#42a729"/><circle cx="1.772" cy="1.772" r="1.772" transform="translate(271.281 4055.442)" fill="#42a729"/><circle cx="1.772" cy="1.772" r="1.772" transform="translate(271.281 4064.82)" fill="#42a729"/><circle cx="1.772" cy="1.772" r="1.772" transform="translate(297.456 4027.309)" fill="#42a729"/><circle cx="1.772" cy="1.772" r="1.772" transform="translate(297.456 4036.687)" fill="#42a729"/><circle cx="1.772" cy="1.772" r="1.772" transform="translate(297.456 4046.064)" fill="#42a729"/><circle cx="1.772" cy="1.772" r="1.772" transform="translate(297.456 4055.442)" fill="#42a729"/><circle cx="1.772" cy="1.772" r="1.772" transform="translate(297.456 4064.82)" fill="#42a729"/><circle cx="1.772" cy="1.772" r="1.772" transform="translate(314.312 4027.309)" fill="#42a729"/><circle cx="1.772" cy="1.772" r="1.772" transform="translate(314.312 4036.687)" fill="#42a729"/><circle cx="1.772" cy="1.772" r="1.772" transform="translate(314.312 4046.064)" fill="#42a729"/><circle cx="1.772" cy="1.772" r="1.772" transform="translate(314.312 4055.442)" fill="#42a729"/><circle cx="1.772" cy="1.772" r="1.772" transform="translate(314.312 4064.82)" fill="#42a729"/><rect width="6.989" height="6.989" transform="translate(217.743 4174.239)" fill="#fff"/><circle cx="2.063" cy="2.063" r="2.063" transform="translate(219.062 4175.592)" fill="#42a729"/><rect width="6.989" height="6.989" transform="translate(217.743 4182.532)" fill="#fff"/><circle cx="2.063" cy="2.063" r="2.063" transform="translate(219.062 4183.885)" fill="#42a729"/><rect width="6.989" height="6.989" transform="translate(270.061 4174.239)" fill="#fff"/><circle cx="2.063" cy="2.063" r="2.063" transform="translate(271.379 4175.592)" fill="#42a729"/><rect width="6.989" height="6.989" transform="translate(270.061 4182.532)" fill="#fff"/><circle cx="2.063" cy="2.063" r="2.063" transform="translate(271.379 4183.885)" fill="#42a729"/><rect width="6.989" height="6.989" transform="translate(297.917 4174.239)" fill="#fff"/><circle cx="2.063" cy="2.063" r="2.063" transform="translate(299.235 4175.592)" fill="#42a729"/><rect width="6.989" height="6.989" transform="translate(297.917 4182.532)" fill="#fff"/><circle cx="2.063" cy="2.063" r="2.063" transform="translate(299.235 4183.885)" fill="#42a729"/><rect width="6.989" height="6.989" transform="translate(314.035 4174.239)" fill="#fff"/><circle cx="2.063" cy="2.063" r="2.063" transform="translate(315.354 4175.592)" fill="#42a729"/><rect width="6.989" height="6.989" transform="translate(314.035 4182.532)" fill="#fff"/><circle cx="2.063" cy="2.063" r="2.063" transform="translate(315.354 4183.885)" fill="#42a729"/><path d="M212.477,4161.324v6.889H208.9v26.538h3.573v8.293s114.508.575,113.934,0,0-8.8,0-8.8H328.2V4167.7h-2.679v-6.379Z" fill="none" stroke="#42a729" stroke-miterlimit="10" stroke-width="3"/><path d="M228.3,4197.813v-42.869H211.371v-57.414H231.1v-22.455" fill="none" stroke="#eb227c" stroke-miterlimit="10" stroke-width="8"/><path d="M247.69,4075.076V4096H243.1v10.717H232.891v37.51h6.379v62.517h54.862v-43.272h5.1v-85.079H290.3v-5.1" fill="none" stroke="#eb227c" stroke-miterlimit="10" stroke-width="8"/><path d="M266.063,4196.792v-33.321H272.7v-16.693H283.67v51.035" fill="none" stroke="#eb227c" stroke-miterlimit="10" stroke-width="8"/><path d="M228.3,4197.813v-42.869H211.371v-57.414H231.1v-22.455" fill="none" stroke="#eb227c" stroke-miterlimit="10" stroke-width="8"/><path d="M247.69,4075.076V4096H243.1v10.717H232.891v37.51h6.379v62.517h54.862v-43.272h5.1v-85.079H290.3v-5.1" fill="none" stroke="#eb227c" stroke-miterlimit="10" stroke-width="8"/><path d="M266.063,4196.792v-33.321H272.7v-16.693H283.67v51.035" fill="none" stroke="#eb227c" stroke-miterlimit="10" stroke-width="8"/><path d="M307.656,4075.076v3.062h8.421v88.034h-7.145v31.642" fill="none" stroke="#eb227c" stroke-miterlimit="10" stroke-width="8"/><path d="M280.565,4075.076v31.131H272.7v27.048H253.3v11.738h2.807v52.821" fill="none" stroke="#eb227c" stroke-miterlimit="10" stroke-width="8"/><line y1="53.134" transform="translate(231.104 4018.879)" fill="none" stroke="#e5f330" stroke-miterlimit="10" stroke-width="8"/><line y1="51.375" transform="translate(247.69 4020.639)" fill="none" stroke="#e5f330" stroke-miterlimit="10" stroke-width="8"/><line y1="51.375" transform="translate(264.404 4020.639)" fill="none" stroke="#e5f330" stroke-miterlimit="10" stroke-width="8"/><line y1="51.375" transform="translate(280.565 4020.639)" fill="none" stroke="#e5f330" stroke-miterlimit="10" stroke-width="8"/><line y1="51.375" transform="translate(290.304 4020.639)" fill="none" stroke="#e5f330" stroke-miterlimit="10" stroke-width="8"/><line y1="51.375" transform="translate(307.656 4020.639)" fill="none" stroke="#e5f330" stroke-miterlimit="10" stroke-width="8"/><line y1="28.579" transform="translate(227.808 4167.703)" fill="none" stroke="#e5f330" stroke-miterlimit="10" stroke-width="8"/><line y1="27.633" transform="translate(239.121 4168.649)" fill="none" stroke="#e5f330" stroke-miterlimit="10" stroke-width="8"/><line y1="27.633" transform="translate(256.494 4168.649)" fill="none" stroke="#e5f330" stroke-miterlimit="10" stroke-width="8"/><line y1="27.633" transform="translate(266.063 4168.649)" fill="none" stroke="#e5f330" stroke-miterlimit="10" stroke-width="8"/><line y1="27.633" transform="translate(283.67 4168.649)" fill="none" stroke="#e5f330" stroke-miterlimit="10" stroke-width="8"/><line y1="27.633" transform="translate(308.974 4168.649)" fill="none" stroke="#e5f330" stroke-miterlimit="10" stroke-width="8"/><line y1="27.633" transform="translate(294.015 4168.649)" fill="none" stroke="#e5f330" stroke-miterlimit="10" stroke-width="8"/><rect width="9.909" height="9.909" transform="translate(277.344 4211.391)" fill="#fff" stroke="#419726" stroke-miterlimit="10" stroke-width="4"/><rect width="19.202" height="19.202" transform="translate(272.697 4206.744)" fill="none" stroke="#e5f330" stroke-miterlimit="10" stroke-width="4"/><rect width="9.909" height="9.909" transform="translate(318.352 4202.459)" fill="#fff" stroke="#419726" stroke-miterlimit="10" stroke-width="4"/><rect width="19.202" height="19.202" transform="translate(313.706 4197.813)" fill="none" stroke="#e5f330" stroke-miterlimit="10" stroke-width="4"/><rect width="9.909" height="9.909" transform="translate(235.485 4210.491)" fill="#fff" stroke="#419726" stroke-miterlimit="10" stroke-width="4"/><rect width="19.202" height="19.202" transform="translate(230.838 4205.845)" fill="none" stroke="#e5f330" stroke-miterlimit="10" stroke-width="4"/><rect width="7.655" height="7.655" transform="translate(473.576 4025.253)" fill="#fff"/><rect width="7.655" height="7.655" transform="translate(473.576 4053.386)" fill="#fff"/><rect width="7.655" height="7.655" transform="translate(473.576 4044.008)" fill="#fff"/><rect width="7.655" height="7.655" transform="translate(473.576 4034.631)" fill="#fff"/><rect width="7.655" height="7.655" transform="translate(473.576 4062.763)" fill="#fff"/><rect width="7.655" height="7.655" transform="translate(490.885 4025.253)" fill="#fff"/><rect width="7.655" height="7.655" transform="translate(490.885 4034.631)" fill="#fff"/><rect width="7.655" height="7.655" transform="translate(490.885 4044.008)" fill="#fff"/><rect width="7.655" height="7.655" transform="translate(490.885 4053.386)" fill="#fff"/><rect width="7.655" height="7.655" transform="translate(490.885 4062.763)" fill="#fff"/><rect width="7.655" height="7.655" transform="translate(507.727 4025.253)" fill="#fff"/><rect width="7.655" height="7.655" transform="translate(507.727 4034.631)" fill="#fff"/><rect width="7.655" height="7.655" transform="translate(507.727 4044.008)" fill="#fff"/><rect width="7.655" height="7.655" transform="translate(507.727 4053.386)" fill="#fff"/><rect width="7.655" height="7.655" transform="translate(507.727 4062.763)" fill="#fff"/><rect width="7.655" height="7.655" transform="translate(524.313 4025.253)" fill="#fff"/><rect width="7.655" height="7.655" transform="translate(524.313 4034.631)" fill="#fff"/><rect width="7.655" height="7.655" transform="translate(524.313 4044.008)" fill="#fff"/><rect width="7.655" height="7.655" transform="translate(524.313 4053.386)" fill="#fff"/><rect width="7.655" height="7.655" transform="translate(524.313 4062.763)" fill="#fff"/><rect width="7.655" height="7.655" transform="translate(550.851 4025.253)" fill="#fff"/><rect width="7.655" height="7.655" transform="translate(550.851 4034.631)" fill="#fff"/><rect width="7.655" height="7.655" transform="translate(550.851 4044.008)" fill="#fff"/><rect width="7.655" height="7.655" transform="translate(550.851 4053.386)" fill="#fff"/><rect width="7.655" height="7.655" transform="translate(550.851 4062.763)" fill="#fff"/><rect width="7.655" height="7.655" transform="translate(567.692 4025.253)" fill="#fff"/><rect width="7.655" height="7.655" transform="translate(567.692 4034.631)" fill="#fff"/><rect width="7.655" height="7.655" transform="translate(567.692 4044.008)" fill="#fff"/><rect width="7.655" height="7.655" transform="translate(567.692 4053.386)" fill="#fff"/><rect width="7.655" height="7.655" transform="translate(567.692 4062.763)" fill="#fff"/><rect width="9.909" height="9.909" transform="translate(532.787 3994.723)" fill="#fff" stroke="#419726" stroke-miterlimit="10" stroke-width="4"/><rect width="19.202" height="19.202" transform="translate(528.141 3990.077)" fill="none" stroke="#419726" stroke-miterlimit="10" stroke-width="4"/><rect width="9.909" height="9.909" transform="translate(573.795 4004.324)" fill="#fff" stroke="#419726" stroke-miterlimit="10" stroke-width="4"/><rect width="19.202" height="19.202" transform="translate(569.149 3999.677)" fill="none" stroke="#419726" stroke-miterlimit="10" stroke-width="4"/><rect width="9.909" height="9.909" transform="translate(489.758 3994.723)" fill="#fff" stroke="#419726" stroke-miterlimit="10" stroke-width="4"/><rect width="19.202" height="19.202" transform="translate(485.112 3990.077)" fill="none" stroke="#419726" stroke-miterlimit="10" stroke-width="4"/><rect width="114.317" height="65.946" transform="translate(466.814 4014.233)" fill="none" stroke="#e5f330" stroke-miterlimit="10" stroke-width="4"/><path d="M486.547,4018.879V4007.71h49.673v12.929" fill="none" stroke="#a43496" stroke-miterlimit="10" stroke-width="8"/><line y1="53.134" transform="translate(486.547 4018.879)" fill="none" stroke="#e5f330" stroke-miterlimit="10" stroke-width="8"/><line y1="51.375" transform="translate(503.134 4020.639)" fill="none" stroke="#e5f330" stroke-miterlimit="10" stroke-width="8"/><line y1="51.375" transform="translate(519.847 4020.639)" fill="none" stroke="#e5f330" stroke-miterlimit="10" stroke-width="8"/><line y1="51.375" transform="translate(536.008 4020.639)" fill="none" stroke="#e5f330" stroke-miterlimit="10" stroke-width="8"/><line y1="51.375" transform="translate(545.747 4020.639)" fill="none" stroke="#e5f330" stroke-miterlimit="10" stroke-width="8"/><line y1="51.375" transform="translate(563.099 4020.639)" fill="none" stroke="#e5f330" stroke-miterlimit="10" stroke-width="8"/><path d="M519.847,4073.289V4105.7h-11.1v17.862" fill="none" stroke="#eb227c" stroke-miterlimit="10" stroke-width="8"/><rect width="108.703" height="27.048" transform="translate(471.152 4167.703)" fill="#42a729"/><circle cx="1.772" cy="1.772" r="1.772" transform="translate(475.632 4027.309)" fill="#42a729"/><circle cx="1.772" cy="1.772" r="1.772" transform="translate(475.632 4036.687)" fill="#42a729"/><circle cx="1.772" cy="1.772" r="1.772" transform="translate(475.632 4046.064)" fill="#42a729"/><circle cx="1.772" cy="1.772" r="1.772" transform="translate(475.632 4055.442)" fill="#42a729"/><circle cx="1.772" cy="1.772" r="1.772" transform="translate(475.632 4064.82)" fill="#42a729"/><circle cx="1.772" cy="1.772" r="1.772" transform="translate(492.941 4027.309)" fill="#42a729"/><circle cx="1.772" cy="1.772" r="1.772" transform="translate(492.941 4036.687)" fill="#42a729"/><circle cx="1.772" cy="1.772" r="1.772" transform="translate(492.941 4046.064)" fill="#42a729"/><circle cx="1.772" cy="1.772" r="1.772" transform="translate(492.941 4055.442)" fill="#42a729"/><circle cx="1.772" cy="1.772" r="1.772" transform="translate(492.941 4064.82)" fill="#42a729"/><circle cx="1.772" cy="1.772" r="1.772" transform="translate(509.868 4027.309)" fill="#42a729"/><circle cx="1.772" cy="1.772" r="1.772" transform="translate(509.868 4036.687)" fill="#42a729"/><circle cx="1.772" cy="1.772" r="1.772" transform="translate(509.868 4046.064)" fill="#42a729"/><circle cx="1.772" cy="1.772" r="1.772" transform="translate(509.868 4055.442)" fill="#42a729"/><circle cx="1.772" cy="1.772" r="1.772" transform="translate(509.868 4064.82)" fill="#42a729"/><circle cx="1.772" cy="1.772" r="1.772" transform="translate(526.724 4027.309)" fill="#42a729"/><circle cx="1.772" cy="1.772" r="1.772" transform="translate(526.724 4036.687)" fill="#42a729"/><circle cx="1.772" cy="1.772" r="1.772" transform="translate(526.724 4046.064)" fill="#42a729"/><circle cx="1.772" cy="1.772" r="1.772" transform="translate(526.724 4055.442)" fill="#42a729"/><circle cx="1.772" cy="1.772" r="1.772" transform="translate(526.724 4064.82)" fill="#42a729"/><circle cx="1.772" cy="1.772" r="1.772" transform="translate(552.9 4027.309)" fill="#42a729"/><circle cx="1.772" cy="1.772" r="1.772" transform="translate(552.9 4036.687)" fill="#42a729"/><circle cx="1.772" cy="1.772" r="1.772" transform="translate(552.9 4046.064)" fill="#42a729"/><circle cx="1.772" cy="1.772" r="1.772" transform="translate(552.9 4055.442)" fill="#42a729"/><circle cx="1.772" cy="1.772" r="1.772" transform="translate(552.9 4064.82)" fill="#42a729"/><circle cx="1.772" cy="1.772" r="1.772" transform="translate(569.755 4027.309)" fill="#42a729"/><circle cx="1.772" cy="1.772" r="1.772" transform="translate(569.755 4036.687)" fill="#42a729"/><circle cx="1.772" cy="1.772" r="1.772" transform="translate(569.755 4046.064)" fill="#42a729"/><circle cx="1.772" cy="1.772" r="1.772" transform="translate(569.755 4055.442)" fill="#42a729"/><circle cx="1.772" cy="1.772" r="1.772" transform="translate(569.755 4064.82)" fill="#42a729"/><rect width="6.989" height="6.989" transform="translate(473.186 4174.239)" fill="#fff"/><circle cx="2.063" cy="2.063" r="2.063" transform="translate(474.505 4175.592)" fill="#42a729"/><rect width="6.989" height="6.989" transform="translate(473.186 4182.532)" fill="#fff"/><circle cx="2.063" cy="2.063" r="2.063" transform="translate(474.505 4183.885)" fill="#42a729"/><rect width="6.989" height="6.989" transform="translate(525.504 4174.239)" fill="#fff"/><circle cx="2.063" cy="2.063" r="2.063" transform="translate(526.822 4175.592)" fill="#42a729"/><rect width="6.989" height="6.989" transform="translate(525.504 4182.532)" fill="#fff"/><circle cx="2.063" cy="2.063" r="2.063" transform="translate(526.822 4183.885)" fill="#42a729"/><rect width="6.989" height="6.989" transform="translate(553.36 4174.239)" fill="#fff"/><circle cx="2.063" cy="2.063" r="2.063" transform="translate(554.678 4175.592)" fill="#42a729"/><rect width="6.989" height="6.989" transform="translate(553.36 4182.532)" fill="#fff"/><circle cx="2.063" cy="2.063" r="2.063" transform="translate(554.678 4183.885)" fill="#42a729"/><rect width="6.989" height="6.989" transform="translate(569.478 4174.239)" fill="#fff"/><circle cx="2.063" cy="2.063" r="2.063" transform="translate(570.797 4175.592)" fill="#42a729"/><rect width="6.989" height="6.989" transform="translate(569.478 4182.532)" fill="#fff"/><circle cx="2.063" cy="2.063" r="2.063" transform="translate(570.797 4183.885)" fill="#42a729"/><path d="M467.92,4161.324v6.889h-3.573v26.538h3.573v8.293s114.508.575,113.934,0,0-8.8,0-8.8h1.786V4167.7h-2.679v-6.379Z" fill="none" stroke="#42a729" stroke-miterlimit="10" stroke-width="3"/><path d="M483.741,4197.813v-42.869H466.814v-57.414h19.733v-22.455" fill="none" stroke="#eb227c" stroke-miterlimit="10" stroke-width="8"/><path d="M503.134,4075.076V4096h-4.593v10.717H488.334v37.51h6.379v62.517h54.862v-43.272h5.1v-85.079h-8.931v-5.1" fill="none" stroke="#eb227c" stroke-miterlimit="10" stroke-width="8"/><path d="M521.506,4196.792v-33.321h6.634v-16.693h10.972v51.035" fill="none" stroke="#eb227c" stroke-miterlimit="10" stroke-width="8"/><path d="M483.741,4197.813v-42.869H466.814v-57.414h19.733v-22.455" fill="none" stroke="#eb227c" stroke-miterlimit="10" stroke-width="8"/><path d="M503.134,4075.076V4096h-4.593v10.717H488.334v37.51h6.379v62.517h54.862v-43.272h5.1v-85.079h-8.931v-5.1" fill="none" stroke="#eb227c" stroke-miterlimit="10" stroke-width="8"/><path d="M521.506,4196.792v-33.321h6.634v-16.693h10.972v51.035" fill="none" stroke="#eb227c" stroke-miterlimit="10" stroke-width="8"/><path d="M563.1,4075.076v3.062h8.421v88.034h-7.145v31.642" fill="none" stroke="#eb227c" stroke-miterlimit="10" stroke-width="8"/><path d="M536.008,4075.076v31.131h-7.868v27.048H508.747v11.738h2.807v52.821" fill="none" stroke="#eb227c" stroke-miterlimit="10" stroke-width="8"/><line y1="53.134" transform="translate(486.547 4018.879)" fill="none" stroke="#e5f330" stroke-miterlimit="10" stroke-width="8"/><line y1="51.375" transform="translate(503.134 4020.639)" fill="none" stroke="#e5f330" stroke-miterlimit="10" stroke-width="8"/><line y1="51.375" transform="translate(519.847 4020.639)" fill="none" stroke="#e5f330" stroke-miterlimit="10" stroke-width="8"/><line y1="51.375" transform="translate(536.008 4020.639)" fill="none" stroke="#e5f330" stroke-miterlimit="10" stroke-width="8"/><line y1="51.375" transform="translate(545.747 4020.639)" fill="none" stroke="#e5f330" stroke-miterlimit="10" stroke-width="8"/><line y1="51.375" transform="translate(563.099 4020.639)" fill="none" stroke="#e5f330" stroke-miterlimit="10" stroke-width="8"/><line y1="28.579" transform="translate(483.251 4167.703)" fill="none" stroke="#e5f330" stroke-miterlimit="10" stroke-width="8"/><line y1="27.633" transform="translate(494.564 4168.649)" fill="none" stroke="#e5f330" stroke-miterlimit="10" stroke-width="8"/><line y1="27.633" transform="translate(511.937 4168.649)" fill="none" stroke="#e5f330" stroke-miterlimit="10" stroke-width="8"/><line y1="27.633" transform="translate(521.506 4168.649)" fill="none" stroke="#e5f330" stroke-miterlimit="10" stroke-width="8"/><line y1="27.633" transform="translate(539.113 4168.649)" fill="none" stroke="#e5f330" stroke-miterlimit="10" stroke-width="8"/><line y1="27.633" transform="translate(564.417 4168.649)" fill="none" stroke="#e5f330" stroke-miterlimit="10" stroke-width="8"/><line y1="27.633" transform="translate(549.458 4168.649)" fill="none" stroke="#e5f330" stroke-miterlimit="10" stroke-width="8"/><rect width="9.909" height="9.909" transform="translate(532.787 4211.391)" fill="#fff" stroke="#419726" stroke-miterlimit="10" stroke-width="4"/><rect width="19.202" height="19.202" transform="translate(528.141 4206.744)" fill="none" stroke="#e5f330" stroke-miterlimit="10" stroke-width="4"/><rect width="9.909" height="9.909" transform="translate(573.795 4202.459)" fill="#fff" stroke="#419726" stroke-miterlimit="10" stroke-width="4"/><rect width="19.202" height="19.202" transform="translate(569.149 4197.813)" fill="none" stroke="#e5f330" stroke-miterlimit="10" stroke-width="4"/><rect width="9.909" height="9.909" transform="translate(490.928 4210.491)" fill="#fff" stroke="#419726" stroke-miterlimit="10" stroke-width="4"/><rect width="19.202" height="19.202" transform="translate(486.282 4205.845)" fill="none" stroke="#e5f330" stroke-miterlimit="10" stroke-width="4"/><rect width="466.455" height="110.233" transform="translate(147.918 3982.709)" fill="none" stroke="#739fbd" stroke-miterlimit="10" stroke-width="8"/><rect width="11.472" height="11.472" transform="translate(328.754 4109)" fill="#fff"/><circle cx="3.386" cy="3.386" r="3.386" transform="translate(330.918 4111.221)" fill="#eb227c"/><rect width="11.472" height="11.472" transform="translate(328.754 4122.612)" fill="#fff"/><circle cx="3.386" cy="3.386" r="3.386" transform="translate(330.918 4124.834)" fill="#eb227c"/><rect width="11.472" height="11.472" transform="translate(350.169 4109)" fill="#fff"/><circle cx="3.386" cy="3.386" r="3.386" transform="translate(352.333 4111.221)" fill="#eb227c"/><rect width="11.472" height="11.472" transform="translate(350.169 4122.612)" fill="#fff"/><circle cx="3.386" cy="3.386" r="3.386" transform="translate(352.333 4124.834)" fill="#eb227c"/><rect width="11.472" height="11.472" transform="translate(375.851 4117.951)" fill="#fff"/><circle cx="3.386" cy="3.386" r="3.386" transform="translate(378.015 4120.172)" fill="#eb227c"/><rect width="11.472" height="11.472" transform="translate(397.227 4144.107)" fill="#fff"/><circle cx="3.386" cy="3.386" r="3.386" transform="translate(399.391 4146.329)" fill="#eb227c"/><rect width="11.472" height="11.472" transform="translate(456.634 4115.016)" fill="#fff"/><circle cx="3.386" cy="3.386" r="3.386" transform="translate(458.798 4117.237)" fill="#eb227c"/><rect width="11.472" height="11.472" transform="translate(519.768 4140.593)" fill="#fff"/><circle cx="3.386" cy="3.386" r="3.386" transform="translate(521.932 4142.815)" fill="#eb227c"/><rect width="11.472" height="11.472" transform="translate(567.124 4120.751)" fill="#fff"/><circle cx="3.386" cy="3.386" r="3.386" transform="translate(569.288 4122.973)" fill="#eb227c"/><rect width="11.472" height="11.472" transform="translate(209.973 4127.854)" fill="#fff"/><circle cx="3.386" cy="3.386" r="3.386" transform="translate(212.137 4130.076)" fill="#eb227c"/><rect width="11.472" height="11.472" transform="translate(248.689 4115.016)" fill="#fff"/><circle cx="3.386" cy="3.386" r="3.386" transform="translate(250.853 4117.237)" fill="#eb227c"/></g></g></svg>