<svg width="252" height="125" viewBox="0 0 252 125" fill="none" xmlns="http://www.w3.org/2000/svg">
<g clip-path="url(#clip0)">
<path d="M248.88 2.96094H131.96V121.091H248.88V2.96094Z" fill="#223D5C" stroke="#F3C13B" stroke-width="5.92" stroke-miterlimit="10"/>
<path d="M139.69 10.2617H156.02" stroke="#F3C13B" stroke-width="5.92" stroke-miterlimit="10"/>
<path d="M237.51 10.2617H241.29" stroke="#F3C13B" stroke-width="5.92" stroke-miterlimit="10"/>
<path d="M139.69 112.65H142.64" stroke="#F3C13B" stroke-width="5.92" stroke-miterlimit="10"/>
<path d="M237.51 112.65H241.29" stroke="#F3C13B" stroke-width="5.92" stroke-miterlimit="10"/>
<path d="M210.23 11.7812H169.31C153.277 11.7812 140.28 24.7784 140.28 40.8113V81.7313C140.28 97.7641 153.277 110.761 169.31 110.761H210.23C226.263 110.761 239.26 97.7641 239.26 81.7313V40.8113C239.26 24.7784 226.263 11.7812 210.23 11.7812Z" fill="#EEEDEE"/>
<path opacity="0.5" d="M146.41 97.4703C146.413 99.3675 147.168 101.186 148.511 102.527C149.853 103.867 151.673 104.62 153.57 104.62H226C227.897 104.62 229.717 103.867 231.059 102.527C232.402 101.186 233.157 99.3675 233.16 97.4703V25.0703L146.41 97.4703Z" fill="#A4C7D5"/>
<path opacity="0.5" d="M202.17 19.8418H177.37C161.337 19.8418 148.34 32.839 148.34 48.8718V73.6718C148.34 89.7046 161.337 102.702 177.37 102.702H202.17C218.203 102.702 231.2 89.7046 231.2 73.6718V48.8718C231.2 32.839 218.203 19.8418 202.17 19.8418Z" stroke="#A4C7D5" stroke-width="2.54" stroke-miterlimit="10"/>
<path opacity="0.79" d="M218.66 27.9004H160.88C158.406 27.9004 156.4 29.9062 156.4 32.3804V90.1604C156.4 92.6346 158.406 94.6404 160.88 94.6404H218.66C221.134 94.6404 223.14 92.6346 223.14 90.1604V32.3804C223.14 29.9062 221.134 27.9004 218.66 27.9004Z" fill="#223D5C" stroke="#F3C13B" stroke-width="5.92" stroke-miterlimit="10"/>
<path d="M198.01 32.0215H182.75C171.445 32.0215 162.28 41.1862 162.28 52.4915V67.7515C162.28 79.0568 171.445 88.2215 182.75 88.2215H198.01C209.315 88.2215 218.48 79.0568 218.48 67.7515V52.4915C218.48 41.1862 209.315 32.0215 198.01 32.0215Z" fill="white"/>
<path d="M236.77 36.8906H241.95V81.5306H236.77" fill="white"/>
<path d="M137.61 36.8906H142.79V81.5306H137.61" fill="white"/>
<path d="M211.97 9.74023V14.9302H167.34V9.74023" fill="white"/>
<path d="M211.97 108.16V113.35H167.34V108.16" fill="white"/>
<path d="M176.457 60.1307L177.031 54.5013H182.816V55.8272H178.248L177.907 58.9055C178.46 58.5799 179.088 58.4171 179.792 58.4171C180.82 58.4171 181.637 58.7582 182.242 59.4406C182.847 60.1177 183.149 61.0353 183.149 62.1932C183.149 63.3563 182.834 64.2738 182.203 64.9458C181.577 65.6127 180.701 65.9461 179.574 65.9461C178.577 65.9461 177.763 65.6695 177.132 65.1164C176.501 64.5633 176.142 63.7983 176.054 62.8213H177.411C177.499 63.4674 177.729 63.9559 178.101 64.2868C178.473 64.6124 178.964 64.7753 179.574 64.7753C180.241 64.7753 180.763 64.5478 181.141 64.0929C181.523 63.638 181.714 63.0099 181.714 62.2087C181.714 61.454 181.508 60.8492 181.094 60.3943C180.686 59.9342 180.14 59.7042 179.458 59.7042C178.833 59.7042 178.342 59.8412 177.985 60.1152L177.605 60.4253L176.457 60.1307ZM186.219 57.4013L186.266 58.4558C186.907 57.6494 187.744 57.2462 188.778 57.2462C190.551 57.2462 191.446 58.2465 191.461 60.247V65.791H190.027V60.2392C190.021 59.6344 189.882 59.1873 189.608 58.8978C189.339 58.6083 188.918 58.4636 188.344 58.4636C187.879 58.4636 187.47 58.5876 187.119 58.8358C186.767 59.0839 186.493 59.4096 186.297 59.8128V65.791H184.863V57.4013H186.219ZM194.974 57.4013L195.012 58.3318C195.628 57.6081 196.457 57.2462 197.501 57.2462C198.675 57.2462 199.473 57.6959 199.897 58.5954C200.177 58.1922 200.538 57.8665 200.983 57.6184C201.433 57.3703 201.963 57.2462 202.572 57.2462C204.413 57.2462 205.348 58.2206 205.379 60.1694V65.791H203.945V60.2547C203.945 59.6551 203.808 59.2079 203.534 58.9133C203.26 58.6135 202.8 58.4636 202.154 58.4636C201.621 58.4636 201.179 58.6238 200.828 58.9443C200.476 59.2596 200.272 59.6861 200.215 60.2237V65.791H198.773V60.2935C198.773 59.0735 198.176 58.4636 196.982 58.4636C196.041 58.4636 195.398 58.8642 195.051 59.6654V65.791H193.617V57.4013H194.974Z" fill="#231F20"/>
</g>
<g clip-path="url(#clip1)">
<path d="M119.88 2.96094H2.95999V121.091H119.88V2.96094Z" fill="#223D5C" stroke="#F3C13B" stroke-width="5.92" stroke-miterlimit="10"/>
<path d="M10.69 10.2617H27.02" stroke="#F3C13B" stroke-width="5.92" stroke-miterlimit="10"/>
<path d="M108.51 10.2617H112.29" stroke="#F3C13B" stroke-width="5.92" stroke-miterlimit="10"/>
<path d="M10.69 112.65H13.64" stroke="#F3C13B" stroke-width="5.92" stroke-miterlimit="10"/>
<path d="M108.51 112.65H112.29" stroke="#F3C13B" stroke-width="5.92" stroke-miterlimit="10"/>
<path d="M81.23 11.7812H40.31C24.2772 11.7812 11.28 24.7784 11.28 40.8113V81.7313C11.28 97.7641 24.2772 110.761 40.31 110.761H81.23C97.2628 110.761 110.26 97.7641 110.26 81.7313V40.8113C110.26 24.7784 97.2628 11.7812 81.23 11.7812Z" fill="#EEEDEE"/>
<path opacity="0.5" d="M17.41 97.4703C17.4127 99.3675 18.1682 101.186 19.5107 102.527C20.8531 103.867 22.6728 104.62 24.57 104.62H97C98.8972 104.62 100.717 103.867 102.059 102.527C103.402 101.186 104.157 99.3675 104.16 97.4703V25.0703L17.41 97.4703Z" fill="#A4C7D5"/>
<path opacity="0.5" d="M73.17 19.8418H48.37C32.3372 19.8418 19.34 32.839 19.34 48.8718V73.6718C19.34 89.7046 32.3372 102.702 48.37 102.702H73.17C89.2028 102.702 102.2 89.7046 102.2 73.6718V48.8718C102.2 32.839 89.2028 19.8418 73.17 19.8418Z" stroke="#A4C7D5" stroke-width="2.54" stroke-miterlimit="10"/>
<path opacity="0.79" d="M89.66 27.9004H31.88C29.4058 27.9004 27.4 29.9062 27.4 32.3804V90.1604C27.4 92.6346 29.4058 94.6404 31.88 94.6404H89.66C92.1342 94.6404 94.14 92.6346 94.14 90.1604V32.3804C94.14 29.9062 92.1342 27.9004 89.66 27.9004Z" fill="#223D5C" stroke="#F3C13B" stroke-width="5.92" stroke-miterlimit="10"/>
<path d="M69.01 32.0215H53.75C42.4447 32.0215 33.28 41.1862 33.28 52.4915V67.7515C33.28 79.0568 42.4447 88.2215 53.75 88.2215H69.01C80.3153 88.2215 89.48 79.0568 89.48 67.7515V52.4915C89.48 41.1862 80.3153 32.0215 69.01 32.0215Z" fill="white"/>
<path d="M107.77 36.8906H112.95V81.5306H107.77" fill="white"/>
<path d="M8.60999 36.8906H13.79V81.5306H8.60999" fill="white"/>
<path d="M82.97 9.74023V14.9302H38.34V9.74023" fill="white"/>
<path d="M82.97 108.16V113.35H38.34V108.16" fill="white"/>
<path d="M54.0869 55.3077L49.4113 65.791H47.907L52.5671 55.6799H46.457V54.5013H54.0869V55.3077ZM57.2195 57.4013L57.266 58.4558C57.907 57.6494 58.7444 57.2462 59.7782 57.2462C61.5513 57.2462 62.4456 58.2465 62.4611 60.247V65.791H61.0266V60.2392C61.0215 59.6344 60.8819 59.1873 60.6079 58.8978C60.3391 58.6083 59.9178 58.4636 59.344 58.4636C58.8788 58.4636 58.4704 58.5876 58.1189 58.8358C57.7674 59.0839 57.4934 59.4096 57.297 59.8128V65.791H55.8625V57.4013H57.2195ZM65.9736 57.4013L66.0124 58.3318C66.6275 57.6081 67.4572 57.2462 68.5014 57.2462C69.6748 57.2462 70.4735 57.6959 70.8973 58.5954C71.1765 58.1922 71.5383 57.8665 71.9829 57.6184C72.4326 57.3703 72.9625 57.2462 73.5724 57.2462C75.4127 57.2462 76.3483 58.2206 76.3794 60.1694V65.791H74.9449V60.2547C74.9449 59.6551 74.8079 59.2079 74.5339 58.9133C74.26 58.6135 73.7999 58.4636 73.1537 58.4636C72.6213 58.4636 72.1793 58.6238 71.8278 58.9443C71.4763 59.2596 71.2721 59.6861 71.2153 60.2237V65.791H69.773V60.2935C69.773 59.0735 69.176 58.4636 67.9819 58.4636C67.0411 58.4636 66.3975 58.8642 66.0512 59.6654V65.791H64.6167V57.4013H65.9736Z" fill="#231F20"/>
</g>
<defs>
<clipPath id="clip0">
<rect width="122.84" height="124.05" fill="white" transform="translate(129)"/>
</clipPath>
<clipPath id="clip1">
<rect width="122.84" height="124.05" fill="white"/>
</clipPath>
</defs>
</svg>
