<svg width="720" height="87" viewBox="0 0 720 87" fill="none" xmlns="http://www.w3.org/2000/svg">
<path d="M149.38 61.82C149.24 61.38 149 60.84 148.74 60.36H152.7C152.56 60.84 152.36 61.36 152.16 61.82H149.38ZM144.96 58.64V60.36H147.24L146.6 60.48C146.82 60.88 147.02 61.38 147.16 61.82H144.16V63.66H157.38V61.82H154.38C154.64 61.38 154.92 60.88 155.2 60.36H156.8V58.64H151.9V57.18H149.52V58.64H144.96ZM153.66 66.68H147.9V65.86H153.66V66.68ZM153.66 68.78H147.9V67.94H153.66V68.78ZM156.02 64.44H145.64V70.2H149.42L149 70.52C149.86 71.1 150.88 72.02 151.32 72.66L152.86 71.44C152.56 71.06 152.08 70.62 151.56 70.2H156.02V64.44ZM143 57.1C141.94 59.88 140.12 62.64 138.26 64.36C138.68 64.96 139.3 66.24 139.5 66.82C139.98 66.34 140.46 65.8 140.92 65.22V75.72H143.16V61.92C143.94 60.6 144.64 59.18 145.18 57.82L143 57.1ZM145.06 75.3C146 74.36 146.64 72.92 147.08 71.68L145.24 70.94C144.88 72.06 144.16 73.3 143.32 74.08L145.06 75.3ZM150.22 73.86C149.6 73.86 149.52 73.8 149.52 73.32V71.04H147.36V73.34C147.36 75.12 147.82 75.7 149.9 75.7H152.22C153.7 75.7 154.28 75.2 154.5 73.28C153.92 73.14 153.02 72.86 152.64 72.54C152.56 73.7 152.46 73.86 151.98 73.86H150.22ZM153.3 71.7C154.28 72.78 155.34 74.26 155.74 75.24L157.64 74.18C157.18 73.16 156.08 71.74 155.08 70.74L153.3 71.7ZM177.12 71.06V68.98H168.76C168.84 68.58 168.9 68.18 168.94 67.76H176.9V65.64H169.18V64.62H175.3V62.62H169.18V61.6H176.1V59.5H172.4C172.8 58.98 173.28 58.34 173.76 57.64L171.2 57C170.9 57.7 170.32 58.7 169.84 59.34L170.4 59.5H165.44L165.9 59.3C165.64 58.62 165.04 57.68 164.42 57.02L162.3 57.84C162.7 58.32 163.1 58.94 163.36 59.5H159.9V61.6H166.74V62.62H160.82V64.62H166.74V65.64H159.1V67.76H166.42C166.36 68.2 166.3 68.6 166.22 68.98H158.98V71.06H165.3C164.3 72.28 162.42 73.08 158.62 73.58C159.06 74.1 159.62 75.08 159.8 75.72C164.74 74.92 166.96 73.5 168.02 71.36C169.58 73.98 172 75.28 176.12 75.76C176.42 75.1 177.02 74.1 177.54 73.56C174.16 73.34 171.88 72.58 170.48 71.06H177.12ZM195.1 58.46H180.9V60.76H195.1V58.46ZM192.44 73.18C191.78 73.18 191.66 73.06 191.66 72.3V66.18H196.94V63.86H179.1V66.18H183.62C183.38 69.5 182.82 72.2 178.66 73.76C179.2 74.22 179.86 75.1 180.14 75.7C184.92 73.76 185.84 70.34 186.2 66.18H189.2V72.3C189.2 74.64 189.78 75.4 192.04 75.4H194.44C196.48 75.4 197.08 74.36 197.32 70.78C196.66 70.62 195.64 70.2 195.12 69.78C195.02 72.66 194.9 73.18 194.24 73.18H192.44Z" fill="#F3C13B"/>
<path d="M413.38 61.82C413.24 61.38 413 60.84 412.74 60.36H416.7C416.56 60.84 416.36 61.36 416.16 61.82H413.38ZM408.96 58.64V60.36H411.24L410.6 60.48C410.82 60.88 411.02 61.38 411.16 61.82H408.16V63.66H421.38V61.82H418.38C418.64 61.38 418.92 60.88 419.2 60.36H420.8V58.64H415.9V57.18H413.52V58.64H408.96ZM417.66 66.68H411.9V65.86H417.66V66.68ZM417.66 68.78H411.9V67.94H417.66V68.78ZM420.02 64.44H409.64V70.2H413.42L413 70.52C413.86 71.1 414.88 72.02 415.32 72.66L416.86 71.44C416.56 71.06 416.08 70.62 415.56 70.2H420.02V64.44ZM407 57.1C405.94 59.88 404.12 62.64 402.26 64.36C402.68 64.96 403.3 66.24 403.5 66.82C403.98 66.34 404.46 65.8 404.92 65.22V75.72H407.16V61.92C407.94 60.6 408.64 59.18 409.18 57.82L407 57.1ZM409.06 75.3C410 74.36 410.64 72.92 411.08 71.68L409.24 70.94C408.88 72.06 408.16 73.3 407.32 74.08L409.06 75.3ZM414.22 73.86C413.6 73.86 413.52 73.8 413.52 73.32V71.04H411.36V73.34C411.36 75.12 411.82 75.7 413.9 75.7H416.22C417.7 75.7 418.28 75.2 418.5 73.28C417.92 73.14 417.02 72.86 416.64 72.54C416.56 73.7 416.46 73.86 415.98 73.86H414.22ZM417.3 71.7C418.28 72.78 419.34 74.26 419.74 75.24L421.64 74.18C421.18 73.16 420.08 71.74 419.08 70.74L417.3 71.7ZM441.12 71.06V68.98H432.76C432.84 68.58 432.9 68.18 432.94 67.76H440.9V65.64H433.18V64.62H439.3V62.62H433.18V61.6H440.1V59.5H436.4C436.8 58.98 437.28 58.34 437.76 57.64L435.2 57C434.9 57.7 434.32 58.7 433.84 59.34L434.4 59.5H429.44L429.9 59.3C429.64 58.62 429.04 57.68 428.42 57.02L426.3 57.84C426.7 58.32 427.1 58.94 427.36 59.5H423.9V61.6H430.74V62.62H424.82V64.62H430.74V65.64H423.1V67.76H430.42C430.36 68.2 430.3 68.6 430.22 68.98H422.98V71.06H429.3C428.3 72.28 426.42 73.08 422.62 73.58C423.06 74.1 423.62 75.08 423.8 75.72C428.74 74.92 430.96 73.5 432.02 71.36C433.58 73.98 436 75.28 440.12 75.76C440.42 75.1 441.02 74.1 441.54 73.56C438.16 73.34 435.88 72.58 434.48 71.06H441.12ZM459.1 58.46H444.9V60.76H459.1V58.46ZM456.44 73.18C455.78 73.18 455.66 73.06 455.66 72.3V66.18H460.94V63.86H443.1V66.18H447.62C447.38 69.5 446.82 72.2 442.66 73.76C443.2 74.22 443.86 75.1 444.14 75.7C448.92 73.76 449.84 70.34 450.2 66.18H453.2V72.3C453.2 74.64 453.78 75.4 456.04 75.4H458.44C460.48 75.4 461.08 74.36 461.32 70.78C460.66 70.62 459.64 70.2 459.12 69.78C459.02 72.66 458.9 73.18 458.24 73.18H456.44Z" fill="#F3C13B"/>
<path d="M1.71875 76C1.79036 73.207 2.39014 70.6558 3.51807 68.3462C4.61019 65.7502 7.18831 63.002 11.2524 60.1016C14.7795 57.5771 17.0622 55.7689 18.1006 54.6768C19.694 52.9759 20.4907 51.1139 20.4907 49.0908C20.4907 47.4437 20.0342 46.0741 19.1211 44.9819C18.208 43.8898 16.901 43.3438 15.2002 43.3438C12.8727 43.3438 11.2882 44.2121 10.4468 45.9487C9.96338 46.9513 9.67692 48.5448 9.5874 50.729H2.14844C2.27376 47.4168 2.87354 44.7402 3.94775 42.6992C5.98877 38.8141 9.61426 36.8716 14.8242 36.8716C18.9421 36.8716 22.2184 38.0174 24.6533 40.3091C27.0882 42.5828 28.3057 45.5996 28.3057 49.3594C28.3057 52.2419 27.4463 54.8021 25.7275 57.04C24.5996 58.526 22.7466 60.1821 20.1685 62.0083L17.1069 64.1836C15.1912 65.5443 13.8753 66.529 13.1592 67.1377C12.4609 67.7464 11.8701 68.4536 11.3867 69.2593H28.3862V76H1.71875ZM40.0146 63.6733C40.0146 65.7681 40.5786 67.4779 41.7065 68.8027C42.8345 70.1276 44.2668 70.79 46.0034 70.79C47.7043 70.79 49.0381 70.1545 50.0049 68.8833C50.9896 67.5942 51.4819 65.9292 51.4819 63.8882C51.4819 61.6144 50.9269 59.8778 49.8169 58.6782C48.7069 57.4608 47.3462 56.8521 45.7349 56.8521C44.4279 56.8521 43.2731 57.2459 42.2705 58.0337C40.7666 59.1974 40.0146 61.0773 40.0146 63.6733ZM50.7837 46.8618C50.7837 46.2352 50.542 45.5459 50.0586 44.7939C49.235 43.5765 47.9907 42.9678 46.3257 42.9678C43.8371 42.9678 42.0646 44.3643 41.0083 47.1572C40.4354 48.6969 40.0415 50.9707 39.8267 53.9785C40.7756 52.8506 41.8766 52.027 43.1299 51.5078C44.3831 50.9886 45.8154 50.729 47.4268 50.729C50.8822 50.729 53.7109 51.9017 55.9131 54.2471C58.1331 56.5924 59.2432 59.5913 59.2432 63.2437C59.2432 66.8781 58.16 70.0828 55.9937 72.8579C53.8273 75.633 50.4614 77.0205 45.896 77.0205C40.9904 77.0205 37.3739 74.9705 35.0464 70.8706C33.2381 67.6659 32.334 63.5301 32.334 58.4634C32.334 55.4914 32.4593 53.0744 32.71 51.2124C33.1576 47.9002 34.0259 45.1431 35.3149 42.9409C36.425 41.061 37.8752 39.5482 39.6655 38.4023C41.4738 37.2565 43.6312 36.6836 46.1377 36.6836C49.7542 36.6836 52.6367 37.6146 54.7852 39.4766C56.9336 41.3206 58.1421 43.7824 58.4106 46.8618H50.7837ZM64.668 67.9971H72.8052V76H64.668V67.9971ZM105.542 43.5586C104.396 44.6865 102.803 46.7007 100.762 49.6011C98.7207 52.4836 97.0109 55.4645 95.6323 58.5439C94.5402 60.9609 93.5555 63.915 92.6782 67.4062C91.8009 70.8975 91.3623 73.762 91.3623 76H83.4131C83.6458 69.0176 85.9375 61.7576 90.2881 54.2202C93.099 49.5474 95.4533 46.2889 97.3511 44.4448H77.9346L78.042 37.5698H105.542V43.5586ZM110.967 49.1445V43.9346C113.384 43.8271 115.076 43.666 116.042 43.4512C117.582 43.111 118.835 42.4307 119.802 41.4102C120.465 40.7119 120.966 39.7809 121.306 38.6172C121.503 37.9189 121.602 37.3997 121.602 37.0596H127.966V76H120.125V49.1445H110.967Z" fill="#F3C13B"/>
<path d="M247 58L227 46.453V69.547L247 58ZM209 60H229V56H209V60Z" fill="#F3C13B"/>
<path d="M516 58L496 46.453V69.547L516 58ZM478 60H498V56H478V60Z" fill="#F3C13B"/>
<path d="M268.077 65.5801C268.382 67.2451 268.963 68.5342 269.823 69.4473C270.682 70.3424 271.935 70.79 273.583 70.79C275.48 70.79 276.922 70.1276 277.906 68.8027C278.909 67.46 279.41 65.777 279.41 63.7539C279.41 61.7666 278.945 60.0926 278.014 58.7319C277.083 57.3534 275.632 56.6641 273.663 56.6641C272.732 56.6641 271.926 56.7804 271.246 57.0132C270.047 57.4429 269.142 58.2396 268.534 59.4033L261.659 59.0811L264.398 37.5698H285.855V44.0688H269.93L268.534 52.582C269.715 51.8122 270.637 51.3019 271.3 51.0513C272.41 50.6395 273.762 50.4336 275.355 50.4336C278.578 50.4336 281.389 51.5168 283.788 53.6831C286.187 55.8494 287.386 59.0005 287.386 63.1362C287.386 66.7349 286.231 69.9486 283.922 72.7773C281.612 75.6061 278.157 77.0205 273.556 77.0205C269.85 77.0205 266.806 76.0269 264.425 74.0396C262.044 72.0522 260.719 69.2324 260.45 65.5801H268.077ZM291.253 50.7559C291.253 46.5843 292.453 43.2095 294.852 40.6313C297.269 38.0353 300.402 36.7373 304.251 36.7373C310.178 36.7373 314.242 39.3602 316.444 44.606C317.697 47.578 318.324 51.4899 318.324 56.3418C318.324 61.0505 317.724 64.9803 316.524 68.1313C314.233 74.1291 310.025 77.1279 303.902 77.1279C300.984 77.1279 298.361 76.2686 296.034 74.5498C293.706 72.8132 292.372 70.2887 292.032 66.9766H299.659C299.838 68.1224 300.322 69.0534 301.109 69.7695C301.897 70.4857 302.944 70.8438 304.251 70.8438C306.776 70.8438 308.548 69.4473 309.569 66.6543C310.124 65.1146 310.473 62.8677 310.616 59.9136C309.918 60.7909 309.175 61.4622 308.387 61.9277C306.955 62.7871 305.191 63.2168 303.097 63.2168C299.999 63.2168 297.251 62.1515 294.852 60.021C292.453 57.8726 291.253 54.7842 291.253 50.7559ZM304.762 56.9863C305.818 56.9863 306.812 56.682 307.743 56.0732C309.479 54.9632 310.348 53.0386 310.348 50.2993C310.348 48.0972 309.828 46.3516 308.79 45.0625C307.77 43.7734 306.364 43.1289 304.574 43.1289C303.267 43.1289 302.148 43.4959 301.217 44.23C299.749 45.3758 299.015 47.3184 299.015 50.0576C299.015 52.3672 299.48 54.1038 300.411 55.2676C301.36 56.4134 302.81 56.9863 304.762 56.9863ZM323.668 67.9971H331.805V76H323.668V67.9971ZM344.508 64.0493C344.508 65.6069 344.758 66.896 345.26 67.9165C346.191 69.7964 347.883 70.7363 350.335 70.7363C351.839 70.7363 353.146 70.2261 354.256 69.2056C355.384 68.1672 355.948 66.6812 355.948 64.7476C355.948 62.1873 354.91 60.4775 352.833 59.6182C351.651 59.1348 349.789 58.8931 347.247 58.8931V53.4146C349.736 53.3787 351.472 53.137 352.457 52.6895C354.158 51.9375 355.008 50.4157 355.008 48.124C355.008 46.638 354.57 45.4295 353.692 44.4985C352.833 43.5675 351.616 43.1021 350.04 43.1021C348.232 43.1021 346.898 43.675 346.039 44.8208C345.197 45.9666 344.794 47.4974 344.83 49.4131H337.687C337.758 47.4795 338.089 45.6444 338.68 43.9077C339.307 42.3859 340.292 40.9805 341.634 39.6914C342.637 38.7783 343.827 38.0801 345.206 37.5967C346.585 37.1133 348.277 36.8716 350.282 36.8716C354.006 36.8716 357.005 37.8384 359.278 39.772C361.57 41.6877 362.716 44.2658 362.716 47.5063C362.716 49.798 362.035 51.7316 360.675 53.3071C359.815 54.2918 358.92 54.9632 357.989 55.3213C358.688 55.3213 359.69 55.9211 360.997 57.1206C362.949 58.9289 363.924 61.3996 363.924 64.5327C363.924 67.827 362.778 70.7274 360.487 73.2339C358.213 75.7225 354.838 76.9668 350.362 76.9668C344.848 76.9668 341.017 75.1675 338.868 71.5688C337.74 69.6532 337.114 67.1466 336.988 64.0493H344.508ZM375.553 63.6733C375.553 65.7681 376.117 67.4779 377.245 68.8027C378.373 70.1276 379.805 70.79 381.542 70.79C383.242 70.79 384.576 70.1545 385.543 68.8833C386.528 67.5942 387.02 65.9292 387.02 63.8882C387.02 61.6144 386.465 59.8778 385.355 58.6782C384.245 57.4608 382.884 56.8521 381.273 56.8521C379.966 56.8521 378.811 57.2459 377.809 58.0337C376.305 59.1974 375.553 61.0773 375.553 63.6733ZM386.322 46.8618C386.322 46.2352 386.08 45.5459 385.597 44.7939C384.773 43.5765 383.529 42.9678 381.864 42.9678C379.375 42.9678 377.603 44.3643 376.546 47.1572C375.973 48.6969 375.58 50.9707 375.365 53.9785C376.314 52.8506 377.415 52.027 378.668 51.5078C379.921 50.9886 381.354 50.729 382.965 50.729C386.42 50.729 389.249 51.9017 391.451 54.2471C393.671 56.5924 394.781 59.5913 394.781 63.2437C394.781 66.8781 393.698 70.0828 391.532 72.8579C389.365 75.633 386 77.0205 381.434 77.0205C376.528 77.0205 372.912 74.9705 370.584 70.8706C368.776 67.6659 367.872 63.5301 367.872 58.4634C367.872 55.4914 367.997 53.0744 368.248 51.2124C368.696 47.9002 369.564 45.1431 370.853 42.9409C371.963 41.061 373.413 39.5482 375.204 38.4023C377.012 37.2565 379.169 36.6836 381.676 36.6836C385.292 36.6836 388.175 37.6146 390.323 39.4766C392.472 41.3206 393.68 43.7824 393.949 46.8618H386.322Z" fill="#F3C13B"/>
<path d="M605.5 52C605.521 51.1875 605.695 50.4453 606.023 49.7734C606.341 49.0182 607.091 48.2188 608.273 47.375C609.299 46.6406 609.964 46.1146 610.266 45.7969C610.729 45.3021 610.961 44.7604 610.961 44.1719C610.961 43.6927 610.828 43.2943 610.562 42.9766C610.297 42.6589 609.917 42.5 609.422 42.5C608.745 42.5 608.284 42.7526 608.039 43.2578C607.898 43.5495 607.815 44.013 607.789 44.6484H605.625C605.661 43.6849 605.836 42.9062 606.148 42.3125C606.742 41.1823 607.797 40.6172 609.312 40.6172C610.51 40.6172 611.464 40.9505 612.172 41.6172C612.88 42.2786 613.234 43.1562 613.234 44.25C613.234 45.0885 612.984 45.8333 612.484 46.4844C612.156 46.9167 611.617 47.3984 610.867 47.9297L609.977 48.5625C609.419 48.9583 609.036 49.2448 608.828 49.4219C608.625 49.599 608.453 49.8047 608.312 50.0391H613.258V52H605.5ZM616.641 48.7109C616.641 49.2682 616.784 49.7005 617.07 50.0078C617.362 50.3151 617.763 50.4688 618.273 50.4688C618.784 50.4688 619.182 50.3151 619.469 50.0078C619.76 49.7005 619.906 49.2682 619.906 48.7109C619.906 48.1328 619.758 47.6953 619.461 47.3984C619.169 47.0964 618.773 46.9453 618.273 46.9453C617.773 46.9453 617.375 47.0964 617.078 47.3984C616.786 47.6953 616.641 48.1328 616.641 48.7109ZM614.328 48.8594C614.328 48.224 614.471 47.6484 614.758 47.1328C615.049 46.6172 615.474 46.2292 616.031 45.9688C615.484 45.6042 615.128 45.2109 614.961 44.7891C614.799 44.362 614.719 43.9635 614.719 43.5938C614.719 42.7708 615.029 42.0703 615.648 41.4922C616.268 40.9089 617.143 40.6172 618.273 40.6172C619.404 40.6172 620.279 40.9089 620.898 41.4922C621.518 42.0703 621.828 42.7708 621.828 43.5938C621.828 43.9635 621.745 44.362 621.578 44.7891C621.417 45.2109 621.062 45.5781 620.516 45.8906C621.073 46.2031 621.492 46.6172 621.773 47.1328C622.055 47.6484 622.195 48.224 622.195 48.8594C622.195 49.8125 621.841 50.625 621.133 51.2969C620.43 51.9635 619.445 52.2969 618.18 52.2969C616.914 52.2969 615.956 51.9635 615.305 51.2969C614.654 50.625 614.328 49.8125 614.328 48.8594ZM616.844 43.8438C616.844 44.2552 616.969 44.5911 617.219 44.8516C617.474 45.112 617.826 45.2422 618.273 45.2422C618.727 45.2422 619.076 45.112 619.32 44.8516C619.57 44.5911 619.695 44.2552 619.695 43.8438C619.695 43.3958 619.57 43.0469 619.32 42.7969C619.076 42.5417 618.727 42.4141 618.273 42.4141C617.826 42.4141 617.474 42.5417 617.219 42.7969C616.969 43.0469 616.844 43.3958 616.844 43.8438ZM626.413 49.152C625.821 50.144 624.733 51.152 623.661 51.808C624.109 52.08 624.829 52.656 625.181 52.992C626.253 52.224 627.469 50.96 628.237 49.696L626.413 49.152ZM636.557 48.56V46.896H625.085V48.56H629.853V51.52C629.853 51.712 629.789 51.776 629.533 51.776C629.293 51.792 628.381 51.792 627.629 51.744C627.901 52.208 628.205 52.88 628.301 53.392C629.437 53.392 630.285 53.376 630.941 53.12C631.581 52.864 631.789 52.448 631.789 51.584V48.56H636.557ZM632.989 49.968C634.029 50.88 635.293 52.192 635.853 53.008L637.501 52.032C636.877 51.184 635.549 49.952 634.525 49.104L632.989 49.968ZM631.901 42.016C632.349 42.72 632.877 43.392 633.469 44H628.189C628.813 43.376 629.325 42.704 629.773 42.016H631.901ZM637.789 42.016V40.304H630.717C630.941 39.776 631.149 39.264 631.325 38.72L629.245 38.448C629.085 39.072 628.861 39.696 628.557 40.304H623.821V42.016H627.469C626.445 43.28 625.037 44.4 623.085 45.248C623.517 45.552 624.141 46.256 624.381 46.72C625.629 46.112 626.685 45.392 627.565 44.592V45.616H633.981V44.512C634.925 45.376 635.997 46.128 637.133 46.608C637.405 46.144 637.997 45.424 638.429 45.056C636.717 44.432 635.053 43.312 633.949 42.016H637.789ZM651.341 39.136C650.845 40.416 649.965 42.048 649.213 43.104L650.877 43.84C651.661 42.88 652.637 41.376 653.469 39.968L651.341 39.136ZM644.269 42.864C643.917 41.84 643.021 40.336 642.141 39.216L640.397 39.984C641.245 41.136 642.093 42.704 642.381 43.712L644.269 42.864ZM653.981 46.336V44.4H647.837V38.464H645.789V44.4H639.661V46.336H644.493C643.213 48.288 641.197 50.208 639.245 51.28C639.693 51.664 640.317 52.4 640.653 52.88C642.525 51.664 644.397 49.744 645.789 47.616V53.408H647.837V47.552C649.261 49.648 651.133 51.568 652.989 52.8C653.341 52.272 653.981 51.536 654.445 51.152C652.525 50.08 650.493 48.24 649.165 46.336H653.981ZM669.421 38.56H667.693V44.928C667.693 45.12 667.629 45.184 667.389 45.184C667.165 45.2 666.397 45.2 665.677 45.168C665.901 45.584 666.157 46.224 666.237 46.672C667.341 46.672 668.125 46.656 668.685 46.416C669.261 46.176 669.421 45.776 669.421 44.96V38.56ZM665.949 39.088H664.253V44.416H665.949V39.088ZM667.821 48.56C667.181 49.024 666.301 49.552 665.549 49.936C665.101 49.536 664.717 49.072 664.413 48.56H667.821ZM656.973 41.328C657.117 41.136 657.245 40.912 657.373 40.688H658.893V41.328H656.973ZM668.397 48.56H669.997V47.056H663.757V46.224H662.061C662.349 46.208 662.605 46.16 662.812 46.064C663.229 45.872 663.341 45.584 663.341 44.976V43.168H660.509V42.608H663.597V41.328H660.509V40.688H663.165V39.472H660.509V38.448H658.893V39.472H657.981C658.077 39.248 658.157 39.04 658.237 38.816L656.845 38.464C656.573 39.296 656.125 40.16 655.597 40.768C655.853 40.896 656.269 41.136 656.589 41.328H655.613V42.608H658.893V43.168H656.253V46.304H657.693V44.32H658.893V46.656H660.509V44.32H661.821V44.976C661.821 45.104 661.773 45.152 661.629 45.152C661.517 45.152 661.133 45.152 660.765 45.136C660.925 45.44 661.149 45.872 661.229 46.24C661.469 46.24 661.677 46.24 661.869 46.24V47.056H655.645V48.56H660.317C658.941 49.2 657.133 49.664 655.373 49.904C655.709 50.256 656.157 50.88 656.381 51.28C657.277 51.12 658.173 50.896 659.021 50.608V51.504C658.445 51.568 657.901 51.632 657.437 51.68L657.709 53.232C659.469 52.976 661.853 52.656 664.109 52.336L664.045 50.848C662.973 50.992 661.885 51.136 660.845 51.264V49.872C661.533 49.536 662.173 49.152 662.733 48.736C663.933 51.28 665.933 52.784 669.261 53.424C669.485 52.96 669.933 52.272 670.301 51.904C668.941 51.696 667.789 51.344 666.829 50.832C667.677 50.432 668.653 49.904 669.469 49.36L668.397 48.56ZM683.645 42.848H679.917V40.64H683.645V42.848ZM685.501 39.04H678.157V44.448H685.501V39.04ZM677.693 47.264C677.389 46.912 676.077 45.52 675.645 45.168V44.704H677.357V42.928H675.645V40.672C676.333 40.496 676.973 40.288 677.549 40.064L676.285 38.608C675.053 39.168 673.085 39.632 671.325 39.936C671.533 40.32 671.757 40.96 671.853 41.392C672.477 41.312 673.133 41.2 673.805 41.072V42.928H671.517V44.704H673.549C672.957 46.256 672.077 47.952 671.181 48.992C671.485 49.472 671.885 50.256 672.061 50.8C672.685 50 673.293 48.864 673.805 47.632V53.376H675.645V47.136C676.029 47.712 676.413 48.336 676.605 48.752L677.693 47.264ZM682.717 51.376V49.968H685.549V48.368H682.717V47.04H685.933V45.408H677.645V47.04H680.829V48.368H678.029V49.968H680.829V51.376H677.021V53.04H686.269V51.376H682.717ZM692.685 45.248L691.213 45.616V43.248H692.781V41.488H691.213V38.464H689.325V41.488H687.485V43.248H689.325V46.08C688.557 46.272 687.868 46.416 687.277 46.544L687.773 48.352L689.325 47.968V51.264C689.325 51.504 689.245 51.584 689.021 51.584C688.812 51.584 688.157 51.584 687.533 51.568C687.757 52.064 687.997 52.816 688.061 53.296C689.197 53.296 689.965 53.248 690.493 52.96C691.036 52.656 691.213 52.208 691.213 51.28V47.456C691.789 47.312 692.365 47.152 692.925 46.992L692.685 45.248ZM699.389 46.112C698.909 47.2 698.205 48.16 697.373 48.944C696.573 48.128 695.933 47.168 695.485 46.112H699.389ZM700.573 44.32L700.237 44.4H698.317V42.48H701.901V40.72H698.317V38.432H696.429V40.72H692.989V42.48H696.429V44.4H693.277V46.112H694.109L693.629 46.256C694.221 47.728 694.973 48.992 695.901 50.064C694.781 50.784 693.485 51.296 692.077 51.632C692.429 52.048 692.877 52.848 693.085 53.36C694.653 52.896 696.061 52.256 697.309 51.392C698.429 52.272 699.741 52.944 701.293 53.408C701.565 52.912 702.109 52.144 702.509 51.76C701.085 51.408 699.853 50.88 698.797 50.144C700.157 48.8 701.181 47.04 701.789 44.832L700.573 44.32ZM718.029 39.312H714.237V40.976H718.029V39.312ZM714.077 41.04C713.885 40.448 713.405 39.552 712.989 38.864L711.725 39.392C712.141 40.096 712.589 41.04 712.781 41.632L714.077 41.04ZM705.917 38.464C705.357 39.472 704.253 40.736 703.229 41.52C703.517 41.84 703.981 42.544 704.205 42.944C705.437 41.968 706.781 40.464 707.629 39.072L705.917 38.464ZM707.885 45.12C707.789 47.088 707.581 49.088 707.005 50.368C707.357 50.576 708.013 51.024 708.285 51.248C708.909 49.792 709.245 47.568 709.405 45.344L707.885 45.12ZM713.677 43.584V41.84H711.613V38.688H709.853V41.84H707.725V42.304L706.285 41.808C705.533 43.456 704.301 45.12 703.037 46.176C703.373 46.576 703.885 47.536 704.061 47.936C704.381 47.632 704.717 47.296 705.037 46.928V53.392H706.797V44.56C707.133 44.032 707.453 43.472 707.725 42.928V43.584H709.853V53.136H711.613V43.584H713.677ZM711.917 45.424C712.22 46.944 712.509 48.912 712.557 50.192L714.029 49.904C713.933 48.608 713.645 46.688 713.309 45.152L711.917 45.424ZM718.269 43.808H713.837V45.504H715.229V51.296C715.229 51.504 715.165 51.552 714.957 51.552C714.765 51.552 714.093 51.552 713.437 51.52C713.677 52.08 713.901 52.848 713.949 53.376C715.005 53.376 715.789 53.344 716.349 53.04C716.909 52.736 717.037 52.224 717.037 51.328V45.504H718.269V43.808ZM610.664 60.416V61.232H608.152V60.416H610.664ZM608.152 63.344V62.48H610.664V63.344H608.152ZM612.456 64.72V59.056H606.296V73.392H608.152V64.72H612.456ZM612.2 68.24V67.04H613.688V68.24H612.2ZM617.112 69.792V68.24H615.352V67.04H616.856V65.536H609.128V67.04H610.584V68.24H608.904V69.792H610.52C610.36 70.608 609.912 71.648 608.888 72.288C609.256 72.544 609.832 73.04 610.104 73.376C611.464 72.448 611.992 70.896 612.152 69.792H613.688V73.088H615.352V69.792H617.112ZM615.32 63.376V62.48H617.912V63.376H615.32ZM617.912 60.416V61.232H615.32V60.416H617.912ZM619.784 59.056H613.512V64.752H617.912V71.152C617.912 71.376 617.832 71.472 617.576 71.472C617.336 71.488 616.552 71.488 615.832 71.456C616.088 71.952 616.344 72.816 616.408 73.344C617.624 73.344 618.456 73.296 619.032 72.976C619.608 72.672 619.784 72.144 619.784 71.168V59.056ZM627.8 63.712L627.992 65.536C629.816 65.408 632.328 65.232 634.712 65.04C634.888 65.44 635.016 65.808 635.112 66.144L636.76 65.264C636.376 64.048 635.32 62.272 634.328 60.928L632.824 61.696C633.176 62.208 633.528 62.784 633.864 63.376C632.872 63.424 631.896 63.488 630.968 63.536C631.56 62.144 632.168 60.4 632.68 58.816L630.568 58.448C630.264 60.016 629.688 62.08 629.112 63.648L627.8 63.712ZM626.008 63.376C625.816 65.008 625.512 66.464 625.048 67.696C624.616 67.392 624.184 67.104 623.768 66.848C624.04 65.76 624.328 64.576 624.6 63.376H626.008ZM626.76 61.584L626.44 61.632H624.984C625.208 60.592 625.416 59.568 625.592 58.624L623.8 58.448C623.64 59.44 623.432 60.528 623.208 61.632H621.672V63.376H622.84C622.44 65.232 622.008 67.008 621.624 68.32L623.16 69.152L623.32 68.592C623.64 68.816 623.976 69.072 624.296 69.328C623.624 70.496 622.744 71.376 621.688 71.936C622.056 72.288 622.568 72.976 622.84 73.456C624.024 72.72 624.984 71.76 625.736 70.528C626.312 71.056 626.808 71.584 627.144 72.032L628.28 70.512C627.88 70 627.272 69.424 626.568 68.848C627.288 66.992 627.72 64.672 627.896 61.76L626.76 61.584ZM633.976 68.432V71.056H630.616V68.432H633.976ZM628.824 73.392H630.616V72.768H633.976V73.328H635.864V66.72H628.824V73.392ZM648.264 60.432H641.624V59.92H648.264V60.432ZM648.264 61.904H641.624V61.376H648.264V61.904ZM650.184 58.928H639.784V62.88H650.184V58.928ZM652.264 63.36H637.784V64.72H652.264V63.36ZM641.288 68.272V67.712H644.072V68.272H641.288ZM641.288 66.208H644.072V66.768H641.288V66.208ZM648.696 66.768H645.896V66.208H648.696V66.768ZM648.696 68.272H645.896V67.712H648.696V68.272ZM645.896 71.616V71.04H650.856V69.808H645.896V69.296H650.552V65.2H639.496V69.296H644.072V69.808H639.176V71.04H644.072V71.616H637.752V72.992H652.296V71.616H645.896ZM661.624 67.872V68.896H658.28V70.336H661.624V71.552H656.92V73.088H668.152V71.552H663.496V70.336H666.888V68.896H663.496V67.872H667.368V66.384H663.496V65.328H661.624V66.384H659.864C659.992 66.112 660.104 65.824 660.2 65.552L658.536 65.152C658.152 66.288 657.464 67.376 656.648 68.08C657.048 68.32 657.72 68.8 658.04 69.088C658.376 68.752 658.712 68.336 659.016 67.872H661.624ZM658.696 63.616C659.64 63.408 660.616 63.152 661.528 62.864C662.376 63.12 663.16 63.376 663.848 63.616H658.696ZM663.096 61.024C662.632 61.232 662.104 61.44 661.544 61.616C660.76 61.408 659.976 61.2 659.224 61.024H663.096ZM668.28 63.616H665.016L665.816 62.944C665.144 62.704 664.328 62.432 663.432 62.16C664.12 61.872 664.744 61.552 665.272 61.216L664.92 61.024H667.512V59.536H661.912V58.464H660.008V59.536H654.68V61.024H657.688L656.872 61.632C657.656 61.808 658.488 62.016 659.336 62.24C658.296 62.48 657.24 62.672 656.28 62.816C656.424 63.008 656.632 63.328 656.792 63.616H654.792V66.288C654.792 68.064 654.664 70.592 653.384 72.384C653.784 72.608 654.568 73.232 654.872 73.584C656.36 71.568 656.648 68.416 656.648 66.304V65.152H668.28V63.616Z" fill="#F3C13B"/>
<path d="M594.612 28.4111H539.401V84.5896H594.612V28.4111Z" fill="#223D5C" stroke="#F3C13B" stroke-width="2.23" stroke-miterlimit="10"/>
<path d="M543.04 31.875H550.755" stroke="#F3C13B" stroke-width="2.23" stroke-miterlimit="10"/>
<path d="M589.235 31.875H591.023" stroke="#F3C13B" stroke-width="2.23" stroke-miterlimit="10"/>
<path d="M543.04 80.5713H544.44" stroke="#F3C13B" stroke-width="2.23" stroke-miterlimit="10"/>
<path d="M589.235 80.5713H591.023" stroke="#F3C13B" stroke-width="2.23" stroke-miterlimit="10"/>
<path d="M576.354 32.6055H557.033C549.464 32.6055 543.327 38.7863 543.327 46.4108V65.8717C543.327 73.4961 549.464 79.677 557.033 79.677H576.354C583.924 79.677 590.06 73.4961 590.06 65.8717V46.4108C590.06 38.7863 583.924 32.6055 576.354 32.6055Z" fill="#EEEDEE"/>
<path opacity="0.5" d="M546.216 73.3537C546.216 73.8014 546.304 74.2446 546.474 74.6581C546.645 75.0715 546.895 75.447 547.209 75.763C547.524 76.0789 547.898 76.3292 548.309 76.4994C548.72 76.6695 549.161 76.7563 549.605 76.7546H583.782C584.227 76.7563 584.667 76.6695 585.078 76.4994C585.489 76.3292 585.863 76.0789 586.178 75.763C586.493 75.447 586.743 75.0715 586.913 74.6581C587.083 74.2446 587.171 73.8014 587.171 73.3537V38.916L546.216 73.3537Z" fill="#A4C7D5"/>
<path opacity="0.5" d="M572.54 36.4346H560.835C553.265 36.4346 547.129 42.6154 547.129 50.2399V62.0298C547.129 69.6542 553.265 75.8351 560.835 75.8351H572.54C580.109 75.8351 586.246 69.6542 586.246 62.0298V50.2399C586.246 42.6154 580.109 36.4346 572.54 36.4346Z" stroke="#A4C7D5" stroke-width="0.96" stroke-miterlimit="10"/>
<path opacity="0.79" d="M580.343 40.2637H553.056C551.889 40.2637 550.943 41.2167 550.943 42.3924V69.877C550.943 71.0527 551.889 72.0058 553.056 72.0058H580.343C581.51 72.0058 582.457 71.0527 582.457 69.877V42.3924C582.457 41.2167 581.51 40.2637 580.343 40.2637Z" fill="#223D5C" stroke="#F3C13B" stroke-width="2.23" stroke-miterlimit="10"/>
<path d="M570.589 42.2285H563.386C558.047 42.2285 553.719 46.5878 553.719 51.9653V59.2206C553.719 64.5981 558.047 68.9574 563.386 68.9574H570.589C575.928 68.9574 580.256 64.5981 580.256 59.2206V51.9653C580.256 46.5878 575.928 42.2285 570.589 42.2285Z" fill="white"/>
<path d="M588.884 44.5469H591.335V65.7713H588.884" fill="white"/>
<path d="M542.064 44.5469H544.515V65.7713H542.064" fill="white"/>
<path d="M577.179 31.6357V34.1046H556.108V31.6357" fill="white"/>
<path d="M577.179 78.4424V80.9112H556.108V78.4424" fill="white"/>
<path d="M560.645 57.1475H557.85V56.7578L559.327 55.1172C559.546 54.8691 559.696 54.668 559.778 54.5137C559.862 54.3574 559.904 54.1963 559.904 54.0303C559.904 53.8076 559.837 53.625 559.702 53.4824C559.567 53.3398 559.388 53.2686 559.163 53.2686C558.893 53.2686 558.683 53.3457 558.533 53.5C558.385 53.6523 558.31 53.8652 558.31 54.1387H557.768C557.768 53.7461 557.894 53.4287 558.146 53.1865C558.4 52.9443 558.739 52.8232 559.163 52.8232C559.559 52.8232 559.873 52.9277 560.103 53.1367C560.334 53.3438 560.449 53.6201 560.449 53.9658C560.449 54.3857 560.181 54.8857 559.646 55.4658L558.504 56.7051H560.645V57.1475ZM563.806 53.9951C563.806 54.208 563.75 54.3975 563.637 54.5635C563.525 54.7295 563.374 54.8594 563.182 54.9531C563.405 55.0488 563.581 55.1885 563.71 55.3721C563.841 55.5557 563.906 55.7637 563.906 55.9961C563.906 56.3652 563.781 56.6592 563.531 56.8779C563.283 57.0967 562.956 57.2061 562.55 57.2061C562.139 57.2061 561.81 57.0967 561.562 56.8779C561.316 56.6572 561.193 56.3633 561.193 55.9961C561.193 55.7656 561.256 55.5576 561.381 55.3721C561.508 55.1865 561.682 55.0459 561.905 54.9502C561.716 54.8564 561.566 54.7266 561.457 54.5605C561.347 54.3945 561.293 54.2061 561.293 53.9951C561.293 53.6357 561.408 53.3506 561.638 53.1396C561.869 52.9287 562.173 52.8232 562.55 52.8232C562.925 52.8232 563.227 52.9287 563.458 53.1396C563.69 53.3506 563.806 53.6357 563.806 53.9951ZM563.364 55.9844C563.364 55.7461 563.288 55.5518 563.136 55.4014C562.985 55.251 562.788 55.1758 562.544 55.1758C562.3 55.1758 562.103 55.25 561.955 55.3984C561.808 55.5469 561.735 55.7422 561.735 55.9844C561.735 56.2266 561.806 56.417 561.949 56.5557C562.094 56.6943 562.294 56.7637 562.55 56.7637C562.804 56.7637 563.003 56.6943 563.147 56.5557C563.292 56.415 563.364 56.2246 563.364 55.9844ZM562.55 53.2686C562.337 53.2686 562.164 53.335 562.031 53.4678C561.9 53.5986 561.835 53.7773 561.835 54.0039C561.835 54.2207 561.899 54.3965 562.028 54.5312C562.159 54.6641 562.333 54.7305 562.55 54.7305C562.766 54.7305 562.939 54.6641 563.068 54.5312C563.199 54.3965 563.264 54.2207 563.264 54.0039C563.264 53.7871 563.197 53.6104 563.062 53.4736C562.928 53.3369 562.757 53.2686 562.55 53.2686ZM565.157 53.9775L565.175 54.376C565.417 54.0713 565.733 53.9189 566.124 53.9189C566.794 53.9189 567.132 54.2969 567.138 55.0527V57.1475H566.596V55.0498C566.594 54.8213 566.541 54.6523 566.437 54.543C566.336 54.4336 566.177 54.3789 565.96 54.3789C565.784 54.3789 565.63 54.4258 565.497 54.5195C565.364 54.6133 565.261 54.7363 565.186 54.8887V57.1475H564.644V53.9775H565.157ZM568.465 53.9775L568.479 54.3291C568.712 54.0557 569.025 53.9189 569.42 53.9189C569.863 53.9189 570.165 54.0889 570.325 54.4287C570.43 54.2764 570.567 54.1533 570.735 54.0596C570.905 53.9658 571.105 53.9189 571.336 53.9189C572.031 53.9189 572.385 54.2871 572.396 55.0234V57.1475H571.854V55.0557C571.854 54.8291 571.803 54.6602 571.699 54.5488C571.596 54.4355 571.422 54.3789 571.178 54.3789C570.976 54.3789 570.809 54.4395 570.677 54.5605C570.544 54.6797 570.467 54.8408 570.445 55.0439V57.1475H569.9V55.0703C569.9 54.6094 569.675 54.3789 569.223 54.3789C568.868 54.3789 568.625 54.5303 568.494 54.833V57.1475H567.952V53.9775H568.465Z" fill="#231F20"/>
<path d="M8.39844 15H0.945312V13.9609L4.88281 9.58594C5.46615 8.92448 5.86719 8.38802 6.08594 7.97656C6.3099 7.5599 6.42188 7.13021 6.42188 6.6875C6.42188 6.09375 6.24219 5.60677 5.88281 5.22656C5.52344 4.84635 5.04427 4.65625 4.44531 4.65625C3.72656 4.65625 3.16667 4.86198 2.76562 5.27344C2.36979 5.67969 2.17188 6.2474 2.17188 6.97656H0.726562C0.726562 5.92969 1.0625 5.08333 1.73438 4.4375C2.41146 3.79167 3.3151 3.46875 4.44531 3.46875C5.5026 3.46875 6.33854 3.7474 6.95312 4.30469C7.56771 4.85677 7.875 5.59375 7.875 6.51562C7.875 7.63542 7.16146 8.96875 5.73438 10.5156L2.6875 13.8203H8.39844V15ZM17.0625 10.1484C17.0625 11.8411 16.7734 13.099 16.1953 13.9219C15.6172 14.7448 14.7135 15.1562 13.4844 15.1562C12.2708 15.1562 11.3724 14.7552 10.7891 13.9531C10.2057 13.1458 9.90365 11.9427 9.88281 10.3438V8.41406C9.88281 6.74219 10.1719 5.5 10.75 4.6875C11.3281 3.875 12.2344 3.46875 13.4688 3.46875C14.6927 3.46875 15.5938 3.86198 16.1719 4.64844C16.75 5.42969 17.0469 6.63802 17.0625 8.27344V10.1484ZM15.6172 8.17188C15.6172 6.94792 15.4453 6.05729 15.1016 5.5C14.7578 4.9375 14.2135 4.65625 13.4688 4.65625C12.7292 4.65625 12.1901 4.9349 11.8516 5.49219C11.513 6.04948 11.3385 6.90625 11.3281 8.0625V10.375C11.3281 11.6042 11.5052 12.513 11.8594 13.1016C12.2188 13.6849 12.7604 13.9766 13.4844 13.9766C14.1979 13.9766 14.7266 13.7005 15.0703 13.1484C15.4193 12.5964 15.6016 11.7266 15.6172 10.5391V8.17188ZM26.0469 10.1484C26.0469 11.8411 25.7578 13.099 25.1797 13.9219C24.6016 14.7448 23.6979 15.1562 22.4688 15.1562C21.2552 15.1562 20.3568 14.7552 19.7734 13.9531C19.1901 13.1458 18.888 11.9427 18.8672 10.3438V8.41406C18.8672 6.74219 19.1562 5.5 19.7344 4.6875C20.3125 3.875 21.2188 3.46875 22.4531 3.46875C23.6771 3.46875 24.5781 3.86198 25.1562 4.64844C25.7344 5.42969 26.0312 6.63802 26.0469 8.27344V10.1484ZM24.6016 8.17188C24.6016 6.94792 24.4297 6.05729 24.0859 5.5C23.7422 4.9375 23.1979 4.65625 22.4531 4.65625C21.7135 4.65625 21.1745 4.9349 20.8359 5.49219C20.4974 6.04948 20.3229 6.90625 20.3125 8.0625V10.375C20.3125 11.6042 20.4896 12.513 20.8438 13.1016C21.2031 13.6849 21.7448 13.9766 22.4688 13.9766C23.1823 13.9766 23.7109 13.7005 24.0547 13.1484C24.4036 12.5964 24.5859 11.7266 24.6016 10.5391V8.17188ZM33.4375 10C33.1354 10.3594 32.7734 10.6484 32.3516 10.8672C31.9349 11.0859 31.4766 11.1953 30.9766 11.1953C30.3203 11.1953 29.7474 11.0339 29.2578 10.7109C28.7734 10.388 28.3984 9.9349 28.1328 9.35156C27.8672 8.76302 27.7344 8.11458 27.7344 7.40625C27.7344 6.64583 27.8776 5.96094 28.1641 5.35156C28.4557 4.74219 28.8672 4.27604 29.3984 3.95312C29.9297 3.63021 30.5495 3.46875 31.2578 3.46875C32.3828 3.46875 33.2682 3.89062 33.9141 4.73438C34.5651 5.57292 34.8906 6.71875 34.8906 8.17188V8.59375C34.8906 10.8073 34.4531 12.4245 33.5781 13.4453C32.7031 14.4609 31.3828 14.9818 29.6172 15.0078H29.3359V13.7891H29.6406C30.8333 13.7682 31.75 13.4583 32.3906 12.8594C33.0312 12.2552 33.3802 11.3021 33.4375 10ZM31.2109 10C31.6953 10 32.1406 9.85156 32.5469 9.55469C32.9583 9.25781 33.2578 8.89062 33.4453 8.45312V7.875C33.4453 6.92708 33.2396 6.15625 32.8281 5.5625C32.4167 4.96875 31.8958 4.67188 31.2656 4.67188C30.6302 4.67188 30.1198 4.91667 29.7344 5.40625C29.349 5.89062 29.1562 6.53125 29.1562 7.32812C29.1562 8.10417 29.3411 8.74479 29.7109 9.25C30.0859 9.75 30.5859 10 31.2109 10Z" fill="#F3C13B"/>
<path d="M267.398 15H259.945V13.9609L263.883 9.58594C264.466 8.92448 264.867 8.38802 265.086 7.97656C265.31 7.5599 265.422 7.13021 265.422 6.6875C265.422 6.09375 265.242 5.60677 264.883 5.22656C264.523 4.84635 264.044 4.65625 263.445 4.65625C262.727 4.65625 262.167 4.86198 261.766 5.27344C261.37 5.67969 261.172 6.2474 261.172 6.97656H259.727C259.727 5.92969 260.062 5.08333 260.734 4.4375C261.411 3.79167 262.315 3.46875 263.445 3.46875C264.503 3.46875 265.339 3.7474 265.953 4.30469C266.568 4.85677 266.875 5.59375 266.875 6.51562C266.875 7.63542 266.161 8.96875 264.734 10.5156L261.688 13.8203H267.398V15ZM276.062 10.1484C276.062 11.8411 275.773 13.099 275.195 13.9219C274.617 14.7448 273.714 15.1562 272.484 15.1562C271.271 15.1562 270.372 14.7552 269.789 13.9531C269.206 13.1458 268.904 11.9427 268.883 10.3438V8.41406C268.883 6.74219 269.172 5.5 269.75 4.6875C270.328 3.875 271.234 3.46875 272.469 3.46875C273.693 3.46875 274.594 3.86198 275.172 4.64844C275.75 5.42969 276.047 6.63802 276.062 8.27344V10.1484ZM274.617 8.17188C274.617 6.94792 274.445 6.05729 274.102 5.5C273.758 4.9375 273.214 4.65625 272.469 4.65625C271.729 4.65625 271.19 4.9349 270.852 5.49219C270.513 6.04948 270.339 6.90625 270.328 8.0625V10.375C270.328 11.6042 270.505 12.513 270.859 13.1016C271.219 13.6849 271.76 13.9766 272.484 13.9766C273.198 13.9766 273.727 13.7005 274.07 13.1484C274.419 12.5964 274.602 11.7266 274.617 10.5391V8.17188ZM282.664 15H281.211V5.36719L278.297 6.4375V5.125L282.438 3.57031H282.664V15ZM294.031 10.1484C294.031 11.8411 293.742 13.099 293.164 13.9219C292.586 14.7448 291.682 15.1562 290.453 15.1562C289.24 15.1562 288.341 14.7552 287.758 13.9531C287.174 13.1458 286.872 11.9427 286.852 10.3438V8.41406C286.852 6.74219 287.141 5.5 287.719 4.6875C288.297 3.875 289.203 3.46875 290.438 3.46875C291.661 3.46875 292.562 3.86198 293.141 4.64844C293.719 5.42969 294.016 6.63802 294.031 8.27344V10.1484ZM292.586 8.17188C292.586 6.94792 292.414 6.05729 292.07 5.5C291.727 4.9375 291.182 4.65625 290.438 4.65625C289.698 4.65625 289.159 4.9349 288.82 5.49219C288.482 6.04948 288.307 6.90625 288.297 8.0625V10.375C288.297 11.6042 288.474 12.513 288.828 13.1016C289.188 13.6849 289.729 13.9766 290.453 13.9766C291.167 13.9766 291.695 13.7005 292.039 13.1484C292.388 12.5964 292.57 11.7266 292.586 10.5391V8.17188Z" fill="#F3C13B"/>
<path d="M546.398 15H538.945V13.9609L542.883 9.58594C543.466 8.92448 543.867 8.38802 544.086 7.97656C544.31 7.5599 544.422 7.13021 544.422 6.6875C544.422 6.09375 544.242 5.60677 543.883 5.22656C543.523 4.84635 543.044 4.65625 542.445 4.65625C541.727 4.65625 541.167 4.86198 540.766 5.27344C540.37 5.67969 540.172 6.2474 540.172 6.97656H538.727C538.727 5.92969 539.062 5.08333 539.734 4.4375C540.411 3.79167 541.315 3.46875 542.445 3.46875C543.503 3.46875 544.339 3.7474 544.953 4.30469C545.568 4.85677 545.875 5.59375 545.875 6.51562C545.875 7.63542 545.161 8.96875 543.734 10.5156L540.688 13.8203H546.398V15ZM555.062 10.1484C555.062 11.8411 554.773 13.099 554.195 13.9219C553.617 14.7448 552.714 15.1562 551.484 15.1562C550.271 15.1562 549.372 14.7552 548.789 13.9531C548.206 13.1458 547.904 11.9427 547.883 10.3438V8.41406C547.883 6.74219 548.172 5.5 548.75 4.6875C549.328 3.875 550.234 3.46875 551.469 3.46875C552.693 3.46875 553.594 3.86198 554.172 4.64844C554.75 5.42969 555.047 6.63802 555.062 8.27344V10.1484ZM553.617 8.17188C553.617 6.94792 553.445 6.05729 553.102 5.5C552.758 4.9375 552.214 4.65625 551.469 4.65625C550.729 4.65625 550.19 4.9349 549.852 5.49219C549.513 6.04948 549.339 6.90625 549.328 8.0625V10.375C549.328 11.6042 549.505 12.513 549.859 13.1016C550.219 13.6849 550.76 13.9766 551.484 13.9766C552.198 13.9766 552.727 13.7005 553.07 13.1484C553.419 12.5964 553.602 11.7266 553.617 10.5391V8.17188ZM561.664 15H560.211V5.36719L557.297 6.4375V5.125L561.438 3.57031H561.664V15ZM570.648 15H569.195V5.36719L566.281 6.4375V5.125L570.422 3.57031H570.648V15Z" fill="#F3C13B"/>
</svg>
