<svg xmlns="http://www.w3.org/2000/svg" xmlns:xlink="http://www.w3.org/1999/xlink" width="214.382" height="213.121" viewBox="0 0 214.382 213.121"><defs><clipPath id="a"><ellipse cx="86.385" cy="58.734" rx="86.385" ry="58.734" transform="translate(768.208 5992.017) rotate(-44.107)" fill="none"/></clipPath><linearGradient id="b" x1="29.812" y1="-5.419" x2="52.812" y2="-5.419" gradientUnits="objectBoundingBox"><stop offset="0" stop-color="#7fc284"/><stop offset="0.053" stop-color="#70b397"/><stop offset="0.126" stop-color="#62a6a9"/><stop offset="0.201" stop-color="#599db5"/><stop offset="0.281" stop-color="#579bb9"/><stop offset="0.669" stop-color="#585399"/><stop offset="1" stop-color="#93298a"/></linearGradient><linearGradient id="c" x1="29.171" y1="-4.19" x2="52.171" y2="-4.19" xlink:href="#b"/><linearGradient id="d" x1="28.53" y1="-2.962" x2="51.53" y2="-2.962" xlink:href="#b"/><linearGradient id="e" x1="27.889" y1="-1.733" x2="50.889" y2="-1.733" xlink:href="#b"/><linearGradient id="f" x1="27.248" y1="-0.504" x2="50.248" y2="-0.504" xlink:href="#b"/><linearGradient id="g" x1="26.608" y1="0.725" x2="49.607" y2="0.725" xlink:href="#b"/><linearGradient id="h" x1="25.967" y1="1.953" x2="48.967" y2="1.953" xlink:href="#b"/><linearGradient id="i" x1="25.326" y1="3.182" x2="48.326" y2="3.182" xlink:href="#b"/><linearGradient id="j" x1="24.685" y1="4.411" x2="47.685" y2="4.411" xlink:href="#b"/><linearGradient id="k" x1="24.044" y1="5.64" x2="47.044" y2="5.64" xlink:href="#b"/><linearGradient id="l" x1="23.403" y1="6.869" x2="46.403" y2="6.869" xlink:href="#b"/><linearGradient id="m" x1="22.762" y1="8.097" x2="45.762" y2="8.097" xlink:href="#b"/><linearGradient id="n" x1="22.121" y1="9.325" x2="45.121" y2="9.325" xlink:href="#b"/><linearGradient id="o" x1="21.48" y1="10.555" x2="44.48" y2="10.555" xlink:href="#b"/><linearGradient id="p" x1="20.84" y1="11.783" x2="43.839" y2="11.783" xlink:href="#b"/><linearGradient id="q" x1="20.199" y1="13.012" x2="43.198" y2="13.012" xlink:href="#b"/><linearGradient id="r" x1="19.558" y1="14.24" x2="42.558" y2="14.24" xlink:href="#b"/><linearGradient id="s" x1="18.917" y1="15.47" x2="41.917" y2="15.47" xlink:href="#b"/><linearGradient id="t" x1="18.276" y1="16.697" x2="41.276" y2="16.697" xlink:href="#b"/><linearGradient id="u" x1="17.635" y1="17.927" x2="40.635" y2="17.927" xlink:href="#b"/><linearGradient id="v" x1="29.154" y1="-4.695" x2="52.154" y2="-4.695" xlink:href="#b"/><linearGradient id="w" x1="28.513" y1="-3.466" x2="51.513" y2="-3.466" xlink:href="#b"/><linearGradient id="x" x1="27.872" y1="-2.238" x2="50.872" y2="-2.238" xlink:href="#b"/><linearGradient id="y" x1="27.231" y1="-1.009" x2="50.231" y2="-1.009" xlink:href="#b"/><linearGradient id="z" x1="26.591" y1="0.22" x2="49.59" y2="0.22" xlink:href="#b"/><linearGradient id="aa" x1="25.95" y1="1.449" x2="48.949" y2="1.449" xlink:href="#b"/><linearGradient id="ab" x1="25.309" y1="2.677" x2="48.309" y2="2.677" xlink:href="#b"/><linearGradient id="ac" x1="24.668" y1="3.906" x2="47.668" y2="3.906" xlink:href="#b"/><linearGradient id="ad" x1="24.027" y1="5.135" x2="47.027" y2="5.135" xlink:href="#b"/><linearGradient id="ae" x1="23.386" y1="6.363" x2="46.386" y2="6.363" xlink:href="#b"/><linearGradient id="af" x1="22.745" y1="7.593" x2="45.745" y2="7.593" xlink:href="#b"/><linearGradient id="ag" x1="22.104" y1="8.821" x2="45.104" y2="8.821" xlink:href="#b"/><linearGradient id="ah" x1="21.463" y1="10.05" x2="44.463" y2="10.05" xlink:href="#b"/><linearGradient id="ai" x1="20.822" y1="11.278" x2="43.822" y2="11.278" xlink:href="#b"/><linearGradient id="aj" x1="20.182" y1="12.508" x2="43.181" y2="12.508" xlink:href="#b"/><linearGradient id="ak" x1="19.541" y1="13.735" x2="42.54" y2="13.735" xlink:href="#b"/><linearGradient id="al" x1="18.9" y1="14.965" x2="41.899" y2="14.965" xlink:href="#b"/><linearGradient id="am" x1="18.259" y1="16.193" x2="41.259" y2="16.193" xlink:href="#b"/><linearGradient id="an" x1="17.618" y1="17.423" x2="40.618" y2="17.423" xlink:href="#b"/><linearGradient id="ao" x1="16.977" y1="18.65" x2="39.977" y2="18.65" xlink:href="#b"/><linearGradient id="ap" x1="28.496" y1="-3.971" x2="51.496" y2="-3.971" xlink:href="#b"/><linearGradient id="aq" x1="27.855" y1="-2.742" x2="50.855" y2="-2.742" xlink:href="#b"/><linearGradient id="ar" x1="27.214" y1="-1.514" x2="50.214" y2="-1.514" xlink:href="#b"/><linearGradient id="as" x1="26.573" y1="-0.285" x2="49.573" y2="-0.285" xlink:href="#b"/><linearGradient id="at" x1="25.933" y1="0.944" x2="48.932" y2="0.944" xlink:href="#b"/><linearGradient id="au" x1="25.292" y1="2.173" x2="48.291" y2="2.173" xlink:href="#b"/><linearGradient id="av" x1="24.651" y1="3.402" x2="47.651" y2="3.402" xlink:href="#b"/><linearGradient id="aw" x1="24.01" y1="4.63" x2="47.01" y2="4.63" xlink:href="#b"/><linearGradient id="ax" x1="23.369" y1="5.859" x2="46.369" y2="5.859" xlink:href="#b"/><linearGradient id="ay" x1="22.728" y1="7.087" x2="45.728" y2="7.087" xlink:href="#b"/><linearGradient id="az" x1="22.087" y1="8.317" x2="45.087" y2="8.317" xlink:href="#b"/><linearGradient id="ba" x1="21.446" y1="9.545" x2="44.446" y2="9.545" xlink:href="#b"/><linearGradient id="bb" x1="20.805" y1="10.774" x2="43.805" y2="10.774" xlink:href="#b"/><linearGradient id="bc" x1="20.164" y1="12.002" x2="43.164" y2="12.002" xlink:href="#b"/><linearGradient id="bd" x1="19.524" y1="13.232" x2="42.523" y2="13.232" xlink:href="#b"/><linearGradient id="be" x1="18.883" y1="14.459" x2="41.883" y2="14.459" xlink:href="#b"/><linearGradient id="bf" x1="18.242" y1="15.689" x2="41.242" y2="15.689" xlink:href="#b"/><linearGradient id="bg" x1="17.601" y1="16.917" x2="40.601" y2="16.917" xlink:href="#b"/><linearGradient id="bh" x1="16.96" y1="18.147" x2="39.96" y2="18.147" xlink:href="#b"/><linearGradient id="bi" x1="16.319" y1="19.374" x2="39.319" y2="19.374" xlink:href="#b"/><linearGradient id="bj" x1="27.838" y1="-3.247" x2="50.838" y2="-3.247" xlink:href="#b"/><linearGradient id="bk" x1="27.197" y1="-2.018" x2="50.197" y2="-2.018" xlink:href="#b"/><linearGradient id="bl" x1="26.556" y1="-0.789" x2="49.556" y2="-0.789" xlink:href="#b"/><linearGradient id="bm" x1="25.915" y1="0.439" x2="48.915" y2="0.439" xlink:href="#b"/><linearGradient id="bn" x1="25.275" y1="1.668" x2="48.274" y2="1.668" xlink:href="#b"/><linearGradient id="bo" x1="24.634" y1="2.897" x2="47.633" y2="2.897" xlink:href="#b"/><linearGradient id="bp" x1="23.993" y1="4.125" x2="46.993" y2="4.125" xlink:href="#b"/><linearGradient id="bq" x1="23.352" y1="5.354" x2="46.352" y2="5.354" xlink:href="#b"/><linearGradient id="br" x1="22.711" y1="6.583" x2="45.711" y2="6.583" xlink:href="#b"/><linearGradient id="bs" x1="22.07" y1="7.812" x2="45.07" y2="7.812" xlink:href="#b"/><linearGradient id="bt" x1="21.429" y1="9.04" x2="44.429" y2="9.04" xlink:href="#b"/><linearGradient id="bu" x1="20.788" y1="10.269" x2="43.788" y2="10.269" xlink:href="#b"/><linearGradient id="bv" x1="20.147" y1="11.497" x2="43.147" y2="11.497" xlink:href="#b"/><linearGradient id="bw" x1="19.507" y1="12.727" x2="42.506" y2="12.727" xlink:href="#b"/><linearGradient id="bx" x1="18.866" y1="13.955" x2="41.865" y2="13.955" xlink:href="#b"/><linearGradient id="by" x1="18.225" y1="15.184" x2="41.225" y2="15.184" xlink:href="#b"/><linearGradient id="bz" x1="17.584" y1="16.412" x2="40.583" y2="16.412" xlink:href="#b"/><linearGradient id="ca" x1="16.943" y1="17.642" x2="39.943" y2="17.642" xlink:href="#b"/><linearGradient id="cb" x1="16.302" y1="18.871" x2="39.302" y2="18.871" xlink:href="#b"/><linearGradient id="cc" x1="15.661" y1="20.099" x2="38.661" y2="20.099" xlink:href="#b"/><linearGradient id="cd" x1="27.18" y1="-2.523" x2="50.18" y2="-2.523" xlink:href="#b"/><linearGradient id="ce" x1="26.539" y1="-1.294" x2="49.539" y2="-1.294" xlink:href="#b"/><linearGradient id="cf" x1="25.898" y1="-0.065" x2="48.898" y2="-0.065" xlink:href="#b"/><linearGradient id="cg" x1="25.258" y1="1.163" x2="48.257" y2="1.163" xlink:href="#b"/><linearGradient id="ch" x1="24.617" y1="2.392" x2="47.616" y2="2.392" xlink:href="#b"/><linearGradient id="ci" x1="23.976" y1="3.621" x2="46.976" y2="3.621" xlink:href="#b"/><linearGradient id="cj" x1="23.335" y1="4.849" x2="46.335" y2="4.849" xlink:href="#b"/><linearGradient id="ck" x1="22.694" y1="6.078" x2="45.694" y2="6.078" xlink:href="#b"/><linearGradient id="cl" x1="22.053" y1="7.307" x2="45.053" y2="7.307" xlink:href="#b"/><linearGradient id="cm" x1="21.412" y1="8.536" x2="44.412" y2="8.536" xlink:href="#b"/><linearGradient id="cn" x1="20.771" y1="9.764" x2="43.771" y2="9.764" xlink:href="#b"/><linearGradient id="co" x1="20.13" y1="10.993" x2="43.13" y2="10.993" xlink:href="#b"/><linearGradient id="cp" x1="19.489" y1="12.221" x2="42.489" y2="12.221" xlink:href="#b"/><linearGradient id="cq" x1="18.848" y1="13.451" x2="41.848" y2="13.451" xlink:href="#b"/><linearGradient id="cr" x1="18.208" y1="14.679" x2="41.207" y2="14.679" xlink:href="#b"/><linearGradient id="cs" x1="17.567" y1="15.908" x2="40.567" y2="15.908" xlink:href="#b"/><linearGradient id="ct" x1="16.926" y1="17.136" x2="39.926" y2="17.136" xlink:href="#b"/><linearGradient id="cu" x1="16.285" y1="18.366" x2="39.285" y2="18.366" xlink:href="#b"/><linearGradient id="cv" x1="15.644" y1="19.593" x2="38.644" y2="19.593" xlink:href="#b"/><linearGradient id="cw" x1="15.003" y1="20.823" x2="38.003" y2="20.823" xlink:href="#b"/><linearGradient id="cx" x1="26.522" y1="-1.799" x2="49.522" y2="-1.799" xlink:href="#b"/><linearGradient id="cy" x1="25.881" y1="-0.57" x2="48.881" y2="-0.57" xlink:href="#b"/><linearGradient id="cz" x1="25.24" y1="0.659" x2="48.24" y2="0.659" xlink:href="#b"/><linearGradient id="da" x1="24.6" y1="1.887" x2="47.599" y2="1.887" xlink:href="#b"/><linearGradient id="db" x1="23.959" y1="3.116" x2="46.958" y2="3.116" xlink:href="#b"/><linearGradient id="dc" x1="23.318" y1="4.345" x2="46.317" y2="4.345" xlink:href="#b"/><linearGradient id="dd" x1="22.677" y1="5.574" x2="45.677" y2="5.574" xlink:href="#b"/><linearGradient id="de" x1="22.036" y1="6.802" x2="45.036" y2="6.802" xlink:href="#b"/><linearGradient id="df" x1="21.395" y1="8.031" x2="44.395" y2="8.031" xlink:href="#b"/><linearGradient id="dg" x1="20.754" y1="9.259" x2="43.754" y2="9.259" xlink:href="#b"/><linearGradient id="dh" x1="20.113" y1="10.489" x2="43.113" y2="10.489" xlink:href="#b"/><linearGradient id="di" x1="19.472" y1="11.717" x2="42.472" y2="11.717" xlink:href="#b"/><linearGradient id="dj" x1="18.831" y1="12.946" x2="41.831" y2="12.946" xlink:href="#b"/><linearGradient id="dk" x1="18.191" y1="14.175" x2="41.19" y2="14.175" xlink:href="#b"/><linearGradient id="dl" x1="17.55" y1="15.404" x2="40.55" y2="15.404" xlink:href="#b"/><linearGradient id="dm" x1="16.909" y1="16.632" x2="39.909" y2="16.632" xlink:href="#b"/><linearGradient id="dn" x1="16.268" y1="17.861" x2="39.267" y2="17.861" xlink:href="#b"/><linearGradient id="do" x1="15.627" y1="19.09" x2="38.627" y2="19.09" xlink:href="#b"/><linearGradient id="dp" x1="14.986" y1="20.319" x2="37.986" y2="20.319" xlink:href="#b"/><linearGradient id="dq" x1="14.345" y1="21.548" x2="37.345" y2="21.548" xlink:href="#b"/><linearGradient id="dr" x1="25.864" y1="-1.075" x2="48.864" y2="-1.075" xlink:href="#b"/><linearGradient id="ds" x1="25.223" y1="0.154" x2="48.223" y2="0.154" xlink:href="#b"/><linearGradient id="dt" x1="24.582" y1="1.383" x2="47.582" y2="1.383" xlink:href="#b"/><linearGradient id="du" x1="23.942" y1="2.611" x2="46.941" y2="2.611" xlink:href="#b"/><linearGradient id="dv" x1="23.301" y1="3.84" x2="46.301" y2="3.84" xlink:href="#b"/><linearGradient id="dw" x1="22.66" y1="5.069" x2="45.66" y2="5.069" xlink:href="#b"/><linearGradient id="dx" x1="22.019" y1="6.298" x2="45.019" y2="6.298" xlink:href="#b"/><linearGradient id="dy" x1="21.378" y1="7.526" x2="44.378" y2="7.526" xlink:href="#b"/><linearGradient id="dz" x1="20.737" y1="8.755" x2="43.737" y2="8.755" xlink:href="#b"/><linearGradient id="ea" x1="20.096" y1="9.983" x2="43.096" y2="9.983" xlink:href="#b"/><linearGradient id="eb" x1="19.455" y1="11.213" x2="42.455" y2="11.213" xlink:href="#b"/><linearGradient id="ec" x1="18.814" y1="12.441" x2="41.814" y2="12.441" xlink:href="#b"/><linearGradient id="ed" x1="18.174" y1="13.67" x2="41.173" y2="13.67" xlink:href="#b"/><linearGradient id="ee" x1="17.533" y1="14.898" x2="40.532" y2="14.898" xlink:href="#b"/><linearGradient id="ef" x1="16.892" y1="16.128" x2="39.892" y2="16.128" xlink:href="#b"/><linearGradient id="eg" x1="16.251" y1="17.355" x2="39.251" y2="17.355" xlink:href="#b"/><linearGradient id="eh" x1="15.61" y1="18.585" x2="38.61" y2="18.585" xlink:href="#b"/><linearGradient id="ei" x1="14.969" y1="19.813" x2="37.969" y2="19.813" xlink:href="#b"/><linearGradient id="ej" x1="14.328" y1="21.043" x2="37.328" y2="21.043" xlink:href="#b"/><linearGradient id="ek" x1="13.687" y1="22.27" x2="36.687" y2="22.27" xlink:href="#b"/><linearGradient id="el" x1="25.206" y1="-0.351" x2="48.206" y2="-0.351" xlink:href="#b"/><linearGradient id="em" x1="24.565" y1="0.878" x2="47.565" y2="0.878" xlink:href="#b"/><linearGradient id="en" x1="23.925" y1="2.107" x2="46.924" y2="2.107" xlink:href="#b"/><linearGradient id="eo" x1="23.284" y1="3.335" x2="46.283" y2="3.335" xlink:href="#b"/><linearGradient id="ep" x1="22.643" y1="4.564" x2="45.643" y2="4.564" xlink:href="#b"/><linearGradient id="eq" x1="22.002" y1="5.793" x2="45.001" y2="5.793" xlink:href="#b"/><linearGradient id="er" x1="21.361" y1="7.021" x2="44.361" y2="7.021" xlink:href="#b"/><linearGradient id="es" x1="20.72" y1="8.25" x2="43.72" y2="8.25" xlink:href="#b"/><linearGradient id="et" x1="20.079" y1="9.479" x2="43.079" y2="9.479" xlink:href="#b"/><linearGradient id="eu" x1="19.438" y1="10.708" x2="42.438" y2="10.708" xlink:href="#b"/><linearGradient id="ev" x1="18.797" y1="11.937" x2="41.797" y2="11.937" xlink:href="#b"/><linearGradient id="ew" x1="18.156" y1="13.166" x2="41.156" y2="13.166" xlink:href="#b"/><linearGradient id="ex" x1="17.516" y1="14.394" x2="40.515" y2="14.394" xlink:href="#b"/><linearGradient id="ey" x1="16.875" y1="15.623" x2="39.874" y2="15.623" xlink:href="#b"/><linearGradient id="ez" x1="16.234" y1="16.852" x2="39.234" y2="16.852" xlink:href="#b"/><linearGradient id="fa" x1="15.593" y1="18.079" x2="38.593" y2="18.079" xlink:href="#b"/><linearGradient id="fb" x1="14.952" y1="19.309" x2="37.952" y2="19.309" xlink:href="#b"/><linearGradient id="fc" x1="14.311" y1="20.537" x2="37.311" y2="20.537" xlink:href="#b"/><linearGradient id="fd" x1="13.67" y1="21.767" x2="36.67" y2="21.767" xlink:href="#b"/><linearGradient id="fe" x1="13.029" y1="22.994" x2="36.029" y2="22.994" xlink:href="#b"/><linearGradient id="ff" x1="24.548" y1="0.373" x2="47.548" y2="0.373" xlink:href="#b"/><linearGradient id="fg" x1="23.907" y1="1.602" x2="46.907" y2="1.602" xlink:href="#b"/><linearGradient id="fh" x1="23.266" y1="2.831" x2="46.266" y2="2.831" xlink:href="#b"/><linearGradient id="fi" x1="22.626" y1="4.059" x2="45.625" y2="4.059" xlink:href="#b"/><linearGradient id="fj" x1="21.985" y1="5.288" x2="44.985" y2="5.288" xlink:href="#b"/><linearGradient id="fk" x1="21.344" y1="6.517" x2="44.344" y2="6.517" xlink:href="#b"/><linearGradient id="fl" x1="20.703" y1="7.745" x2="43.703" y2="7.745" xlink:href="#b"/><linearGradient id="fm" x1="20.062" y1="8.975" x2="43.062" y2="8.975" xlink:href="#b"/><linearGradient id="fn" x1="19.421" y1="10.203" x2="42.421" y2="10.203" xlink:href="#b"/><linearGradient id="fo" x1="18.78" y1="11.432" x2="41.78" y2="11.432" xlink:href="#b"/><linearGradient id="fp" x1="18.139" y1="12.66" x2="41.139" y2="12.66" xlink:href="#b"/><linearGradient id="fq" x1="17.498" y1="13.89" x2="40.498" y2="13.89" xlink:href="#b"/><linearGradient id="fr" x1="16.858" y1="15.117" x2="39.857" y2="15.117" xlink:href="#b"/><linearGradient id="fs" x1="16.217" y1="16.347" x2="39.217" y2="16.347" xlink:href="#b"/><linearGradient id="ft" x1="15.576" y1="17.575" x2="38.576" y2="17.575" xlink:href="#b"/><linearGradient id="fu" x1="14.935" y1="18.805" x2="37.935" y2="18.805" xlink:href="#b"/><linearGradient id="fv" x1="14.294" y1="20.032" x2="37.294" y2="20.032" xlink:href="#b"/><linearGradient id="fw" x1="13.653" y1="21.262" x2="36.653" y2="21.262" xlink:href="#b"/><linearGradient id="fx" x1="13.012" y1="22.489" x2="36.012" y2="22.489" xlink:href="#b"/><linearGradient id="fy" x1="12.371" y1="23.72" x2="35.371" y2="23.72" xlink:href="#b"/><linearGradient id="fz" x1="23.89" y1="1.097" x2="46.89" y2="1.097" xlink:href="#b"/><linearGradient id="ga" x1="23.25" y1="2.326" x2="46.249" y2="2.326" xlink:href="#b"/><linearGradient id="gb" x1="22.609" y1="3.555" x2="45.608" y2="3.555" xlink:href="#b"/><linearGradient id="gc" x1="21.968" y1="4.783" x2="44.968" y2="4.783" xlink:href="#b"/><linearGradient id="gd" x1="21.327" y1="6.012" x2="44.327" y2="6.012" xlink:href="#b"/><linearGradient id="ge" x1="20.686" y1="7.241" x2="43.685" y2="7.241" xlink:href="#b"/><linearGradient id="gf" x1="20.045" y1="8.47" x2="43.045" y2="8.47" xlink:href="#b"/><linearGradient id="gg" x1="19.404" y1="9.699" x2="42.404" y2="9.699" xlink:href="#b"/><linearGradient id="gh" x1="18.763" y1="10.927" x2="41.763" y2="10.927" xlink:href="#b"/><linearGradient id="gi" x1="18.122" y1="12.156" x2="41.122" y2="12.156" xlink:href="#b"/><linearGradient id="gj" x1="17.481" y1="13.384" x2="40.481" y2="13.384" xlink:href="#b"/><linearGradient id="gk" x1="16.84" y1="14.614" x2="39.84" y2="14.614" xlink:href="#b"/><linearGradient id="gl" x1="16.2" y1="15.841" x2="39.199" y2="15.841" xlink:href="#b"/><linearGradient id="gm" x1="15.559" y1="17.071" x2="38.559" y2="17.071" xlink:href="#b"/><linearGradient id="gn" x1="14.918" y1="18.299" x2="37.918" y2="18.299" xlink:href="#b"/><linearGradient id="go" x1="14.277" y1="19.529" x2="37.277" y2="19.529" xlink:href="#b"/><linearGradient id="gp" x1="13.636" y1="20.756" x2="36.636" y2="20.756" xlink:href="#b"/><linearGradient id="gq" x1="12.995" y1="21.986" x2="35.995" y2="21.986" xlink:href="#b"/><linearGradient id="gr" x1="12.354" y1="23.213" x2="35.354" y2="23.213" xlink:href="#b"/><linearGradient id="gs" x1="11.713" y1="24.444" x2="34.713" y2="24.444" xlink:href="#b"/><linearGradient id="gt" x1="23.232" y1="1.821" x2="46.232" y2="1.821" xlink:href="#b"/><linearGradient id="gu" x1="22.592" y1="3.05" x2="45.591" y2="3.05" xlink:href="#b"/><linearGradient id="gv" x1="21.95" y1="4.279" x2="44.95" y2="4.279" xlink:href="#b"/><linearGradient id="gw" x1="21.31" y1="5.507" x2="44.31" y2="5.507" xlink:href="#b"/><linearGradient id="gx" x1="20.669" y1="6.736" x2="43.669" y2="6.736" xlink:href="#b"/><linearGradient id="gy" x1="20.028" y1="7.965" x2="43.028" y2="7.965" xlink:href="#b"/><linearGradient id="gz" x1="19.387" y1="9.194" x2="42.387" y2="9.194" xlink:href="#b"/><linearGradient id="ha" x1="18.746" y1="10.422" x2="41.746" y2="10.422" xlink:href="#b"/><linearGradient id="hb" x1="18.105" y1="11.651" x2="41.105" y2="11.651" xlink:href="#b"/><linearGradient id="hc" x1="17.464" y1="12.879" x2="40.464" y2="12.879" xlink:href="#b"/><linearGradient id="hd" x1="16.823" y1="14.109" x2="39.823" y2="14.109" xlink:href="#b"/><linearGradient id="he" x1="16.183" y1="15.337" x2="39.182" y2="15.337" xlink:href="#b"/><linearGradient id="hf" x1="15.542" y1="16.566" x2="38.541" y2="16.566" xlink:href="#b"/><linearGradient id="hg" x1="14.901" y1="17.794" x2="37.901" y2="17.794" xlink:href="#b"/><linearGradient id="hh" x1="14.26" y1="19.024" x2="37.259" y2="19.024" xlink:href="#b"/><linearGradient id="hi" x1="13.619" y1="20.251" x2="36.619" y2="20.251" xlink:href="#b"/><linearGradient id="hj" x1="12.978" y1="21.481" x2="35.978" y2="21.481" xlink:href="#b"/><linearGradient id="hk" x1="12.337" y1="22.709" x2="35.337" y2="22.709" xlink:href="#b"/><linearGradient id="hl" x1="11.696" y1="23.939" x2="34.696" y2="23.939" xlink:href="#b"/><linearGradient id="hm" x1="11.055" y1="25.168" x2="34.055" y2="25.168" xlink:href="#b"/><linearGradient id="hn" x1="22.574" y1="2.545" x2="45.574" y2="2.545" xlink:href="#b"/><linearGradient id="ho" x1="21.934" y1="3.774" x2="44.933" y2="3.774" xlink:href="#b"/><linearGradient id="hp" x1="21.293" y1="5.003" x2="44.292" y2="5.003" xlink:href="#b"/><linearGradient id="hq" x1="20.652" y1="6.232" x2="43.652" y2="6.232" xlink:href="#b"/><linearGradient id="hr" x1="20.011" y1="7.46" x2="43.011" y2="7.46" xlink:href="#b"/><linearGradient id="hs" x1="19.37" y1="8.689" x2="42.369" y2="8.689" xlink:href="#b"/><linearGradient id="ht" x1="18.729" y1="9.918" x2="41.729" y2="9.918" xlink:href="#b"/><linearGradient id="hu" x1="18.088" y1="11.146" x2="41.088" y2="11.146" xlink:href="#b"/><linearGradient id="hv" x1="17.447" y1="12.375" x2="40.447" y2="12.375" xlink:href="#b"/><linearGradient id="hw" x1="16.806" y1="13.603" x2="39.806" y2="13.603" xlink:href="#b"/><linearGradient id="hx" x1="16.165" y1="14.833" x2="39.165" y2="14.833" xlink:href="#b"/><linearGradient id="hy" x1="15.524" y1="16.061" x2="38.524" y2="16.061" xlink:href="#b"/><linearGradient id="hz" x1="14.884" y1="17.29" x2="37.884" y2="17.29" xlink:href="#b"/><linearGradient id="ia" x1="14.243" y1="18.518" x2="37.243" y2="18.518" xlink:href="#b"/><linearGradient id="ib" x1="13.602" y1="19.748" x2="36.602" y2="19.748" xlink:href="#b"/><linearGradient id="ic" x1="12.961" y1="20.975" x2="35.961" y2="20.975" xlink:href="#b"/><linearGradient id="id" x1="12.32" y1="22.205" x2="35.32" y2="22.205" xlink:href="#b"/><linearGradient id="ie" x1="11.679" y1="23.433" x2="34.679" y2="23.433" xlink:href="#b"/><linearGradient id="if" x1="11.038" y1="24.663" x2="34.038" y2="24.663" xlink:href="#b"/><linearGradient id="ig" x1="10.397" y1="25.89" x2="33.397" y2="25.89" xlink:href="#b"/><linearGradient id="ih" x1="21.917" y1="3.269" x2="44.916" y2="3.269" xlink:href="#b"/><linearGradient id="ii" x1="21.276" y1="4.498" x2="44.275" y2="4.498" xlink:href="#b"/><linearGradient id="ij" x1="20.635" y1="5.726" x2="43.635" y2="5.726" xlink:href="#b"/><linearGradient id="ik" x1="19.994" y1="6.956" x2="42.994" y2="6.956" xlink:href="#b"/><linearGradient id="il" x1="19.353" y1="8.184" x2="42.353" y2="8.184" xlink:href="#b"/><linearGradient id="im" x1="18.712" y1="9.413" x2="41.712" y2="9.413" xlink:href="#b"/><linearGradient id="in" x1="18.071" y1="10.641" x2="41.071" y2="10.641" xlink:href="#b"/><linearGradient id="io" x1="17.43" y1="11.871" x2="40.43" y2="11.871" xlink:href="#b"/><linearGradient id="ip" x1="16.789" y1="13.099" x2="39.789" y2="13.099" xlink:href="#b"/><linearGradient id="iq" x1="16.148" y1="14.328" x2="39.148" y2="14.328" xlink:href="#b"/><linearGradient id="ir" x1="15.508" y1="15.556" x2="38.507" y2="15.556" xlink:href="#b"/><linearGradient id="is" x1="14.867" y1="16.786" x2="37.866" y2="16.786" xlink:href="#b"/><linearGradient id="it" x1="14.226" y1="18.013" x2="37.226" y2="18.013" xlink:href="#b"/><linearGradient id="iu" x1="13.585" y1="19.243" x2="36.585" y2="19.243" xlink:href="#b"/><linearGradient id="iv" x1="12.944" y1="20.471" x2="35.943" y2="20.471" xlink:href="#b"/><linearGradient id="iw" x1="12.303" y1="21.701" x2="35.303" y2="21.701" xlink:href="#b"/><linearGradient id="ix" x1="11.662" y1="22.929" x2="34.662" y2="22.929" xlink:href="#b"/><linearGradient id="iy" x1="11.021" y1="24.158" x2="34.021" y2="24.158" xlink:href="#b"/><linearGradient id="iz" x1="10.38" y1="25.387" x2="33.38" y2="25.387" xlink:href="#b"/><linearGradient id="ja" x1="9.739" y1="26.616" x2="32.739" y2="26.616" xlink:href="#b"/><linearGradient id="jb" x1="21.258" y1="3.993" x2="44.258" y2="3.993" xlink:href="#b"/><linearGradient id="jc" x1="20.618" y1="5.222" x2="43.617" y2="5.222" xlink:href="#b"/><linearGradient id="jd" x1="19.977" y1="6.45" x2="42.977" y2="6.45" xlink:href="#b"/><linearGradient id="je" x1="19.336" y1="7.68" x2="42.336" y2="7.68" xlink:href="#b"/><linearGradient id="jf" x1="18.695" y1="8.908" x2="41.695" y2="8.908" xlink:href="#b"/><linearGradient id="jg" x1="18.054" y1="10.137" x2="41.054" y2="10.137" xlink:href="#b"/><linearGradient id="jh" x1="17.413" y1="11.365" x2="40.413" y2="11.365" xlink:href="#b"/><linearGradient id="ji" x1="16.772" y1="12.595" x2="39.772" y2="12.595" xlink:href="#b"/><linearGradient id="jj" x1="16.131" y1="13.822" x2="39.131" y2="13.822" xlink:href="#b"/><linearGradient id="jk" x1="15.49" y1="15.052" x2="38.49" y2="15.052" xlink:href="#b"/><linearGradient id="jl" x1="14.85" y1="16.28" x2="37.849" y2="16.28" xlink:href="#b"/><linearGradient id="jm" x1="14.209" y1="17.51" x2="37.208" y2="17.51" xlink:href="#b"/><linearGradient id="jn" x1="13.568" y1="18.737" x2="36.568" y2="18.737" xlink:href="#b"/><linearGradient id="jo" x1="12.927" y1="19.967" x2="35.927" y2="19.967" xlink:href="#b"/><linearGradient id="jp" x1="12.286" y1="21.195" x2="35.286" y2="21.195" xlink:href="#b"/><linearGradient id="jq" x1="11.645" y1="22.425" x2="34.645" y2="22.425" xlink:href="#b"/><linearGradient id="jr" x1="11.004" y1="23.652" x2="34.004" y2="23.652" xlink:href="#b"/><linearGradient id="js" x1="10.363" y1="24.882" x2="33.363" y2="24.882" xlink:href="#b"/><linearGradient id="jt" x1="9.722" y1="26.109" x2="32.722" y2="26.109" xlink:href="#b"/><linearGradient id="ju" x1="9.081" y1="27.34" x2="32.081" y2="27.34" xlink:href="#b"/><linearGradient id="jv" x1="20.601" y1="4.717" x2="43.6" y2="4.717" xlink:href="#b"/><linearGradient id="jw" x1="19.96" y1="5.946" x2="42.959" y2="5.946" xlink:href="#b"/><linearGradient id="jx" x1="19.319" y1="7.175" x2="42.319" y2="7.175" xlink:href="#b"/><linearGradient id="jy" x1="18.678" y1="8.403" x2="41.678" y2="8.403" xlink:href="#b"/><linearGradient id="jz" x1="18.037" y1="9.632" x2="41.037" y2="9.632" xlink:href="#b"/><linearGradient id="ka" x1="17.396" y1="10.86" x2="40.396" y2="10.86" xlink:href="#b"/><linearGradient id="kb" x1="16.755" y1="12.09" x2="39.755" y2="12.09" xlink:href="#b"/><linearGradient id="kc" x1="16.114" y1="13.318" x2="39.114" y2="13.318" xlink:href="#b"/><linearGradient id="kd" x1="15.473" y1="14.547" x2="38.473" y2="14.547" xlink:href="#b"/><linearGradient id="ke" x1="14.833" y1="15.775" x2="37.832" y2="15.775" xlink:href="#b"/><linearGradient id="kf" x1="14.192" y1="17.005" x2="37.191" y2="17.005" xlink:href="#b"/><linearGradient id="kg" x1="13.551" y1="18.234" x2="36.551" y2="18.234" xlink:href="#b"/><linearGradient id="kh" x1="12.91" y1="19.463" x2="35.91" y2="19.463" xlink:href="#b"/><linearGradient id="ki" x1="12.269" y1="20.691" x2="35.269" y2="20.691" xlink:href="#b"/><linearGradient id="kj" x1="11.628" y1="21.92" x2="34.628" y2="21.92" xlink:href="#b"/><linearGradient id="kk" x1="10.987" y1="23.149" x2="33.987" y2="23.149" xlink:href="#b"/><linearGradient id="kl" x1="10.346" y1="24.378" x2="33.346" y2="24.378" xlink:href="#b"/><linearGradient id="km" x1="9.705" y1="25.606" x2="32.705" y2="25.606" xlink:href="#b"/><linearGradient id="kn" x1="9.064" y1="26.833" x2="32.064" y2="26.833" xlink:href="#b"/><linearGradient id="ko" x1="8.424" y1="28.064" x2="31.423" y2="28.064" xlink:href="#b"/><linearGradient id="kp" x1="19.942" y1="5.441" x2="42.942" y2="5.441" xlink:href="#b"/><linearGradient id="kq" x1="19.302" y1="6.67" x2="42.302" y2="6.67" xlink:href="#b"/><linearGradient id="kr" x1="18.661" y1="7.899" x2="41.661" y2="7.899" xlink:href="#b"/><linearGradient id="ks" x1="18.02" y1="9.127" x2="41.02" y2="9.127" xlink:href="#b"/><linearGradient id="kt" x1="17.379" y1="10.356" x2="40.379" y2="10.356" xlink:href="#b"/><linearGradient id="ku" x1="16.738" y1="11.584" x2="39.738" y2="11.584" xlink:href="#b"/><linearGradient id="kv" x1="16.097" y1="12.814" x2="39.097" y2="12.814" xlink:href="#b"/><linearGradient id="kw" x1="15.456" y1="14.042" x2="38.456" y2="14.042" xlink:href="#b"/><linearGradient id="kx" x1="14.815" y1="15.272" x2="37.815" y2="15.272" xlink:href="#b"/><linearGradient id="ky" x1="14.175" y1="16.499" x2="37.174" y2="16.499" xlink:href="#b"/><linearGradient id="kz" x1="13.534" y1="17.729" x2="36.533" y2="17.729" xlink:href="#b"/><linearGradient id="la" x1="12.893" y1="18.956" x2="35.892" y2="18.956" xlink:href="#b"/><linearGradient id="lb" x1="12.252" y1="20.187" x2="35.252" y2="20.187" xlink:href="#b"/><linearGradient id="lc" x1="11.611" y1="21.414" x2="34.611" y2="21.414" xlink:href="#b"/><linearGradient id="ld" x1="10.97" y1="22.644" x2="33.97" y2="22.644" xlink:href="#b"/><linearGradient id="le" x1="10.329" y1="23.871" x2="33.329" y2="23.871" xlink:href="#b"/><linearGradient id="lf" x1="9.688" y1="25.102" x2="32.688" y2="25.102" xlink:href="#b"/><linearGradient id="lg" x1="9.047" y1="26.329" x2="32.047" y2="26.329" xlink:href="#b"/><linearGradient id="lh" x1="8.406" y1="27.559" x2="31.406" y2="27.559" xlink:href="#b"/><linearGradient id="li" x1="7.766" y1="28.786" x2="30.765" y2="28.786" xlink:href="#b"/><linearGradient id="lj" x1="19.285" y1="6.165" x2="42.284" y2="6.165" xlink:href="#b"/><linearGradient id="lk" x1="18.644" y1="7.394" x2="41.644" y2="7.394" xlink:href="#b"/><linearGradient id="ll" x1="18.003" y1="8.622" x2="41.003" y2="8.622" xlink:href="#b"/><linearGradient id="lm" x1="17.362" y1="9.852" x2="40.361" y2="9.852" xlink:href="#b"/><linearGradient id="ln" x1="16.721" y1="11.08" x2="39.721" y2="11.08" xlink:href="#b"/><linearGradient id="lo" x1="16.08" y1="12.309" x2="39.08" y2="12.309" xlink:href="#b"/><linearGradient id="lp" x1="15.439" y1="13.538" x2="38.439" y2="13.538" xlink:href="#b"/><linearGradient id="lq" x1="14.798" y1="14.767" x2="37.798" y2="14.767" xlink:href="#b"/><linearGradient id="lr" x1="14.157" y1="15.996" x2="37.157" y2="15.996" xlink:href="#b"/><linearGradient id="ls" x1="13.517" y1="17.224" x2="36.516" y2="17.224" xlink:href="#b"/><linearGradient id="lt" x1="12.876" y1="18.453" x2="35.875" y2="18.453" xlink:href="#b"/><linearGradient id="lu" x1="12.235" y1="19.682" x2="35.235" y2="19.682" xlink:href="#b"/><linearGradient id="lv" x1="11.594" y1="20.911" x2="34.594" y2="20.911" xlink:href="#b"/><linearGradient id="lw" x1="10.953" y1="22.138" x2="33.953" y2="22.138" xlink:href="#b"/><linearGradient id="lx" x1="10.312" y1="23.368" x2="33.312" y2="23.368" xlink:href="#b"/><linearGradient id="ly" x1="9.671" y1="24.595" x2="32.671" y2="24.595" xlink:href="#b"/><linearGradient id="lz" x1="9.03" y1="25.826" x2="32.03" y2="25.826" xlink:href="#b"/><linearGradient id="ma" x1="8.389" y1="27.053" x2="31.389" y2="27.053" xlink:href="#b"/><linearGradient id="mb" x1="7.748" y1="28.283" x2="30.748" y2="28.283" xlink:href="#b"/><linearGradient id="mc" x1="7.108" y1="29.51" x2="30.107" y2="29.51" xlink:href="#b"/><linearGradient id="md" x1="18.627" y1="6.889" x2="41.626" y2="6.889" xlink:href="#b"/><linearGradient id="me" x1="17.986" y1="8.118" x2="40.986" y2="8.118" xlink:href="#b"/><linearGradient id="mf" x1="17.345" y1="9.346" x2="40.345" y2="9.346" xlink:href="#b"/><linearGradient id="mg" x1="16.704" y1="10.576" x2="39.704" y2="10.576" xlink:href="#b"/><linearGradient id="mh" x1="16.063" y1="11.804" x2="39.063" y2="11.804" xlink:href="#b"/><linearGradient id="mi" x1="15.422" y1="13.033" x2="38.422" y2="13.033" xlink:href="#b"/><linearGradient id="mj" x1="14.781" y1="14.261" x2="37.781" y2="14.261" xlink:href="#b"/><linearGradient id="mk" x1="14.14" y1="15.491" x2="37.14" y2="15.491" xlink:href="#b"/><linearGradient id="ml" x1="13.5" y1="16.718" x2="36.499" y2="16.718" xlink:href="#b"/><linearGradient id="mm" x1="12.859" y1="17.948" x2="35.858" y2="17.948" xlink:href="#b"/><linearGradient id="mn" x1="12.218" y1="19.176" x2="35.218" y2="19.176" xlink:href="#b"/><linearGradient id="mo" x1="11.577" y1="20.406" x2="34.576" y2="20.406" xlink:href="#b"/><linearGradient id="mp" x1="10.936" y1="21.633" x2="33.936" y2="21.633" xlink:href="#b"/><linearGradient id="mq" x1="10.295" y1="22.863" x2="33.295" y2="22.863" xlink:href="#b"/><linearGradient id="mr" x1="9.654" y1="24.09" x2="32.654" y2="24.09" xlink:href="#b"/><linearGradient id="ms" x1="9.013" y1="25.321" x2="32.013" y2="25.321" xlink:href="#b"/><linearGradient id="mt" x1="8.372" y1="26.548" x2="31.372" y2="26.548" xlink:href="#b"/><linearGradient id="mu" x1="7.731" y1="27.778" x2="30.731" y2="27.778" xlink:href="#b"/><linearGradient id="mv" x1="7.091" y1="29.005" x2="30.09" y2="29.005" xlink:href="#b"/><linearGradient id="mw" x1="6.45" y1="30.236" x2="29.449" y2="30.236" xlink:href="#b"/><linearGradient id="mx" x1="17.969" y1="7.614" x2="40.969" y2="7.614" xlink:href="#b"/><linearGradient id="my" x1="17.328" y1="8.842" x2="40.328" y2="8.842" xlink:href="#b"/><linearGradient id="mz" x1="16.687" y1="10.071" x2="39.687" y2="10.071" xlink:href="#b"/><linearGradient id="na" x1="16.046" y1="11.3" x2="39.046" y2="11.3" xlink:href="#b"/><linearGradient id="nb" x1="15.405" y1="12.529" x2="38.405" y2="12.529" xlink:href="#b"/><linearGradient id="nc" x1="14.764" y1="13.757" x2="37.764" y2="13.757" xlink:href="#b"/><linearGradient id="nd" x1="14.123" y1="14.986" x2="37.123" y2="14.986" xlink:href="#b"/><linearGradient id="ne" x1="13.482" y1="16.215" x2="36.482" y2="16.215" xlink:href="#b"/><linearGradient id="nf" x1="12.842" y1="17.442" x2="35.841" y2="17.442" xlink:href="#b"/><linearGradient id="ng" x1="12.201" y1="18.672" x2="35.2" y2="18.672" xlink:href="#b"/><linearGradient id="nh" x1="11.56" y1="19.9" x2="34.56" y2="19.9" xlink:href="#b"/><linearGradient id="ni" x1="10.919" y1="21.13" x2="33.919" y2="21.13" xlink:href="#b"/><linearGradient id="nj" x1="10.278" y1="22.357" x2="33.278" y2="22.357" xlink:href="#b"/><linearGradient id="nk" x1="9.637" y1="23.587" x2="32.637" y2="23.587" xlink:href="#b"/><linearGradient id="nl" x1="8.996" y1="24.814" x2="31.996" y2="24.814" xlink:href="#b"/><linearGradient id="nm" x1="8.355" y1="26.045" x2="31.355" y2="26.045" xlink:href="#b"/><linearGradient id="nn" x1="7.714" y1="27.272" x2="30.714" y2="27.272" xlink:href="#b"/><linearGradient id="no" x1="7.073" y1="28.502" x2="30.073" y2="28.502" xlink:href="#b"/><linearGradient id="np" x1="6.433" y1="29.729" x2="29.432" y2="29.729" xlink:href="#b"/><linearGradient id="nq" x1="5.792" y1="30.96" x2="28.791" y2="30.96" xlink:href="#b"/><linearGradient id="nr" x1="17.311" y1="8.338" x2="40.31" y2="8.338" xlink:href="#b"/><linearGradient id="ns" x1="16.67" y1="9.566" x2="39.67" y2="9.566" xlink:href="#b"/><linearGradient id="nt" x1="16.029" y1="10.795" x2="39.029" y2="10.795" xlink:href="#b"/><linearGradient id="nu" x1="15.388" y1="12.023" x2="38.388" y2="12.023" xlink:href="#b"/><linearGradient id="nv" x1="14.747" y1="13.253" x2="37.747" y2="13.253" xlink:href="#b"/><linearGradient id="nw" x1="14.106" y1="14.48" x2="37.106" y2="14.48" xlink:href="#b"/><linearGradient id="nx" x1="13.465" y1="15.71" x2="36.465" y2="15.71" xlink:href="#b"/><linearGradient id="ny" x1="12.824" y1="16.938" x2="35.824" y2="16.938" xlink:href="#b"/><linearGradient id="nz" x1="12.184" y1="18.168" x2="35.183" y2="18.168" xlink:href="#b"/><linearGradient id="oa" x1="11.543" y1="19.395" x2="34.542" y2="19.395" xlink:href="#b"/><linearGradient id="ob" x1="10.902" y1="20.625" x2="33.902" y2="20.625" xlink:href="#b"/><linearGradient id="oc" x1="10.261" y1="21.852" x2="33.261" y2="21.852" xlink:href="#b"/><linearGradient id="od" x1="9.62" y1="23.083" x2="32.62" y2="23.083" xlink:href="#b"/><linearGradient id="oe" x1="8.979" y1="24.31" x2="31.979" y2="24.31" xlink:href="#b"/><linearGradient id="of" x1="8.338" y1="25.54" x2="31.338" y2="25.54" xlink:href="#b"/><linearGradient id="og" x1="7.697" y1="26.767" x2="30.697" y2="26.767" xlink:href="#b"/><linearGradient id="oh" x1="7.056" y1="27.998" x2="30.056" y2="27.998" xlink:href="#b"/><linearGradient id="oi" x1="6.415" y1="29.225" x2="29.415" y2="29.225" xlink:href="#b"/><linearGradient id="oj" x1="5.775" y1="30.455" x2="28.774" y2="30.455" xlink:href="#b"/><linearGradient id="ok" x1="5.134" y1="31.684" x2="28.134" y2="31.684" xlink:href="#b"/></defs><g transform="translate(-764.584 -5868.155)"><path d="M803.925,6034.061l17.318,17.864a72.975,72.975,0,0,0,11.824,7.057,54.611,54.611,0,0,0,25.555,4.8c22.787-.8,42.314-11.3,57.912-23.941a130.854,130.854,0,0,0,23.735-25.145c11.237-15.676,20.626-35.323,19.773-57.856a52.046,52.046,0,0,0-6.753-24.642,86.926,86.926,0,0,0-6.039-8.8l-14.107-14.552" fill="#14103a"/><ellipse cx="89.886" cy="61.277" rx="89.886" ry="61.277" transform="translate(764.584 5993.276) rotate(-44.107)" fill="#94a6c5"/><g clip-path="url(#a)"><path d="M764.09,6031.775l3.229-5.714,4.939,1.173-3.229,5.714Z" fill="url(#b)"/><path d="M768.284,6024.353l3.229-5.714,4.939,1.174-3.229,5.714Z" fill="url(#c)"/><path d="M772.477,6016.931l3.229-5.714,4.939,1.173-3.229,5.714Z" fill="url(#d)"/><path d="M776.671,6009.509l3.229-5.714,4.939,1.174-3.229,5.714Z" fill="url(#e)"/><path d="M780.865,6002.087l3.229-5.714,4.939,1.173-3.229,5.714Z" fill="url(#f)"/><path d="M785.058,5994.665l3.229-5.714,4.939,1.173L790,5995.838Z" fill="url(#g)"/><path d="M789.252,5987.243l3.229-5.714,4.939,1.173-3.229,5.714Z" fill="url(#h)"/><path d="M793.445,5979.82l3.229-5.714,4.939,1.173-3.229,5.714Z" fill="url(#i)"/><path d="M797.639,5972.4l3.229-5.714,4.939,1.174-3.229,5.714Z" fill="url(#j)"/><path d="M801.832,5964.976l3.229-5.714,4.939,1.173-3.229,5.714Z" fill="url(#k)"/><path d="M806.026,5957.554l3.229-5.714,4.939,1.174-3.229,5.714Z" fill="url(#l)"/><path d="M810.219,5950.132l3.229-5.714,4.939,1.173-3.229,5.714Z" fill="url(#m)"/><path d="M814.413,5942.71l3.229-5.714,4.939,1.174-3.229,5.714Z" fill="url(#n)"/><path d="M818.606,5935.288l3.229-5.714,4.939,1.173-3.229,5.714Z" fill="url(#o)"/><path d="M822.8,5927.866l3.229-5.714,4.939,1.174-3.229,5.714Z" fill="url(#p)"/><path d="M826.993,5920.444l3.229-5.714,4.939,1.173-3.229,5.714Z" fill="url(#q)"/><path d="M831.187,5913.021l3.229-5.714,4.939,1.174-3.229,5.714Z" fill="url(#r)"/><path d="M835.38,5905.6l3.229-5.714,4.939,1.173-3.229,5.714Z" fill="url(#s)"/><path d="M839.574,5898.177l3.229-5.714,4.939,1.174-3.229,5.714Z" fill="url(#t)"/><path d="M843.767,5890.755l3.229-5.714,4.939,1.173-3.229,5.714Z" fill="url(#u)"/><path d="M770.506,6033.3l3.229-5.714,4.939,1.173-3.229,5.714Z" fill="url(#v)"/><path d="M774.7,6025.877l3.229-5.714,4.939,1.174-3.229,5.714Z" fill="url(#w)"/><path d="M778.893,6018.456l3.229-5.714,4.939,1.173-3.229,5.714Z" fill="url(#x)"/><path d="M783.086,6011.033l3.229-5.714,4.939,1.174-3.229,5.714Z" fill="url(#y)"/><path d="M787.28,6003.611l3.229-5.714,4.939,1.173-3.229,5.714Z" fill="url(#z)"/><path d="M791.473,5996.189l3.229-5.714,4.939,1.174-3.229,5.714Z" fill="url(#aa)"/><path d="M795.667,5988.767l3.229-5.714,4.939,1.173-3.229,5.714Z" fill="url(#ab)"/><path d="M799.86,5981.345l3.229-5.714,4.939,1.174-3.229,5.714Z" fill="url(#ac)"/><path d="M804.054,5973.923l3.229-5.714,4.939,1.173-3.229,5.714Z" fill="url(#ad)"/><path d="M808.248,5966.5l3.229-5.714,4.939,1.174-3.229,5.714Z" fill="url(#ae)"/><path d="M812.441,5959.079l3.229-5.714,4.939,1.173-3.229,5.714Z" fill="url(#af)"/><path d="M816.635,5951.656l3.229-5.714,4.939,1.174-3.229,5.714Z" fill="url(#ag)"/><path d="M820.828,5944.234l3.229-5.714,4.939,1.173-3.229,5.714Z" fill="url(#ah)"/><path d="M825.022,5936.812l3.229-5.714,4.939,1.174-3.229,5.714Z" fill="url(#ai)"/><path d="M829.215,5929.39l3.229-5.714,4.939,1.173-3.229,5.714Z" fill="url(#aj)"/><path d="M833.409,5921.968l3.229-5.714,4.939,1.174-3.229,5.714Z" fill="url(#ak)"/><path d="M837.6,5914.546l3.229-5.714L845.77,5910l-3.229,5.714Z" fill="url(#al)"/><path d="M841.8,5907.124l3.229-5.714,4.939,1.174-3.229,5.714Z" fill="url(#am)"/><path d="M845.989,5899.7l3.229-5.714,4.939,1.173-3.229,5.714Z" fill="url(#an)"/><path d="M850.183,5892.279l3.229-5.714,4.939,1.174-3.229,5.714Z" fill="url(#ao)"/><path d="M776.921,6034.824l3.229-5.714,4.939,1.174L781.86,6036Z" fill="url(#ap)"/><path d="M781.115,6027.4l3.229-5.714,4.939,1.173-3.229,5.714Z" fill="url(#aq)"/><path d="M785.308,6019.979l3.229-5.714,4.939,1.173-3.229,5.714Z" fill="url(#ar)"/><path d="M789.5,6012.558l3.229-5.714,4.939,1.174-3.229,5.714Z" fill="url(#as)"/><path d="M793.7,6005.135l3.229-5.714,4.939,1.173-3.229,5.714Z" fill="url(#at)"/><path d="M797.889,5997.713l3.229-5.714,4.939,1.174-3.229,5.714Z" fill="url(#au)"/><path d="M802.082,5990.292l3.229-5.714,4.939,1.173-3.229,5.714Z" fill="url(#av)"/><path d="M806.276,5982.869l3.229-5.714,4.939,1.174-3.229,5.714Z" fill="url(#aw)"/><path d="M810.469,5975.447l3.229-5.714,4.939,1.173-3.229,5.714Z" fill="url(#ax)"/><path d="M814.663,5968.025l3.229-5.714,4.939,1.174L819.6,5969.2Z" fill="url(#ay)"/><path d="M818.856,5960.6l3.229-5.714,4.939,1.173-3.229,5.714Z" fill="url(#az)"/><path d="M823.05,5953.181l3.229-5.714,4.939,1.174-3.229,5.714Z" fill="url(#ba)"/><path d="M827.244,5945.759l3.229-5.714,4.939,1.173-3.229,5.714Z" fill="url(#bb)"/><path d="M831.437,5938.336l3.229-5.714,4.939,1.174-3.229,5.714Z" fill="url(#bc)"/><path d="M835.631,5930.915l3.229-5.714,4.939,1.173-3.229,5.714Z" fill="url(#bd)"/><path d="M839.824,5923.492l3.229-5.714,4.939,1.174-3.229,5.714Z" fill="url(#be)"/><path d="M844.018,5916.07l3.229-5.714,4.939,1.173-3.229,5.714Z" fill="url(#bf)"/><path d="M848.211,5908.648l3.229-5.714,4.939,1.174-3.229,5.714Z" fill="url(#bg)"/><path d="M852.4,5901.226l3.229-5.714,4.939,1.173-3.229,5.714Z" fill="url(#bh)"/><path d="M856.6,5893.8l3.229-5.714,4.939,1.174-3.229,5.714Z" fill="url(#bi)"/><path d="M783.336,6036.348l3.229-5.714,4.939,1.174-3.229,5.714Z" fill="url(#bj)"/><path d="M787.53,6028.926l3.229-5.714,4.939,1.173-3.229,5.714Z" fill="url(#bk)"/><path d="M791.724,6021.5l3.229-5.714,4.939,1.174-3.229,5.714Z" fill="url(#bl)"/><path d="M795.917,6014.082l3.229-5.714,4.939,1.173-3.229,5.714Z" fill="url(#bm)"/><path d="M800.111,6006.66l3.229-5.714,4.939,1.174-3.229,5.714Z" fill="url(#bn)"/><path d="M804.3,5999.238l3.229-5.714,4.939,1.173-3.229,5.714Z" fill="url(#bo)"/><path d="M808.5,5991.815l3.229-5.714,4.939,1.174-3.229,5.714Z" fill="url(#bp)"/><path d="M812.691,5984.394l3.229-5.714,4.939,1.173-3.229,5.714Z" fill="url(#bq)"/><path d="M816.885,5976.971l3.229-5.714,4.939,1.174-3.229,5.714Z" fill="url(#br)"/><path d="M821.078,5969.549l3.229-5.714,4.939,1.173-3.229,5.714Z" fill="url(#bs)"/><path d="M825.272,5962.127l3.229-5.714,4.939,1.174-3.229,5.714Z" fill="url(#bt)"/><path d="M829.465,5954.705l3.229-5.714,4.939,1.173-3.229,5.714Z" fill="url(#bu)"/><path d="M833.659,5947.283l3.229-5.714,4.939,1.174-3.229,5.714Z" fill="url(#bv)"/><path d="M837.852,5939.861l3.229-5.714,4.939,1.173-3.229,5.714Z" fill="url(#bw)"/><path d="M842.046,5932.438l3.229-5.714,4.939,1.174-3.229,5.714Z" fill="url(#bx)"/><path d="M846.24,5925.017l3.229-5.714,4.939,1.173-3.229,5.714Z" fill="url(#by)"/><path d="M850.433,5917.594l3.229-5.714,4.939,1.174-3.229,5.714Z" fill="url(#bz)"/><path d="M854.627,5910.172l3.229-5.714,4.939,1.173-3.229,5.714Z" fill="url(#ca)"/><path d="M858.82,5902.75l3.229-5.714,4.939,1.173-3.229,5.714Z" fill="url(#cb)"/><path d="M863.014,5895.328l3.229-5.714,4.939,1.174-3.229,5.714Z" fill="url(#cc)"/><path d="M789.752,6037.873l3.229-5.714,4.939,1.174-3.229,5.714Z" fill="url(#cd)"/><path d="M793.945,6030.451l3.229-5.714,4.939,1.173-3.229,5.714Z" fill="url(#ce)"/><path d="M798.139,6023.028l3.229-5.714,4.939,1.174-3.229,5.714Z" fill="url(#cf)"/><path d="M802.332,6015.606l3.229-5.714,4.939,1.173-3.229,5.714Z" fill="url(#cg)"/><path d="M806.526,6008.184l3.229-5.714,4.939,1.174-3.229,5.714Z" fill="url(#ch)"/><path d="M810.72,6000.762l3.229-5.714,4.939,1.173-3.229,5.714Z" fill="url(#ci)"/><path d="M814.913,5993.34l3.229-5.714,4.939,1.174-3.229,5.714Z" fill="url(#cj)"/><path d="M819.107,5985.918l3.229-5.714,4.939,1.173-3.229,5.714Z" fill="url(#ck)"/><path d="M823.3,5978.5l3.229-5.714,4.939,1.174-3.229,5.714Z" fill="url(#cl)"/><path d="M827.494,5971.074l3.229-5.714,4.939,1.173-3.229,5.714Z" fill="url(#cm)"/><path d="M831.687,5963.651l3.229-5.714,4.939,1.174-3.229,5.714Z" fill="url(#cn)"/><path d="M835.881,5956.229l3.229-5.714,4.939,1.173-3.229,5.714Z" fill="url(#co)"/><path d="M840.074,5948.807l3.229-5.714,4.939,1.174-3.229,5.714Z" fill="url(#cp)"/><path d="M844.268,5941.385l3.229-5.714,4.939,1.173-3.229,5.714Z" fill="url(#cq)"/><path d="M848.461,5933.963l3.229-5.714,4.939,1.174-3.229,5.714Z" fill="url(#cr)"/><path d="M852.655,5926.541l3.229-5.714,4.939,1.173-3.229,5.714Z" fill="url(#cs)"/><path d="M856.848,5919.119l3.229-5.714,4.939,1.174-3.229,5.714Z" fill="url(#ct)"/><path d="M861.042,5911.7l3.229-5.714,4.939,1.173-3.229,5.714Z" fill="url(#cu)"/><path d="M865.235,5904.274l3.229-5.714,4.939,1.174-3.229,5.714Z" fill="url(#cv)"/><path d="M869.429,5896.853l3.229-5.714,4.939,1.173-3.229,5.714Z" fill="url(#cw)"/><path d="M796.167,6039.4l3.229-5.714,4.939,1.173-3.229,5.714Z" fill="url(#cx)"/><path d="M800.361,6031.975l3.229-5.714,4.939,1.174-3.229,5.714Z" fill="url(#cy)"/><path d="M804.554,6024.553l3.229-5.714,4.939,1.173-3.229,5.714Z" fill="url(#cz)"/><path d="M808.748,6017.13l3.229-5.714,4.939,1.174-3.229,5.714Z" fill="url(#da)"/><path d="M812.941,6009.708l3.229-5.714,4.939,1.173-3.229,5.714Z" fill="url(#db)"/><path d="M817.135,6002.286l3.229-5.714,4.939,1.174-3.229,5.714Z" fill="url(#dc)"/><path d="M821.328,5994.864l3.229-5.714,4.939,1.173-3.229,5.714Z" fill="url(#dd)"/><path d="M825.522,5987.442l3.229-5.714,4.939,1.174-3.229,5.714Z" fill="url(#de)"/><path d="M829.716,5980.02l3.229-5.714,4.939,1.173-3.229,5.714Z" fill="url(#df)"/><path d="M833.909,5972.6l3.229-5.714,4.939,1.174-3.229,5.714Z" fill="url(#dg)"/><path d="M838.1,5965.176l3.229-5.714,4.939,1.173-3.229,5.714Z" fill="url(#dh)"/><path d="M842.3,5957.753l3.229-5.714,4.939,1.174-3.229,5.714Z" fill="url(#di)"/><path d="M846.49,5950.332l3.229-5.714,4.939,1.173-3.229,5.714Z" fill="url(#dj)"/><path d="M850.683,5942.909l3.229-5.714,4.939,1.173-3.229,5.714Z" fill="url(#dk)"/><path d="M854.877,5935.487l3.229-5.714,4.939,1.174-3.229,5.714Z" fill="url(#dl)"/><path d="M859.07,5928.065l3.229-5.714,4.939,1.173-3.229,5.714Z" fill="url(#dm)"/><path d="M863.264,5920.643l3.229-5.714,4.939,1.174-3.229,5.714Z" fill="url(#dn)"/><path d="M867.457,5913.221l3.229-5.714,4.939,1.173-3.229,5.714Z" fill="url(#do)"/><path d="M871.651,5905.8l3.229-5.714,4.939,1.174-3.229,5.714Z" fill="url(#dp)"/><path d="M875.844,5898.377l3.229-5.714,4.939,1.173-3.229,5.714Z" fill="url(#dq)"/><path d="M802.583,6040.921l3.229-5.714,4.939,1.173-3.229,5.714Z" fill="url(#dr)"/><path d="M806.776,6033.5l3.229-5.714,4.939,1.174-3.229,5.714Z" fill="url(#ds)"/><path d="M810.97,6026.077l3.229-5.714,4.939,1.173-3.229,5.714Z" fill="url(#dt)"/><path d="M815.163,6018.655l3.229-5.714,4.939,1.174-3.229,5.714Z" fill="url(#du)"/><path d="M819.357,6011.233l3.229-5.714,4.939,1.173-3.229,5.714Z" fill="url(#dv)"/><path d="M823.55,6003.811l3.229-5.714,4.939,1.174-3.229,5.714Z" fill="url(#dw)"/><path d="M827.744,5996.389l3.229-5.714,4.939,1.173-3.229,5.714Z" fill="url(#dx)"/><path d="M831.937,5988.966l3.229-5.714,4.939,1.174-3.229,5.714Z" fill="url(#dy)"/><path d="M836.131,5981.544l3.229-5.714L844.3,5977l-3.229,5.714Z" fill="url(#dz)"/><path d="M840.324,5974.122l3.229-5.714,4.939,1.174-3.229,5.714Z" fill="url(#ea)"/><path d="M844.518,5966.7l3.229-5.714,4.939,1.173-3.229,5.714Z" fill="url(#eb)"/><path d="M848.711,5959.278l3.229-5.714,4.939,1.174-3.229,5.714Z" fill="url(#ec)"/><path d="M852.905,5951.856l3.229-5.714,4.939,1.173-3.229,5.714Z" fill="url(#ed)"/><path d="M857.1,5944.434l3.229-5.714,4.939,1.174-3.229,5.714Z" fill="url(#ee)"/><path d="M861.292,5937.012l3.229-5.714,4.939,1.173-3.229,5.714Z" fill="url(#ef)"/><path d="M865.486,5929.589l3.229-5.714,4.939,1.174-3.229,5.714Z" fill="url(#eg)"/><path d="M869.679,5922.167l3.229-5.714,4.939,1.173-3.229,5.714Z" fill="url(#eh)"/><path d="M873.873,5914.745l3.229-5.714,4.939,1.174-3.229,5.714Z" fill="url(#ei)"/><path d="M878.066,5907.323l3.229-5.714,4.939,1.173-3.229,5.714Z" fill="url(#ej)"/><path d="M882.26,5899.9l3.229-5.714,4.939,1.174-3.229,5.714Z" fill="url(#ek)"/><path d="M809,6042.445l3.229-5.714,4.939,1.174-3.229,5.714Z" fill="url(#el)"/><path d="M813.192,6035.023l3.229-5.714,4.939,1.173-3.229,5.714Z" fill="url(#em)"/><path d="M817.385,6027.6l3.229-5.714,4.939,1.174-3.229,5.714Z" fill="url(#en)"/><path d="M821.579,6020.179l3.229-5.714,4.939,1.173-3.229,5.714Z" fill="url(#eo)"/><path d="M825.772,6012.757l3.229-5.714,4.939,1.174-3.229,5.714Z" fill="url(#ep)"/><path d="M829.966,6005.335l3.229-5.714,4.939,1.173-3.229,5.714Z" fill="url(#eq)"/><path d="M834.159,5997.913l3.229-5.714,4.939,1.174-3.229,5.714Z" fill="url(#er)"/><path d="M838.353,5990.491l3.229-5.714,4.939,1.173-3.229,5.714Z" fill="url(#es)"/><path d="M842.546,5983.068l3.229-5.714,4.939,1.173-3.229,5.714Z" fill="url(#et)"/><path d="M846.74,5975.646l3.229-5.714,4.939,1.173-3.229,5.714Z" fill="url(#eu)"/><path d="M850.933,5968.224l3.229-5.714,4.939,1.173-3.229,5.714Z" fill="url(#ev)"/><path d="M855.127,5960.8l3.229-5.714,4.939,1.174-3.229,5.714Z" fill="url(#ew)"/><path d="M859.32,5953.38l3.229-5.714,4.939,1.173-3.229,5.714Z" fill="url(#ex)"/><path d="M863.514,5945.958l3.229-5.714,4.939,1.174-3.229,5.714Z" fill="url(#ey)"/><path d="M867.707,5938.536l3.229-5.714,4.939,1.173-3.229,5.714Z" fill="url(#ez)"/><path d="M871.9,5931.114l3.229-5.714,4.939,1.174-3.229,5.714Z" fill="url(#fa)"/><path d="M876.095,5923.692l3.229-5.714,4.939,1.173-3.229,5.714Z" fill="url(#fb)"/><path d="M880.288,5916.27l3.229-5.714,4.939,1.174-3.229,5.714Z" fill="url(#fc)"/><path d="M884.482,5908.848l3.229-5.714,4.939,1.173-3.229,5.714Z" fill="url(#fd)"/><path d="M888.675,5901.425l3.229-5.714,4.939,1.174-3.229,5.714Z" fill="url(#fe)"/><path d="M815.413,6043.97l3.229-5.714,4.939,1.174-3.229,5.714Z" fill="url(#ff)"/><path d="M819.607,6036.548l3.229-5.714,4.939,1.173-3.229,5.714Z" fill="url(#fg)"/><path d="M823.8,6029.125l3.229-5.714,4.939,1.174-3.229,5.714Z" fill="url(#fh)"/><path d="M827.994,6021.7l3.229-5.714,4.939,1.173-3.229,5.714Z" fill="url(#fi)"/><path d="M832.188,6014.281l3.229-5.714,4.939,1.174-3.229,5.714Z" fill="url(#fj)"/><path d="M836.381,6006.859l3.229-5.714,4.939,1.173-3.229,5.714Z" fill="url(#fk)"/><path d="M840.575,5999.437l3.229-5.714,4.939,1.174-3.229,5.714Z" fill="url(#fl)"/><path d="M844.768,5992.015,848,5986.3l4.939,1.173-3.229,5.714Z" fill="url(#fm)"/><path d="M848.962,5984.593l3.229-5.714,4.939,1.174-3.229,5.714Z" fill="url(#fn)"/><path d="M853.155,5977.171l3.229-5.714,4.939,1.173-3.229,5.714Z" fill="url(#fo)"/><path d="M857.349,5969.749l3.229-5.714,4.939,1.174-3.229,5.714Z" fill="url(#fp)"/><path d="M861.542,5962.327l3.229-5.714,4.939,1.173-3.229,5.714Z" fill="url(#fq)"/><path d="M865.736,5954.9l3.229-5.714,4.939,1.174-3.229,5.714Z" fill="url(#fr)"/><path d="M869.929,5947.482l3.229-5.714,4.939,1.173-3.229,5.714Z" fill="url(#fs)"/><path d="M874.123,5940.06l3.229-5.714,4.939,1.174-3.229,5.714Z" fill="url(#ft)"/><path d="M878.316,5932.638l3.229-5.714,4.939,1.173-3.229,5.714Z" fill="url(#fu)"/><path d="M882.51,5925.216l3.229-5.714,4.939,1.174-3.229,5.714Z" fill="url(#fv)"/><path d="M886.7,5917.794l3.229-5.714,4.939,1.173-3.229,5.714Z" fill="url(#fw)"/><path d="M890.9,5910.372l3.229-5.714,4.939,1.174-3.229,5.714Z" fill="url(#fx)"/><path d="M895.09,5902.95l3.229-5.714,4.939,1.173-3.229,5.714Z" fill="url(#fy)"/><path d="M821.829,6045.494l3.229-5.714,4.939,1.173-3.229,5.714Z" fill="url(#fz)"/><path d="M826.022,6038.072l3.229-5.714,4.939,1.174-3.229,5.714Z" fill="url(#ga)"/><path d="M830.216,6030.65l3.229-5.714,4.939,1.173-3.229,5.714Z" fill="url(#gb)"/><path d="M834.409,6023.228l3.229-5.714,4.939,1.173-3.229,5.714Z" fill="url(#gc)"/><path d="M838.6,6015.806l3.229-5.714,4.939,1.173-3.229,5.714Z" fill="url(#gd)"/><path d="M842.8,6008.383l3.229-5.714,4.939,1.173-3.229,5.714Z" fill="url(#ge)"/><path d="M846.99,6000.961l3.229-5.714,4.939,1.174-3.229,5.714Z" fill="url(#gf)"/><path d="M851.183,5993.539l3.229-5.714,4.939,1.173-3.229,5.714Z" fill="url(#gg)"/><path d="M855.377,5986.117l3.229-5.714,4.939,1.174-3.229,5.714Z" fill="url(#gh)"/><path d="M859.571,5978.7l3.229-5.714,4.939,1.173-3.229,5.714Z" fill="url(#gi)"/><path d="M863.764,5971.273l3.229-5.714,4.939,1.174-3.229,5.714Z" fill="url(#gj)"/><path d="M867.958,5963.851l3.229-5.714,4.939,1.173-3.229,5.714Z" fill="url(#gk)"/><path d="M872.151,5956.429l3.229-5.714,4.939,1.174-3.229,5.714Z" fill="url(#gl)"/><path d="M876.345,5949.007l3.229-5.714,4.939,1.173-3.229,5.714Z" fill="url(#gm)"/><path d="M880.538,5941.584l3.229-5.714,4.939,1.174-3.229,5.714Z" fill="url(#gn)"/><path d="M884.732,5934.163l3.229-5.714,4.939,1.173-3.229,5.714Z" fill="url(#go)"/><path d="M888.925,5926.74l3.229-5.714,4.939,1.174-3.229,5.714Z" fill="url(#gp)"/><path d="M893.119,5919.318l3.229-5.714,4.939,1.173-3.229,5.714Z" fill="url(#gq)"/><path d="M897.312,5911.9l3.229-5.714,4.939,1.174-3.229,5.714Z" fill="url(#gr)"/><path d="M901.506,5904.474l3.229-5.714,4.939,1.173-3.229,5.714Z" fill="url(#gs)"/><path d="M828.244,6047.019l3.229-5.714,4.939,1.173-3.229,5.714Z" fill="url(#gt)"/><path d="M832.438,6039.6l3.229-5.714,4.939,1.174-3.229,5.714Z" fill="url(#gu)"/><path d="M836.631,6032.174l3.229-5.714,4.939,1.173-3.229,5.714Z" fill="url(#gv)"/><path d="M840.825,6024.752l3.229-5.714,4.939,1.174-3.229,5.714Z" fill="url(#gw)"/><path d="M845.018,6017.33l3.229-5.714,4.939,1.173-3.229,5.714Z" fill="url(#gx)"/><path d="M849.212,6009.908l3.229-5.714,4.939,1.174-3.229,5.714Z" fill="url(#gy)"/><path d="M853.405,6002.486l3.229-5.714,4.939,1.173-3.229,5.714Z" fill="url(#gz)"/><path d="M857.6,5995.063l3.229-5.714,4.939,1.174-3.229,5.714Z" fill="url(#ha)"/><path d="M861.792,5987.642l3.229-5.714,4.939,1.173-3.229,5.714Z" fill="url(#hb)"/><path d="M865.986,5980.219l3.229-5.714,4.939,1.174-3.229,5.714Z" fill="url(#hc)"/><path d="M870.179,5972.8l3.229-5.714,4.939,1.173-3.229,5.714Z" fill="url(#hd)"/><path d="M874.373,5965.375l3.229-5.714,4.939,1.174-3.229,5.714Z" fill="url(#he)"/><path d="M878.567,5957.953l3.229-5.714,4.939,1.173-3.229,5.714Z" fill="url(#hf)"/><path d="M882.76,5950.531l3.229-5.714,4.939,1.174L887.7,5951.7Z" fill="url(#hg)"/><path d="M886.954,5943.109l3.229-5.714,4.939,1.173-3.229,5.714Z" fill="url(#hh)"/><path d="M891.147,5935.687l3.229-5.714,4.939,1.174-3.229,5.714Z" fill="url(#hi)"/><path d="M895.341,5928.265l3.229-5.714,4.939,1.173-3.229,5.714Z" fill="url(#hj)"/><path d="M899.534,5920.842l3.229-5.714,4.939,1.174-3.229,5.714Z" fill="url(#hk)"/><path d="M903.728,5913.42l3.229-5.714,4.939,1.173-3.229,5.714Z" fill="url(#hl)"/><path d="M907.921,5906l3.229-5.714,4.939,1.173-3.229,5.714Z" fill="url(#hm)"/><path d="M834.659,6048.542l3.229-5.714,4.939,1.173-3.229,5.714Z" fill="url(#hn)"/><path d="M838.853,6041.121l3.229-5.714,4.939,1.174-3.229,5.714Z" fill="url(#ho)"/><path d="M843.047,6033.7l3.229-5.714,4.939,1.173-3.229,5.714Z" fill="url(#hp)"/><path d="M847.24,6026.276l3.229-5.714,4.939,1.174-3.229,5.714Z" fill="url(#hq)"/><path d="M851.434,6018.854l3.229-5.714,4.939,1.173-3.229,5.714Z" fill="url(#hr)"/><path d="M855.627,6011.432l3.229-5.714,4.939,1.174-3.229,5.714Z" fill="url(#hs)"/><path d="M859.821,6004.01l3.229-5.714,4.939,1.173-3.229,5.714Z" fill="url(#ht)"/><path d="M864.014,5996.588l3.229-5.714,4.939,1.174-3.229,5.714Z" fill="url(#hu)"/><path d="M868.208,5989.166l3.229-5.714,4.939,1.173-3.229,5.714Z" fill="url(#hv)"/><path d="M872.4,5981.744l3.229-5.714,4.939,1.174-3.229,5.714Z" fill="url(#hw)"/><path d="M876.595,5974.322l3.229-5.714,4.939,1.173-3.229,5.714Z" fill="url(#hx)"/><path d="M880.788,5966.9l3.229-5.714,4.939,1.174-3.229,5.714Z" fill="url(#hy)"/><path d="M884.982,5959.478l3.229-5.714,4.939,1.173-3.229,5.714Z" fill="url(#hz)"/><path d="M889.175,5952.055l3.229-5.714,4.939,1.174-3.229,5.714Z" fill="url(#ia)"/><path d="M893.369,5944.633l3.229-5.714,4.939,1.173-3.229,5.714Z" fill="url(#ib)"/><path d="M897.563,5937.211l3.229-5.714,4.939,1.174-3.229,5.714Z" fill="url(#ic)"/><path d="M901.756,5929.789l3.229-5.714,4.939,1.173-3.229,5.714Z" fill="url(#id)"/><path d="M905.95,5922.367l3.229-5.714,4.939,1.174-3.229,5.714Z" fill="url(#ie)"/><path d="M910.143,5914.945l3.229-5.714,4.939,1.173-3.229,5.714Z" fill="url(#if)"/><path d="M914.337,5907.522l3.229-5.714,4.939,1.174-3.229,5.714Z" fill="url(#ig)"/><path d="M841.075,6050.067l3.229-5.714,4.939,1.174-3.229,5.714Z" fill="url(#ih)"/><path d="M845.268,6042.645l3.229-5.714,4.939,1.173-3.229,5.714Z" fill="url(#ii)"/><path d="M849.462,6035.223l3.229-5.714,4.939,1.174L854.4,6036.4Z" fill="url(#ij)"/><path d="M853.655,6027.8l3.229-5.714,4.939,1.173-3.229,5.714Z" fill="url(#ik)"/><path d="M857.849,6020.378l3.229-5.714,4.939,1.174-3.229,5.714Z" fill="url(#il)"/><path d="M862.043,6012.957l3.229-5.714,4.939,1.173-3.229,5.714Z" fill="url(#im)"/><path d="M866.236,6005.534l3.229-5.714,4.939,1.174-3.229,5.714Z" fill="url(#in)"/><path d="M870.43,5998.112l3.229-5.714,4.939,1.173-3.229,5.714Z" fill="url(#io)"/><path d="M874.623,5990.69l3.229-5.714,4.939,1.174-3.229,5.714Z" fill="url(#ip)"/><path d="M878.817,5983.268l3.229-5.714,4.939,1.173-3.229,5.714Z" fill="url(#iq)"/><path d="M883.01,5975.846l3.229-5.714,4.939,1.174-3.229,5.714Z" fill="url(#ir)"/><path d="M887.2,5968.424l3.229-5.714,4.939,1.173-3.229,5.714Z" fill="url(#is)"/><path d="M891.4,5961l3.229-5.714,4.939,1.174-3.229,5.714Z" fill="url(#it)"/><path d="M895.591,5953.58l3.229-5.714,4.939,1.173-3.229,5.714Z" fill="url(#iu)"/><path d="M899.784,5946.157l3.229-5.714,4.939,1.174-3.229,5.714Z" fill="url(#iv)"/><path d="M903.978,5938.735l3.229-5.714,4.939,1.173-3.229,5.714Z" fill="url(#iw)"/><path d="M908.171,5931.313l3.229-5.714,4.939,1.173-3.229,5.714Z" fill="url(#ix)"/><path d="M912.365,5923.891l3.229-5.714,4.939,1.174-3.229,5.714Z" fill="url(#iy)"/><path d="M916.558,5916.469l3.229-5.714,4.939,1.173-3.229,5.714Z" fill="url(#iz)"/><path d="M920.752,5909.047l3.229-5.714,4.939,1.174-3.229,5.714Z" fill="url(#ja)"/><path d="M847.49,6051.591l3.229-5.714,4.939,1.174-3.229,5.714Z" fill="url(#jb)"/><path d="M851.684,6044.169l3.229-5.714,4.939,1.173-3.229,5.714Z" fill="url(#jc)"/><path d="M855.877,6036.747l3.229-5.714,4.939,1.174-3.229,5.714Z" fill="url(#jd)"/><path d="M860.071,6029.325l3.229-5.714,4.939,1.173-3.229,5.714Z" fill="url(#je)"/><path d="M864.264,6021.9l3.229-5.714,4.939,1.174-3.229,5.714Z" fill="url(#jf)"/><path d="M868.458,6014.481l3.229-5.714,4.939,1.173-3.229,5.714Z" fill="url(#jg)"/><path d="M872.651,6007.059l3.229-5.714,4.939,1.174-3.229,5.714Z" fill="url(#jh)"/><path d="M876.845,5999.637l3.229-5.714,4.939,1.173-3.229,5.714Z" fill="url(#ji)"/><path d="M881.039,5992.214l3.229-5.714,4.939,1.174-3.229,5.714Z" fill="url(#jj)"/><path d="M885.232,5984.792l3.229-5.714,4.939,1.173-3.229,5.714Z" fill="url(#jk)"/><path d="M889.426,5977.37l3.229-5.714,4.939,1.174-3.229,5.714Z" fill="url(#jl)"/><path d="M893.619,5969.948l3.229-5.714,4.939,1.173-3.229,5.714Z" fill="url(#jm)"/><path d="M897.813,5962.526l3.229-5.714,4.939,1.174-3.229,5.714Z" fill="url(#jn)"/><path d="M902.006,5955.1l3.229-5.714,4.939,1.173-3.229,5.714Z" fill="url(#jo)"/><path d="M906.2,5947.682l3.229-5.714,4.939,1.174-3.229,5.714Z" fill="url(#jp)"/><path d="M910.393,5940.26l3.229-5.714,4.939,1.173-3.229,5.714Z" fill="url(#jq)"/><path d="M914.587,5932.837l3.229-5.714,4.939,1.174-3.229,5.714Z" fill="url(#jr)"/><path d="M918.78,5925.416l3.229-5.714,4.939,1.173-3.229,5.714Z" fill="url(#js)"/><path d="M922.974,5917.993l3.229-5.714,4.939,1.174-3.229,5.714Z" fill="url(#jt)"/><path d="M927.167,5910.571l3.229-5.714,4.939,1.173-3.229,5.714Z" fill="url(#ju)"/><path d="M853.906,6053.116l3.229-5.714,4.939,1.173-3.229,5.714Z" fill="url(#jv)"/><path d="M858.1,6045.693l3.229-5.714,4.939,1.174-3.229,5.714Z" fill="url(#jw)"/><path d="M862.293,6038.271l3.229-5.714,4.939,1.173-3.229,5.714Z" fill="url(#jx)"/><path d="M866.486,6030.849l3.229-5.714,4.939,1.174-3.229,5.714Z" fill="url(#jy)"/><path d="M870.68,6023.427l3.229-5.714,4.939,1.173-3.229,5.714Z" fill="url(#jz)"/><path d="M874.873,6016l3.229-5.714,4.939,1.174-3.229,5.714Z" fill="url(#ka)"/><path d="M879.067,6008.583l3.229-5.714,4.939,1.173-3.229,5.714Z" fill="url(#kb)"/><path d="M883.26,6001.161l3.229-5.714,4.939,1.174-3.229,5.714Z" fill="url(#kc)"/><path d="M887.454,5993.739l3.229-5.714,4.939,1.173-3.229,5.714Z" fill="url(#kd)"/><path d="M891.647,5986.316l3.229-5.714,4.939,1.174-3.229,5.714Z" fill="url(#ke)"/><path d="M895.841,5978.895l3.229-5.714,4.939,1.173-3.229,5.714Z" fill="url(#kf)"/><path d="M900.034,5971.472l3.229-5.714,4.939,1.173-3.229,5.714Z" fill="url(#kg)"/><path d="M904.228,5964.05l3.229-5.714,4.939,1.174-3.229,5.714Z" fill="url(#kh)"/><path d="M908.422,5956.628l3.229-5.714,4.939,1.173-3.229,5.714Z" fill="url(#ki)"/><path d="M912.615,5949.206l3.229-5.714,4.939,1.174-3.229,5.714Z" fill="url(#kj)"/><path d="M916.809,5941.784l3.229-5.714,4.939,1.173-3.229,5.714Z" fill="url(#kk)"/><path d="M921,5934.362l3.229-5.714,4.939,1.174-3.229,5.714Z" fill="url(#kl)"/><path d="M925.2,5926.94l3.229-5.714,4.939,1.173-3.229,5.714Z" fill="url(#km)"/><path d="M929.389,5919.518l3.229-5.714,4.939,1.174-3.229,5.714Z" fill="url(#kn)"/><path d="M933.583,5912.1l3.229-5.714,4.939,1.173-3.229,5.714Z" fill="url(#ko)"/><path d="M860.321,6054.64l3.229-5.714,4.939,1.173-3.229,5.714Z" fill="url(#kp)"/><path d="M864.515,6047.218l3.229-5.714,4.939,1.174-3.229,5.714Z" fill="url(#kq)"/><path d="M868.708,6039.8l3.229-5.714,4.939,1.173-3.229,5.714Z" fill="url(#kr)"/><path d="M872.9,6032.374l3.229-5.714,4.939,1.174-3.229,5.714Z" fill="url(#ks)"/><path d="M877.1,6024.952l3.229-5.714,4.939,1.173-3.229,5.714Z" fill="url(#kt)"/><path d="M881.289,6017.529l3.229-5.714,4.939,1.174-3.229,5.714Z" fill="url(#ku)"/><path d="M885.482,6010.107l3.229-5.714,4.939,1.173-3.229,5.714Z" fill="url(#kv)"/><path d="M889.676,6002.685l3.229-5.714,4.939,1.174-3.229,5.714Z" fill="url(#kw)"/><path d="M893.869,5995.263l3.229-5.714,4.939,1.173-3.229,5.714Z" fill="url(#kx)"/><path d="M898.063,5987.841l3.229-5.714,4.939,1.174L903,5989.015Z" fill="url(#ky)"/><path d="M902.256,5980.419l3.229-5.714,4.939,1.173-3.229,5.714Z" fill="url(#kz)"/><path d="M906.45,5973l3.229-5.714,4.939,1.174-3.229,5.714Z" fill="url(#la)"/><path d="M910.643,5965.575l3.229-5.714,4.939,1.173-3.229,5.714Z" fill="url(#lb)"/><path d="M914.837,5958.152l3.229-5.714,4.939,1.174-3.229,5.714Z" fill="url(#lc)"/><path d="M919.03,5950.73l3.229-5.714,4.939,1.173-3.229,5.714Z" fill="url(#ld)"/><path d="M923.224,5943.308l3.229-5.714,4.939,1.174-3.229,5.714Z" fill="url(#le)"/><path d="M927.418,5935.886l3.229-5.714,4.939,1.173-3.229,5.714Z" fill="url(#lf)"/><path d="M931.611,5928.464l3.229-5.714,4.939,1.174-3.229,5.714Z" fill="url(#lg)"/><path d="M935.8,5921.042l3.229-5.714,4.939,1.173-3.229,5.714Z" fill="url(#lh)"/><path d="M940,5913.62l3.229-5.714,4.939,1.174-3.229,5.714Z" fill="url(#li)"/><path d="M866.736,6056.164l3.229-5.714,4.939,1.174-3.229,5.714Z" fill="url(#lj)"/><path d="M870.93,6048.742l3.229-5.714,4.939,1.173-3.229,5.714Z" fill="url(#lk)"/><path d="M875.123,6041.32l3.229-5.714,4.939,1.174-3.229,5.714Z" fill="url(#ll)"/><path d="M879.317,6033.9l3.229-5.714,4.939,1.173-3.229,5.714Z" fill="url(#lm)"/><path d="M883.51,6026.476l3.229-5.714,4.939,1.174-3.229,5.714Z" fill="url(#ln)"/><path d="M887.7,6019.054l3.229-5.714,4.939,1.173-3.229,5.714Z" fill="url(#lo)"/><path d="M891.9,6011.631l3.229-5.714,4.939,1.173-3.229,5.714Z" fill="url(#lp)"/><path d="M896.091,6004.209l3.229-5.714,4.939,1.173-3.229,5.714Z" fill="url(#lq)"/><path d="M900.285,5996.787l3.229-5.714,4.939,1.173-3.229,5.714Z" fill="url(#lr)"/><path d="M904.478,5989.365l3.229-5.714,4.939,1.174-3.229,5.714Z" fill="url(#ls)"/><path d="M908.672,5981.943l3.229-5.714,4.939,1.173-3.229,5.714Z" fill="url(#lt)"/><path d="M912.865,5974.521l3.229-5.714,4.939,1.174-3.229,5.714Z" fill="url(#lu)"/><path d="M917.059,5967.1l3.229-5.714,4.939,1.173L922,5968.272Z" fill="url(#lv)"/><path d="M921.252,5959.677l3.229-5.714,4.939,1.174-3.229,5.714Z" fill="url(#lw)"/><path d="M925.446,5952.255l3.229-5.714,4.939,1.173-3.229,5.714Z" fill="url(#lx)"/><path d="M929.639,5944.833l3.229-5.714,4.939,1.174-3.229,5.714Z" fill="url(#ly)"/><path d="M933.833,5937.411l3.229-5.714L942,5932.87l-3.229,5.714Z" fill="url(#lz)"/><path d="M938.026,5929.988l3.229-5.714,4.939,1.174-3.229,5.714Z" fill="url(#ma)"/><path d="M942.22,5922.566l3.229-5.714,4.939,1.173-3.229,5.714Z" fill="url(#mb)"/><path d="M946.414,5915.144l3.229-5.714,4.939,1.174-3.229,5.714Z" fill="url(#mc)"/><path d="M873.152,6057.688l3.229-5.714,4.939,1.174-3.229,5.714Z" fill="url(#md)"/><path d="M877.345,6050.267l3.229-5.714,4.939,1.173-3.229,5.714Z" fill="url(#me)"/><path d="M881.539,6042.844l3.229-5.714,4.939,1.174-3.229,5.714Z" fill="url(#mf)"/><path d="M885.732,6035.422l3.229-5.714,4.939,1.173-3.229,5.714Z" fill="url(#mg)"/><path d="M889.926,6028l3.229-5.714,4.939,1.174-3.229,5.714Z" fill="url(#mh)"/><path d="M894.119,6020.578l3.229-5.714,4.939,1.173-3.229,5.714Z" fill="url(#mi)"/><path d="M898.313,6013.156l3.229-5.714,4.939,1.174-3.229,5.714Z" fill="url(#mj)"/><path d="M902.506,6005.734l3.229-5.714,4.939,1.173-3.229,5.714Z" fill="url(#mk)"/><path d="M906.7,5998.312l3.229-5.714,4.939,1.174-3.229,5.714Z" fill="url(#ml)"/><path d="M910.894,5990.89l3.229-5.714,4.939,1.173-3.229,5.714Z" fill="url(#mm)"/><path d="M915.087,5983.467l3.229-5.714,4.939,1.174-3.229,5.714Z" fill="url(#mn)"/><path d="M919.281,5976.045l3.229-5.714,4.939,1.173-3.229,5.714Z" fill="url(#mo)"/><path d="M923.474,5968.623l3.229-5.714,4.939,1.174-3.229,5.714Z" fill="url(#mp)"/><path d="M927.668,5961.2l3.229-5.714,4.939,1.173-3.229,5.714Z" fill="url(#mq)"/><path d="M931.861,5953.779l3.229-5.714,4.939,1.174-3.229,5.714Z" fill="url(#mr)"/><path d="M936.055,5946.357l3.229-5.714,4.939,1.173-3.229,5.714Z" fill="url(#ms)"/><path d="M940.248,5938.935l3.229-5.714,4.939,1.174-3.229,5.714Z" fill="url(#mt)"/><path d="M944.442,5931.513l3.229-5.714,4.939,1.173-3.229,5.714Z" fill="url(#mu)"/><path d="M948.635,5924.09l3.229-5.714,4.939,1.174-3.229,5.714Z" fill="url(#mv)"/><path d="M952.829,5916.668l3.229-5.714,4.939,1.173-3.229,5.714Z" fill="url(#mw)"/><path d="M879.567,6059.213l3.229-5.714,4.939,1.173-3.229,5.714Z" fill="url(#mx)"/><path d="M883.761,6051.791l3.229-5.714,4.939,1.174-3.229,5.714Z" fill="url(#my)"/><path d="M887.954,6044.369l3.229-5.714,4.939,1.173-3.229,5.714Z" fill="url(#mz)"/><path d="M892.148,6036.946l3.229-5.714,4.939,1.173-3.229,5.714Z" fill="url(#na)"/><path d="M896.341,6029.524l3.229-5.714,4.939,1.174-3.229,5.714Z" fill="url(#nb)"/><path d="M900.535,6022.1l3.229-5.714,4.939,1.173-3.229,5.714Z" fill="url(#nc)"/><path d="M904.728,6014.68l3.229-5.714,4.939,1.174-3.229,5.714Z" fill="url(#nd)"/><path d="M908.922,6007.258l3.229-5.714,4.939,1.173-3.229,5.714Z" fill="url(#ne)"/><path d="M913.115,5999.836l3.229-5.714,4.939,1.174-3.229,5.714Z" fill="url(#nf)"/><path d="M917.309,5992.414l3.229-5.714,4.939,1.173-3.229,5.714Z" fill="url(#ng)"/><path d="M921.5,5984.992l3.229-5.714,4.939,1.174-3.229,5.714Z" fill="url(#nh)"/><path d="M925.7,5977.57l3.229-5.714,4.939,1.173-3.229,5.714Z" fill="url(#ni)"/><path d="M929.89,5970.147l3.229-5.714,4.939,1.174-3.229,5.714Z" fill="url(#nj)"/><path d="M934.083,5962.726l3.229-5.714,4.939,1.173-3.229,5.714Z" fill="url(#nk)"/><path d="M938.277,5955.3l3.229-5.714,4.939,1.174-3.229,5.714Z" fill="url(#nl)"/><path d="M942.47,5947.881l3.229-5.714,4.939,1.173-3.229,5.714Z" fill="url(#nm)"/><path d="M946.664,5940.459l3.229-5.714,4.939,1.174-3.229,5.714Z" fill="url(#nn)"/><path d="M950.857,5933.037l3.229-5.714,4.939,1.173-3.229,5.714Z" fill="url(#no)"/><path d="M955.051,5925.615l3.229-5.714,4.939,1.174-3.229,5.714Z" fill="url(#np)"/><path d="M959.244,5918.193l3.229-5.714,4.939,1.173-3.229,5.714Z" fill="url(#nq)"/><path d="M885.982,6060.737l3.229-5.714,4.939,1.173-3.229,5.714Z" fill="url(#nr)"/><path d="M890.176,6053.315l3.229-5.714,4.939,1.174-3.229,5.714Z" fill="url(#ns)"/><path d="M894.37,6045.893l3.229-5.714,4.939,1.173-3.229,5.714Z" fill="url(#nt)"/><path d="M898.563,6038.471l3.229-5.714,4.939,1.174-3.229,5.714Z" fill="url(#nu)"/><path d="M902.757,6031.049l3.229-5.714,4.939,1.173-3.229,5.714Z" fill="url(#nv)"/><path d="M906.95,6023.626l3.229-5.714,4.939,1.174-3.229,5.714Z" fill="url(#nw)"/><path d="M911.144,6016.2l3.229-5.714,4.939,1.173-3.229,5.714Z" fill="url(#nx)"/><path d="M915.337,6008.782l3.229-5.714,4.939,1.174-3.229,5.714Z" fill="url(#ny)"/><path d="M919.531,6001.36l3.229-5.714,4.939,1.173-3.229,5.714Z" fill="url(#nz)"/><path d="M923.724,5993.938l3.229-5.714,4.939,1.174-3.229,5.714Z" fill="url(#oa)"/><path d="M927.918,5986.516l3.229-5.714,4.939,1.173-3.229,5.714Z" fill="url(#ob)"/><path d="M932.111,5979.094l3.229-5.714,4.939,1.174-3.229,5.714Z" fill="url(#oc)"/><path d="M936.3,5971.672l3.229-5.714,4.939,1.173-3.229,5.714Z" fill="url(#od)"/><path d="M940.5,5964.25l3.229-5.714,4.939,1.174-3.229,5.714Z" fill="url(#oe)"/><path d="M944.692,5956.828l3.229-5.714,4.939,1.173L949.631,5958Z" fill="url(#of)"/><path d="M948.885,5949.405l3.229-5.714,4.939,1.174-3.229,5.714Z" fill="url(#og)"/><path d="M953.079,5941.983l3.229-5.714,4.939,1.173-3.229,5.714Z" fill="url(#oh)"/><path d="M957.273,5934.561l3.229-5.714,4.939,1.174-3.229,5.714Z" fill="url(#oi)"/><path d="M961.466,5927.139l3.229-5.714,4.939,1.173-3.229,5.714Z" fill="url(#oj)"/><path d="M965.66,5919.717l3.229-5.714,4.939,1.173-3.229,5.714Z" fill="url(#ok)"/></g><path d="M925.182,5924.016c-6.834-5.941-8.379-14.268-18.365-17.771-5.137-1.8-10.832-1.641-16.169-1.1-7.265.739-16.793,2.178-22.859,6.485,7.644.474,15.656-2.492,23.729-1.743A60.01,60.01,0,0,1,925.182,5924.016Z" fill="#fff"/></g></svg>