<svg xmlns="http://www.w3.org/2000/svg" xmlns:xlink="http://www.w3.org/1999/xlink" width="249.633" height="249.633" viewBox="0 0 249.633 249.633"><defs><clipPath id="a"><circle cx="124.817" cy="124.817" r="124.817" transform="translate(876.251 3981.442)" fill="none"/></clipPath></defs><g transform="translate(-876.251 -3981.442)"><g clip-path="url(#a)"><path d="M984.6,4026.754l-91.48-52.816a12.957,12.957,0,0,0-11.725-.021l-90.91,52.487c-3.228,1.863-3.211,4.894.037,6.769L882,4085.989a12.957,12.957,0,0,0,11.725.022l90.91-52.487C987.861,4031.66,987.844,4028.63,984.6,4026.754Z" fill="#0b1221"/><path d="M788.071,4029.667v-9.04l198.972.825v8.7l-179.116,5.592Z" fill="#0b1221"/><path d="M984.6,4017.847l-91.48-52.817a12.96,12.96,0,0,0-11.725-.021l-90.91,52.487c-3.228,1.863-3.211,4.894.037,6.769L882,4077.082a12.96,12.96,0,0,0,11.725.021l90.91-52.487C987.861,4022.753,987.844,4019.722,984.6,4017.847Z" fill="#354354"/><path d="M986.275,4019.247a4.439,4.439,0,0,1-2.345,2.8l-90.91,52.487a12.957,12.957,0,0,1-11.725-.021l-91.48-52.816a5.861,5.861,0,0,1-1.679-1.4c-.289,1.409.5,2.882,2.382,3.967L882,4077.082a12.96,12.96,0,0,0,11.725.021l90.91-52.487C987.142,4023.167,987.681,4021.015,986.275,4019.247Z" fill="#4e454b"/><path d="M976.753,4016.219l-84.087-48.548a11.912,11.912,0,0,0-10.777-.019L798.327,4015.9c-2.967,1.713-2.952,4.5.034,6.223l84.086,48.547a11.911,11.911,0,0,0,10.778.02l83.562-48.245C979.754,4020.728,979.739,4017.942,976.753,4016.219Z" fill="#827b7a"/><path d="M898.239,4097.523l-.043,7.907a6.168,6.168,0,0,0,3.5,5.419L1005.57,4163.8a7.131,7.131,0,0,0,6.8-.2l92.044-54.062a6.178,6.178,0,0,0,3.142-5.382l-.438-5.046" fill="#100b0d"/><path d="M1005.6,4156.367l-103.874-52.946a6.08,6.08,0,0,1-.168-10.93l100.235-54.632a7.132,7.132,0,0,1,6.841.036l95.683,53.516a6.067,6.067,0,0,1,.125,10.7l-92.045,54.062A7.132,7.132,0,0,1,1005.6,4156.367Z" fill="#392d34"/><path d="M906.613,4082.74V4096.1a5.7,5.7,0,0,0,3.236,5.011l96.057,48.962a6.6,6.6,0,0,0,6.286-.182l85.118-49.994a5.712,5.712,0,0,0,2.906-4.976v-9.766" fill="#100b0d"/><path d="M1005.934,4139.722l-96.057-48.962a5.622,5.622,0,0,1-.155-10.107l92.692-50.521a6.591,6.591,0,0,1,6.325.034l88.483,49.488a5.61,5.61,0,0,1,.115,9.893l-85.117,49.993A6.593,6.593,0,0,1,1005.934,4139.722Z" fill="#392d34"/><path d="M1103.821,4099.65l-.167.09-11.509-5.908v-5.868l16.818,8.914-2.633,1.419c-.6.323-1.257.61-1.82.982-.876.579-.621.863-.455,1.913q1.123,7.106,1.62,14.281a33.859,33.859,0,0,1,4.983,3.129l2.914-1.305-4.636-4.623a1.882,1.882,0,0,1-.432-.555,1.735,1.735,0,0,1-.089-.731c.1-4.822.393-9.639.681-14.454" fill="#9e9a93"/><line x2="4.484" y2="4.167" transform="translate(1108.306 4111.827)" fill="#f2dd55"/><path d="M1109.121,4098.738a4.655,4.655,0,0,0-1.673-4.278l-8.565-8.459a2.045,2.045,0,0,0-1.17-.71,2.117,2.117,0,0,0-1.19.381l-4.2,2.369a5.639,5.639,0,0,0,2.239,2.315,68.526,68.526,0,0,1,7.184,5.883,9.435,9.435,0,0,1,2.563,2.957,17.772,17.772,0,0,1,.946,3.964,62.421,62.421,0,0,1,1.016,9.18,4.254,4.254,0,0,0,2.328,4.353l2.212,1.693a5.73,5.73,0,0,1,2.807-1.133,15.43,15.43,0,0,1-4.431-3.891,4.067,4.067,0,0,1-.775-1.4,4.52,4.52,0,0,1-.059-1.427Z" fill="#f0efec"/><path d="M1090.271,4108.276l-.167.09-11.51-5.908v-5.868l16.819,8.913-2.633,1.42c-.6.322-1.257.609-1.821.982-.875.578-.62.863-.454,1.912q1.122,7.107,1.62,14.282a33.725,33.725,0,0,1,4.982,3.129l2.915-1.305-4.636-4.623a1.886,1.886,0,0,1-.432-.555,1.755,1.755,0,0,1-.09-.732c.1-4.821.393-9.638.682-14.453" fill="#9e9a93"/><line x2="4.484" y2="4.167" transform="translate(1094.756 4120.453)" fill="#f2dd55"/><path d="M1095.571,4107.363a4.657,4.657,0,0,0-1.673-4.277l-8.566-8.459a2.039,2.039,0,0,0-1.17-.71,2.114,2.114,0,0,0-1.189.381l-4.2,2.368a5.65,5.65,0,0,0,2.239,2.316,68.275,68.275,0,0,1,7.185,5.883,9.423,9.423,0,0,1,2.563,2.956,17.852,17.852,0,0,1,.946,3.964,62.452,62.452,0,0,1,1.016,9.18,4.248,4.248,0,0,0,2.328,4.353l2.211,1.693a5.742,5.742,0,0,1,2.808-1.132,15.431,15.431,0,0,1-4.431-3.891,4.058,4.058,0,0,1-.775-1.4,4.5,4.5,0,0,1-.059-1.428Z" fill="#f0efec"/><path d="M1076.721,4116.9l-.168.091-11.509-5.909v-5.867l16.819,8.913-2.634,1.42c-.6.322-1.257.609-1.82.981-.875.579-.621.864-.455,1.913q1.124,7.106,1.62,14.282a33.665,33.665,0,0,1,4.983,3.128l2.914-1.305-4.635-4.623a1.859,1.859,0,0,1-.432-.554,1.741,1.741,0,0,1-.09-.732c.1-4.822.393-9.638.682-14.454" fill="#9e9a93"/><line x2="4.484" y2="4.167" transform="translate(1081.205 4129.079)" fill="#f2dd55"/><path d="M1082.021,4115.989a4.655,4.655,0,0,0-1.674-4.277l-8.565-8.459a2.038,2.038,0,0,0-1.17-.71,2.111,2.111,0,0,0-1.189.381l-4.2,2.368a5.655,5.655,0,0,0,2.239,2.316,68.376,68.376,0,0,1,7.184,5.882,9.432,9.432,0,0,1,2.564,2.957,17.85,17.85,0,0,1,.945,3.964,62.586,62.586,0,0,1,1.017,9.18,4.25,4.25,0,0,0,2.328,4.353l2.211,1.693a5.732,5.732,0,0,1,2.808-1.132,15.43,15.43,0,0,1-4.431-3.891,4.044,4.044,0,0,1-.775-1.4,4.5,4.5,0,0,1-.06-1.428Z" fill="#f0efec"/><path d="M1063.17,4125.527l-.167.09-11.509-5.908v-5.868l16.818,8.914-2.633,1.419c-.6.323-1.257.61-1.82.982-.876.579-.621.863-.455,1.913q1.123,7.106,1.62,14.281a33.9,33.9,0,0,1,4.983,3.129l2.914-1.305-4.635-4.623a1.87,1.87,0,0,1-.433-.555,1.734,1.734,0,0,1-.089-.731c.1-4.822.393-9.639.681-14.454" fill="#9e9a93"/><line x2="4.484" y2="4.167" transform="translate(1067.655 4137.705)" fill="#f2dd55"/><path d="M1068.47,4124.615a4.653,4.653,0,0,0-1.673-4.277l-8.565-8.46a2.04,2.04,0,0,0-1.17-.709,2.1,2.1,0,0,0-1.189.38l-4.2,2.369a5.641,5.641,0,0,0,2.239,2.315,68.5,68.5,0,0,1,7.184,5.883,9.44,9.44,0,0,1,2.564,2.957,17.819,17.819,0,0,1,.945,3.964,62.421,62.421,0,0,1,1.016,9.18,4.254,4.254,0,0,0,2.328,4.353l2.212,1.693a5.734,5.734,0,0,1,2.807-1.133,15.426,15.426,0,0,1-4.43-3.891,4.054,4.054,0,0,1-.776-1.4,4.518,4.518,0,0,1-.059-1.427Z" fill="#f0efec"/><path d="M1049.62,4134.153l-.167.09-11.509-5.908v-5.868l16.818,8.913-2.633,1.42c-.6.323-1.257.609-1.821.982-.875.578-.62.863-.454,1.913q1.124,7.106,1.62,14.281a33.765,33.765,0,0,1,4.982,3.129l2.915-1.305-4.636-4.623a1.886,1.886,0,0,1-.432-.555,1.75,1.75,0,0,1-.09-.731c.1-4.822.393-9.639.682-14.454" fill="#9e9a93"/><line x2="4.484" y2="4.167" transform="translate(1054.105 4146.33)" fill="#f2dd55"/><path d="M1054.92,4133.24a4.655,4.655,0,0,0-1.673-4.277l-8.565-8.459a2.046,2.046,0,0,0-1.17-.71,2.12,2.12,0,0,0-1.19.381l-4.2,2.368a5.638,5.638,0,0,0,2.238,2.316,68.287,68.287,0,0,1,7.185,5.883,9.43,9.43,0,0,1,2.563,2.956,17.787,17.787,0,0,1,.946,3.964,62.467,62.467,0,0,1,1.016,9.18,4.252,4.252,0,0,0,2.328,4.353l2.212,1.694a5.73,5.73,0,0,1,2.807-1.133,15.437,15.437,0,0,1-4.431-3.891,4.08,4.08,0,0,1-.775-1.4,4.523,4.523,0,0,1-.059-1.428Z" fill="#f0efec"/><path d="M1036.07,4142.779l-.167.09-11.51-5.909v-5.867l16.819,8.913-2.633,1.42c-.6.322-1.257.609-1.821.981-.875.579-.621.864-.455,1.913q1.124,7.106,1.621,14.282a33.828,33.828,0,0,1,4.982,3.128l2.915-1.305-4.636-4.623a1.847,1.847,0,0,1-.432-.554,1.741,1.741,0,0,1-.09-.732c.1-4.822.393-9.638.682-14.454" fill="#9e9a93"/><line x2="4.484" y2="4.167" transform="translate(1040.554 4154.956)" fill="#f2dd55"/><path d="M1041.37,4141.866a4.657,4.657,0,0,0-1.673-4.277l-8.566-8.459a2.038,2.038,0,0,0-1.17-.71,2.115,2.115,0,0,0-1.189.381l-4.2,2.368a5.652,5.652,0,0,0,2.239,2.316,68.276,68.276,0,0,1,7.184,5.882,9.428,9.428,0,0,1,2.564,2.957,17.9,17.9,0,0,1,.946,3.964,62.435,62.435,0,0,1,1.016,9.18,4.25,4.25,0,0,0,2.328,4.353l2.211,1.693a5.732,5.732,0,0,1,2.808-1.132,15.436,15.436,0,0,1-4.431-3.891,4.05,4.05,0,0,1-.775-1.4,4.5,4.5,0,0,1-.059-1.428Z" fill="#f0efec"/><path d="M1022.519,4151.4l-.167.09-11.509-5.908v-5.868l16.819,8.914-2.634,1.42c-.6.322-1.257.609-1.82.981-.876.579-.621.864-.455,1.913q1.124,7.106,1.62,14.282a33.711,33.711,0,0,1,4.983,3.128l2.914-1.305-4.635-4.623a1.878,1.878,0,0,1-.433-.555,1.75,1.75,0,0,1-.089-.731c.1-4.822.393-9.639.681-14.454" fill="#9e9a93"/><line x2="4.484" y2="4.167" transform="translate(1027.004 4163.582)" fill="#f2dd55"/><path d="M1027.819,4150.492a4.65,4.65,0,0,0-1.673-4.277l-8.565-8.46a2.04,2.04,0,0,0-1.17-.709,2.114,2.114,0,0,0-1.189.38l-4.2,2.369a5.632,5.632,0,0,0,2.239,2.315,68.5,68.5,0,0,1,7.184,5.883,9.427,9.427,0,0,1,2.564,2.957,17.833,17.833,0,0,1,.945,3.964,62.579,62.579,0,0,1,1.017,9.18,4.25,4.25,0,0,0,2.327,4.353l2.212,1.693a5.732,5.732,0,0,1,2.808-1.132,15.441,15.441,0,0,1-4.431-3.892,4.058,4.058,0,0,1-.776-1.4,4.514,4.514,0,0,1-.059-1.427Z" fill="#f0efec"/><path d="M906.352,4107.745l.175.077,10.949-6.774-.518-5.848-15.975,10.178,2.75,1.212c.624.275,1.306.51,1.9.838.923.509.694.813.621,1.871q-.492,7.169-.354,14.358a33.231,33.231,0,0,0-4.689,3.5l-3.02-1.076,4.212-4.964a1.856,1.856,0,0,0,.382-.586,1.739,1.739,0,0,0,.024-.736c-.529-4.8-1.242-9.575-1.954-14.352" fill="#9e9a93"/><line x1="4.101" y2="4.498" transform="translate(898.856 4120.226)" fill="#f2dd55"/><path d="M900.99,4107.243a4.611,4.611,0,0,1,1.29-4.391l7.789-9.09a2.014,2.014,0,0,1,1.1-.8,2.131,2.131,0,0,1,1.219.288l4.393,2.037a5.551,5.551,0,0,1-2.027,2.48,67.4,67.4,0,0,0-6.641,6.416,9.279,9.279,0,0,0-2.293,3.144,17.717,17.717,0,0,0-.593,4.023,62.36,62.36,0,0,0-.2,9.227,4.207,4.207,0,0,1-1.935,4.518l-2.055,1.857a5.788,5.788,0,0,0-2.9-.912,15.186,15.186,0,0,0,4.072-4.219,4,4,0,0,0,.649-1.459,4.511,4.511,0,0,0-.067-1.427Z" fill="#f0efec"/><path d="M920.618,4115.3l.174.077,10.949-6.774-.518-5.848-15.975,10.178,2.75,1.212c.624.276,1.307.511,1.9.838.924.51.7.813.622,1.872q-.492,7.167-.354,14.357a33.225,33.225,0,0,0-4.69,3.5l-3.019-1.076,4.211-4.964a1.844,1.844,0,0,0,.382-.587,1.731,1.731,0,0,0,.025-.735c-.53-4.8-1.242-9.576-1.955-14.353" fill="#9e9a93"/><line x1="4.101" y2="4.498" transform="translate(913.122 4127.779)" fill="#f2dd55"/><path d="M915.255,4114.8a4.613,4.613,0,0,1,1.29-4.392l7.79-9.089a2.012,2.012,0,0,1,1.1-.8,2.133,2.133,0,0,1,1.219.288l4.394,2.037a5.565,5.565,0,0,1-2.027,2.481,67.219,67.219,0,0,0-6.641,6.415,9.283,9.283,0,0,0-2.294,3.144,17.732,17.732,0,0,0-.592,4.023,62.23,62.23,0,0,0-.2,9.227,5.831,5.831,0,0,1-.07,2.1,5.743,5.743,0,0,1-1.866,2.417l-2.054,1.857a5.805,5.805,0,0,0-2.9-.912,15.2,15.2,0,0,0,4.072-4.219,4,4,0,0,0,.649-1.459,4.509,4.509,0,0,0-.067-1.427Z" fill="#f0efec"/><path d="M934.883,4122.852l.175.077,10.949-6.775-.518-5.847-15.975,10.177,2.75,1.213c.624.275,1.306.51,1.9.838.924.509.7.812.622,1.871q-.492,7.169-.354,14.358a33.231,33.231,0,0,0-4.689,3.5l-3.02-1.076,4.212-4.964a1.856,1.856,0,0,0,.382-.586,1.756,1.756,0,0,0,.024-.736c-.529-4.8-1.242-9.576-1.955-14.352" fill="#9e9a93"/><line x1="4.101" y2="4.498" transform="translate(927.387 4135.333)" fill="#f2dd55"/><path d="M929.521,4122.35a4.609,4.609,0,0,1,1.29-4.391l7.789-9.09a2.011,2.011,0,0,1,1.1-.8,2.128,2.128,0,0,1,1.219.288l4.393,2.037a5.551,5.551,0,0,1-2.027,2.48,67.387,67.387,0,0,0-6.641,6.415,9.289,9.289,0,0,0-2.293,3.144,17.726,17.726,0,0,0-.593,4.024,62.363,62.363,0,0,0-.2,9.227,4.2,4.2,0,0,1-1.935,4.517l-2.055,1.858a5.794,5.794,0,0,0-2.9-.913,15.173,15.173,0,0,0,4.072-4.219,4,4,0,0,0,.649-1.459,4.512,4.512,0,0,0-.067-1.427Z" fill="#f0efec"/><path d="M949.149,4130.4l.174.077,10.949-6.774-.518-5.848-15.975,10.178,2.75,1.212c.624.275,1.307.51,1.9.838.923.509.7.813.622,1.871q-.492,7.168-.354,14.358a33.256,33.256,0,0,0-4.69,3.5l-3.02-1.076,4.212-4.964a1.828,1.828,0,0,0,.382-.586,1.736,1.736,0,0,0,.025-.736c-.53-4.8-1.242-9.575-1.955-14.352" fill="#9e9a93"/><line x1="4.101" y2="4.498" transform="translate(941.652 4142.886)" fill="#f2dd55"/><path d="M943.786,4129.9a4.611,4.611,0,0,1,1.29-4.391l7.79-9.09a2.011,2.011,0,0,1,1.1-.8,2.13,2.13,0,0,1,1.219.288l4.393,2.037a5.555,5.555,0,0,1-2.026,2.48,67.177,67.177,0,0,0-6.641,6.416,9.264,9.264,0,0,0-2.294,3.144,17.716,17.716,0,0,0-.592,4.023,62.227,62.227,0,0,0-.2,9.227,5.83,5.83,0,0,1-.07,2.1,5.741,5.741,0,0,1-1.866,2.416l-2.055,1.858a5.784,5.784,0,0,0-2.9-.912,15.2,15.2,0,0,0,4.072-4.219,4.029,4.029,0,0,0,.649-1.459,4.515,4.515,0,0,0-.067-1.428Z" fill="#f0efec"/><path d="M963.414,4137.958l.175.077,10.948-6.774-.517-5.848-15.975,10.178,2.749,1.212c.625.275,1.307.511,1.9.838.924.51.7.813.622,1.872q-.492,7.167-.354,14.357a33.272,33.272,0,0,0-4.689,3.5l-3.02-1.076,4.212-4.964a1.872,1.872,0,0,0,.382-.587,1.756,1.756,0,0,0,.024-.736c-.529-4.8-1.242-9.575-1.955-14.352" fill="#9e9a93"/><line x1="4.101" y2="4.498" transform="translate(955.918 4150.439)" fill="#f2dd55"/><path d="M958.052,4137.457a4.611,4.611,0,0,1,1.29-4.392l7.789-9.089a2.01,2.01,0,0,1,1.1-.8,2.134,2.134,0,0,1,1.218.288l4.394,2.037a5.551,5.551,0,0,1-2.027,2.48,67.288,67.288,0,0,0-6.641,6.416,9.289,9.289,0,0,0-2.293,3.144,17.668,17.668,0,0,0-.593,4.023,62.363,62.363,0,0,0-.2,9.227,5.811,5.811,0,0,1-.07,2.1,5.748,5.748,0,0,1-1.865,2.417l-2.055,1.857a5.8,5.8,0,0,0-2.9-.912,15.2,15.2,0,0,0,4.072-4.219,4,4,0,0,0,.649-1.459,4.511,4.511,0,0,0-.067-1.427Z" fill="#f0efec"/><path d="M977.68,4145.512l.174.077,10.949-6.775-.518-5.847-15.975,10.177,2.75,1.213c.624.275,1.306.51,1.9.838.923.509.7.812.622,1.871q-.492,7.169-.354,14.358a33.256,33.256,0,0,0-4.69,3.5l-3.02-1.076,4.212-4.964a1.829,1.829,0,0,0,.382-.586,1.737,1.737,0,0,0,.025-.736c-.53-4.8-1.243-9.576-1.955-14.352" fill="#9e9a93"/><line x1="4.101" y2="4.498" transform="translate(970.183 4157.993)" fill="#f2dd55"/><path d="M972.317,4145.01a4.611,4.611,0,0,1,1.29-4.391l7.79-9.09a2.006,2.006,0,0,1,1.1-.8,2.129,2.129,0,0,1,1.219.287l4.393,2.038a5.556,5.556,0,0,1-2.027,2.48,67.265,67.265,0,0,0-6.64,6.415,9.279,9.279,0,0,0-2.294,3.144,17.726,17.726,0,0,0-.593,4.024,62.368,62.368,0,0,0-.2,9.227,5.826,5.826,0,0,1-.07,2.1,5.738,5.738,0,0,1-1.866,2.417l-2.055,1.858a5.786,5.786,0,0,0-2.9-.913,15.172,15.172,0,0,0,4.073-4.219,4.011,4.011,0,0,0,.649-1.459,4.509,4.509,0,0,0-.067-1.427Z" fill="#f0efec"/><path d="M991.945,4153.065l.175.077,10.948-6.774-.517-5.848L986.576,4150.7l2.749,1.212c.625.275,1.307.51,1.9.838.924.509.7.813.622,1.871q-.492,7.168-.354,14.358a33.209,33.209,0,0,0-4.689,3.5l-3.02-1.076,4.212-4.964a1.836,1.836,0,0,0,.381-.586,1.736,1.736,0,0,0,.025-.736c-.529-4.8-1.242-9.575-1.955-14.352" fill="#9e9a93"/><line x1="4.101" y2="4.498" transform="translate(984.449 4165.546)" fill="#f2dd55"/><path d="M986.583,4152.563a4.609,4.609,0,0,1,1.29-4.391l7.789-9.09a2.011,2.011,0,0,1,1.1-.8,2.117,2.117,0,0,1,1.218.288l4.394,2.037a5.551,5.551,0,0,1-2.027,2.48,67.17,67.17,0,0,0-6.641,6.416,9.282,9.282,0,0,0-2.294,3.144,17.721,17.721,0,0,0-.592,4.023,62.38,62.38,0,0,0-.2,9.227,5.811,5.811,0,0,1-.07,2.1,5.742,5.742,0,0,1-1.865,2.416l-2.055,1.858a5.807,5.807,0,0,0-2.9-.913,15.167,15.167,0,0,0,4.072-4.219,4,4,0,0,0,.649-1.458,4.517,4.517,0,0,0-.067-1.428Z" fill="#f0efec"/><path d="M1229.014,4185.539l-91.481-52.816a12.956,12.956,0,0,0-11.725-.021l-90.909,52.486c-3.228,1.864-3.211,4.9.036,6.77l91.481,52.816a12.956,12.956,0,0,0,11.725.022l90.91-52.487C1232.278,4190.445,1232.262,4187.415,1229.014,4185.539Z" fill="#0b1221"/><path d="M1032.489,4188.452v-9.04l198.972.826v8.7l-179.116,5.592Z" fill="#0b1221"/><path d="M1229.014,4176.632l-91.481-52.817a12.961,12.961,0,0,0-11.725-.021l-90.909,52.487c-3.228,1.863-3.211,4.894.036,6.769l91.481,52.817a12.961,12.961,0,0,0,11.725.021l90.91-52.487C1232.278,4181.538,1232.262,4178.507,1229.014,4176.632Z" fill="#354354"/><path d="M1230.693,4178.032a4.439,4.439,0,0,1-2.345,2.8l-90.91,52.487a12.959,12.959,0,0,1-11.725-.021l-91.481-52.816a5.857,5.857,0,0,1-1.678-1.4c-.289,1.409.5,2.882,2.381,3.967l91.481,52.817a12.961,12.961,0,0,0,11.725.021l90.91-52.487C1231.56,4181.952,1232.1,4179.8,1230.693,4178.032Z" fill="#4e454b"/><path d="M1221.171,4175l-84.087-48.548a11.909,11.909,0,0,0-10.777-.019l-83.562,48.244c-2.967,1.713-2.952,4.5.033,6.223l84.087,48.547a11.912,11.912,0,0,0,10.778.02l83.562-48.245C1224.171,4179.513,1224.156,4176.727,1221.171,4175Z" fill="#827b7a"/><path d="M1218.2,4026.883l-91.48-52.816a12.957,12.957,0,0,0-11.725-.022l-90.91,52.487c-3.228,1.863-3.211,4.894.037,6.769l91.48,52.817a12.96,12.96,0,0,0,11.725.021l90.91-52.487C1221.461,4031.789,1221.444,4028.758,1218.2,4026.883Z" fill="#0b1221"/><path d="M1021.671,4029.8v-9.04l198.972.826v8.7l-179.116,5.592Z" fill="#0b1221"/><path d="M1218.2,4017.975l-91.48-52.816a12.957,12.957,0,0,0-11.725-.021l-90.91,52.486c-3.228,1.864-3.211,4.9.037,6.77l91.48,52.816a12.957,12.957,0,0,0,11.725.021l90.91-52.486C1221.461,4022.881,1221.444,4019.85,1218.2,4017.975Z" fill="#354354"/><path d="M1219.875,4019.375a4.442,4.442,0,0,1-2.345,2.8l-90.91,52.486a12.954,12.954,0,0,1-11.725-.021l-91.48-52.816a5.845,5.845,0,0,1-1.679-1.4c-.289,1.41.5,2.882,2.382,3.968l91.48,52.816a12.957,12.957,0,0,0,11.725.021l90.91-52.486C1220.742,4023.3,1221.281,4021.143,1219.875,4019.375Z" fill="#4e454b"/><path d="M1210.353,4016.347l-84.087-48.547a11.908,11.908,0,0,0-10.777-.02l-83.562,48.245c-2.967,1.713-2.952,4.5.034,6.222l84.086,48.548a11.913,11.913,0,0,0,10.778.019l83.562-48.245C1213.354,4020.857,1213.339,4018.071,1210.353,4016.347Z" fill="#827b7a"/><path d="M1101.882,3961.507l-91.48-52.817a12.96,12.96,0,0,0-11.725-.021l-90.91,52.487c-3.228,1.863-3.211,4.894.037,6.769l91.48,52.817a12.96,12.96,0,0,0,11.725.021l90.91-52.487C1105.147,3966.413,1105.13,3963.382,1101.882,3961.507Z" fill="#0b1221"/><path d="M905.357,3964.42v-9.04l198.972.825v8.7l-179.116,5.592Z" fill="#0b1221"/><path d="M1101.882,3952.6l-91.48-52.816a12.957,12.957,0,0,0-11.725-.022l-90.91,52.487c-3.228,1.864-3.211,4.894.037,6.77l91.48,52.816a12.957,12.957,0,0,0,11.725.021l90.91-52.487C1105.147,3957.5,1105.13,3954.474,1101.882,3952.6Z" fill="#354354"/><path d="M1103.561,3954a4.443,4.443,0,0,1-2.345,2.8l-90.91,52.486a12.958,12.958,0,0,1-11.725-.021L907.1,3956.45a5.844,5.844,0,0,1-1.679-1.4c-.289,1.409.5,2.882,2.382,3.968l91.48,52.816a12.957,12.957,0,0,0,11.725.021l90.91-52.487C1104.428,3957.92,1104.967,3955.767,1103.561,3954Z" fill="#4e454b"/><path d="M1094.039,3950.971l-84.087-48.548a11.911,11.911,0,0,0-10.777-.019l-83.562,48.245c-2.967,1.712-2.952,4.5.034,6.222l84.086,48.547a11.911,11.911,0,0,0,10.778.02l83.562-48.245C1097.04,3955.481,1097.025,3952.7,1094.039,3950.971Z" fill="#827b7a"/><path d="M1106.107,4252.757l-91.481-52.816a12.958,12.958,0,0,0-11.725-.021l-90.909,52.486c-3.228,1.864-3.211,4.894.036,6.77l91.481,52.816a12.958,12.958,0,0,0,11.725.021l90.91-52.487C1109.371,4257.663,1109.355,4254.632,1106.107,4252.757Z" fill="#0b1221"/><path d="M909.582,4255.67v-9.04l198.972.826v8.7l-179.116,5.592Z" fill="#0b1221"/><path d="M1106.107,4243.849l-91.481-52.816a12.956,12.956,0,0,0-11.725-.021L911.992,4243.5c-3.228,1.864-3.211,4.9.036,6.77l91.481,52.816a12.956,12.956,0,0,0,11.725.021l90.91-52.486C1109.371,4248.755,1109.355,4245.724,1106.107,4243.849Z" fill="#354354"/><path d="M1107.786,4245.249a4.441,4.441,0,0,1-2.345,2.8l-90.91,52.487a12.961,12.961,0,0,1-11.725-.021L911.325,4247.7a5.847,5.847,0,0,1-1.678-1.4c-.289,1.41.5,2.882,2.381,3.968l91.481,52.816a12.956,12.956,0,0,0,11.725.021l90.91-52.486C1108.653,4249.17,1109.192,4247.018,1107.786,4245.249Z" fill="#4e454b"/><path d="M1098.264,4242.221l-84.087-48.547a11.91,11.91,0,0,0-10.777-.02L919.838,4241.9c-2.967,1.713-2.952,4.5.033,6.222l84.087,48.548a11.914,11.914,0,0,0,10.778.019l83.562-48.244C1101.264,4246.731,1101.249,4243.945,1098.264,4242.221Z" fill="#827b7a"/><path d="M978.486,4190.865l-91.48-52.816a12.958,12.958,0,0,0-11.725-.022l-90.91,52.487c-3.227,1.863-3.211,4.894.037,6.769l91.481,52.817a12.958,12.958,0,0,0,11.725.021l90.909-52.487C981.751,4195.771,981.734,4192.74,978.486,4190.865Z" fill="#0b1221"/><path d="M781.961,4193.778v-9.04l198.972.826v8.7l-179.116,5.592Z" fill="#0b1221"/><path d="M978.486,4181.957l-91.48-52.816a12.956,12.956,0,0,0-11.725-.021l-90.91,52.486c-3.227,1.864-3.211,4.9.037,6.77l91.481,52.816a12.956,12.956,0,0,0,11.725.021l90.909-52.486C981.751,4186.863,981.734,4183.832,978.486,4181.957Z" fill="#354354"/><path d="M980.165,4183.357a4.44,4.44,0,0,1-2.345,2.8l-90.909,52.486a12.955,12.955,0,0,1-11.725-.021l-91.481-52.816a5.858,5.858,0,0,1-1.679-1.4c-.288,1.41.5,2.882,2.382,3.968l91.481,52.816a12.956,12.956,0,0,0,11.725.021l90.909-52.486C981.033,4187.278,981.572,4185.125,980.165,4183.357Z" fill="#4e454b"/><path d="M970.644,4180.329l-84.087-48.547a11.909,11.909,0,0,0-10.778-.02l-83.562,48.245c-2.967,1.713-2.951,4.5.034,6.222l84.087,48.548a11.912,11.912,0,0,0,10.777.019l83.562-48.244C973.644,4184.839,973.629,4182.053,970.644,4180.329Z" fill="#827b7a"/></g></g></svg>