<svg width="185" height="259" viewBox="0 0 185 259" fill="none" xmlns="http://www.w3.org/2000/svg">
<path d="M116.242 41.038C116.116 40.642 115.9 40.156 115.666 39.724H119.23C119.104 40.156 118.924 40.624 118.744 41.038H116.242ZM112.264 38.176V39.724H114.316L113.74 39.832C113.938 40.192 114.118 40.642 114.244 41.038H111.544V42.694H123.442V41.038H120.742C120.976 40.642 121.228 40.192 121.48 39.724H122.92V38.176H118.51V36.862H116.368V38.176H112.264ZM120.094 45.412H114.91V44.674H120.094V45.412ZM120.094 47.302H114.91V46.546H120.094V47.302ZM122.218 43.396H112.876V48.58H116.278L115.9 48.868C116.674 49.39 117.592 50.218 117.988 50.794L119.374 49.696C119.104 49.354 118.672 48.958 118.204 48.58H122.218V43.396ZM110.5 36.79C109.546 39.292 107.908 41.776 106.234 43.324C106.612 43.864 107.17 45.016 107.35 45.538C107.782 45.106 108.214 44.62 108.628 44.098V53.548H110.644V41.128C111.346 39.94 111.976 38.662 112.462 37.438L110.5 36.79ZM112.354 53.17C113.2 52.324 113.776 51.028 114.172 49.912L112.516 49.246C112.192 50.254 111.544 51.37 110.788 52.072L112.354 53.17ZM116.998 51.874C116.44 51.874 116.368 51.82 116.368 51.388V49.336H114.424V51.406C114.424 53.008 114.838 53.53 116.71 53.53H118.798C120.13 53.53 120.652 53.08 120.85 51.352C120.328 51.226 119.518 50.974 119.176 50.686C119.104 51.73 119.014 51.874 118.582 51.874H116.998ZM119.77 49.93C120.652 50.902 121.606 52.234 121.966 53.116L123.676 52.162C123.262 51.244 122.272 49.966 121.372 49.066L119.77 49.93ZM141.208 49.354V47.482H133.684C133.756 47.122 133.81 46.762 133.846 46.384H141.01V44.476H134.062V43.558H139.57V41.758H134.062V40.84H140.29V38.95H136.96C137.32 38.482 137.752 37.906 138.184 37.276L135.88 36.7C135.61 37.33 135.088 38.23 134.656 38.806L135.16 38.95H130.696L131.11 38.77C130.876 38.158 130.336 37.312 129.778 36.718L127.87 37.456C128.23 37.888 128.59 38.446 128.824 38.95H125.71V40.84H131.866V41.758H126.538V43.558H131.866V44.476H124.99V46.384H131.578C131.524 46.78 131.47 47.14 131.398 47.482H124.882V49.354H130.57C129.67 50.452 127.978 51.172 124.558 51.622C124.954 52.09 125.458 52.972 125.62 53.548C130.066 52.828 132.064 51.55 133.018 49.624C134.422 51.982 136.6 53.152 140.308 53.584C140.578 52.99 141.118 52.09 141.586 51.604C138.544 51.406 136.492 50.722 135.232 49.354H141.208ZM157.39 38.014H144.61V40.084H157.39V38.014ZM154.996 51.262C154.402 51.262 154.294 51.154 154.294 50.47V44.962H159.046V42.874H142.99V44.962H147.058C146.842 47.95 146.338 50.38 142.594 51.784C143.08 52.198 143.674 52.99 143.926 53.53C148.228 51.784 149.056 48.706 149.38 44.962H152.08V50.47C152.08 52.576 152.602 53.26 154.636 53.26H156.796C158.632 53.26 159.172 52.324 159.388 49.102C158.794 48.958 157.876 48.58 157.408 48.202C157.318 50.794 157.21 51.262 156.616 51.262H154.996Z" fill="#F3C13B"/>
<path d="M116.242 136.038C116.116 135.642 115.9 135.156 115.666 134.724H119.23C119.104 135.156 118.924 135.624 118.744 136.038H116.242ZM112.264 133.176V134.724H114.316L113.74 134.832C113.938 135.192 114.118 135.642 114.244 136.038H111.544V137.694H123.442V136.038H120.742C120.976 135.642 121.228 135.192 121.48 134.724H122.92V133.176H118.51V131.862H116.368V133.176H112.264ZM120.094 140.412H114.91V139.674H120.094V140.412ZM120.094 142.302H114.91V141.546H120.094V142.302ZM122.218 138.396H112.876V143.58H116.278L115.9 143.868C116.674 144.39 117.592 145.218 117.988 145.794L119.374 144.696C119.104 144.354 118.672 143.958 118.204 143.58H122.218V138.396ZM110.5 131.79C109.546 134.292 107.908 136.776 106.234 138.324C106.612 138.864 107.17 140.016 107.35 140.538C107.782 140.106 108.214 139.62 108.628 139.098V148.548H110.644V136.128C111.346 134.94 111.976 133.662 112.462 132.438L110.5 131.79ZM112.354 148.17C113.2 147.324 113.776 146.028 114.172 144.912L112.516 144.246C112.192 145.254 111.544 146.37 110.788 147.072L112.354 148.17ZM116.998 146.874C116.44 146.874 116.368 146.82 116.368 146.388V144.336H114.424V146.406C114.424 148.008 114.838 148.53 116.71 148.53H118.798C120.13 148.53 120.652 148.08 120.85 146.352C120.328 146.226 119.518 145.974 119.176 145.686C119.104 146.73 119.014 146.874 118.582 146.874H116.998ZM119.77 144.93C120.652 145.902 121.606 147.234 121.966 148.116L123.676 147.162C123.262 146.244 122.272 144.966 121.372 144.066L119.77 144.93ZM141.208 144.354V142.482H133.684C133.756 142.122 133.81 141.762 133.846 141.384H141.01V139.476H134.062V138.558H139.57V136.758H134.062V135.84H140.29V133.95H136.96C137.32 133.482 137.752 132.906 138.184 132.276L135.88 131.7C135.61 132.33 135.088 133.23 134.656 133.806L135.16 133.95H130.696L131.11 133.77C130.876 133.158 130.336 132.312 129.778 131.718L127.87 132.456C128.23 132.888 128.59 133.446 128.824 133.95H125.71V135.84H131.866V136.758H126.538V138.558H131.866V139.476H124.99V141.384H131.578C131.524 141.78 131.47 142.14 131.398 142.482H124.882V144.354H130.57C129.67 145.452 127.978 146.172 124.558 146.622C124.954 147.09 125.458 147.972 125.62 148.548C130.066 147.828 132.064 146.55 133.018 144.624C134.422 146.982 136.6 148.152 140.308 148.584C140.578 147.99 141.118 147.09 141.586 146.604C138.544 146.406 136.492 145.722 135.232 144.354H141.208ZM157.39 133.014H144.61V135.084H157.39V133.014ZM154.996 146.262C154.402 146.262 154.294 146.154 154.294 145.47V139.962H159.046V137.874H142.99V139.962H147.058C146.842 142.95 146.338 145.38 142.594 146.784C143.08 147.198 143.674 147.99 143.926 148.53C148.228 146.784 149.056 143.706 149.38 139.962H152.08V145.47C152.08 147.576 152.602 148.26 154.636 148.26H156.796C158.632 148.26 159.172 147.324 159.388 144.102C158.794 143.958 157.876 143.58 157.408 143.202C157.318 145.794 157.21 146.262 156.616 146.262H154.996Z" fill="#F3C13B"/>
<path d="M1.25 53C1.30208 50.9688 1.73828 49.1133 2.55859 47.4336C3.35286 45.5456 5.22786 43.5469 8.18359 41.4375C10.7487 39.6016 12.4089 38.2865 13.1641 37.4922C14.3229 36.2552 14.9023 34.901 14.9023 33.4297C14.9023 32.2318 14.5703 31.2357 13.9062 30.4414C13.2422 29.6471 12.2917 29.25 11.0547 29.25C9.36198 29.25 8.20964 29.8815 7.59766 31.1445C7.24609 31.8737 7.03776 33.0326 6.97266 34.6211H1.5625C1.65365 32.2122 2.08984 30.2656 2.87109 28.7812C4.35547 25.9557 6.99219 24.543 10.7812 24.543C13.776 24.543 16.1589 25.3763 17.9297 27.043C19.7005 28.6966 20.5859 30.8906 20.5859 33.625C20.5859 35.7214 19.9609 37.5833 18.7109 39.2109C17.8906 40.2917 16.543 41.4961 14.668 42.8242L12.4414 44.4062C11.0482 45.3958 10.0911 46.112 9.57031 46.5547C9.0625 46.9974 8.63281 47.5117 8.28125 48.0977H20.6445V53H1.25ZM29.1016 44.0352C29.1016 45.5586 29.5117 46.8021 30.332 47.7656C31.1523 48.7292 32.194 49.2109 33.457 49.2109C34.694 49.2109 35.6641 48.7487 36.3672 47.8242C37.0833 46.8867 37.4414 45.6758 37.4414 44.1914C37.4414 42.5378 37.0378 41.2747 36.2305 40.4023C35.4232 39.5169 34.4336 39.0742 33.2617 39.0742C32.3112 39.0742 31.4714 39.3607 30.7422 39.9336C29.6484 40.7799 29.1016 42.1471 29.1016 44.0352ZM36.9336 31.8086C36.9336 31.3529 36.7578 30.8516 36.4062 30.3047C35.8073 29.4193 34.9023 28.9766 33.6914 28.9766C31.8815 28.9766 30.5924 29.9922 29.8242 32.0234C29.4076 33.1432 29.1211 34.7969 28.9648 36.9844C29.6549 36.1641 30.4557 35.5651 31.3672 35.1875C32.2786 34.8099 33.3203 34.6211 34.4922 34.6211C37.0052 34.6211 39.0625 35.474 40.6641 37.1797C42.2786 38.8854 43.0859 41.0664 43.0859 43.7227C43.0859 46.3659 42.2982 48.6966 40.7227 50.7148C39.1471 52.7331 36.6992 53.7422 33.3789 53.7422C29.8112 53.7422 27.181 52.2513 25.4883 49.2695C24.1732 46.9388 23.5156 43.931 23.5156 40.2461C23.5156 38.0846 23.6068 36.3268 23.7891 34.9727C24.1146 32.5638 24.7461 30.5586 25.6836 28.957C26.4909 27.5898 27.5456 26.4896 28.8477 25.6562C30.1628 24.8229 31.7318 24.4062 33.5547 24.4062C36.1849 24.4062 38.2812 25.0833 39.8438 26.4375C41.4062 27.7786 42.2852 29.569 42.4805 31.8086H36.9336ZM47.0312 47.1797H52.9492V53H47.0312V47.1797ZM76.7578 29.4062C75.9245 30.2266 74.7656 31.6914 73.2812 33.8008C71.7969 35.8971 70.5534 38.0651 69.5508 40.3047C68.7565 42.0625 68.0404 44.2109 67.4023 46.75C66.7643 49.2891 66.4453 51.3724 66.4453 53H60.6641C60.8333 47.9219 62.5 42.6419 65.6641 37.1602C67.7083 33.7617 69.4206 31.3919 70.8008 30.0508H56.6797L56.7578 25.0508H76.7578V29.4062ZM80.7031 33.4688V29.6797C82.4609 29.6016 83.6914 29.4844 84.3945 29.3281C85.5143 29.0807 86.4258 28.5859 87.1289 27.8438C87.6107 27.3359 87.9753 26.6589 88.2227 25.8125C88.3659 25.3047 88.4375 24.9271 88.4375 24.6797H93.0664V53H87.3633V33.4688H80.7031Z" fill="#F3C13B"/>
<path d="M70 98.8405L78.6603 83.8405L61.3397 83.8405L70 98.8405ZM68.5 69L68.5 85.3405L71.5 85.3405L71.5 69L68.5 69Z" fill="#F3C13B"/>
<path d="M70 195.429L78.6603 180.429L61.3397 180.429L70 195.429ZM68.5 165.589L68.5 181.929L71.5 181.929L71.5 165.589L68.5 165.589Z" fill="#F3C13B"/>
<path d="M6.60156 140.44C6.82292 141.651 7.24609 142.589 7.87109 143.253C8.49609 143.904 9.40755 144.229 10.6055 144.229C11.9857 144.229 13.0339 143.748 13.75 142.784C14.4792 141.808 14.8438 140.584 14.8438 139.112C14.8438 137.667 14.5052 136.45 13.8281 135.46C13.151 134.457 12.0964 133.956 10.6641 133.956C9.98698 133.956 9.40104 134.041 8.90625 134.21C8.03385 134.522 7.3763 135.102 6.93359 135.948L1.93359 135.714L3.92578 120.069H19.5312V124.796H7.94922L6.93359 130.987C7.79297 130.427 8.46354 130.056 8.94531 129.874C9.7526 129.575 10.7357 129.425 11.8945 129.425C14.2383 129.425 16.2826 130.213 18.0273 131.788C19.7721 133.364 20.6445 135.655 20.6445 138.663C20.6445 141.28 19.8047 143.618 18.125 145.675C16.4453 147.732 13.9323 148.761 10.5859 148.761C7.89062 148.761 5.67708 148.038 3.94531 146.593C2.21354 145.147 1.25 143.097 1.05469 140.44H6.60156ZM23.457 129.659C23.457 126.625 24.3294 124.171 26.0742 122.296C27.832 120.408 30.1107 119.464 32.9102 119.464C37.2201 119.464 40.1758 121.371 41.7773 125.187C42.6888 127.348 43.1445 130.193 43.1445 133.722C43.1445 137.146 42.7083 140.004 41.8359 142.296C40.1693 146.658 37.1094 148.839 32.6562 148.839C30.5339 148.839 28.6263 148.214 26.9336 146.964C25.2409 145.701 24.2708 143.865 24.0234 141.456H29.5703C29.7005 142.289 30.0521 142.966 30.625 143.487C31.1979 144.008 31.9596 144.269 32.9102 144.269C34.7461 144.269 36.0352 143.253 36.7773 141.222C37.181 140.102 37.4349 138.468 37.5391 136.319C37.0312 136.957 36.4909 137.446 35.918 137.784C34.8763 138.409 33.5938 138.722 32.0703 138.722C29.8177 138.722 27.819 137.947 26.0742 136.397C24.3294 134.835 23.457 132.589 23.457 129.659ZM33.2812 134.19C34.0495 134.19 34.7721 133.969 35.4492 133.526C36.7122 132.719 37.3438 131.319 37.3438 129.327C37.3438 127.726 36.9661 126.456 36.2109 125.519C35.4688 124.581 34.4466 124.112 33.1445 124.112C32.194 124.112 31.3802 124.379 30.7031 124.913C29.6354 125.746 29.1016 127.159 29.1016 129.151C29.1016 130.831 29.4401 132.094 30.1172 132.94C30.8073 133.774 31.862 134.19 33.2812 134.19ZM47.0312 142.198H52.9492V148.019H47.0312V142.198ZM62.1875 139.327C62.1875 140.46 62.3698 141.397 62.7344 142.14C63.4115 143.507 64.6419 144.19 66.4258 144.19C67.5195 144.19 68.4701 143.819 69.2773 143.077C70.0977 142.322 70.5078 141.241 70.5078 139.835C70.5078 137.973 69.7526 136.729 68.2422 136.104C67.3828 135.753 66.0286 135.577 64.1797 135.577V131.593C65.9896 131.567 67.2526 131.391 67.9688 131.065C69.2057 130.519 69.8242 129.412 69.8242 127.745C69.8242 126.664 69.5052 125.785 68.8672 125.108C68.2422 124.431 67.3568 124.093 66.2109 124.093C64.8958 124.093 63.9258 124.509 63.3008 125.343C62.6888 126.176 62.3958 127.289 62.4219 128.683H57.2266C57.2786 127.276 57.5195 125.942 57.9492 124.679C58.4049 123.572 59.1211 122.55 60.0977 121.612C60.8268 120.948 61.6927 120.44 62.6953 120.089C63.6979 119.737 64.9284 119.562 66.3867 119.562C69.0951 119.562 71.276 120.265 72.9297 121.671C74.5964 123.064 75.4297 124.939 75.4297 127.296C75.4297 128.963 74.9349 130.369 73.9453 131.515C73.3203 132.231 72.6693 132.719 71.9922 132.979C72.5 132.979 73.2292 133.416 74.1797 134.288C75.599 135.603 76.3086 137.4 76.3086 139.679C76.3086 142.075 75.4753 144.184 73.8086 146.007C72.1549 147.817 69.7005 148.722 66.4453 148.722C62.4349 148.722 59.6484 147.413 58.0859 144.796C57.2656 143.403 56.8099 141.58 56.7188 139.327H62.1875ZM84.7656 139.054C84.7656 140.577 85.1758 141.821 85.9961 142.784C86.8164 143.748 87.8581 144.229 89.1211 144.229C90.3581 144.229 91.3281 143.767 92.0312 142.843C92.7474 141.905 93.1055 140.694 93.1055 139.21C93.1055 137.556 92.7018 136.293 91.8945 135.421C91.0872 134.535 90.0977 134.093 88.9258 134.093C87.9753 134.093 87.1354 134.379 86.4062 134.952C85.3125 135.799 84.7656 137.166 84.7656 139.054ZM92.5977 126.827C92.5977 126.371 92.4219 125.87 92.0703 125.323C91.4714 124.438 90.5664 123.995 89.3555 123.995C87.5456 123.995 86.2565 125.011 85.4883 127.042C85.0716 128.162 84.7852 129.815 84.6289 132.003C85.319 131.183 86.1198 130.584 87.0312 130.206C87.9427 129.828 88.9844 129.64 90.1562 129.64C92.6693 129.64 94.7266 130.493 96.3281 132.198C97.9427 133.904 98.75 136.085 98.75 138.741C98.75 141.384 97.9622 143.715 96.3867 145.733C94.8112 147.752 92.3633 148.761 89.043 148.761C85.4753 148.761 82.8451 147.27 81.1523 144.288C79.8372 141.957 79.1797 138.95 79.1797 135.265C79.1797 133.103 79.2708 131.345 79.4531 129.991C79.7786 127.582 80.4102 125.577 81.3477 123.976C82.1549 122.608 83.2096 121.508 84.5117 120.675C85.8268 119.841 87.3958 119.425 89.2188 119.425C91.849 119.425 93.9453 120.102 95.5078 121.456C97.0703 122.797 97.9492 124.588 98.1445 126.827H92.5977Z" fill="#F3C13B"/>
<path d="M8.39844 207H0.945312V205.961L4.88281 201.586C5.46615 200.924 5.86719 200.388 6.08594 199.977C6.3099 199.56 6.42188 199.13 6.42188 198.688C6.42188 198.094 6.24219 197.607 5.88281 197.227C5.52344 196.846 5.04427 196.656 4.44531 196.656C3.72656 196.656 3.16667 196.862 2.76562 197.273C2.36979 197.68 2.17188 198.247 2.17188 198.977H0.726562C0.726562 197.93 1.0625 197.083 1.73438 196.438C2.41146 195.792 3.3151 195.469 4.44531 195.469C5.5026 195.469 6.33854 195.747 6.95312 196.305C7.56771 196.857 7.875 197.594 7.875 198.516C7.875 199.635 7.16146 200.969 5.73438 202.516L2.6875 205.82H8.39844V207ZM17.0625 202.148C17.0625 203.841 16.7734 205.099 16.1953 205.922C15.6172 206.745 14.7135 207.156 13.4844 207.156C12.2708 207.156 11.3724 206.755 10.7891 205.953C10.2057 205.146 9.90365 203.943 9.88281 202.344V200.414C9.88281 198.742 10.1719 197.5 10.75 196.688C11.3281 195.875 12.2344 195.469 13.4688 195.469C14.6927 195.469 15.5938 195.862 16.1719 196.648C16.75 197.43 17.0469 198.638 17.0625 200.273V202.148ZM15.6172 200.172C15.6172 198.948 15.4453 198.057 15.1016 197.5C14.7578 196.938 14.2135 196.656 13.4688 196.656C12.7292 196.656 12.1901 196.935 11.8516 197.492C11.513 198.049 11.3385 198.906 11.3281 200.062V202.375C11.3281 203.604 11.5052 204.513 11.8594 205.102C12.2188 205.685 12.7604 205.977 13.4844 205.977C14.1979 205.977 14.7266 205.701 15.0703 205.148C15.4193 204.596 15.6016 203.727 15.6172 202.539V200.172ZM23.6641 207H22.2109V197.367L19.2969 198.438V197.125L23.4375 195.57H23.6641V207ZM32.6484 207H31.1953V197.367L28.2812 198.438V197.125L32.4219 195.57H32.6484V207Z" fill="#F3C13B"/>
<path d="M8.39844 15H0.945312V13.9609L4.88281 9.58594C5.46615 8.92448 5.86719 8.38802 6.08594 7.97656C6.3099 7.5599 6.42188 7.13021 6.42188 6.6875C6.42188 6.09375 6.24219 5.60677 5.88281 5.22656C5.52344 4.84635 5.04427 4.65625 4.44531 4.65625C3.72656 4.65625 3.16667 4.86198 2.76562 5.27344C2.36979 5.67969 2.17188 6.2474 2.17188 6.97656H0.726562C0.726562 5.92969 1.0625 5.08333 1.73438 4.4375C2.41146 3.79167 3.3151 3.46875 4.44531 3.46875C5.5026 3.46875 6.33854 3.7474 6.95312 4.30469C7.56771 4.85677 7.875 5.59375 7.875 6.51562C7.875 7.63542 7.16146 8.96875 5.73438 10.5156L2.6875 13.8203H8.39844V15ZM17.0625 10.1484C17.0625 11.8411 16.7734 13.099 16.1953 13.9219C15.6172 14.7448 14.7135 15.1562 13.4844 15.1562C12.2708 15.1562 11.3724 14.7552 10.7891 13.9531C10.2057 13.1458 9.90365 11.9427 9.88281 10.3438V8.41406C9.88281 6.74219 10.1719 5.5 10.75 4.6875C11.3281 3.875 12.2344 3.46875 13.4688 3.46875C14.6927 3.46875 15.5938 3.86198 16.1719 4.64844C16.75 5.42969 17.0469 6.63802 17.0625 8.27344V10.1484ZM15.6172 8.17188C15.6172 6.94792 15.4453 6.05729 15.1016 5.5C14.7578 4.9375 14.2135 4.65625 13.4688 4.65625C12.7292 4.65625 12.1901 4.9349 11.8516 5.49219C11.513 6.04948 11.3385 6.90625 11.3281 8.0625V10.375C11.3281 11.6042 11.5052 12.513 11.8594 13.1016C12.2188 13.6849 12.7604 13.9766 13.4844 13.9766C14.1979 13.9766 14.7266 13.7005 15.0703 13.1484C15.4193 12.5964 15.6016 11.7266 15.6172 10.5391V8.17188ZM26.0469 10.1484C26.0469 11.8411 25.7578 13.099 25.1797 13.9219C24.6016 14.7448 23.6979 15.1562 22.4688 15.1562C21.2552 15.1562 20.3568 14.7552 19.7734 13.9531C19.1901 13.1458 18.888 11.9427 18.8672 10.3438V8.41406C18.8672 6.74219 19.1562 5.5 19.7344 4.6875C20.3125 3.875 21.2188 3.46875 22.4531 3.46875C23.6771 3.46875 24.5781 3.86198 25.1562 4.64844C25.7344 5.42969 26.0312 6.63802 26.0469 8.27344V10.1484ZM24.6016 8.17188C24.6016 6.94792 24.4297 6.05729 24.0859 5.5C23.7422 4.9375 23.1979 4.65625 22.4531 4.65625C21.7135 4.65625 21.1745 4.9349 20.8359 5.49219C20.4974 6.04948 20.3229 6.90625 20.3125 8.0625V10.375C20.3125 11.6042 20.4896 12.513 20.8438 13.1016C21.2031 13.6849 21.7448 13.9766 22.4688 13.9766C23.1823 13.9766 23.7109 13.7005 24.0547 13.1484C24.4036 12.5964 24.5859 11.7266 24.6016 10.5391V8.17188ZM33.4375 10C33.1354 10.3594 32.7734 10.6484 32.3516 10.8672C31.9349 11.0859 31.4766 11.1953 30.9766 11.1953C30.3203 11.1953 29.7474 11.0339 29.2578 10.7109C28.7734 10.388 28.3984 9.9349 28.1328 9.35156C27.8672 8.76302 27.7344 8.11458 27.7344 7.40625C27.7344 6.64583 27.8776 5.96094 28.1641 5.35156C28.4557 4.74219 28.8672 4.27604 29.3984 3.95312C29.9297 3.63021 30.5495 3.46875 31.2578 3.46875C32.3828 3.46875 33.2682 3.89062 33.9141 4.73438C34.5651 5.57292 34.8906 6.71875 34.8906 8.17188V8.59375C34.8906 10.8073 34.4531 12.4245 33.5781 13.4453C32.7031 14.4609 31.3828 14.9818 29.6172 15.0078H29.3359V13.7891H29.6406C30.8333 13.7682 31.75 13.4583 32.3906 12.8594C33.0312 12.2552 33.3802 11.3021 33.4375 10ZM31.2109 10C31.6953 10 32.1406 9.85156 32.5469 9.55469C32.9583 9.25781 33.2578 8.89062 33.4453 8.45312V7.875C33.4453 6.92708 33.2396 6.15625 32.8281 5.5625C32.4167 4.96875 31.8958 4.67188 31.2656 4.67188C30.6302 4.67188 30.1198 4.91667 29.7344 5.40625C29.349 5.89062 29.1562 6.53125 29.1562 7.32812C29.1562 8.10417 29.3411 8.74479 29.7109 9.25C30.0859 9.75 30.5859 10 31.2109 10Z" fill="#F3C13B"/>
<path d="M8.39844 110H0.945312V108.961L4.88281 104.586C5.46615 103.924 5.86719 103.388 6.08594 102.977C6.3099 102.56 6.42188 102.13 6.42188 101.688C6.42188 101.094 6.24219 100.607 5.88281 100.227C5.52344 99.8464 5.04427 99.6562 4.44531 99.6562C3.72656 99.6562 3.16667 99.862 2.76562 100.273C2.36979 100.68 2.17188 101.247 2.17188 101.977H0.726562C0.726562 100.93 1.0625 100.083 1.73438 99.4375C2.41146 98.7917 3.3151 98.4688 4.44531 98.4688C5.5026 98.4688 6.33854 98.7474 6.95312 99.3047C7.56771 99.8568 7.875 100.594 7.875 101.516C7.875 102.635 7.16146 103.969 5.73438 105.516L2.6875 108.82H8.39844V110ZM17.0625 105.148C17.0625 106.841 16.7734 108.099 16.1953 108.922C15.6172 109.745 14.7135 110.156 13.4844 110.156C12.2708 110.156 11.3724 109.755 10.7891 108.953C10.2057 108.146 9.90365 106.943 9.88281 105.344V103.414C9.88281 101.742 10.1719 100.5 10.75 99.6875C11.3281 98.875 12.2344 98.4688 13.4688 98.4688C14.6927 98.4688 15.5938 98.862 16.1719 99.6484C16.75 100.43 17.0469 101.638 17.0625 103.273V105.148ZM15.6172 103.172C15.6172 101.948 15.4453 101.057 15.1016 100.5C14.7578 99.9375 14.2135 99.6562 13.4688 99.6562C12.7292 99.6562 12.1901 99.9349 11.8516 100.492C11.513 101.049 11.3385 101.906 11.3281 103.062V105.375C11.3281 106.604 11.5052 107.513 11.8594 108.102C12.2188 108.685 12.7604 108.977 13.4844 108.977C14.1979 108.977 14.7266 108.701 15.0703 108.148C15.4193 107.596 15.6016 106.727 15.6172 105.539V103.172ZM23.6641 110H22.2109V100.367L19.2969 101.438V100.125L23.4375 98.5703H23.6641V110ZM35.0312 105.148C35.0312 106.841 34.7422 108.099 34.1641 108.922C33.5859 109.745 32.6823 110.156 31.4531 110.156C30.2396 110.156 29.3411 109.755 28.7578 108.953C28.1745 108.146 27.8724 106.943 27.8516 105.344V103.414C27.8516 101.742 28.1406 100.5 28.7188 99.6875C29.2969 98.875 30.2031 98.4688 31.4375 98.4688C32.6615 98.4688 33.5625 98.862 34.1406 99.6484C34.7188 100.43 35.0156 101.638 35.0312 103.273V105.148ZM33.5859 103.172C33.5859 101.948 33.4141 101.057 33.0703 100.5C32.7266 99.9375 32.1823 99.6562 31.4375 99.6562C30.6979 99.6562 30.1589 99.9349 29.8203 100.492C29.4818 101.049 29.3073 101.906 29.2969 103.062V105.375C29.2969 106.604 29.474 107.513 29.8281 108.102C30.1875 108.685 30.7292 108.977 31.4531 108.977C32.1667 108.977 32.6953 108.701 33.0391 108.148C33.388 107.596 33.5703 106.727 33.5859 105.539V103.172Z" fill="#F3C13B"/>
<g clip-path="url(#clip0)">
<path d="M44.456 213.107H1.09985V257.223H44.456V213.107Z" fill="#223D5C" stroke="#F3C13B" stroke-width="2.23" stroke-miterlimit="10"/>
<path d="M3.95752 215.827H10.0166" stroke="#F3C13B" stroke-width="2.23" stroke-miterlimit="10"/>
<path d="M40.2333 215.827H41.6376" stroke="#F3C13B" stroke-width="2.23" stroke-miterlimit="10"/>
<path d="M3.95752 254.067H5.05738" stroke="#F3C13B" stroke-width="2.23" stroke-miterlimit="10"/>
<path d="M40.2333 254.067H41.6376" stroke="#F3C13B" stroke-width="2.23" stroke-miterlimit="10"/>
<path d="M30.1185 216.401H14.9463C9.00214 216.401 4.18341 221.255 4.18341 227.242V242.525C4.18341 248.512 9.00214 253.366 14.9463 253.366H30.1185C36.0627 253.366 40.8814 248.512 40.8814 242.525V227.242C40.8814 221.255 36.0627 216.401 30.1185 216.401Z" fill="#EEEDEE"/>
<path opacity="0.5" d="M6.45184 248.4C6.45184 248.751 6.52075 249.099 6.65461 249.424C6.78847 249.749 6.98465 250.043 7.2319 250.291C7.47915 250.54 7.77261 250.736 8.09543 250.87C8.41825 251.003 8.76409 251.071 9.11311 251.07H35.9517C36.3007 251.071 36.6465 251.003 36.9694 250.87C37.2922 250.736 37.5856 250.54 37.8329 250.291C38.0801 250.043 38.2763 249.749 38.4102 249.424C38.544 249.099 38.613 248.751 38.6129 248.4V221.356L6.45184 248.4Z" fill="#A4C7D5"/>
<path opacity="0.5" d="M27.1233 219.408H17.9316C11.9874 219.408 7.1687 224.262 7.1687 230.249V239.508C7.1687 245.495 11.9874 250.348 17.9316 250.348H27.1233C33.0675 250.348 37.8862 245.495 37.8862 239.508V230.249C37.8862 224.262 33.0675 219.408 27.1233 219.408Z" stroke="#A4C7D5" stroke-width="0.96" stroke-miterlimit="10"/>
<path opacity="0.79" d="M33.2511 222.415H11.8235C10.9069 222.415 10.1639 223.163 10.1639 224.087V245.67C10.1639 246.593 10.9069 247.341 11.8235 247.341H33.2511C34.1677 247.341 34.9107 246.593 34.9107 245.67V224.087C34.9107 223.163 34.1677 222.415 33.2511 222.415Z" fill="#223D5C" stroke="#F3C13B" stroke-width="2.23" stroke-miterlimit="10"/>
<path d="M25.5914 223.958H19.935C15.7426 223.958 12.344 227.381 12.344 231.604V237.301C12.344 241.524 15.7426 244.948 19.935 244.948H25.5914C29.7838 244.948 33.1824 241.524 33.1824 237.301V231.604C33.1824 227.381 29.7838 223.958 25.5914 223.958Z" fill="white"/>
<path d="M39.9583 225.778H41.8831V242.445H39.9583" fill="white"/>
<path d="M3.19153 225.778H5.11628V242.445H3.19153" fill="white"/>
<path d="M30.7666 215.64V217.578H14.2196V215.64" fill="white"/>
<path d="M30.7666 252.396V254.335H14.2196V252.396" fill="white"/>
<path d="M18.4591 236.961H15.6642V236.571L17.1407 234.931C17.3595 234.683 17.5099 234.481 17.5919 234.327C17.6759 234.171 17.7179 234.01 17.7179 233.844C17.7179 233.621 17.6505 233.438 17.5157 233.296C17.381 233.153 17.2013 233.082 16.9767 233.082C16.7072 233.082 16.4972 233.159 16.3468 233.313C16.1984 233.466 16.1241 233.679 16.1241 233.952H15.5822C15.5822 233.56 15.7081 233.242 15.9601 233C16.214 232.758 16.5529 232.637 16.9767 232.637C17.3732 232.637 17.6866 232.741 17.9171 232.95C18.1476 233.157 18.2628 233.434 18.2628 233.779C18.2628 234.199 17.9952 234.699 17.4601 235.279L16.3175 236.519H18.4591V236.961ZM21.6202 233.809C21.6202 234.021 21.5636 234.211 21.4503 234.377C21.339 234.543 21.1876 234.673 20.9962 234.767C21.2189 234.862 21.3947 235.002 21.5236 235.186C21.6544 235.369 21.7198 235.577 21.7198 235.81C21.7198 236.179 21.5948 236.473 21.3448 236.691C21.0968 236.91 20.7697 237.02 20.3634 237.02C19.9532 237.02 19.6241 236.91 19.3761 236.691C19.13 236.471 19.007 236.177 19.007 235.81C19.007 235.579 19.0695 235.371 19.1945 235.186C19.3214 235 19.4962 234.859 19.7189 234.764C19.5294 234.67 19.38 234.54 19.2706 234.374C19.1613 234.208 19.1066 234.02 19.1066 233.809C19.1066 233.449 19.2218 233.164 19.4523 232.953C19.6827 232.742 19.9865 232.637 20.3634 232.637C20.7384 232.637 21.0411 232.742 21.2716 232.953C21.504 233.164 21.6202 233.449 21.6202 233.809ZM21.1779 235.798C21.1779 235.56 21.1017 235.365 20.9493 235.215C20.799 235.064 20.6017 234.989 20.3575 234.989C20.1134 234.989 19.9171 235.063 19.7687 235.212C19.6222 235.36 19.549 235.556 19.549 235.798C19.549 236.04 19.6202 236.23 19.7628 236.369C19.9073 236.508 20.1075 236.577 20.3634 236.577C20.6173 236.577 20.8165 236.508 20.9611 236.369C21.1056 236.229 21.1779 236.038 21.1779 235.798ZM20.3634 233.082C20.1505 233.082 19.9777 233.148 19.8448 233.281C19.714 233.412 19.6486 233.591 19.6486 233.817C19.6486 234.034 19.713 234.21 19.8419 234.345C19.9728 234.478 20.1466 234.544 20.3634 234.544C20.5802 234.544 20.7531 234.478 20.882 234.345C21.0128 234.21 21.0782 234.034 21.0782 233.817C21.0782 233.601 21.0109 233.424 20.8761 233.287C20.7413 233.15 20.5704 233.082 20.3634 233.082ZM22.9708 233.791L22.9884 234.189C23.2306 233.885 23.547 233.732 23.9376 233.732C24.6075 233.732 24.9454 234.11 24.9513 234.866V236.961H24.4093V234.863C24.4073 234.635 24.3546 234.466 24.2511 234.356C24.1495 234.247 23.9904 234.192 23.7736 234.192C23.5978 234.192 23.4435 234.239 23.3107 234.333C23.1779 234.427 23.0743 234.55 23.0001 234.702V236.961H22.4581V233.791H22.9708ZM26.2784 233.791L26.2931 234.143C26.5255 233.869 26.839 233.732 27.2335 233.732C27.6769 233.732 27.9786 233.902 28.1388 234.242C28.2443 234.09 28.381 233.967 28.549 233.873C28.7189 233.779 28.9191 233.732 29.1495 233.732C29.8448 233.732 30.1984 234.101 30.2101 234.837V236.961H29.6681V234.869C29.6681 234.643 29.6163 234.474 29.5128 234.362C29.4093 234.249 29.2355 234.192 28.9913 234.192C28.7902 234.192 28.6232 234.253 28.4904 234.374C28.3575 234.493 28.2804 234.654 28.2589 234.857V236.961H27.714V234.884C27.714 234.423 27.4884 234.192 27.0372 234.192C26.6818 234.192 26.4386 234.344 26.3077 234.646V236.961H25.7657V233.791H26.2784Z" fill="#231F20"/>
</g>
<path d="M51.5625 230C51.5859 229.086 51.7822 228.251 52.1514 227.495C52.5088 226.646 53.3525 225.746 54.6826 224.797C55.8369 223.971 56.584 223.379 56.9238 223.021C57.4453 222.465 57.7061 221.855 57.7061 221.193C57.7061 220.654 57.5566 220.206 57.2578 219.849C56.959 219.491 56.5312 219.312 55.9746 219.312C55.2129 219.312 54.6943 219.597 54.4189 220.165C54.2607 220.493 54.167 221.015 54.1377 221.729H51.7031C51.7441 220.646 51.9404 219.77 52.292 219.102C52.96 217.83 54.1465 217.194 55.8516 217.194C57.1992 217.194 58.2715 217.569 59.0684 218.319C59.8652 219.063 60.2637 220.051 60.2637 221.281C60.2637 222.225 59.9824 223.062 59.4199 223.795C59.0508 224.281 58.4443 224.823 57.6006 225.421L56.5986 226.133C55.9717 226.578 55.541 226.9 55.3066 227.1C55.0781 227.299 54.8848 227.53 54.7266 227.794H60.29V230H51.5625ZM64.0957 226.3C64.0957 226.927 64.2568 227.413 64.5791 227.759C64.9072 228.104 65.3584 228.277 65.9326 228.277C66.5068 228.277 66.9551 228.104 67.2773 227.759C67.6055 227.413 67.7695 226.927 67.7695 226.3C67.7695 225.649 67.6025 225.157 67.2686 224.823C66.9404 224.483 66.4951 224.313 65.9326 224.313C65.3701 224.313 64.9219 224.483 64.5879 224.823C64.2598 225.157 64.0957 225.649 64.0957 226.3ZM61.4941 226.467C61.4941 225.752 61.6553 225.104 61.9775 224.524C62.3057 223.944 62.7832 223.508 63.4102 223.215C62.7949 222.805 62.3936 222.362 62.2061 221.888C62.0244 221.407 61.9336 220.959 61.9336 220.543C61.9336 219.617 62.2822 218.829 62.9795 218.179C63.6768 217.522 64.6611 217.194 65.9326 217.194C67.2041 217.194 68.1885 217.522 68.8857 218.179C69.583 218.829 69.9316 219.617 69.9316 220.543C69.9316 220.959 69.8379 221.407 69.6504 221.888C69.4688 222.362 69.0703 222.775 68.4551 223.127C69.082 223.479 69.5537 223.944 69.8701 224.524C70.1865 225.104 70.3447 225.752 70.3447 226.467C70.3447 227.539 69.9463 228.453 69.1494 229.209C68.3584 229.959 67.251 230.334 65.8271 230.334C64.4033 230.334 63.3252 229.959 62.5928 229.209C61.8604 228.453 61.4941 227.539 61.4941 226.467ZM64.3242 220.824C64.3242 221.287 64.4648 221.665 64.7461 221.958C65.0332 222.251 65.4287 222.397 65.9326 222.397C66.4424 222.397 66.835 222.251 67.1104 221.958C67.3916 221.665 67.5322 221.287 67.5322 220.824C67.5322 220.32 67.3916 219.928 67.1104 219.646C66.835 219.359 66.4424 219.216 65.9326 219.216C65.4287 219.216 65.0332 219.359 64.7461 219.646C64.4648 219.928 64.3242 220.32 64.3242 220.824ZM75.0891 226.796C74.4231 227.912 73.1991 229.046 71.9931 229.784C72.4971 230.09 73.3071 230.738 73.7031 231.116C74.9091 230.252 76.2771 228.83 77.1411 227.408L75.0891 226.796ZM86.5011 226.13V224.258H73.5951V226.13H78.9591V229.46C78.9591 229.676 78.8871 229.748 78.5991 229.748C78.3291 229.766 77.3031 229.766 76.4571 229.712C76.7631 230.234 77.1051 230.99 77.2131 231.566C78.4911 231.566 79.4451 231.548 80.1831 231.26C80.9031 230.972 81.1371 230.504 81.1371 229.532V226.13H86.5011ZM82.4871 227.714C83.6571 228.74 85.0791 230.216 85.7091 231.134L87.5631 230.036C86.8611 229.082 85.3671 227.696 84.2151 226.742L82.4871 227.714ZM81.2631 218.768C81.7671 219.56 82.3611 220.316 83.0271 221H77.0871C77.7891 220.298 78.3651 219.542 78.8691 218.768H81.2631ZM87.8871 218.768V216.842H79.9311C80.1831 216.248 80.4171 215.672 80.6151 215.06L78.2751 214.754C78.0951 215.456 77.8431 216.158 77.5011 216.842H72.1731V218.768H76.2771C75.1251 220.19 73.5411 221.45 71.3451 222.404C71.8311 222.746 72.5331 223.538 72.8031 224.06C74.2071 223.376 75.3951 222.566 76.3851 221.666V222.818H83.6031V221.576C84.6651 222.548 85.8711 223.394 87.1491 223.934C87.4551 223.412 88.1211 222.602 88.6071 222.188C86.6811 221.486 84.8091 220.226 83.5671 218.768H87.8871ZM104.325 215.528C103.767 216.968 102.777 218.804 101.931 219.992L103.803 220.82C104.685 219.74 105.783 218.048 106.719 216.464L104.325 215.528ZM96.3693 219.722C95.9733 218.57 94.9653 216.878 93.9753 215.618L92.0133 216.482C92.9673 217.778 93.9213 219.542 94.2453 220.676L96.3693 219.722ZM107.295 223.628V221.45H100.383V214.772H98.0793V221.45H91.1853V223.628H96.6213C95.1813 225.824 92.9133 227.984 90.7173 229.19C91.2213 229.622 91.9233 230.45 92.3013 230.99C94.4073 229.622 96.5133 227.462 98.0793 225.068V231.584H100.383V224.996C101.985 227.354 104.091 229.514 106.179 230.9C106.575 230.306 107.295 229.478 107.817 229.046C105.657 227.84 103.371 225.77 101.877 223.628H107.295ZM125.857 214.88H123.913V222.044C123.913 222.26 123.841 222.332 123.571 222.332C123.319 222.35 122.455 222.35 121.645 222.314C121.897 222.782 122.185 223.502 122.275 224.006C123.517 224.006 124.399 223.988 125.029 223.718C125.677 223.448 125.857 222.998 125.857 222.08V214.88ZM121.951 215.474H120.043V221.468H121.951V215.474ZM124.057 226.13C123.337 226.652 122.347 227.246 121.501 227.678C120.997 227.228 120.565 226.706 120.223 226.13H124.057ZM111.853 217.994C112.015 217.778 112.159 217.526 112.303 217.274H114.013V217.994H111.853ZM124.705 226.13H126.505V224.438H119.485V223.502H117.577C117.901 223.484 118.189 223.43 118.423 223.322C118.891 223.106 119.017 222.782 119.017 222.098V220.064H115.831V219.434H119.305V217.994H115.831V217.274H118.819V215.906H115.831V214.754H114.013V215.906H112.987C113.095 215.654 113.185 215.42 113.275 215.168L111.709 214.772C111.403 215.708 110.899 216.68 110.305 217.364C110.593 217.508 111.061 217.778 111.421 217.994H110.323V219.434H114.013V220.064H111.043V223.592H112.663V221.36H114.013V223.988H115.831V221.36H117.307V222.098C117.307 222.242 117.253 222.296 117.091 222.296C116.965 222.296 116.533 222.296 116.119 222.278C116.299 222.62 116.551 223.106 116.641 223.52C116.911 223.52 117.145 223.52 117.361 223.52V224.438H110.359V226.13H115.615C114.067 226.85 112.033 227.372 110.053 227.642C110.431 228.038 110.935 228.74 111.187 229.19C112.195 229.01 113.203 228.758 114.157 228.434V229.442C113.509 229.514 112.897 229.586 112.375 229.64L112.681 231.386C114.661 231.098 117.343 230.738 119.881 230.378L119.809 228.704C118.603 228.866 117.379 229.028 116.209 229.172V227.606C116.983 227.228 117.703 226.796 118.333 226.328C119.683 229.19 121.933 230.882 125.677 231.602C125.929 231.08 126.433 230.306 126.847 229.892C125.317 229.658 124.021 229.262 122.941 228.686C123.895 228.236 124.993 227.642 125.911 227.03L124.705 226.13ZM143.052 219.704H138.858V217.22H143.052V219.704ZM145.14 215.42H136.878V221.504H145.14V215.42ZM136.356 224.672C136.014 224.276 134.538 222.71 134.052 222.314V221.792H135.978V219.794H134.052V217.256C134.826 217.058 135.546 216.824 136.194 216.572L134.772 214.934C133.386 215.564 131.172 216.086 129.192 216.428C129.426 216.86 129.678 217.58 129.786 218.066C130.488 217.976 131.226 217.85 131.982 217.706V219.794H129.408V221.792H131.694C131.028 223.538 130.038 225.446 129.03 226.616C129.372 227.156 129.822 228.038 130.02 228.65C130.722 227.75 131.406 226.472 131.982 225.086V231.548H134.052V224.528C134.484 225.176 134.916 225.878 135.132 226.346L136.356 224.672ZM142.008 229.298V227.714H145.194V225.914H142.008V224.42H145.626V222.584H136.302V224.42H139.884V225.914H136.734V227.714H139.884V229.298H135.6V231.17H146.004V229.298H142.008ZM154.414 222.404L152.758 222.818V220.154H154.522V218.174H152.758V214.772H150.634V218.174H148.564V220.154H150.634V223.34C149.77 223.556 148.996 223.718 148.33 223.862L148.888 225.896L150.634 225.464V229.172C150.634 229.442 150.544 229.532 150.292 229.532C150.058 229.532 149.32 229.532 148.618 229.514C148.87 230.072 149.14 230.918 149.212 231.458C150.49 231.458 151.354 231.404 151.948 231.08C152.56 230.738 152.758 230.234 152.758 229.19V224.888C153.406 224.726 154.054 224.546 154.684 224.366L154.414 222.404ZM161.956 223.376C161.416 224.6 160.624 225.68 159.688 226.562C158.788 225.644 158.068 224.564 157.564 223.376H161.956ZM163.288 221.36L162.91 221.45H160.75V219.29H164.782V217.31H160.75V214.736H158.626V217.31H154.756V219.29H158.626V221.45H155.08V223.376H156.016L155.476 223.538C156.142 225.194 156.988 226.616 158.032 227.822C156.772 228.632 155.314 229.208 153.73 229.586C154.126 230.054 154.63 230.954 154.864 231.53C156.628 231.008 158.212 230.288 159.616 229.316C160.876 230.306 162.352 231.062 164.098 231.584C164.404 231.026 165.016 230.162 165.466 229.73C163.864 229.334 162.478 228.74 161.29 227.912C162.82 226.4 163.972 224.42 164.656 221.936L163.288 221.36ZM184.118 215.726H179.852V217.598H184.118V215.726ZM179.672 217.67C179.456 217.004 178.916 215.996 178.448 215.222L177.026 215.816C177.494 216.608 177.998 217.67 178.214 218.336L179.672 217.67ZM170.492 214.772C169.862 215.906 168.62 217.328 167.468 218.21C167.792 218.57 168.314 219.362 168.566 219.812C169.952 218.714 171.464 217.022 172.418 215.456L170.492 214.772ZM172.706 222.26C172.598 224.474 172.364 226.724 171.716 228.164C172.112 228.398 172.85 228.902 173.156 229.154C173.858 227.516 174.236 225.014 174.416 222.512L172.706 222.26ZM179.222 220.532V218.57H176.9V215.024H174.92V218.57H172.526V219.092L170.906 218.534C170.06 220.388 168.674 222.26 167.252 223.448C167.63 223.898 168.206 224.978 168.404 225.428C168.764 225.086 169.142 224.708 169.502 224.294V231.566H171.482V221.63C171.86 221.036 172.22 220.406 172.526 219.794V220.532H174.92V231.278H176.9V220.532H179.222ZM177.242 222.602C177.584 224.312 177.908 226.526 177.962 227.966L179.618 227.642C179.51 226.184 179.186 224.024 178.808 222.296L177.242 222.602ZM184.388 220.784H179.402V222.692H180.968V229.208C180.968 229.442 180.896 229.496 180.662 229.496C180.446 229.496 179.69 229.496 178.952 229.46C179.222 230.09 179.474 230.954 179.528 231.548C180.716 231.548 181.598 231.512 182.228 231.17C182.858 230.828 183.002 230.252 183.002 229.244V222.692H184.388V220.784ZM57.372 240.968V241.886H54.546V240.968H57.372ZM54.546 244.262V243.29H57.372V244.262H54.546ZM59.388 245.81V239.438H52.458V255.566H54.546V245.81H59.388ZM59.1 249.77V248.42H60.774V249.77H59.1ZM64.626 251.516V249.77H62.646V248.42H64.338V246.728H55.644V248.42H57.282V249.77H55.392V251.516H57.21C57.03 252.434 56.526 253.604 55.374 254.324C55.788 254.612 56.436 255.17 56.742 255.548C58.272 254.504 58.866 252.758 59.046 251.516H60.774V255.224H62.646V251.516H64.626ZM62.61 244.298V243.29H65.526V244.298H62.61ZM65.526 240.968V241.886H62.61V240.968H65.526ZM67.632 239.438H60.576V245.846H65.526V253.046C65.526 253.298 65.436 253.406 65.148 253.406C64.878 253.424 63.996 253.424 63.186 253.388C63.474 253.946 63.762 254.918 63.834 255.512C65.202 255.512 66.138 255.458 66.786 255.098C67.434 254.756 67.632 254.162 67.632 253.064V239.438ZM76.65 244.676L76.866 246.728C78.918 246.584 81.744 246.386 84.426 246.17C84.624 246.62 84.768 247.034 84.876 247.412L86.73 246.422C86.298 245.054 85.11 243.056 83.994 241.544L82.302 242.408C82.698 242.984 83.094 243.632 83.472 244.298C82.356 244.352 81.258 244.424 80.214 244.478C80.88 242.912 81.564 240.95 82.14 239.168L79.764 238.754C79.422 240.518 78.774 242.84 78.126 244.604L76.65 244.676ZM74.634 244.298C74.418 246.134 74.076 247.772 73.554 249.158C73.068 248.816 72.582 248.492 72.114 248.204C72.42 246.98 72.744 245.648 73.05 244.298H74.634ZM75.48 242.282L75.12 242.336H73.482C73.734 241.166 73.968 240.014 74.166 238.952L72.15 238.754C71.97 239.87 71.736 241.094 71.484 242.336H69.756V244.298H71.07C70.62 246.386 70.134 248.384 69.702 249.86L71.43 250.796L71.61 250.166C71.97 250.418 72.348 250.706 72.708 250.994C71.952 252.308 70.962 253.298 69.774 253.928C70.188 254.324 70.764 255.098 71.07 255.638C72.402 254.81 73.482 253.73 74.328 252.344C74.976 252.938 75.534 253.532 75.912 254.036L77.19 252.326C76.74 251.75 76.056 251.102 75.264 250.454C76.074 248.366 76.56 245.756 76.758 242.48L75.48 242.282ZM83.598 249.986V252.938H79.818V249.986H83.598ZM77.802 255.566H79.818V254.864H83.598V255.494H85.722V248.06H77.802V255.566ZM99.672 240.986H92.202V240.41H99.672V240.986ZM99.672 242.642H92.202V242.048H99.672V242.642ZM101.832 239.294H90.132V243.74H101.832V239.294ZM104.172 244.28H87.882V245.81H104.172V244.28ZM91.824 249.806V249.176H94.956V249.806H91.824ZM91.824 247.484H94.956V248.114H91.824V247.484ZM100.158 248.114H97.008V247.484H100.158V248.114ZM100.158 249.806H97.008V249.176H100.158V249.806ZM97.008 253.568V252.92H102.588V251.534H97.008V250.958H102.246V246.35H89.808V250.958H94.956V251.534H89.448V252.92H94.956V253.568H87.846V255.116H104.208V253.568H97.008ZM114.702 249.356V250.508H110.94V252.128H114.702V253.496H109.41V255.224H122.046V253.496H116.808V252.128H120.624V250.508H116.808V249.356H121.164V247.682H116.808V246.494H114.702V247.682H112.722C112.866 247.376 112.992 247.052 113.1 246.746L111.228 246.296C110.796 247.574 110.022 248.798 109.104 249.59C109.554 249.86 110.31 250.4 110.67 250.724C111.048 250.346 111.426 249.878 111.768 249.356H114.702ZM111.408 244.568C112.47 244.334 113.568 244.046 114.594 243.722C115.548 244.01 116.43 244.298 117.204 244.568H111.408ZM116.358 241.652C115.836 241.886 115.242 242.12 114.612 242.318C113.73 242.084 112.848 241.85 112.002 241.652H116.358ZM122.19 244.568H118.518L119.418 243.812C118.662 243.542 117.744 243.236 116.736 242.93C117.51 242.606 118.212 242.246 118.806 241.868L118.41 241.652H121.326V239.978H115.026V238.772H112.884V239.978H106.89V241.652H110.274L109.356 242.336C110.238 242.534 111.174 242.768 112.128 243.02C110.958 243.29 109.77 243.506 108.69 243.668C108.852 243.884 109.086 244.244 109.266 244.568H107.016V247.574C107.016 249.572 106.872 252.416 105.432 254.432C105.882 254.684 106.764 255.386 107.106 255.782C108.78 253.514 109.104 249.968 109.104 247.592V246.296H122.19V244.568Z" fill="#F3C13B"/>
<defs>
<clipPath id="clip0">
<rect width="45.546" height="46.3313" fill="white" transform="translate(0 212)"/>
</clipPath>
</defs>
</svg>
