<svg xmlns="http://www.w3.org/2000/svg" width="145.306" height="146.734" viewBox="0 0 145.306 146.734"><g transform="translate(-270.532 -7650.749)"><rect width="138.306" height="139.735" transform="translate(274.032 7654.249)" fill="#0c143b" stroke="#f4bf1d" stroke-miterlimit="10" stroke-width="7"/><line x2="19.318" transform="translate(283.172 7662.883)" fill="#0c143b" stroke="#f4bf1d" stroke-miterlimit="10" stroke-width="7"/><line x2="4.479" transform="translate(398.882 7662.883)" fill="#0c143b" stroke="#f4bf1d" stroke-miterlimit="10" stroke-width="7"/><line x2="3.495" transform="translate(283.172 7783.998)" fill="#0c143b" stroke="#f4bf1d" stroke-miterlimit="10" stroke-width="7"/><line x2="4.479" transform="translate(398.882 7783.998)" fill="#0c143b" stroke="#f4bf1d" stroke-miterlimit="10" stroke-width="7"/><path d="M34.336,0H82.742a34.335,34.335,0,0,1,34.335,34.335V82.742a34.335,34.335,0,0,1-34.335,34.335H34.336A34.336,34.336,0,0,1,0,82.742V34.336A34.336,34.336,0,0,1,34.336,0Z" transform="translate(283.876 7664.68)" fill="#f1f0ed"/><path d="M291.127,7766.04a8.466,8.466,0,0,0,8.467,8.466h85.642a8.466,8.466,0,0,0,8.466-8.466V7680.4Z" fill="#a6c5c8" opacity="0.5"/><path d="M34.336,0H63.674A34.335,34.335,0,0,1,98.01,34.335V63.674A34.335,34.335,0,0,1,63.674,98.01H34.336A34.336,34.336,0,0,1,0,63.674V34.336A34.336,34.336,0,0,1,34.336,0Z" transform="translate(293.41 7674.214)" fill="none" stroke="#a6c5c8" stroke-miterlimit="10" stroke-width="3" opacity="0.5"/><rect width="78.942" height="78.942" rx="5.299" transform="translate(302.944 7683.748)" fill="#0c143b" stroke="#f4bf1d" stroke-miterlimit="10" stroke-width="7" opacity="0.79"/><rect width="66.474" height="66.474" rx="24.208" transform="translate(309.899 7688.619)" fill="#fff"/><path d="M398.005,7694.388h6.137v52.8h-6.137" fill="#fff"/><line x1="6.137" transform="translate(398.005 7747.185)" fill="#fff"/><path d="M280.713,7694.388h6.137v52.8h-6.137" fill="#fff"/><path d="M368.681,7662.269v6.137h-52.8v-6.137" fill="#fff"/><path d="M368.681,7778.689v6.137h-52.8v-6.137" fill="#fff"/><text transform="translate(326.249 7726.512)" font-size="17.042" font-family="Helvetica"><tspan x="0" y="0">5nm</tspan></text></g></svg>